
<svg width="1609" height="1155" viewBox="0 0 1609 1155" fill="none" xmlns="http://www.w3.org/2000/svg">
<g id="11" clip-path="url(#clip0)">
<rect width="1609" height="1155" fill="#F0F4F6"/>
<g id="11_2" clip-path="url(#clip1)">
<g id="Group 8">
<rect id="Rectangle Copy 2" width="402" height="382" rx="2" transform="matrix(-1 0 0 1 563.037 32)" fill="white" stroke="#372898" stroke-width="2" stroke-linecap="round"/>
<g id="Group 7">
<g id="Combined Shape">
<path fill-rule="evenodd" clip-rule="evenodd" d="M336 215.5C305.072 215.5 280 240.572 280 271.5C280 292.655 291.73 311.069 309.04 320.595C309.014 320.893 309 321.195 309 321.5V334.5C309 340.023 313.477 344.5 319 344.5C324.523 344.5 329 340.023 329 334.5V327.067C331.293 327.353 333.629 327.5 336 327.5H373C375.371 327.5 377.707 327.353 380 327.067V334.5C380 340.023 384.477 344.5 390 344.5C395.523 344.5 400 340.023 400 334.5V321.5C400 321.195 399.986 320.893 399.96 320.595C409.259 315.478 416.948 307.795 422.073 298.5H440.5L444.5 267H428.822C427.34 248.367 416.738 232.303 401.481 223.273L400 215.5L393.142 219.232C386.892 216.821 380.1 215.5 373 215.5H336Z" fill="white"/>
<path d="M309.04 320.595L310.036 320.685L310.095 320.034L309.522 319.719L309.04 320.595ZM329 327.067L329.124 326.074L328 325.934V327.067H329ZM380 327.067H381V325.934L379.876 326.074L380 327.067ZM399.96 320.595L399.478 319.719L398.905 320.034L398.964 320.685L399.96 320.595ZM422.073 298.5V297.5H421.482L421.197 298.017L422.073 298.5ZM440.5 298.5V299.5H441.381L441.492 298.626L440.5 298.5ZM444.5 267L445.492 267.126L445.635 266H444.5V267ZM428.822 267L427.825 267.079L427.898 268H428.822V267ZM401.481 223.273L400.498 223.46L400.583 223.904L400.971 224.134L401.481 223.273ZM400 215.5L400.982 215.313L400.726 213.967L399.522 214.622L400 215.5ZM393.142 219.232L392.782 220.165L393.214 220.331L393.62 220.11L393.142 219.232ZM281 271.5C281 241.124 305.624 216.5 336 216.5V214.5C304.52 214.5 279 240.02 279 271.5H281ZM309.522 319.719C292.519 310.362 281 292.275 281 271.5H279C279 293.034 290.941 311.777 308.558 321.471L309.522 319.719ZM310 321.5C310 321.225 310.012 320.953 310.036 320.685L308.044 320.506C308.015 320.834 308 321.165 308 321.5H310ZM310 334.5V321.5H308V334.5H310ZM319 343.5C314.029 343.5 310 339.471 310 334.5H308C308 340.575 312.925 345.5 319 345.5V343.5ZM328 334.5C328 339.471 323.971 343.5 319 343.5V345.5C325.075 345.5 330 340.575 330 334.5H328ZM328 327.067V334.5H330V327.067H328ZM336 326.5C333.671 326.5 331.376 326.355 329.124 326.074L328.876 328.059C331.21 328.35 333.588 328.5 336 328.5V326.5ZM373 326.5H336V328.5H373V326.5ZM379.876 326.074C377.624 326.355 375.329 326.5 373 326.5V328.5C375.412 328.5 377.79 328.35 380.124 328.059L379.876 326.074ZM381 334.5V327.067H379V334.5H381ZM390 343.5C385.029 343.5 381 339.471 381 334.5H379C379 340.575 383.925 345.5 390 345.5V343.5ZM399 334.5C399 339.471 394.971 343.5 390 343.5V345.5C396.075 345.5 401 340.575 401 334.5H399ZM399 321.5V334.5H401V321.5H399ZM398.964 320.685C398.988 320.953 399 321.225 399 321.5H401C401 321.165 400.985 320.834 400.956 320.506L398.964 320.685ZM421.197 298.017C416.164 307.146 408.611 314.693 399.478 319.719L400.442 321.471C409.907 316.263 417.732 308.443 422.949 298.983L421.197 298.017ZM440.5 297.5H422.073V299.5H440.5V297.5ZM443.508 266.874L439.508 298.374L441.492 298.626L445.492 267.126L443.508 266.874ZM428.822 268H444.5V266H428.822V268ZM400.971 224.134C415.959 233.004 426.37 248.782 427.825 267.079L429.819 266.921C428.31 247.952 417.517 231.602 401.99 222.412L400.971 224.134ZM399.018 215.687L400.498 223.46L402.463 223.086L400.982 215.313L399.018 215.687ZM393.62 220.11L400.478 216.378L399.522 214.622L392.664 218.353L393.62 220.11ZM373 216.5C379.975 216.5 386.645 217.798 392.782 220.165L393.502 218.299C387.138 215.845 380.225 214.5 373 214.5V216.5ZM336 216.5H373V214.5H336V216.5Z" fill="#1D0F74"/>
</g>
<g id="Path 180">
<path fill-rule="evenodd" clip-rule="evenodd" d="M355 168V209L342.5 198" fill="white"/>
<path d="M355 168V209L342.5 198" stroke="#1D0F74" stroke-width="2" stroke-linecap="round"/>
</g>
<g id="Path 181">
<path fill-rule="evenodd" clip-rule="evenodd" d="M355 209L366 198.5Z" fill="white"/>
<path d="M355 209L366 198.5" stroke="#1D0F74" stroke-width="2" stroke-linecap="round"/>
</g>
<path id="Oval" fill-rule="evenodd" clip-rule="evenodd" d="M355.5 168C374.002 168 389 153.002 389 134.5C389 115.998 374.002 101 355.5 101C336.998 101 322 115.998 322 134.5C322 153.002 336.998 168 355.5 168Z" fill="white" stroke="#1D0F74" stroke-width="2" stroke-linecap="round"/>
<path id="Oval_2" fill-rule="evenodd" clip-rule="evenodd" d="M400 252C402.209 252 404 250.209 404 248C404 245.791 402.209 244 400 244C397.791 244 396 245.791 396 248C396 250.209 397.791 252 400 252Z" fill="white" stroke="#1D0F74" stroke-width="2" stroke-linecap="round"/>
<g id="Path 182">
<path fill-rule="evenodd" clip-rule="evenodd" d="M344 222H365.5Z" fill="white"/>
<path d="M344 222H365.5" stroke="#1D0F74" stroke-width="2" stroke-linecap="round"/>
</g>
<g id="Path 183">
<path fill-rule="evenodd" clip-rule="evenodd" d="M364.794 128.1L362.978 125.991C358.734 121.063 351.264 120.603 346.448 124.972V124.972C344.728 126.532 344.997 129.308 346.983 130.509L355.235 135.5L358.823 137.043C363.662 139.124 364.825 145.461 361.039 149.124V149.124C358.215 151.856 353.746 151.897 350.873 149.216L345.294 144.01" fill="white"/>
<path d="M364.794 128.1L362.978 125.991C358.734 121.063 351.264 120.603 346.448 124.972V124.972C344.728 126.532 344.997 129.308 346.983 130.509L355.235 135.5L358.823 137.043C363.662 139.124 364.825 145.461 361.039 149.124V149.124C358.215 151.856 353.746 151.897 350.873 149.216L345.294 144.01" stroke="#1D0F74" stroke-width="2" stroke-linecap="round"/>
</g>
<g id="Path 184">
<path fill-rule="evenodd" clip-rule="evenodd" d="M353.5 114V155Z" fill="white"/>
<path d="M353.5 114V155" stroke="#1D0F74" stroke-width="2" stroke-linecap="round"/>
</g>
<g id="Path 184 Copy">
<path fill-rule="evenodd" clip-rule="evenodd" d="M357.25 114V155Z" fill="white"/>
<path d="M357.25 114V155" stroke="#1D0F74" stroke-width="2" stroke-linecap="round"/>
</g>
</g>
</g>
<rect id="Rectangle" width="403" height="382" rx="2" transform="matrix(-1 0 0 1 1080.05 32)" fill="white" stroke="#372898" stroke-width="2" stroke-linecap="round"/>
<g id="Path 23 + Path 23 Copy 2 + Path 23 Copy Mask">
<rect id="Mask" x="1188" y="32" width="401" height="383" fill="#BDD2FF"/>
<mask id="mask0" mask-type="alpha" maskUnits="userSpaceOnUse" x="1188" y="32" width="401" height="383">
<rect id="Mask_2" x="1188" y="32" width="401" height="383" fill="white"/>
</mask>
<g mask="url(#mask0)">
<path id="Path 23 Copy 2" d="M1392.02 232.416C1392.02 232.416 1537 87.6391 1611.64 102.157C1686.29 116.674 1670.21 199.453 1595.56 184.935C1520.92 170.418 1278.72 146.531 1278.49 73.3507C1278.26 0.170315 1407.51 -9.52078 1407.51 -9.52078L1421.66 -19.305" stroke="#4372D6" stroke-width="2"/>
<path id="Path 23 Copy" d="M1394.37 230.204C1394.37 230.204 1245.57 377.776 1170.9 363.332C1096.23 348.889 1112.55 265.428 1187.23 279.872C1261.9 294.315 1504.25 317.782 1504.27 391.529C1504.3 465.276 1374.91 475.365 1374.91 475.365" stroke="#4372D6" stroke-width="2"/>
</g>
</g>
<path id="Rectangle_2" fill-rule="evenodd" clip-rule="evenodd" d="M1023.93 407.617L1045.88 395.532C1048.55 394.063 1051.91 395.062 1053.34 397.752V397.752C1054.62 400.17 1053.92 403.167 1051.69 404.76L1031.27 419.36L1040.32 430.968C1045.17 437.179 1042.82 446.293 1035.57 449.386L989.595 469.014C989.504 469.052 989.411 469.084 989.316 469.109L979.215 471.754L969.983 443.604C969.698 442.734 970.039 441.781 970.812 441.291L1023.93 407.617Z" fill="white" stroke="#372898" stroke-width="2" stroke-linecap="round"/>
<g id="Group">
<g id="Combined Shape_2">
<path fill-rule="evenodd" clip-rule="evenodd" d="M1122.86 1030.75L1104.61 1009.37L1131.16 979.152L1154.9 1008.62L1122.86 1030.75ZM873.308 1092L868.808 1060H913.308V1096L873.308 1092Z" fill="white"/>
<path d="M1104.61 1009.37L1103.85 1010.02L1103.28 1009.36L1103.86 1008.71L1104.61 1009.37ZM1122.86 1030.75L1123.43 1031.57L1122.69 1032.09L1122.1 1031.4L1122.86 1030.75ZM1131.16 979.152L1130.41 978.492L1131.2 977.599L1131.94 978.525L1131.16 979.152ZM1154.9 1008.62L1155.67 1008L1156.35 1008.84L1155.46 1009.45L1154.9 1008.62ZM868.808 1060L867.818 1060.14L867.657 1059H868.808V1060ZM873.308 1092L873.208 1093L872.427 1092.92L872.318 1092.14L873.308 1092ZM913.308 1060V1059H914.308V1060H913.308ZM913.308 1096H914.308V1097.1L913.208 1097L913.308 1096ZM1105.37 1008.72L1123.62 1030.1L1122.1 1031.4L1103.85 1010.02L1105.37 1008.72ZM1131.91 979.812L1105.36 1010.03L1103.86 1008.71L1130.41 978.492L1131.91 979.812ZM1154.12 1009.25L1130.38 979.779L1131.94 978.525L1155.67 1008L1154.12 1009.25ZM1122.29 1029.93L1154.33 1007.8L1155.46 1009.45L1123.43 1031.57L1122.29 1029.93ZM869.798 1059.86L874.298 1091.86L872.318 1092.14L867.818 1060.14L869.798 1059.86ZM913.308 1061H868.808V1059H913.308V1061ZM912.308 1096V1060H914.308V1096H912.308ZM873.407 1091L913.407 1095L913.208 1097L873.208 1093L873.407 1091Z" fill="#372898"/>
</g>
<path id="Combined Shape_3" fill-rule="evenodd" clip-rule="evenodd" d="M1139.79 1054.19L1118.88 1027.32C1118.88 1027.32 1130.72 1026.57 1139.93 1014.6C1149.13 1002.63 1147.76 995.434 1147.76 995.434C1147.76 995.434 1160.1 989.019 1164.11 987.909C1167.01 987.108 1169.42 986.656 1171.58 986.254C1176.14 985.402 1179.53 984.769 1183.8 981.522C1213.13 959.215 1217.99 965.614 1220.76 969.258C1220.79 969.304 1220.83 969.35 1220.86 969.395C1223.61 973.009 1218.77 982.418 1218.77 982.418L1185.96 1018.62L1168.67 1037.71L1147.5 1061.08L1139.79 1054.19ZM865.308 1114.7L871.406 1081.27C871.406 1081.27 879.888 1089.52 894.999 1088.31C910.111 1087.1 914.577 1081.27 914.577 1081.27C914.577 1081.27 927.626 1086.09 931.143 1088.31C933.678 1089.91 935.633 1091.4 937.378 1092.72C941.063 1095.51 943.807 1097.6 949.091 1098.58C985.401 1105.31 983.867 1113.18 982.994 1117.67C982.983 1117.72 982.972 1117.78 982.962 1117.83C982.1 1122.29 971.82 1125 971.82 1125H922.798H896.949H865.308V1114.7Z" fill="#372898"/>
</g>
<path id="Shape" d="M784.308 1125L718.16 777H603.407L541.308 1125" stroke="#372898" stroke-width="2"/>
<g id="Combined Shape_4">
<path fill-rule="evenodd" clip-rule="evenodd" d="M603.608 471C569.201 471 541.308 498.893 541.308 533.301V709.5C541.308 742.576 565.097 770.095 596.499 775.88C599.365 776.611 602.368 777 605.462 777H608.808H634.862H764.154C784.121 777 800.308 760.813 800.308 740.846C800.308 720.879 784.121 704.692 764.154 704.692H702.204C701.987 701.745 701.574 698.771 700.954 695.785L664.609 520.642C658.609 491.729 633.137 471 603.608 471Z" fill="white"/>
<path d="M596.499 775.88L596.746 774.911L596.713 774.903L596.68 774.897L596.499 775.88ZM702.204 704.692L701.207 704.765L701.275 705.692H702.204V704.692ZM700.954 695.785L699.975 695.988L699.975 695.988L700.954 695.785ZM664.609 520.642L665.588 520.439L665.588 520.439L664.609 520.642ZM542.308 533.301C542.308 499.445 569.753 472 603.608 472V470C568.648 470 540.308 498.341 540.308 533.301H542.308ZM542.308 709.5V533.301H540.308V709.5H542.308ZM596.68 774.897C565.744 769.197 542.308 742.084 542.308 709.5H540.308C540.308 743.067 564.45 770.992 596.318 776.864L596.68 774.897ZM605.462 776C602.452 776 599.532 775.622 596.746 774.911L596.252 776.849C599.198 777.601 602.284 778 605.462 778V776ZM608.808 776H605.462V778H608.808V776ZM634.862 776H608.808V778H634.862V776ZM764.154 776H634.862V778H764.154V776ZM799.308 740.846C799.308 760.261 783.569 776 764.154 776V778C784.673 778 801.308 761.366 801.308 740.846H799.308ZM764.154 705.692C783.569 705.692 799.308 721.431 799.308 740.846H801.308C801.308 720.326 784.673 703.692 764.154 703.692V705.692ZM702.204 705.692H764.154V703.692H702.204V705.692ZM699.975 695.988C700.586 698.932 700.993 701.862 701.207 704.765L703.201 704.618C702.981 701.628 702.562 698.611 701.933 695.582L699.975 695.988ZM663.63 520.845L699.975 695.988L701.933 695.582L665.588 520.439L663.63 520.845ZM603.608 472C632.663 472 657.726 492.397 663.63 520.845L665.588 520.439C659.492 491.062 633.611 470 603.608 470V472Z" fill="#372898"/>
</g>
<g id="Group 3">
<g id="Path 78">
<g id="Path 36">
<path id="Mask_3" fill-rule="evenodd" clip-rule="evenodd" d="M785.808 599L922.252 646.01C946.971 654.527 962.727 678.769 960.472 704.817L953.311 787.545L1145.46 974.898L1098.13 1027.92L944.808 899.5L929.279 1076L862.808 1071L866.808 830L710.85 711.058L664.083 676.903C650.816 667.213 644.416 650.678 647.703 634.581L656.808 590L743.577 562.638L785.808 599Z" fill="#4372D6"/>
<mask id="mask1" mask-type="alpha" maskUnits="userSpaceOnUse" x="535" y="477" width="658" height="686">
<path id="Mask_4" fill-rule="evenodd" clip-rule="evenodd" d="M785.808 599L922.252 646.01C946.971 654.527 962.727 678.769 960.472 704.817L953.311 787.545L1145.46 974.898L1098.13 1027.92L944.808 899.5L929.279 1076L862.808 1071L866.808 830L710.85 711.058L664.083 676.903C650.816 667.213 644.416 650.678 647.703 634.581L656.808 590L743.577 562.638L785.808 599Z" fill="white"/>
</mask>
<g mask="url(#mask1)">
<path id="Combined Shape_5" fill-rule="evenodd" clip-rule="evenodd" d="M702.308 592C702.308 592 694.572 627 650.308 627C626.885 627 633.95 591.701 669.553 577C678.804 573.18 702.308 592 702.308 592ZM947.308 902L865.308 829L865.553 871.5L941.553 932L947.308 902ZM974.553 653L961.103 758.34L955.347 788.34L780.553 625L772.053 588L974.553 653Z" fill="#372898"/>
</g>
</g>
</g>
</g>
<g id="Group 3 Copy">
<path id="Path 6 Copy 5" fill-rule="evenodd" clip-rule="evenodd" d="M788.052 395.5L870.052 503L963.052 433L1010.05 471L883.269 580.123C871.016 590.669 852.404 588.677 842.66 575.777L734.063 432L788.052 395.5Z" fill="white" stroke="#372898" stroke-width="2" stroke-linecap="round"/>
</g>
<g id="Path 79">
<path id="Mask_5" fill-rule="evenodd" clip-rule="evenodd" d="M652.578 405.831C652.392 395.172 661.009 386.446 671.669 386.499L715.69 386.717L777.322 389.548C788.464 390.06 796.77 400.013 795.28 411.066L771.563 587L653.563 587L655.488 572.365L652.578 405.831Z" fill="white" stroke="#372898" stroke-width="2" stroke-linecap="round"/>
<mask id="mask2" mask-type="alpha" maskUnits="userSpaceOnUse" x="645" y="381" width="158" height="212">
<path id="Mask_6" fill-rule="evenodd" clip-rule="evenodd" d="M652.578 405.831C652.392 395.172 661.009 386.446 671.669 386.499L715.69 386.717L777.322 389.548C788.464 390.06 796.77 400.013 795.28 411.066L771.563 587L653.563 587L655.488 572.365L652.578 405.831Z" fill="white" stroke="white" stroke-width="2" stroke-linecap="round"/>
</mask>
<g mask="url(#mask2)">
<path id="Path 79_2" fill-rule="evenodd" clip-rule="evenodd" d="M666.563 386.5L627.063 567.5L772.063 588L792.552 437L800.552 377.5L765.563 389.5L759.162 399.054C746.926 417.32 719.376 415.003 710.362 394.951L706.563 386.5H666.563Z" fill="#89B922"/>
</g>
</g>
<path id="Combined Shape Copy 4" fill-rule="evenodd" clip-rule="evenodd" d="M782.503 588C784.055 588 785.459 587.074 786.069 585.647V585.647C786.722 584.122 786.333 582.351 785.102 581.24L780.839 577.393C778.669 575.434 776.041 574.056 773.217 573.3C769.994 572.437 765.522 571.164 761.802 569.821V569.821C752.165 566.343 742.012 564.115 731.824 565.191L711.435 567.344L678.199 576.041L683.562 588L742.562 588L769.062 588L782.503 588Z" fill="white" stroke="#372898" stroke-width="2"/>
<path id="Path 6 Copy 5_2" fill-rule="evenodd" clip-rule="evenodd" d="M644.346 384.945C669.787 385.71 687.001 411.176 678.227 435.069L640.063 539L724.693 565.18L706.563 606.5L592.708 586.682C575.634 583.71 565.333 566.099 571.112 549.76L624.631 398.443C627.569 390.136 635.538 384.68 644.346 384.945V384.945Z" fill="white" stroke="#372898" stroke-width="2" stroke-linecap="round"/>
<g id="Group 2">
<g id="Group 4">
<g id="Combined Shape_6">
<path fill-rule="evenodd" clip-rule="evenodd" d="M716.234 384.501C715.734 395.001 728.644 401.501 736.139 401.501C743.634 401.501 754.234 396.501 754.234 386.501L753.989 371.501L717.989 355.001M752.954 366.916L752.808 387.994L754.808 388.008L754.954 366.93L752.954 366.916ZM716.73 388.06L718.641 355.668L716.645 355.55L714.734 387.942L716.73 388.06Z" fill="white"/>
<path d="M715.235 384.454C715.262 383.902 715.73 383.476 716.282 383.503C716.833 383.529 717.259 383.997 717.233 384.549L715.235 384.454ZM754.234 386.501L755.234 386.485L755.234 386.493V386.501H754.234ZM753.989 371.501L754.406 370.592L754.979 370.854L754.989 371.484L753.989 371.501ZM717.573 355.91C717.07 355.68 716.85 355.086 717.08 354.584C717.31 354.082 717.904 353.862 718.406 354.092L717.573 355.91ZM752.808 387.994L752.801 388.994L751.801 388.987L751.808 387.987L752.808 387.994ZM752.954 366.916L751.954 366.909L751.961 365.909L752.961 365.916L752.954 366.916ZM754.808 388.008L755.808 388.015L755.801 389.015L754.801 389.008L754.808 388.008ZM754.954 366.93L754.961 365.93L755.961 365.937L755.954 366.937L754.954 366.93ZM718.641 355.668L718.7 354.669L719.698 354.728L719.64 355.727L718.641 355.668ZM716.73 388.06L717.728 388.119L717.67 389.117L716.671 389.058L716.73 388.06ZM716.645 355.55L715.646 355.491L715.705 354.493L716.704 354.552L716.645 355.55ZM714.734 387.942L714.675 388.94L713.676 388.881L713.735 387.883L714.734 387.942ZM717.233 384.549C717.005 389.333 719.823 393.298 723.771 396.126C727.725 398.958 732.627 400.501 736.139 400.501V402.501C732.156 402.501 726.855 400.795 722.606 397.752C718.351 394.704 714.963 390.17 715.235 384.454L717.233 384.549ZM736.139 400.501C739.694 400.501 744.016 399.308 747.426 396.931C750.814 394.569 753.234 391.098 753.234 386.501H755.234C755.234 391.905 752.355 395.933 748.569 398.572C744.805 401.195 740.08 402.501 736.139 402.501V400.501ZM753.234 386.518L752.989 371.517L754.989 371.484L755.234 386.485L753.234 386.518ZM753.573 372.41L717.573 355.91L718.406 354.092L754.406 370.592L753.573 372.41ZM751.808 387.987L751.954 366.909L753.954 366.923L753.808 388.001L751.808 387.987ZM754.801 389.008L752.801 388.994L752.815 386.994L754.814 387.008L754.801 389.008ZM755.954 366.937L755.808 388.015L753.808 388.001L753.954 366.923L755.954 366.937ZM752.961 365.916L754.961 365.93L754.947 367.93L752.947 367.916L752.961 365.916ZM719.64 355.727L717.728 388.119L715.732 388.001L717.643 355.609L719.64 355.727ZM716.704 354.552L718.7 354.669L718.582 356.666L716.586 356.548L716.704 354.552ZM713.735 387.883L715.646 355.491L717.643 355.609L715.732 388.001L713.735 387.883ZM716.671 389.058L714.675 388.94L714.793 386.944L716.789 387.061L716.671 389.058Z" fill="#372898"/>
</g>
<path id="Path 11 Copy 6" fill-rule="evenodd" clip-rule="evenodd" d="M753.808 376.501L751.086 382.001L721.808 361.001L753.919 368.554L753.808 376.501Z" fill="#372898"/>
<g id="Combined Shape Copy">
<path fill-rule="evenodd" clip-rule="evenodd" d="M718.671 356.52C725.254 365.003 736.137 371.001 746.456 371.001C762.733 371.001 762.808 359.089 762.808 343.029C762.808 326.968 758.234 317.458 741.974 314.449C727.294 311.733 715.099 321.673 712.867 335.45C708.738 336.942 705.808 341.052 705.808 345.826C705.808 351.84 710.459 356.801 716.299 356.801C717.116 356.801 717.91 356.704 718.671 356.52ZM717.371 354.73C717.019 354.777 716.662 354.801 716.299 354.801C711.656 354.801 707.808 350.83 707.808 345.826C707.808 342.249 709.774 339.2 712.591 337.751C712.532 338.499 712.503 339.256 712.503 340.02C712.503 345.195 714.338 350.252 717.371 354.73Z" fill="white"/>
<path d="M718.671 356.52L718.436 355.548L719.064 355.397L719.461 355.907L718.671 356.52ZM741.974 314.449L741.792 315.433L741.974 314.449ZM712.867 335.45L713.855 335.609L713.761 336.19L713.207 336.39L712.867 335.45ZM717.371 354.73L718.199 354.169L719.105 355.506L717.503 355.721L717.371 354.73ZM712.591 337.751L712.134 336.862L713.729 336.042L713.588 337.83L712.591 337.751ZM746.456 372.001C735.782 372.001 724.624 365.822 717.881 357.133L719.461 355.907C725.884 364.184 736.491 370.001 746.456 370.001V372.001ZM763.808 343.029C763.808 347.035 763.804 350.831 763.539 354.252C763.274 357.67 762.745 360.785 761.66 363.418C760.567 366.073 758.904 368.25 756.39 369.748C753.891 371.236 750.641 372.001 746.456 372.001V370.001C750.41 370.001 753.273 369.277 755.366 368.029C757.444 366.792 758.851 364.988 759.811 362.657C760.78 360.305 761.287 357.43 761.545 354.098C761.802 350.768 761.808 347.053 761.808 343.029H763.808ZM742.156 313.466C750.461 315.003 755.95 318.237 759.32 323.289C762.662 328.298 763.808 334.933 763.808 343.029H761.808C761.808 335.063 760.667 328.913 757.657 324.399C754.675 319.93 749.748 316.905 741.792 315.433L742.156 313.466ZM711.88 335.29C714.192 321.015 726.87 310.638 742.156 313.466L741.792 315.433C727.718 312.829 716.005 322.331 713.855 335.609L711.88 335.29ZM713.207 336.39C709.487 337.735 706.808 341.46 706.808 345.826H704.808C704.808 340.645 707.989 336.149 712.528 334.509L713.207 336.39ZM706.808 345.826C706.808 351.336 711.058 355.801 716.299 355.801V357.801C709.859 357.801 704.808 352.343 704.808 345.826H706.808ZM716.299 355.801C717.037 355.801 717.752 355.713 718.436 355.548L718.905 357.492C718.068 357.694 717.196 357.801 716.299 357.801V355.801ZM717.503 355.721C717.108 355.774 716.706 355.801 716.299 355.801V353.801C716.617 353.801 716.93 353.78 717.238 353.738L717.503 355.721ZM716.299 355.801C711.059 355.801 706.808 351.336 706.808 345.826H708.808C708.808 350.323 712.253 353.801 716.299 353.801V355.801ZM706.808 345.826C706.808 341.878 708.98 338.483 712.134 336.862L713.048 338.641C710.568 339.916 708.808 342.619 708.808 345.826H706.808ZM711.503 340.02C711.503 339.229 711.534 338.447 711.594 337.673L713.588 337.83C713.531 338.551 713.503 339.282 713.503 340.02H711.503ZM716.543 355.29C713.422 350.683 711.503 345.434 711.503 340.02H713.503C713.503 344.957 715.254 349.822 718.199 354.169L716.543 355.29Z" fill="#372898"/>
</g>
<path id="Combined Shape Copy 2" fill-rule="evenodd" clip-rule="evenodd" d="M721.801 338.001L725.575 327.367L759.808 326.436C759.808 326.436 757.166 322.838 755.529 321.315C746.512 312.927 740.134 313.826 737.022 314.265C736.852 314.289 736.692 314.312 736.542 314.331C729.41 315.263 724.655 317.59 724.655 317.59C724.655 317.59 719.559 320.204 717.639 323.147C715.718 326.09 712.808 332.764 712.808 332.764L712.811 337.351C712.811 337.351 714.721 336.795 715.622 336.679C716.522 336.562 717.999 336.679 717.999 336.679C717.999 336.679 718.096 336.706 718.25 336.756C719.539 336.924 720.743 337.358 721.801 338.001Z" fill="#372898"/>
</g>
<path id="Path 33" fill-rule="evenodd" clip-rule="evenodd" d="M719.803 326.001C720.567 328.165 754.303 332.001 760.803 330.001V330.001C769.051 327.463 758.787 316.656 750.345 314.865C745.683 313.875 741.051 313.028 738.752 313.001C736.379 312.972 733.594 314.045 731.171 315.29C727.029 317.42 723.372 320.484 720.639 324.255C720.061 325.054 719.7 325.709 719.803 326.001Z" fill="#372898"/>
</g>
<path id="Path 34" d="M714.552 588H1069.05L1197.05 1125" stroke="#372898" stroke-width="2" stroke-linecap="round"/>
<g id="Combined Shape_7">
<path fill-rule="evenodd" clip-rule="evenodd" d="M1343.76 190C1345.37 184.423 1350.58 180.665 1356.38 180.899C1376.26 181.702 1389.86 201.281 1383.68 220.193L1351.01 320.191C1348.18 328.849 1341.32 335.59 1332.61 338.262L1201.5 378.5L1201.5 378.492L1198.04 379.562C1198.04 379.562 1191.29 388.064 1186.81 391.704C1183.65 394.277 1177.35 397.899 1173.93 399.805C1172.38 400.665 1170.66 401.154 1168.9 401.276L1150.08 402.572C1147.88 402.723 1145.9 401.248 1145.41 399.098C1144.86 396.647 1146.43 394.22 1148.9 393.73L1162.8 390.962L1164.53 390.289C1169.93 388.191 1168.83 380.248 1163.06 379.697C1163.06 379.697 1156.4 381.662 1152.06 382.931C1147.73 384.201 1139.09 388.83 1139.09 388.83L1130.44 396.433C1128.95 397.736 1126.71 397.644 1125.34 396.224C1124.32 395.174 1124.02 393.625 1124.57 392.27L1126.58 387.272C1127.69 384.533 1129.47 382.124 1131.7 380.19C1134.07 378.129 1137.25 375.279 1139.8 372.667C1146.59 365.708 1154.33 359.601 1163.47 356.3L1181.83 349.666L1198.63 346.325L1313.5 295L1343.76 190Z" fill="white"/>
<path d="M1356.38 180.899L1356.42 179.9L1356.38 180.899ZM1343.76 190L1342.8 189.723L1342.8 189.723L1343.76 190ZM1383.68 220.193L1384.64 220.504L1383.68 220.193ZM1351.01 320.191L1351.96 320.501L1351.96 320.501L1351.01 320.191ZM1332.61 338.262L1332.91 339.218L1332.91 339.218L1332.61 338.262ZM1201.5 378.5L1201.79 379.456L1200.71 379.788L1200.52 378.674L1201.5 378.5ZM1201.5 378.492L1201.2 377.536L1202.29 377.202L1202.48 378.318L1201.5 378.492ZM1198.04 379.562L1197.25 378.94L1197.45 378.698L1197.74 378.607L1198.04 379.562ZM1186.81 391.704L1187.44 392.48L1187.44 392.48L1186.81 391.704ZM1173.93 399.805L1173.44 398.931L1173.44 398.931L1173.93 399.805ZM1168.9 401.276L1168.97 402.273L1168.97 402.273L1168.9 401.276ZM1150.08 402.572L1150.15 403.569L1150.15 403.569L1150.08 402.572ZM1145.41 399.098L1146.39 398.878L1146.39 398.878L1145.41 399.098ZM1148.9 393.73L1148.7 392.749L1148.7 392.749L1148.9 393.73ZM1162.8 390.962L1163.16 391.894L1163.08 391.926L1162.99 391.943L1162.8 390.962ZM1164.53 390.289L1164.17 389.357L1164.17 389.357L1164.53 390.289ZM1163.06 379.697L1162.78 378.738L1162.96 378.683L1163.15 378.702L1163.06 379.697ZM1152.06 382.931L1151.78 381.971L1151.78 381.971L1152.06 382.931ZM1139.09 388.83L1138.43 388.079L1138.52 388.003L1138.62 387.948L1139.09 388.83ZM1130.44 396.433L1129.78 395.682L1129.78 395.682L1130.44 396.433ZM1125.34 396.224L1124.62 396.919L1124.62 396.919L1125.34 396.224ZM1124.57 392.27L1125.49 392.645L1125.49 392.645L1124.57 392.27ZM1126.58 387.272L1125.66 386.897L1125.66 386.897L1126.58 387.272ZM1131.7 380.19L1131.04 379.434L1131.04 379.434L1131.7 380.19ZM1139.8 372.667L1139.09 371.969L1139.09 371.969L1139.8 372.667ZM1163.47 356.3L1163.81 357.24L1163.81 357.24L1163.47 356.3ZM1181.83 349.666L1181.49 348.726L1181.56 348.7L1181.64 348.685L1181.83 349.666ZM1198.63 346.325L1199.04 347.238L1198.93 347.284L1198.82 347.306L1198.63 346.325ZM1313.5 295L1314.46 295.277L1314.33 295.724L1313.91 295.913L1313.5 295ZM1356.34 181.898C1351 181.683 1346.2 185.142 1344.72 190.277L1342.8 189.723C1344.54 183.703 1350.16 179.647 1356.42 179.9L1356.34 181.898ZM1382.73 219.883C1388.71 201.601 1375.56 182.675 1356.34 181.898L1356.42 179.9C1376.96 180.73 1391.02 200.961 1384.64 220.504L1382.73 219.883ZM1350.06 319.88L1382.73 219.883L1384.64 220.504L1351.96 320.501L1350.06 319.88ZM1332.32 337.306C1340.72 334.729 1347.33 328.229 1350.06 319.88L1351.96 320.501C1349.03 329.469 1341.92 336.451 1332.91 339.218L1332.32 337.306ZM1201.21 377.544L1332.32 337.306L1332.91 339.218L1201.79 379.456L1201.21 377.544ZM1202.48 378.318L1202.48 378.326L1200.52 378.674L1200.51 378.666L1202.48 378.318ZM1201.79 379.447L1198.33 380.518L1197.74 378.607L1201.2 377.536L1201.79 379.447ZM1198.04 379.562C1198.82 380.184 1198.82 380.184 1198.82 380.184C1198.82 380.184 1198.82 380.184 1198.82 380.185C1198.82 380.185 1198.82 380.185 1198.82 380.186C1198.82 380.187 1198.82 380.189 1198.81 380.191C1198.81 380.195 1198.81 380.202 1198.8 380.21C1198.79 380.227 1198.77 380.251 1198.74 380.283C1198.69 380.348 1198.61 380.442 1198.52 380.563C1198.32 380.804 1198.04 381.153 1197.68 381.583C1196.98 382.442 1195.99 383.626 1194.86 384.925C1192.61 387.506 1189.75 390.6 1187.44 392.48L1186.18 390.929C1188.35 389.168 1191.1 386.191 1193.35 383.611C1194.46 382.33 1195.44 381.161 1196.14 380.312C1196.49 379.888 1196.77 379.544 1196.96 379.307C1197.06 379.188 1197.13 379.096 1197.18 379.034C1197.2 379.003 1197.22 378.979 1197.24 378.964C1197.24 378.956 1197.25 378.95 1197.25 378.946C1197.25 378.944 1197.25 378.943 1197.25 378.942C1197.25 378.941 1197.25 378.941 1197.25 378.941C1197.25 378.941 1197.25 378.941 1197.25 378.94C1197.25 378.94 1197.25 378.94 1198.04 379.562ZM1187.44 392.48C1184.2 395.118 1177.82 398.783 1174.41 400.679L1173.44 398.931C1176.88 397.015 1183.1 393.435 1186.18 390.929L1187.44 392.48ZM1174.41 400.679C1172.73 401.613 1170.87 402.142 1168.97 402.273L1168.83 400.278C1170.46 400.166 1172.03 399.716 1173.44 398.931L1174.41 400.679ZM1168.97 402.273L1150.15 403.569L1150.01 401.574L1168.83 400.278L1168.97 402.273ZM1150.15 403.569C1147.45 403.755 1145.03 401.95 1144.43 399.318L1146.39 398.878C1146.76 400.547 1148.3 401.692 1150.01 401.574L1150.15 403.569ZM1144.43 399.318C1143.76 396.318 1145.69 393.35 1148.7 392.749L1149.09 394.71C1147.18 395.091 1145.96 396.975 1146.39 398.878L1144.43 399.318ZM1148.7 392.749L1162.6 389.981L1162.99 391.943L1149.09 394.71L1148.7 392.749ZM1162.43 390.03L1164.17 389.357L1164.89 391.221L1163.16 391.894L1162.43 390.03ZM1164.17 389.357C1168.58 387.641 1167.68 381.143 1162.96 380.693L1163.15 378.702C1169.97 379.352 1171.27 388.741 1164.89 391.221L1164.17 389.357ZM1163.06 379.697C1163.34 380.656 1163.34 380.656 1163.34 380.656C1163.34 380.656 1163.34 380.656 1163.34 380.656C1163.34 380.656 1163.34 380.656 1163.34 380.657C1163.34 380.657 1163.34 380.657 1163.34 380.658C1163.33 380.659 1163.33 380.66 1163.32 380.662C1163.31 380.666 1163.29 380.671 1163.27 380.679C1163.22 380.693 1163.14 380.715 1163.05 380.743C1162.86 380.799 1162.58 380.881 1162.23 380.983C1161.54 381.187 1160.57 381.472 1159.47 381.797C1157.26 382.447 1154.51 383.256 1152.35 383.891L1151.78 381.971C1153.95 381.337 1156.7 380.529 1158.9 379.879C1160.01 379.554 1160.98 379.269 1161.67 379.065C1162.01 378.963 1162.29 378.881 1162.48 378.825C1162.58 378.797 1162.65 378.775 1162.7 378.76C1162.73 378.753 1162.74 378.747 1162.76 378.744C1162.76 378.742 1162.77 378.74 1162.77 378.739C1162.77 378.739 1162.77 378.739 1162.78 378.738C1162.78 378.738 1162.78 378.738 1162.78 378.738C1162.78 378.738 1162.78 378.738 1162.78 378.738C1162.78 378.738 1162.78 378.738 1163.06 379.697ZM1152.35 383.891C1150.27 384.499 1147.1 385.937 1144.39 387.256C1143.05 387.909 1141.84 388.524 1140.97 388.975C1140.53 389.201 1140.18 389.385 1139.94 389.513C1139.82 389.577 1139.72 389.627 1139.66 389.661C1139.63 389.677 1139.6 389.69 1139.59 389.699C1139.58 389.703 1139.57 389.706 1139.57 389.708C1139.57 389.709 1139.56 389.71 1139.56 389.711C1139.56 389.711 1139.56 389.711 1139.56 389.711C1139.56 389.711 1139.56 389.711 1139.56 389.711C1139.56 389.711 1139.56 389.711 1139.09 388.83C1138.62 387.948 1138.62 387.948 1138.62 387.948C1138.62 387.948 1138.62 387.948 1138.62 387.948C1138.62 387.948 1138.62 387.948 1138.62 387.947C1138.62 387.947 1138.62 387.946 1138.62 387.945C1138.63 387.942 1138.64 387.939 1138.64 387.934C1138.66 387.925 1138.69 387.912 1138.72 387.895C1138.78 387.86 1138.88 387.809 1139 387.744C1139.25 387.614 1139.61 387.427 1140.05 387.198C1140.93 386.742 1142.15 386.12 1143.51 385.458C1146.21 384.144 1149.52 382.633 1151.78 381.971L1152.35 383.891ZM1139.75 389.581L1131.1 397.184L1129.78 395.682L1138.43 388.079L1139.75 389.581ZM1131.1 397.184C1129.21 398.84 1126.36 398.723 1124.62 396.919L1126.05 395.53C1127.06 396.566 1128.69 396.633 1129.78 395.682L1131.1 397.184ZM1124.62 396.919C1123.33 395.585 1122.94 393.616 1123.64 391.896L1125.49 392.645C1125.09 393.633 1125.31 394.763 1126.05 395.53L1124.62 396.919ZM1123.64 391.896L1125.66 386.897L1127.51 387.646L1125.49 392.645L1123.64 391.896ZM1125.66 386.897C1126.83 384.002 1128.7 381.465 1131.04 379.434L1132.35 380.945C1130.23 382.783 1128.55 385.065 1127.51 387.646L1125.66 386.897ZM1131.04 379.434C1133.41 377.379 1136.57 374.55 1139.09 371.969L1140.52 373.365C1137.94 376.007 1134.74 378.879 1132.35 380.945L1131.04 379.434ZM1139.09 371.969C1145.92 364.955 1153.79 358.732 1163.13 355.359L1163.81 357.24C1154.87 360.47 1147.25 366.462 1140.52 373.365L1139.09 371.969ZM1163.13 355.359L1181.49 348.726L1182.17 350.607L1163.81 357.24L1163.13 355.359ZM1181.64 348.685L1198.43 345.345L1198.82 347.306L1182.03 350.647L1181.64 348.685ZM1313.91 295.913L1199.04 347.238L1198.22 345.412L1313.09 294.087L1313.91 295.913ZM1344.72 190.277L1314.46 295.277L1312.54 294.723L1342.8 189.723L1344.72 190.277Z" fill="#372898"/>
</g>
<path id="Path 5 Copy 9" fill-rule="evenodd" clip-rule="evenodd" d="M1449.74 182.122C1449.37 175.013 1442.92 169.795 1435.88 170.909L1405.3 175.753L1360.42 182.861V182.861C1350.02 185.047 1343.44 195.339 1345.82 205.696L1373.28 325.367L1457.15 320.972L1449.74 182.122Z" fill="#4372D6"/>
<path id="Path 59" fill-rule="evenodd" clip-rule="evenodd" d="M1453.54 313.152L1452.88 313.256L1434.88 220.138L1453.57 257.813L1453.54 313.152Z" fill="#372898"/>
<path id="Shape_2" fill-rule="evenodd" clip-rule="evenodd" d="M1405.33 174.756L1396.86 151.515C1392.54 156.414 1377.08 164.218 1370.37 164.643L1372.84 180.853C1372.84 180.853 1380.86 185.875 1390.21 183.888C1399.55 181.9 1405.33 174.756 1405.33 174.756Z" fill="white" stroke="#372898" stroke-width="2" stroke-linecap="round"/>
<path id="Path 9 Copy" fill-rule="evenodd" clip-rule="evenodd" d="M1299 588L1348.17 854.644C1348.17 854.644 1358.3 854.156 1364.51 851.607C1370.72 849.058 1379.88 840.439 1379.88 840.439L1373.35 730.227L1299 588Z" fill="white" stroke="#372898" stroke-width="2" stroke-linecap="round"/>
<path id="Path 9 Copy 2" fill-rule="evenodd" clip-rule="evenodd" d="M1444.53 708.026L1473.43 981.853C1473.43 981.853 1483.57 982.072 1489.94 979.963C1496.31 977.853 1506.05 969.894 1506.05 969.894L1507.23 859.496L1444.53 708.026Z" fill="white" stroke="#372898" stroke-width="2" stroke-linecap="round"/>
<path id="Path 11 Copy 8" fill-rule="evenodd" clip-rule="evenodd" d="M1378.79 176.085L1388.32 161.509L1370.73 166.374L1378.79 176.085Z" fill="#372898"/>
<g id="Group 3_2">
<g id="Combined Shape Copy 5">
<path fill-rule="evenodd" clip-rule="evenodd" d="M1401.79 149.564C1397.04 158.036 1388.31 164.169 1377.82 165.271C1360.77 167.064 1354.89 157.085 1353.12 140.272C1351.36 123.458 1355.1 112.999 1371.81 108.059C1386.91 103.593 1400.8 112.686 1404.63 126.896C1409.09 128.008 1412.58 131.962 1413.1 136.928C1413.76 143.199 1409.45 148.875 1403.37 149.515C1402.84 149.571 1402.31 149.586 1401.79 149.564ZM1402.83 147.554C1402.94 147.547 1403.05 147.538 1403.16 147.526C1408.06 147.011 1411.67 142.402 1411.11 137.137C1410.72 133.362 1408.29 130.361 1405.15 129.156C1405.3 129.952 1405.42 130.761 1405.5 131.582C1406.1 137.251 1405.09 142.722 1402.83 147.554Z" fill="white"/>
<path d="M1401.79 149.564L1401.84 148.565L1401.22 148.539L1400.92 149.075L1401.79 149.564ZM1371.81 108.059L1371.53 107.1L1371.53 107.1L1371.81 108.059ZM1404.63 126.896L1403.67 127.157L1403.82 127.724L1404.39 127.866L1404.63 126.896ZM1402.83 147.554L1401.92 147.131L1401.2 148.664L1402.89 148.552L1402.83 147.554ZM1405.15 129.156L1405.51 128.222L1403.84 127.582L1404.17 129.34L1405.15 129.156ZM1377.93 166.266C1388.75 165.128 1397.76 158.799 1402.67 150.053L1400.92 149.075C1396.32 157.272 1387.88 163.209 1377.72 164.277L1377.93 166.266ZM1352.13 140.376C1353.02 148.833 1354.96 155.793 1358.99 160.407C1363.08 165.094 1369.18 167.185 1377.93 166.266L1377.72 164.277C1369.41 165.15 1364.04 163.148 1360.49 159.091C1356.88 154.96 1355 148.524 1354.12 140.167L1352.13 140.376ZM1371.53 107.1C1363 109.62 1357.62 113.603 1354.65 119.248C1351.71 124.845 1351.24 131.905 1352.13 140.376L1354.12 140.167C1353.24 131.825 1353.76 125.248 1356.42 120.178C1359.07 115.154 1363.91 111.438 1372.09 109.018L1371.53 107.1ZM1405.6 126.636C1401.64 111.938 1387.22 102.459 1371.53 107.1L1372.09 109.018C1386.61 104.727 1399.97 113.435 1403.67 127.157L1405.6 126.636ZM1404.39 127.866C1408.43 128.874 1411.63 132.472 1412.11 137.033L1414.1 136.824C1413.53 131.452 1409.75 127.143 1404.88 125.926L1404.39 127.866ZM1412.11 137.033C1412.72 142.801 1408.75 147.943 1403.26 148.521L1403.47 150.51C1410.15 149.807 1414.81 143.596 1414.1 136.824L1412.11 137.033ZM1403.26 148.521C1402.78 148.571 1402.31 148.585 1401.84 148.565L1401.75 150.563C1402.32 150.588 1402.89 150.571 1403.47 150.51L1403.26 148.521ZM1402.89 148.552C1403.02 148.544 1403.14 148.534 1403.26 148.521L1403.05 146.532C1402.95 146.542 1402.86 146.55 1402.76 146.557L1402.89 148.552ZM1403.26 148.521C1408.75 147.943 1412.72 142.802 1412.11 137.033L1410.12 137.242C1410.62 142.002 1407.36 146.079 1403.05 146.532L1403.26 148.521ZM1412.11 137.033C1411.67 132.887 1409.01 129.563 1405.51 128.222L1404.79 130.09C1407.58 131.159 1409.76 133.837 1410.12 137.242L1412.11 137.033ZM1406.5 131.478C1406.41 130.63 1406.29 129.794 1406.13 128.972L1404.17 129.34C1404.31 130.109 1404.43 130.892 1404.51 131.687L1406.5 131.478ZM1403.73 147.978C1406.07 142.986 1407.11 137.333 1406.5 131.478L1404.51 131.687C1405.08 137.169 1404.1 142.458 1401.92 147.131L1403.73 147.978Z" fill="#372898"/>
</g>
<g id="Combined Shape Copy 6">
<path fill-rule="evenodd" clip-rule="evenodd" d="M1386.5 124L1354.5 124C1354.5 124 1361.78 107.088 1377.5 107C1385.07 106.957 1394.28 111.171 1396.72 114.02C1399.16 116.87 1403.19 123.541 1403.19 123.541L1405.11 129.261C1405.11 129.261 1404.95 129.203 1404.68 129.114C1403.87 128.736 1402.99 128.471 1402.09 128.335C1401.57 128.205 1401.11 128.114 1400.84 128.116C1399.89 128.124 1398.37 128.464 1398.37 128.464C1398.37 128.464 1398.27 128.508 1398.12 128.584C1395.85 129.216 1393.96 130.65 1392.73 132.525L1386.5 124Z" fill="white"/>
<path d="M1354.5 124L1353.58 123.604L1352.98 125L1354.5 125L1354.5 124ZM1386.5 124L1387.31 123.41L1387.01 123L1386.5 123L1386.5 124ZM1377.5 107L1377.49 106L1377.5 107ZM1396.72 114.02L1395.96 114.671L1395.96 114.671L1396.72 114.02ZM1403.19 123.541L1404.14 123.222L1404.1 123.118L1404.04 123.024L1403.19 123.541ZM1405.11 129.261L1404.78 130.205L1406.71 130.875L1406.06 128.942L1405.11 129.261ZM1404.68 129.114L1404.26 130.021L1404.31 130.045L1404.36 130.063L1404.68 129.114ZM1402.09 128.335L1401.84 129.305L1401.89 129.317L1401.94 129.324L1402.09 128.335ZM1400.84 128.116L1400.85 129.116L1400.85 129.116L1400.84 128.116ZM1398.37 128.464L1398.15 127.488L1398.05 127.511L1397.96 127.552L1398.37 128.464ZM1398.12 128.584L1398.39 129.547L1398.48 129.521L1398.56 129.479L1398.12 128.584ZM1392.73 132.525L1391.93 133.115L1392.78 134.28L1393.57 133.073L1392.73 132.525ZM1354.5 125L1386.5 125L1386.5 123L1354.5 123L1354.5 125ZM1377.49 106C1369.25 106.046 1363.25 110.513 1359.36 114.867C1357.41 117.048 1355.97 119.222 1355.02 120.851C1354.54 121.666 1354.19 122.348 1353.95 122.828C1353.83 123.068 1353.74 123.259 1353.68 123.391C1353.65 123.457 1353.62 123.508 1353.61 123.544C1353.6 123.562 1353.59 123.576 1353.59 123.586C1353.59 123.591 1353.59 123.595 1353.58 123.598C1353.58 123.6 1353.58 123.601 1353.58 123.602C1353.58 123.603 1353.58 123.603 1353.58 123.603C1353.58 123.604 1353.58 123.604 1354.5 124C1355.42 124.395 1355.42 124.396 1355.42 124.396C1355.42 124.396 1355.42 124.396 1355.42 124.396C1355.42 124.396 1355.42 124.396 1355.42 124.395C1355.42 124.394 1355.42 124.392 1355.42 124.389C1355.42 124.383 1355.43 124.372 1355.43 124.358C1355.45 124.33 1355.47 124.287 1355.49 124.229C1355.55 124.113 1355.63 123.94 1355.74 123.718C1355.96 123.273 1356.3 122.633 1356.75 121.861C1357.65 120.316 1359.01 118.257 1360.85 116.199C1364.53 112.075 1370.04 108.042 1377.51 108L1377.49 106ZM1397.48 113.37C1396.77 112.538 1395.63 111.675 1394.27 110.858C1392.89 110.031 1391.22 109.215 1389.4 108.496C1385.77 107.062 1381.44 105.978 1377.49 106L1377.51 108C1381.12 107.98 1385.19 108.981 1388.66 110.356C1390.4 111.041 1391.96 111.81 1393.24 112.573C1394.52 113.346 1395.45 114.078 1395.96 114.671L1397.48 113.37ZM1403.19 123.541C1404.04 123.024 1404.04 123.024 1404.04 123.024C1404.04 123.024 1404.04 123.023 1404.04 123.023C1404.04 123.023 1404.04 123.023 1404.04 123.022C1404.04 123.021 1404.04 123.02 1404.04 123.018C1404.04 123.015 1404.04 123.01 1404.03 123.003C1404.02 122.99 1404.01 122.971 1404 122.946C1403.97 122.896 1403.92 122.822 1403.86 122.727C1403.75 122.537 1403.58 122.264 1403.37 121.926C1402.95 121.253 1402.37 120.324 1401.71 119.305C1400.4 117.284 1398.75 114.851 1397.48 113.37L1395.96 114.671C1397.13 116.039 1398.72 118.366 1400.03 120.393C1400.68 121.398 1401.26 122.315 1401.67 122.981C1401.88 123.314 1402.04 123.584 1402.16 123.77C1402.21 123.863 1402.26 123.935 1402.29 123.984C1402.3 124.009 1402.31 124.027 1402.32 124.04C1402.32 124.046 1402.33 124.05 1402.33 124.053C1402.33 124.055 1402.33 124.056 1402.33 124.057C1402.33 124.057 1402.33 124.057 1402.33 124.057C1402.33 124.058 1402.33 124.058 1402.33 124.058C1402.33 124.058 1402.33 124.058 1403.19 123.541ZM1406.06 128.942L1404.14 123.222L1402.24 123.859L1404.16 129.579L1406.06 128.942ZM1404.36 130.063C1404.49 130.106 1404.6 130.142 1404.67 130.167C1404.71 130.18 1404.74 130.189 1404.75 130.196C1404.76 130.199 1404.77 130.201 1404.78 130.203C1404.78 130.204 1404.78 130.204 1404.78 130.205C1404.78 130.205 1404.78 130.205 1404.78 130.205C1404.78 130.205 1404.78 130.205 1404.78 130.205C1404.78 130.205 1404.78 130.205 1404.78 130.205C1404.78 130.205 1404.78 130.205 1404.78 130.205C1404.78 130.205 1404.78 130.205 1404.78 130.205C1404.78 130.205 1404.78 130.205 1405.11 129.261C1405.44 128.316 1405.44 128.316 1405.44 128.316C1405.44 128.316 1405.44 128.316 1405.44 128.316C1405.44 128.316 1405.44 128.316 1405.44 128.316C1405.44 128.316 1405.44 128.316 1405.44 128.316C1405.44 128.316 1405.44 128.316 1405.44 128.316C1405.44 128.316 1405.44 128.315 1405.44 128.315C1405.43 128.315 1405.43 128.314 1405.43 128.313C1405.42 128.311 1405.42 128.308 1405.41 128.305C1405.39 128.298 1405.36 128.287 1405.32 128.274C1405.24 128.248 1405.13 128.211 1404.99 128.165L1404.36 130.063ZM1405.1 128.207C1404.2 127.79 1403.24 127.496 1402.24 127.346L1401.94 129.324C1402.75 129.445 1403.53 129.683 1404.26 130.021L1405.1 128.207ZM1400.85 129.116C1400.97 129.115 1401.31 129.171 1401.84 129.305L1402.33 127.366C1401.83 127.238 1401.25 127.113 1400.83 127.116L1400.85 129.116ZM1398.37 128.464C1398.59 129.44 1398.59 129.44 1398.59 129.44C1398.59 129.44 1398.59 129.44 1398.58 129.44C1398.58 129.44 1398.58 129.44 1398.58 129.44C1398.58 129.44 1398.59 129.44 1398.59 129.44C1398.59 129.44 1398.59 129.44 1398.59 129.44C1398.59 129.439 1398.59 129.438 1398.6 129.437C1398.61 129.435 1398.62 129.432 1398.64 129.427C1398.68 129.419 1398.74 129.406 1398.82 129.391C1398.97 129.361 1399.18 129.32 1399.42 129.279C1399.91 129.194 1400.46 129.12 1400.85 129.116L1400.83 127.116C1400.27 127.121 1399.58 127.22 1399.08 127.308C1398.82 127.353 1398.58 127.398 1398.42 127.431C1398.34 127.448 1398.27 127.462 1398.22 127.472C1398.2 127.477 1398.18 127.481 1398.17 127.484C1398.16 127.485 1398.16 127.486 1398.15 127.487C1398.15 127.487 1398.15 127.488 1398.15 127.488C1398.15 127.488 1398.15 127.488 1398.15 127.488C1398.15 127.488 1398.15 127.488 1398.15 127.488C1398.15 127.488 1398.15 127.488 1398.15 127.488C1398.15 127.488 1398.15 127.488 1398.37 128.464ZM1398.56 129.479C1398.63 129.445 1398.69 129.418 1398.72 129.401C1398.74 129.392 1398.76 129.385 1398.77 129.381C1398.77 129.379 1398.77 129.378 1398.78 129.377C1398.78 129.377 1398.78 129.377 1398.78 129.376C1398.78 129.376 1398.78 129.376 1398.78 129.377C1398.78 129.377 1398.78 129.377 1398.78 129.377C1398.78 129.377 1398.78 129.377 1398.78 129.377C1398.78 129.377 1398.78 129.377 1398.78 129.377C1398.78 129.377 1398.78 129.377 1398.78 129.377C1398.78 129.377 1398.78 129.377 1398.37 128.464C1397.96 127.552 1397.96 127.552 1397.96 127.552C1397.96 127.552 1397.96 127.552 1397.96 127.552C1397.96 127.552 1397.96 127.552 1397.96 127.552C1397.96 127.552 1397.96 127.552 1397.96 127.552C1397.96 127.552 1397.96 127.552 1397.96 127.552C1397.96 127.553 1397.96 127.553 1397.95 127.553C1397.95 127.554 1397.95 127.555 1397.95 127.556C1397.95 127.557 1397.94 127.56 1397.93 127.563C1397.92 127.57 1397.9 127.579 1397.87 127.59C1397.83 127.613 1397.76 127.646 1397.67 127.688L1398.56 129.479ZM1397.85 127.62C1395.34 128.32 1393.26 129.906 1391.9 131.976L1393.57 133.073C1394.67 131.394 1396.36 130.112 1398.39 129.547L1397.85 127.62ZM1385.69 124.59L1391.93 133.115L1393.54 131.935L1387.31 123.41L1385.69 124.59Z" fill="#372898"/>
</g>
<path id="Oval Copy 7" fill-rule="evenodd" clip-rule="evenodd" d="M1393.55 100.368C1399.41 94.0829 1399.85 86.5781 1397.78 78.8477C1396.65 74.6544 1395.78 69.6264 1392.37 66.4473C1382.67 57.4075 1367.49 57.9379 1358.45 67.6318C1353.95 72.4543 1353.28 78.3856 1353.47 84.4937C1353.67 90.664 1354.76 97.0095 1359.63 101.552C1369.33 110.592 1384.51 110.062 1393.55 100.368Z" fill="white" stroke="#372898" stroke-width="2" stroke-linecap="round"/>
</g>
<path id="Path 2 Copy 5" fill-rule="evenodd" clip-rule="evenodd" d="M1396.2 123.192C1396.09 120.357 1398.36 118 1401.2 118H1414.74C1417.41 118 1419.6 120.091 1419.74 122.753L1421.76 163.57C1421.89 166.303 1419.8 168.637 1417.07 168.808L1403.11 169.681C1400.31 169.856 1397.91 167.689 1397.8 164.882L1396.2 123.192Z" fill="white" stroke="#372898" stroke-width="2" stroke-linecap="round"/>
<path id="Path 8 Copy" fill-rule="evenodd" clip-rule="evenodd" d="M1461.46 312L1494.92 380.033C1500.9 392.197 1504.15 405.522 1504.44 419.075L1509.39 649.335L1513.5 903L1457 894.5L1435.84 659.353L1405.22 424.966L1350 487.5L1383 778.5L1329.5 786.5L1261.06 491.486C1257.56 476.395 1261.41 460.536 1271.43 448.721L1375.5 326L1461.46 312Z" fill="white" stroke="#372898" stroke-width="2" stroke-linecap="round"/>
<rect id="Rectangle_3" width="6" height="4" rx="2" transform="matrix(-1 0 0 1 1415 122)" fill="white" stroke="#372898" stroke-width="2" stroke-linecap="round"/>
<path id="Path 7 Copy 5" fill-rule="evenodd" clip-rule="evenodd" d="M1436 173.5C1436 173.5 1464.76 172.068 1471 201.5C1476.05 225.294 1499.47 314.146 1508.26 347.315C1510.43 355.495 1509.99 364.253 1505.61 371.498C1501.95 377.566 1497.02 384.026 1492.01 385.442C1486.07 387.122 1475.8 382.886 1468.49 379.206C1462.93 376.402 1459.16 371.12 1457.65 365.075L1405.95 157.648C1405.39 155.427 1406.19 153.088 1407.99 151.67V151.67C1410.26 149.872 1413.53 150.097 1415.54 152.189L1436 173.5Z" fill="white" stroke="#372898" stroke-width="2" stroke-linecap="round"/>
<g id="Path 4 Copy 5">
<path fill-rule="evenodd" clip-rule="evenodd" d="M1436.04 173.5L1437.87 178.868C1439.94 184.915 1441 191.261 1441 197.652V201L1494.04 335.5" fill="white"/>
<path d="M1436.04 173.5L1437.87 178.868C1439.94 184.915 1441 191.261 1441 197.652V201L1494.04 335.5" stroke="#372898" stroke-width="2" stroke-linecap="round"/>
</g>
<g id="Path 80">
<path fill-rule="evenodd" clip-rule="evenodd" d="M1399 323L1390.19 344Z" fill="white"/>
<path d="M1399 323L1390.19 344" stroke="#372898" stroke-width="2" stroke-linecap="round"/>
</g>
<rect id="Rectangle_4" width="84" height="69" transform="matrix(-1 0 0 1 1133.25 306)" fill="white" stroke="#372898" stroke-width="2" stroke-linecap="round"/>
<g id="Path 83 Copy 2">
<path fill-rule="evenodd" clip-rule="evenodd" d="M1116.25 350H1065.25Z" fill="white"/>
<path d="M1116.25 350H1065.25" stroke="#372898" stroke-width="2" stroke-linecap="round"/>
</g>
<g id="Path 81">
<path fill-rule="evenodd" clip-rule="evenodd" d="M1426.5 318L1434 339.5Z" fill="white"/>
<path d="M1426.5 318L1434 339.5" stroke="#372898" stroke-width="2" stroke-linecap="round"/>
</g>
<g id="Group 5">
<path id="Path 52" fill-rule="evenodd" clip-rule="evenodd" d="M131.61 245.213C124.36 244.88 117.398 248.081 112.93 253.8L34.7229 353.921C24.9601 366.419 28.0208 384.6 41.3376 393.213L217.552 507.183L214.552 457.683L81.0522 368.683L148.335 281.251C159.383 266.894 149.706 246.043 131.61 245.213V245.213Z" fill="white" stroke="#372898" stroke-width="2" stroke-linecap="round"/>
<g id="Group_2">
<g id="Shape Copy 8">
<path fill-rule="evenodd" clip-rule="evenodd" d="M208.09 942.202C216.013 1039.65 227.105 1093.17 241.367 1102.75C255.628 1112.34 233.444 1101.95 174.814 1071.6L160.552 942.202" fill="white"/>
<path d="M208.09 942.202C216.013 1039.65 227.105 1093.17 241.367 1102.75C255.628 1112.34 233.444 1101.95 174.814 1071.6L160.552 942.202" stroke="#372898" stroke-width="2"/>
</g>
<path id="Shape Copy 9" fill-rule="evenodd" clip-rule="evenodd" d="M402.552 942C441.052 1035 465.106 1093.17 479.367 1102.75C493.628 1112.34 470.444 1101.95 411.814 1071.6L348.552 942H402.552Z" fill="white" stroke="#372898" stroke-width="2"/>
<g id="Path 11">
<path id="Mask_7" fill-rule="evenodd" clip-rule="evenodd" d="M224.052 426.202C224.052 426.202 301.257 618.144 337.052 713.5C372.847 808.856 417.552 943 417.552 943L341.552 944L159.052 525.202L215.342 944.202H146.372L75.6534 500.589C73.3047 485.856 75.3442 470.758 81.5178 457.176L117.052 379L204.552 386.5L224.052 426.202Z" fill="#4372D6"/>
<mask id="mask3" mask-type="alpha" maskUnits="userSpaceOnUse" x="74" y="379" width="344" height="566">
<path id="Mask_8" fill-rule="evenodd" clip-rule="evenodd" d="M224.052 426.202C224.052 426.202 301.257 618.144 337.052 713.5C372.847 808.856 417.552 943 417.552 943L341.552 944L159.052 525.202L215.342 944.202H146.372L75.6534 500.589C73.3047 485.856 75.3442 470.758 81.5178 457.176L117.052 379L204.552 386.5L224.052 426.202Z" fill="white"/>
</mask>
<g mask="url(#mask3)">
<path id="Path 11_2" fill-rule="evenodd" clip-rule="evenodd" d="M157.44 522.774L171.949 579.305L62.6019 548.508L52.5524 513L157.44 522.774Z" fill="#372898"/>
</g>
</g>
</g>
<g id="Group 4_2">
<path id="Path 5 Copy 2" fill-rule="evenodd" clip-rule="evenodd" d="M113.698 268.593C114.678 253.086 128.513 241.603 143.935 243.497L151.546 244.431L204.247 250.902L246.024 256.032L216.146 371.393C213.764 380.594 205.235 386.847 195.744 386.352L126.746 382.755C115.629 382.175 107.125 372.63 107.827 361.521L113.698 268.593Z" fill="white" stroke="#372898" stroke-width="2" stroke-linecap="round"/>
<g id="Group 3_3">
<g id="Shape Copy 18">
<path fill-rule="evenodd" clip-rule="evenodd" d="M199.087 223.428L194.069 250.5L196.035 250.865L201.054 223.793L199.087 223.428ZM160.01 245.968L170.868 209.582L168.952 209.01L158.094 245.396L160.01 245.968Z" fill="white"/>
<path d="M194.069 250.5L193.886 251.483L192.903 251.301L193.085 250.318L194.069 250.5ZM199.087 223.428L198.104 223.246L198.286 222.263L199.269 222.445L199.087 223.428ZM196.035 250.865L197.018 251.047L196.836 252.03L195.853 251.848L196.035 250.865ZM201.054 223.793L201.236 222.809L202.219 222.992L202.037 223.975L201.054 223.793ZM170.868 209.582L171.154 208.624L172.112 208.91L171.826 209.868L170.868 209.582ZM160.01 245.968L160.968 246.254L160.682 247.212L159.724 246.927L160.01 245.968ZM168.952 209.01L167.993 208.724L168.279 207.766L169.237 208.052L168.952 209.01ZM158.094 245.396L157.808 246.355L156.85 246.069L157.135 245.11L158.094 245.396ZM193.085 250.318L198.104 223.246L200.07 223.61L195.052 250.682L193.085 250.318ZM195.853 251.848L193.886 251.483L194.251 249.517L196.217 249.881L195.853 251.848ZM202.037 223.975L197.018 251.047L195.052 250.682L200.07 223.61L202.037 223.975ZM199.269 222.445L201.236 222.809L200.871 224.776L198.905 224.411L199.269 222.445ZM171.826 209.868L160.968 246.254L159.052 245.682L169.91 209.296L171.826 209.868ZM169.237 208.052L171.154 208.624L170.582 210.54L168.666 209.968L169.237 208.052ZM157.135 245.11L167.993 208.724L169.91 209.296L159.052 245.682L157.135 245.11ZM159.724 246.927L157.808 246.355L158.38 244.438L160.296 245.01L159.724 246.927Z" fill="#372898"/>
</g>
<g id="Group 2_2">
<g id="Combined Shape Copy_2">
<path fill-rule="evenodd" clip-rule="evenodd" d="M190.03 193.855C188.235 192.674 186.107 192.004 183.835 192.043C177.478 192.154 172.53 197.727 172.646 204.351C172.727 209.016 175.287 213.05 179.008 215.008L179.94 213.238C176.881 211.629 174.715 208.27 174.646 204.316C174.547 198.67 178.739 194.133 183.87 194.043C185.719 194.011 187.454 194.554 188.93 195.526L190.03 193.855ZM170.072 209.112L168.677 193.173C168.236 176.649 182.23 166.795 198.064 169.437C215.247 172.304 218.871 181.626 222.388 198.885C225.906 216.144 222.829 225.644 205.683 225.944C200.223 226.039 191.932 223.763 191.932 223.763" fill="white"/>
<path d="M190.03 193.855L190.58 193.02L191.415 193.569L190.865 194.405L190.03 193.855ZM179.008 215.008L179.893 215.473L179.428 216.358L178.543 215.893L179.008 215.008ZM179.94 213.238L180.405 212.353L181.29 212.818L180.825 213.703L179.94 213.238ZM188.93 195.526L189.766 196.075L189.216 196.911L188.381 196.361L188.93 195.526ZM171.068 209.025C171.116 209.575 170.709 210.06 170.159 210.109C169.609 210.157 169.124 209.75 169.076 209.199L171.068 209.025ZM168.677 193.173L167.681 193.26L167.679 193.23L167.678 193.2L168.677 193.173ZM198.064 169.437L198.228 168.451L198.064 169.437ZM222.388 198.885L223.368 198.685L222.388 198.885ZM191.667 224.727C191.135 224.581 190.821 224.031 190.968 223.498C191.114 222.966 191.664 222.652 192.197 222.799L191.667 224.727ZM183.817 191.044C186.301 191 188.625 191.733 190.58 193.02L189.48 194.69C187.845 193.614 185.913 193.007 183.852 193.043L183.817 191.044ZM171.646 204.368C171.522 197.257 176.845 191.165 183.817 191.044L183.852 193.043C178.11 193.144 173.539 198.197 173.646 204.334L171.646 204.368ZM178.543 215.893C174.49 213.761 171.734 209.389 171.646 204.368L173.646 204.334C173.721 208.643 176.084 212.339 179.474 214.123L178.543 215.893ZM180.825 213.703L179.893 215.473L178.123 214.542L179.055 212.772L180.825 213.703ZM175.646 204.299C175.708 207.897 177.678 210.918 180.405 212.353L179.474 214.123C176.084 212.339 173.721 208.643 173.646 204.334L175.646 204.299ZM183.887 195.043C179.368 195.122 175.556 199.144 175.646 204.299L173.646 204.334C173.539 198.196 178.11 193.143 183.852 193.043L183.887 195.043ZM188.381 196.361C187.064 195.495 185.525 195.014 183.887 195.043L183.852 193.043C185.913 193.007 187.845 193.614 189.48 194.69L188.381 196.361ZM190.865 194.405L189.766 196.075L188.095 194.976L189.194 193.305L190.865 194.405ZM169.076 209.199L167.681 193.26L169.674 193.086L171.068 209.025L169.076 209.199ZM167.678 193.2C167.449 184.628 170.974 177.726 176.655 173.327C182.322 168.939 190.068 167.089 198.228 168.451L197.899 170.423C190.226 169.143 183.058 170.899 177.879 174.909C172.716 178.907 169.464 185.194 169.677 193.146L167.678 193.2ZM198.228 168.451C207 169.914 212.473 173.061 216.162 178.179C219.797 183.222 221.612 190.07 223.368 198.685L221.409 199.084C219.647 190.44 217.892 183.999 214.54 179.349C211.242 174.774 206.311 171.827 197.899 170.423L198.228 168.451ZM223.368 198.685C225.131 207.334 225.32 214.342 222.664 219.25C219.941 224.283 214.432 226.791 205.701 226.944L205.666 224.944C214.081 224.797 218.683 222.406 220.905 218.298C223.195 214.067 223.163 207.694 221.409 199.084L223.368 198.685ZM205.701 226.944C202.856 226.993 199.33 226.429 196.562 225.869C195.168 225.587 193.947 225.303 193.074 225.088C192.638 224.981 192.288 224.891 192.046 224.828C191.925 224.796 191.831 224.771 191.767 224.754C191.735 224.746 191.711 224.739 191.694 224.734C191.686 224.732 191.679 224.73 191.675 224.729C191.672 224.729 191.671 224.728 191.669 224.728C191.669 224.728 191.668 224.727 191.668 224.727C191.668 224.727 191.668 224.727 191.668 224.727C191.667 224.727 191.667 224.727 191.932 223.763C192.197 222.799 192.197 222.799 192.197 222.799C192.197 222.799 192.197 222.799 192.197 222.799C192.197 222.799 192.197 222.799 192.198 222.799C192.198 222.799 192.2 222.799 192.201 222.8C192.205 222.801 192.21 222.802 192.218 222.804C192.233 222.808 192.255 222.814 192.286 222.823C192.346 222.839 192.435 222.863 192.552 222.893C192.785 222.954 193.125 223.041 193.551 223.146C194.404 223.355 195.597 223.634 196.958 223.909C199.701 224.463 203.05 224.989 205.666 224.944L205.701 226.944Z" fill="#372898"/>
</g>
</g>
<path id="Path 16" fill-rule="evenodd" clip-rule="evenodd" d="M192.214 223.716L195.472 246.914L196.495 244.968L199.164 226.012L192.214 223.716Z" fill="#372898"/>
<g id="Path 2">
<path fill-rule="evenodd" clip-rule="evenodd" d="M281.407 373.116L285.407 392.116Z" fill="white"/>
<path d="M281.407 373.116L285.407 392.116" stroke="#372898" stroke-width="2" stroke-linecap="round"/>
</g>
<g id="Combined Shape_8">
<path fill-rule="evenodd" clip-rule="evenodd" d="M255.133 258.683C253.442 253.026 247.434 249.861 241.811 251.666C221.452 258.201 210.137 279.897 216.43 300.332L251.967 415.74C255.584 427.486 266.438 435.5 278.727 435.5L423.669 435.5C424.006 435.924 424.512 436.203 425.088 436.238C432.296 436.67 460.861 438.134 473.052 435C483.415 432.336 499.788 423.763 507.608 419.482C510.376 417.966 512.052 415.055 512.052 411.899C512.052 406.996 508.056 403.033 503.153 403.073L422.137 403.737C421.722 403.741 421.344 403.885 421.044 404.122L294.552 390.5L255.133 258.683Z" fill="white"/>
<path d="M241.811 251.666L241.506 250.714L241.506 250.714L241.811 251.666ZM255.133 258.683L254.175 258.97L254.175 258.97L255.133 258.683ZM216.43 300.332L215.474 300.627L215.474 300.627L216.43 300.332ZM251.967 415.74L252.923 415.446L252.923 415.446L251.967 415.74ZM278.727 435.5L278.727 434.5H278.727L278.727 435.5ZM423.669 435.5L423.669 434.5L424.152 434.5L424.452 434.878L423.669 435.5ZM425.088 436.238L425.148 435.24L425.148 435.24L425.088 436.238ZM473.052 435L472.803 434.031L472.803 434.031L473.052 435ZM507.608 419.482L507.128 418.604L507.128 418.604L507.608 419.482ZM512.052 411.899L513.052 411.899L513.052 411.899L512.052 411.899ZM503.153 403.073L503.162 404.073L503.162 404.073L503.153 403.073ZM422.137 403.737L422.145 404.737L422.145 404.737L422.137 403.737ZM421.044 404.122L421.666 404.906L421.345 405.16L420.937 405.116L421.044 404.122ZM294.552 390.5L294.445 391.494L293.784 391.423L293.594 390.786L294.552 390.5ZM241.506 250.714C247.661 248.738 254.239 252.203 256.092 258.397L254.175 258.97C252.644 253.849 247.206 250.985 242.117 252.618L241.506 250.714ZM215.474 300.627C209.02 279.668 220.625 257.417 241.506 250.714L242.117 252.618C222.279 258.986 211.254 280.126 217.385 300.038L215.474 300.627ZM251.012 416.035L215.474 300.627L217.385 300.038L252.923 415.446L251.012 416.035ZM278.727 436.5C265.999 436.5 254.758 428.2 251.012 416.035L252.923 415.446C256.411 426.772 266.876 434.5 278.727 434.5L278.727 436.5ZM423.669 436.5L278.727 436.5L278.727 434.5L423.669 434.5L423.669 436.5ZM425.028 437.236C424.159 437.184 423.394 436.76 422.887 436.122L424.452 434.878C424.619 435.087 424.865 435.223 425.148 435.24L425.028 437.236ZM473.301 435.968C467.064 437.572 456.753 437.984 447.198 437.956C437.605 437.928 428.641 437.453 425.028 437.236L425.148 435.24C428.743 435.455 437.665 435.928 447.204 435.956C456.782 435.985 466.848 435.562 472.803 434.031L473.301 435.968ZM508.088 420.359C500.293 424.627 483.808 433.268 473.301 435.968L472.803 434.031C483.023 431.404 499.283 422.9 507.128 418.604L508.088 420.359ZM513.052 411.899C513.052 415.409 511.187 418.662 508.088 420.359L507.128 418.604C509.566 417.269 511.052 414.701 511.052 411.899L513.052 411.899ZM503.145 402.073C508.603 402.028 513.052 406.441 513.052 411.899L511.052 411.899C511.052 407.551 507.509 404.037 503.162 404.073L503.145 402.073ZM422.129 402.737L503.145 402.073L503.162 404.073L422.145 404.737L422.129 402.737ZM420.423 403.339C420.89 402.968 421.483 402.743 422.129 402.737L422.145 404.737C421.961 404.739 421.797 404.801 421.666 404.906L420.423 403.339ZM294.659 389.506L421.151 403.128L420.937 405.116L294.445 391.494L294.659 389.506ZM256.092 258.397L295.51 390.213L293.594 390.786L254.175 258.97L256.092 258.397Z" fill="#372898"/>
</g>
</g>
<path id="Path 9 Copy_2" fill-rule="evenodd" clip-rule="evenodd" d="M178.855 194.663C178.855 194.663 181.587 192.421 183.164 192.278C185.703 192.049 189.813 193.704 189.813 193.704L215.552 179V179C209.893 170.659 199.509 167.009 189.73 169.452C187.953 169.897 186.194 170.318 184.552 170.682C175.552 172.682 175.383 176.273 175.383 176.273L172.302 180.858C169.532 184.981 168.052 189.835 168.052 194.802L168.052 198.275C168.052 200.537 168.347 202.789 168.93 204.975L170.052 209.182L174.552 209C174.552 209 172.478 207.079 173.552 203.5C174.626 199.921 178.855 194.663 178.855 194.663Z" fill="#372898"/>
</g>
<path id="Combined Shape_9" fill-rule="evenodd" clip-rule="evenodd" d="M276.578 1124.99C279.937 1119.04 277.053 1111.51 270.583 1109.33L235.741 1097.59C235.741 1097.59 244.882 1105.56 226.777 1097.59C208.672 1089.63 174.984 1070.2 174.984 1070.2C171.904 1070.2 169.355 1072.6 169.161 1075.67L166.052 1124.99H187.434L184.944 1105.56L202.262 1122.85C203.768 1124.36 205.81 1125.2 207.938 1125.19L276.578 1124.99ZM514.578 1124.99C517.937 1119.04 515.053 1111.51 508.583 1109.33L473.741 1097.59C473.741 1097.59 482.882 1105.56 464.777 1097.59C446.672 1089.63 412.984 1070.2 412.984 1070.2C409.904 1070.2 407.355 1072.6 407.161 1075.67L404.052 1124.99H425.434L422.944 1105.56L440.262 1122.85C441.768 1124.36 443.81 1125.2 445.938 1125.19L514.578 1124.99Z" fill="#372898"/>
</g>
<path id="Rectangle_5" fill-rule="evenodd" clip-rule="evenodd" d="M1146.92 362.905L1146.75 335.5L1104.25 335.614L1104.25 364L1021.91 365.096C1020.82 365.11 1019.94 365.999 1019.94 367.092L1019.75 465.496C1019.75 466.602 1020.65 467.5 1021.75 467.5L1144.75 467.5C1145.86 467.5 1146.75 466.607 1146.75 465.503L1146.92 362.905Z" fill="#CAD9FF"/>
<path id="Path 13" fill-rule="evenodd" clip-rule="evenodd" d="M1380 837.5L1392.55 859.5L1403.27 871.099L1384.55 879L1380.05 871L1353.94 892.039L1311.88 909.895C1311.88 909.895 1302.06 911.297 1299.69 907.769C1297.32 904.24 1292.65 898.091 1321.7 878.81C1327.85 874.727 1328.39 870.589 1333.34 863.411C1335.54 860.213 1346.5 850.5 1346.5 850.5C1346.5 850.5 1350.94 854.707 1364.35 850.247C1377.76 845.786 1380 837.5 1380 837.5Z" fill="#372898"/>
<path id="Path 13 Copy" fill-rule="evenodd" clip-rule="evenodd" d="M1504.42 956.034L1523.05 976L1534.64 984.319L1519.05 996L1511.5 990.5L1493 1018.05L1457.48 1046.8C1457.48 1046.8 1448.43 1050.86 1445.18 1048.12C1441.93 1045.38 1435.74 1040.76 1458.35 1014.22C1463.14 1008.6 1462.52 1004.47 1465.3 996.206C1466.54 992.524 1473.15 981.36 1473.15 981.36C1473.15 981.36 1479.82 982.986 1491.48 975.002C1503.14 967.018 1504.42 956.034 1504.42 956.034Z" fill="#372898"/>
<path id="Path 9 Copy_3" fill-rule="evenodd" clip-rule="evenodd" d="M179.552 193.5C179.552 193.5 183.192 193.398 184.775 193.394C187.325 193.386 189.019 195.467 190.052 195.5C193.987 195.624 205.166 191.704 214.229 188.236C221.209 185.565 224.143 177.395 220.666 170.78V170.78C217.952 165.616 212.08 162.952 206.407 164.311L177.072 171.339C171.356 172.708 166.543 176.544 163.932 181.809L144.518 220.96C141.547 226.952 145.919 233.977 152.607 233.958L172.07 233.902C178.472 233.883 183.208 227.937 181.794 221.693L180.052 214C180.052 214 178.233 213.321 176.775 211.894C175.483 210.628 173.692 209.222 173.552 207.5C173.277 204.127 172.521 199.504 176.552 195.5C176.899 195.155 179.552 193.5 179.552 193.5Z" fill="#372898"/>
<g id="Path 83">
<path fill-rule="evenodd" clip-rule="evenodd" d="M1116.25 306H1065.25Z" fill="white"/>
<path d="M1116.25 306H1065.25" stroke="#372898" stroke-width="2" stroke-linecap="round"/>
</g>
<g id="Path 83 Copy">
<path fill-rule="evenodd" clip-rule="evenodd" d="M1116.25 331H1065.25Z" fill="white"/>
<path d="M1116.25 331H1065.25" stroke="#372898" stroke-width="2" stroke-linecap="round"/>
</g>
<rect id="Top bar Copy" width="405" height="33" rx="8" transform="matrix(-1 0 0 1 1081.05 31)" fill="#89B922"/>
<path id="Combined Shape_10" fill-rule="evenodd" clip-rule="evenodd" d="M1053.51 52C1051 52 1048.96 49.7614 1048.96 47C1048.96 44.2386 1051 42 1053.51 42C1056.02 42 1058.05 44.2386 1058.05 47C1058.05 49.7614 1056.02 52 1053.51 52ZM1038.05 52C1035.54 52 1033.51 49.7614 1033.51 47C1033.51 44.2386 1035.54 42 1038.05 42C1040.56 42 1042.6 44.2386 1042.6 47C1042.6 49.7614 1040.56 52 1038.05 52ZM1017.14 47C1017.14 49.7614 1019.18 52 1021.69 52C1024.2 52 1026.23 49.7614 1026.23 47C1026.23 44.2386 1024.2 42 1021.69 42C1019.18 42 1017.14 44.2386 1017.14 47Z" fill="white"/>
<rect id="Rectangle Copy 25" width="249" height="34" transform="matrix(-1 0 0 1 1002.95 107)" fill="white" stroke="#372898" stroke-width="2" stroke-linecap="round"/>
<g id="Path 84">
<path fill-rule="evenodd" clip-rule="evenodd" d="M678.052 293.5H1080.05Z" fill="white"/>
<path d="M678.052 293.5H1080.05" stroke="#372898" stroke-width="2" stroke-linecap="round"/>
</g>
<g id="Path 84 Copy">
<path fill-rule="evenodd" clip-rule="evenodd" d="M678.052 185H1081.05Z" fill="white"/>
<path d="M678.052 185H1081.05" stroke="#372898" stroke-width="2" stroke-linecap="round"/>
</g>
<path id="Oval_3" fill-rule="evenodd" clip-rule="evenodd" d="M778.024 130C773.33 130 769.524 126.194 769.524 121.5C769.524 116.806 773.33 113 778.024 113C782.719 113 786.524 116.806 786.524 121.5C786.524 126.194 782.719 130 778.024 130Z" fill="white" stroke="#372898" stroke-width="2" stroke-linecap="round"/>
<g id="Path 85">
<path fill-rule="evenodd" clip-rule="evenodd" d="M771.486 128L765.275 133.667Z" fill="white"/>
<path d="M771.486 128L765.275 133.667" stroke="#372898" stroke-width="2" stroke-linecap="round"/>
</g>
<g id="Path 86">
<path fill-rule="evenodd" clip-rule="evenodd" d="M933.052 241H837.052Z" fill="white"/>
<path d="M933.052 241H837.052" stroke="#372898" stroke-width="2" stroke-linecap="round"/>
</g>
<g id="Path 86 Copy 2">
<path fill-rule="evenodd" clip-rule="evenodd" d="M933.052 353H837.052Z" fill="white"/>
<path d="M933.052 353H837.052" stroke="#372898" stroke-width="2" stroke-linecap="round"/>
</g>
<g id="Path 86 Copy">
<path fill-rule="evenodd" clip-rule="evenodd" d="M817.475 241H777.321Z" fill="white"/>
<path d="M817.475 241H777.321" stroke="#372898" stroke-width="2" stroke-linecap="round"/>
</g>
<g id="Path 86 Copy 3">
<path fill-rule="evenodd" clip-rule="evenodd" d="M817.475 353H777.321Z" fill="white"/>
<path d="M817.475 353H777.321" stroke="#372898" stroke-width="2" stroke-linecap="round"/>
</g>
<g id="Path 87">
<path fill-rule="evenodd" clip-rule="evenodd" d="M1001.05 464L1041.07 447.289C1044.16 445.998 1045.73 442.542 1044.67 439.366V439.366C1043.52 435.901 1039.7 434.105 1036.3 435.426L1018.05 442.5" fill="white"/>
<path d="M1001.05 464L1041.07 447.289C1044.16 445.998 1045.73 442.542 1044.67 439.366V439.366C1043.52 435.901 1039.7 434.105 1036.3 435.426L1018.05 442.5" stroke="#372898" stroke-width="2" stroke-linecap="round"/>
</g>
</g>
</g>
<defs>
<clipPath id="clip0">
<rect width="1609" height="1155" fill="white"/>
</clipPath>
<clipPath id="clip1">
<rect width="1593" height="1165" fill="white" transform="matrix(-1 0 0 1 1609 31)"/>
</clipPath>
</defs>
</svg>
