
<svg width="1609" height="1155" viewBox="0 0 1609 1155" fill="none" xmlns="http://www.w3.org/2000/svg">
<g id="11" clip-path="url(#clip0)">
<rect width="1609" height="1155" fill="#F0F4F6"/>
<g id="Group 8">
<rect id="Rectangle Copy 2" width="402" height="382" rx="2" transform="matrix(-1 0 0 1 563.037 32)" fill="white" stroke="#372898" stroke-width="2" stroke-linecap="round"/>
<g id="Group 7">
<path id="Oval" fill-rule="evenodd" clip-rule="evenodd" d="M362 299C392.928 299 418 273.928 418 243C418 212.072 392.928 187 362 187C331.072 187 306 212.072 306 243C306 273.928 331.072 299 362 299Z" fill="white" stroke="#1D0F74" stroke-width="2" stroke-linecap="round"/>
<g id="Path 183">
<path fill-rule="evenodd" clip-rule="evenodd" d="M377.536 232.302L374.5 228.775C367.407 220.539 354.919 219.769 346.868 227.073V227.073C343.994 229.68 344.443 234.32 347.763 236.329L361.558 244.672L370.775 248.636C377.333 251.457 378.908 260.044 373.778 265.009L369.665 268.989C365.838 272.692 359.781 272.747 355.888 269.114L344.939 258.897" fill="white"/>
<path d="M377.536 232.302L374.5 228.775C367.407 220.539 354.919 219.769 346.868 227.073V227.073C343.994 229.68 344.443 234.32 347.763 236.329L361.558 244.672L370.775 248.636C377.333 251.457 378.908 260.044 373.778 265.009L369.665 268.989C365.838 272.692 359.781 272.747 355.888 269.114L344.939 258.897" stroke="#1D0F74" stroke-width="2" stroke-linecap="round"/>
</g>
<g id="Path 184">
<path fill-rule="evenodd" clip-rule="evenodd" d="M358.657 208.731V277.269Z" fill="white"/>
<path d="M358.657 208.731V277.269" stroke="#1D0F74" stroke-width="2" stroke-linecap="round"/>
</g>
<g id="Path 184 Copy">
<path fill-rule="evenodd" clip-rule="evenodd" d="M364.925 208.731V277.269Z" fill="white"/>
<path d="M364.925 208.731V277.269" stroke="#1D0F74" stroke-width="2" stroke-linecap="round"/>
</g>
</g>
<g id="Group 13">
<g id="Path 184_2">
<path fill-rule="evenodd" clip-rule="evenodd" d="M356.478 125V171Z" fill="white"/>
<path d="M356.478 125V171" stroke="#4372D6" stroke-width="2" stroke-linecap="round"/>
</g>
<g id="Path 184 Copy_2">
<path fill-rule="evenodd" clip-rule="evenodd" d="M369.582 95V163.537Z" fill="white"/>
<path d="M369.582 95V163.537" stroke="#4372D6" stroke-width="2" stroke-linecap="round"/>
</g>
</g>
</g>
<rect id="Rectangle" width="403" height="382" rx="2" transform="matrix(-1 0 0 1 1080.05 32)" fill="white" stroke="#372898" stroke-width="2" stroke-linecap="round"/>
<g id="Path 23 + Path 23 Copy 2 + Path 23 Copy Mask">
<rect id="Mask" x="1188" y="31" width="401" height="383" fill="#BDD2FF"/>
<mask id="mask0" mask-type="alpha" maskUnits="userSpaceOnUse" x="1188" y="31" width="401" height="383">
<rect id="Mask_2" x="1188" y="31" width="401" height="383" fill="white"/>
</mask>
<g mask="url(#mask0)">
<path id="Path 23 Copy 2" d="M1392.02 231.416C1392.02 231.416 1537 86.6391 1611.64 101.157C1686.29 115.674 1670.21 198.453 1595.56 183.935C1520.92 169.418 1278.72 145.531 1278.49 72.3507C1278.26 -0.829685 1407.51 -10.5208 1407.51 -10.5208L1421.66 -20.305" stroke="#4372D6" stroke-width="2"/>
<path id="Path 23 Copy" d="M1394.37 229.204C1394.37 229.204 1245.57 376.776 1170.9 362.332C1096.23 347.889 1112.55 264.428 1187.23 278.872C1261.9 293.315 1504.25 316.782 1504.27 390.529C1504.3 464.276 1374.91 474.365 1374.91 474.365" stroke="#4372D6" stroke-width="2"/>
</g>
</g>
<path id="Rectangle_2" fill-rule="evenodd" clip-rule="evenodd" d="M1023.93 407.617L1045.88 395.532C1048.55 394.063 1051.91 395.062 1053.34 397.752V397.752C1054.62 400.17 1053.92 403.167 1051.69 404.76L1031.27 419.36L1040.32 430.968C1045.17 437.179 1042.82 446.293 1035.57 449.386L989.595 469.014C989.504 469.052 989.411 469.084 989.316 469.109L979.215 471.754L969.983 443.604C969.698 442.734 970.039 441.781 970.812 441.291L1023.93 407.617Z" fill="white" stroke="#372898" stroke-width="2" stroke-linecap="round"/>
<g id="Group">
<g id="Combined Shape">
<path fill-rule="evenodd" clip-rule="evenodd" d="M1122.86 1030.75L1104.61 1009.37L1131.16 979.152L1154.9 1008.62L1122.86 1030.75ZM873.308 1092L868.808 1060H913.308V1096L873.308 1092Z" fill="white"/>
<path d="M1104.61 1009.37L1103.85 1010.02L1103.28 1009.36L1103.86 1008.71L1104.61 1009.37ZM1122.86 1030.75L1123.43 1031.57L1122.69 1032.09L1122.1 1031.4L1122.86 1030.75ZM1131.16 979.152L1130.41 978.492L1131.2 977.599L1131.94 978.525L1131.16 979.152ZM1154.9 1008.62L1155.67 1008L1156.35 1008.84L1155.46 1009.45L1154.9 1008.62ZM868.808 1060L867.817 1060.14L867.657 1059H868.808V1060ZM873.308 1092L873.208 1093L872.427 1092.92L872.317 1092.14L873.308 1092ZM913.308 1060V1059H914.308V1060H913.308ZM913.308 1096H914.308V1097.1L913.208 1097L913.308 1096ZM1105.37 1008.72L1123.62 1030.1L1122.1 1031.4L1103.85 1010.02L1105.37 1008.72ZM1131.91 979.812L1105.36 1010.03L1103.86 1008.71L1130.41 978.492L1131.91 979.812ZM1154.12 1009.25L1130.38 979.779L1131.94 978.525L1155.67 1008L1154.12 1009.25ZM1122.29 1029.93L1154.33 1007.8L1155.46 1009.45L1123.43 1031.57L1122.29 1029.93ZM869.798 1059.86L874.298 1091.86L872.317 1092.14L867.817 1060.14L869.798 1059.86ZM913.308 1061H868.808V1059H913.308V1061ZM912.308 1096V1060H914.308V1096H912.308ZM873.407 1091L913.407 1095L913.208 1097L873.208 1093L873.407 1091Z" fill="#372898"/>
</g>
<path id="Combined Shape_2" fill-rule="evenodd" clip-rule="evenodd" d="M1139.79 1054.19L1118.88 1027.32C1118.88 1027.32 1130.72 1026.57 1139.93 1014.6C1149.13 1002.63 1147.76 995.434 1147.76 995.434C1147.76 995.434 1160.1 989.019 1164.11 987.909C1167.01 987.108 1169.42 986.656 1171.58 986.254C1176.14 985.402 1179.53 984.769 1183.8 981.522C1213.13 959.215 1217.99 965.614 1220.76 969.258C1220.79 969.304 1220.83 969.35 1220.86 969.395C1223.61 973.009 1218.77 982.418 1218.77 982.418L1185.96 1018.62L1168.67 1037.71L1147.5 1061.08L1139.79 1054.19ZM865.308 1114.7L871.406 1081.27C871.406 1081.27 879.888 1089.52 894.999 1088.31C910.111 1087.1 914.577 1081.27 914.577 1081.27C914.577 1081.27 927.626 1086.09 931.143 1088.31C933.678 1089.91 935.633 1091.4 937.378 1092.72C941.063 1095.51 943.807 1097.6 949.091 1098.58C985.401 1105.31 983.867 1113.18 982.994 1117.67C982.983 1117.72 982.972 1117.78 982.961 1117.83C982.1 1122.29 971.82 1125 971.82 1125H922.798H896.949H865.308V1114.7Z" fill="#372898"/>
</g>
<path id="Shape" d="M784.308 1125L718.16 777H603.407L541.308 1125" stroke="#372898" stroke-width="2"/>
<g id="Combined Shape_3">
<path fill-rule="evenodd" clip-rule="evenodd" d="M603.608 471C569.201 471 541.308 498.893 541.308 533.301V709.5C541.308 742.576 565.097 770.095 596.499 775.88C599.365 776.611 602.368 777 605.462 777H608.808H634.862H764.154C784.121 777 800.308 760.813 800.308 740.846C800.308 720.879 784.121 704.692 764.154 704.692H702.204C701.987 701.745 701.574 698.771 700.954 695.785L664.609 520.642C658.609 491.729 633.137 471 603.608 471Z" fill="white"/>
<path d="M596.499 775.88L596.746 774.911L596.713 774.903L596.68 774.897L596.499 775.88ZM702.204 704.692L701.207 704.765L701.275 705.692H702.204V704.692ZM700.954 695.785L699.975 695.988L699.975 695.988L700.954 695.785ZM664.609 520.642L665.588 520.439L665.588 520.439L664.609 520.642ZM542.308 533.301C542.308 499.445 569.753 472 603.608 472V470C568.648 470 540.308 498.341 540.308 533.301H542.308ZM542.308 709.5V533.301H540.308V709.5H542.308ZM596.68 774.897C565.744 769.197 542.308 742.084 542.308 709.5H540.308C540.308 743.067 564.45 770.992 596.318 776.864L596.68 774.897ZM605.462 776C602.452 776 599.532 775.622 596.746 774.911L596.252 776.849C599.198 777.601 602.284 778 605.462 778V776ZM608.808 776H605.462V778H608.808V776ZM634.862 776H608.808V778H634.862V776ZM764.154 776H634.862V778H764.154V776ZM799.308 740.846C799.308 760.261 783.569 776 764.154 776V778C784.673 778 801.308 761.366 801.308 740.846H799.308ZM764.154 705.692C783.569 705.692 799.308 721.431 799.308 740.846H801.308C801.308 720.326 784.673 703.692 764.154 703.692V705.692ZM702.204 705.692H764.154V703.692H702.204V705.692ZM699.975 695.988C700.586 698.932 700.993 701.862 701.207 704.765L703.201 704.618C702.981 701.628 702.562 698.611 701.933 695.582L699.975 695.988ZM663.63 520.845L699.975 695.988L701.933 695.582L665.588 520.439L663.63 520.845ZM603.608 472C632.663 472 657.726 492.397 663.63 520.845L665.588 520.439C659.492 491.062 633.611 470 603.608 470V472Z" fill="#372898"/>
</g>
<g id="Group 3">
<g id="Path 78">
<g id="Path 36">
<path id="Mask_3" fill-rule="evenodd" clip-rule="evenodd" d="M785.808 599L922.251 646.01C946.971 654.527 962.726 678.769 960.472 704.817L953.311 787.545L1145.46 974.898L1098.13 1027.92L944.808 899.5L929.279 1076L862.808 1071L866.808 830L710.849 711.058L664.082 676.903C650.815 667.213 644.416 650.678 647.703 634.581L656.808 590L743.576 562.638L785.808 599Z" fill="#4372D6"/>
<mask id="mask1" mask-type="alpha" maskUnits="userSpaceOnUse" x="535" y="477" width="658" height="686">
<path id="Mask_4" fill-rule="evenodd" clip-rule="evenodd" d="M785.808 599L922.251 646.01C946.971 654.527 962.726 678.769 960.472 704.817L953.311 787.545L1145.46 974.898L1098.13 1027.92L944.808 899.5L929.279 1076L862.808 1071L866.808 830L710.849 711.058L664.082 676.903C650.815 667.213 644.416 650.678 647.703 634.581L656.808 590L743.576 562.638L785.808 599Z" fill="white"/>
</mask>
<g mask="url(#mask1)">
<path id="Combined Shape_4" fill-rule="evenodd" clip-rule="evenodd" d="M702.307 592C702.307 592 694.572 627 650.308 627C626.884 627 633.95 591.701 669.552 577C678.803 573.18 702.307 592 702.307 592ZM947.308 902L865.307 829L865.552 871.5L941.552 932L947.308 902ZM974.552 653L961.102 758.34L955.347 788.34L780.552 625L772.052 588L974.552 653Z" fill="#372898"/>
</g>
</g>
</g>
</g>
<g id="Group 3 Copy">
<path id="Path 6 Copy 5" fill-rule="evenodd" clip-rule="evenodd" d="M788.052 395.5L870.052 503L963.052 433L1010.05 471L883.269 580.123C871.016 590.669 852.404 588.677 842.66 575.777L734.063 432L788.052 395.5Z" fill="white" stroke="#372898" stroke-width="2" stroke-linecap="round"/>
</g>
<g id="Path 79">
<path id="Mask_5" fill-rule="evenodd" clip-rule="evenodd" d="M652.578 405.831C652.391 395.172 661.009 386.446 671.669 386.499L715.69 386.717L777.322 389.548C788.463 390.059 796.77 400.013 795.28 411.066L771.563 587L653.563 587L655.488 572.364L652.578 405.831Z" fill="white" stroke="#372898" stroke-width="2" stroke-linecap="round"/>
<mask id="mask2" mask-type="alpha" maskUnits="userSpaceOnUse" x="645" y="381" width="158" height="212">
<path id="Mask_6" fill-rule="evenodd" clip-rule="evenodd" d="M652.578 405.831C652.391 395.172 661.009 386.446 671.669 386.499L715.69 386.717L777.322 389.548C788.463 390.059 796.77 400.013 795.28 411.066L771.563 587L653.563 587L655.488 572.364L652.578 405.831Z" fill="white" stroke="white" stroke-width="2" stroke-linecap="round"/>
</mask>
<g mask="url(#mask2)">
<path id="Path 79_2" fill-rule="evenodd" clip-rule="evenodd" d="M666.563 386.5L627.063 567.5L772.063 588L792.552 437L800.552 377.5L765.563 389.5L759.162 399.054C746.926 417.32 719.376 415.003 710.362 394.951L706.563 386.5H666.563Z" fill="#89B922"/>
</g>
</g>
<path id="Combined Shape Copy 4" fill-rule="evenodd" clip-rule="evenodd" d="M782.503 588C784.055 588 785.459 587.074 786.069 585.647V585.647C786.722 584.122 786.333 582.351 785.102 581.24L780.839 577.393C778.669 575.434 776.041 574.056 773.217 573.3C769.994 572.437 765.522 571.164 761.802 569.821V569.821C752.165 566.343 742.012 564.115 731.824 565.191L711.435 567.344L678.199 576.041L683.562 588L742.562 588L769.062 588L782.503 588Z" fill="white" stroke="#372898" stroke-width="2"/>
<path id="Path 6 Copy 5_2" fill-rule="evenodd" clip-rule="evenodd" d="M644.346 384.945C669.787 385.71 687.001 411.176 678.227 435.069L640.063 539L724.693 565.18L706.563 606.5L592.708 586.682C575.634 583.71 565.333 566.099 571.112 549.76L624.631 398.443C627.569 390.136 635.538 384.68 644.346 384.945V384.945Z" fill="white" stroke="#372898" stroke-width="2" stroke-linecap="round"/>
<g id="Group 2">
<g id="Group 4">
<g id="Combined Shape_5">
<path fill-rule="evenodd" clip-rule="evenodd" d="M716.234 384.501C715.734 395.001 728.644 401.501 736.139 401.501C743.634 401.501 754.234 396.501 754.234 386.501L753.989 371.501L717.989 355.001M752.954 366.916L752.808 387.994L754.808 388.008L754.954 366.93L752.954 366.916ZM716.73 388.06L718.641 355.668L716.645 355.55L714.734 387.942L716.73 388.06Z" fill="white"/>
<path d="M715.235 384.454C715.262 383.902 715.73 383.476 716.282 383.503C716.833 383.529 717.259 383.997 717.233 384.549L715.235 384.454ZM754.234 386.501L755.234 386.485L755.234 386.493V386.501H754.234ZM753.989 371.501L754.406 370.592L754.979 370.854L754.989 371.484L753.989 371.501ZM717.573 355.91C717.07 355.68 716.85 355.086 717.08 354.584C717.31 354.082 717.904 353.862 718.406 354.092L717.573 355.91ZM752.808 387.994L752.801 388.994L751.801 388.987L751.808 387.987L752.808 387.994ZM752.954 366.916L751.954 366.909L751.961 365.909L752.961 365.916L752.954 366.916ZM754.808 388.008L755.808 388.015L755.801 389.015L754.801 389.008L754.808 388.008ZM754.954 366.93L754.961 365.93L755.961 365.937L755.954 366.937L754.954 366.93ZM718.641 355.668L718.7 354.669L719.698 354.728L719.64 355.727L718.641 355.668ZM716.73 388.06L717.728 388.119L717.67 389.117L716.671 389.058L716.73 388.06ZM716.645 355.55L715.646 355.491L715.705 354.493L716.704 354.552L716.645 355.55ZM714.734 387.942L714.675 388.94L713.676 388.881L713.735 387.883L714.734 387.942ZM717.233 384.549C717.005 389.333 719.823 393.298 723.771 396.126C727.725 398.958 732.627 400.501 736.139 400.501V402.501C732.156 402.501 726.855 400.795 722.606 397.752C718.351 394.704 714.963 390.17 715.235 384.454L717.233 384.549ZM736.139 400.501C739.694 400.501 744.016 399.308 747.426 396.931C750.814 394.569 753.234 391.098 753.234 386.501H755.234C755.234 391.905 752.355 395.933 748.569 398.572C744.805 401.195 740.08 402.501 736.139 402.501V400.501ZM753.234 386.518L752.989 371.517L754.989 371.484L755.234 386.485L753.234 386.518ZM753.573 372.41L717.573 355.91L718.406 354.092L754.406 370.592L753.573 372.41ZM751.808 387.987L751.954 366.909L753.954 366.923L753.808 388.001L751.808 387.987ZM754.801 389.008L752.801 388.994L752.815 386.994L754.814 387.008L754.801 389.008ZM755.954 366.937L755.808 388.015L753.808 388.001L753.954 366.923L755.954 366.937ZM752.961 365.916L754.961 365.93L754.947 367.93L752.947 367.916L752.961 365.916ZM719.64 355.727L717.728 388.119L715.732 388.001L717.643 355.609L719.64 355.727ZM716.704 354.552L718.7 354.669L718.582 356.666L716.586 356.548L716.704 354.552ZM713.735 387.883L715.646 355.491L717.643 355.609L715.732 388.001L713.735 387.883ZM716.671 389.058L714.675 388.94L714.793 386.944L716.789 387.061L716.671 389.058Z" fill="#372898"/>
</g>
<path id="Path 11 Copy 6" fill-rule="evenodd" clip-rule="evenodd" d="M753.808 376.501L751.085 382.001L721.808 361.001L753.919 368.554L753.808 376.501Z" fill="#372898"/>
<g id="Combined Shape Copy">
<path fill-rule="evenodd" clip-rule="evenodd" d="M718.671 356.52C725.254 365.003 736.137 371.001 746.456 371.001C762.733 371.001 762.808 359.089 762.808 343.029C762.808 326.968 758.234 317.458 741.974 314.449C727.294 311.733 715.099 321.673 712.867 335.45C708.738 336.942 705.808 341.052 705.808 345.826C705.808 351.84 710.459 356.801 716.299 356.801C717.116 356.801 717.91 356.704 718.671 356.52ZM717.371 354.73C717.019 354.777 716.662 354.801 716.299 354.801C711.656 354.801 707.808 350.83 707.808 345.826C707.808 342.249 709.774 339.2 712.591 337.751C712.532 338.499 712.503 339.256 712.503 340.02C712.503 345.195 714.338 350.252 717.371 354.73Z" fill="white"/>
<path d="M718.671 356.52L718.436 355.548L719.064 355.397L719.461 355.907L718.671 356.52ZM741.974 314.449L741.792 315.433L741.974 314.449ZM712.867 335.45L713.855 335.609L713.761 336.19L713.207 336.39L712.867 335.45ZM717.371 354.73L718.199 354.169L719.105 355.506L717.503 355.721L717.371 354.73ZM712.591 337.751L712.134 336.862L713.729 336.042L713.588 337.83L712.591 337.751ZM746.456 372.001C735.782 372.001 724.624 365.822 717.881 357.133L719.461 355.907C725.884 364.184 736.491 370.001 746.456 370.001V372.001ZM763.808 343.029C763.808 347.035 763.804 350.831 763.539 354.252C763.274 357.67 762.745 360.785 761.66 363.418C760.567 366.073 758.904 368.25 756.39 369.748C753.891 371.236 750.641 372.001 746.456 372.001V370.001C750.41 370.001 753.273 369.277 755.366 368.029C757.444 366.792 758.851 364.988 759.811 362.657C760.78 360.305 761.287 357.43 761.545 354.098C761.802 350.768 761.808 347.053 761.808 343.029H763.808ZM742.156 313.466C750.461 315.003 755.95 318.237 759.32 323.289C762.662 328.298 763.808 334.933 763.808 343.029H761.808C761.808 335.063 760.667 328.913 757.657 324.399C754.675 319.93 749.748 316.905 741.792 315.433L742.156 313.466ZM711.88 335.29C714.192 321.015 726.87 310.638 742.156 313.466L741.792 315.433C727.718 312.829 716.005 322.331 713.855 335.609L711.88 335.29ZM713.207 336.39C709.487 337.735 706.808 341.46 706.808 345.826H704.808C704.808 340.645 707.989 336.149 712.528 334.509L713.207 336.39ZM706.808 345.826C706.808 351.336 711.058 355.801 716.299 355.801V357.801C709.859 357.801 704.808 352.343 704.808 345.826H706.808ZM716.299 355.801C717.037 355.801 717.752 355.713 718.436 355.548L718.905 357.492C718.068 357.694 717.196 357.801 716.299 357.801V355.801ZM717.503 355.721C717.108 355.774 716.706 355.801 716.299 355.801V353.801C716.617 353.801 716.93 353.78 717.238 353.738L717.503 355.721ZM716.299 355.801C711.059 355.801 706.808 351.336 706.808 345.826H708.808C708.808 350.323 712.253 353.801 716.299 353.801V355.801ZM706.808 345.826C706.808 341.878 708.98 338.483 712.134 336.862L713.048 338.641C710.568 339.916 708.808 342.619 708.808 345.826H706.808ZM711.503 340.02C711.503 339.229 711.534 338.447 711.594 337.673L713.588 337.83C713.531 338.551 713.503 339.282 713.503 340.02H711.503ZM716.543 355.29C713.422 350.683 711.503 345.434 711.503 340.02H713.503C713.503 344.957 715.254 349.822 718.199 354.169L716.543 355.29Z" fill="#372898"/>
</g>
<path id="Combined Shape Copy 2" fill-rule="evenodd" clip-rule="evenodd" d="M721.801 338.001L725.575 327.367L759.808 326.436C759.808 326.436 757.166 322.838 755.529 321.315C746.512 312.927 740.134 313.826 737.022 314.265C736.852 314.289 736.692 314.312 736.542 314.331C729.41 315.263 724.655 317.59 724.655 317.59C724.655 317.59 719.559 320.204 717.639 323.147C715.718 326.09 712.808 332.764 712.808 332.764L712.811 337.351C712.811 337.351 714.721 336.795 715.622 336.679C716.522 336.562 717.999 336.679 717.999 336.679C717.999 336.679 718.096 336.706 718.25 336.756C719.539 336.924 720.743 337.358 721.801 338.001Z" fill="#372898"/>
</g>
<path id="Path 33" fill-rule="evenodd" clip-rule="evenodd" d="M719.803 326.001C720.567 328.165 754.303 332.001 760.803 330.001V330.001C769.051 327.463 758.787 316.656 750.345 314.865C745.683 313.875 741.051 313.028 738.752 313.001C736.379 312.972 733.594 314.045 731.171 315.29C727.029 317.42 723.372 320.484 720.639 324.255C720.061 325.054 719.7 325.709 719.803 326.001Z" fill="#372898"/>
</g>
<path id="Path 34" d="M714.552 588H1069.05L1197.05 1125" stroke="#372898" stroke-width="2" stroke-linecap="round"/>
<g id="Combined Shape_6">
<path fill-rule="evenodd" clip-rule="evenodd" d="M1343.76 277C1345.37 271.423 1350.58 267.665 1356.38 267.899C1376.26 268.702 1389.86 288.281 1383.68 307.193L1351.01 407.191C1348.18 415.849 1341.32 422.59 1332.61 425.262L1201.5 465.5L1201.5 465.492L1198.04 466.562C1198.04 466.562 1191.29 475.064 1186.81 478.704C1183.65 481.277 1177.35 484.899 1173.93 486.805C1172.38 487.665 1170.66 488.154 1168.9 488.276L1150.08 489.572C1147.88 489.723 1145.9 488.248 1145.41 486.098C1144.86 483.647 1146.43 481.22 1148.9 480.73L1162.8 477.962L1164.53 477.289C1169.93 475.191 1168.83 467.248 1163.06 466.697C1163.06 466.697 1156.4 468.662 1152.06 469.931C1147.73 471.201 1139.09 475.83 1139.09 475.83L1130.44 483.433C1128.95 484.736 1126.71 484.644 1125.34 483.224C1124.32 482.174 1124.02 480.625 1124.57 479.27L1126.58 474.272C1127.69 471.533 1129.47 469.124 1131.7 467.19C1134.07 465.129 1137.25 462.279 1139.8 459.667C1146.59 452.708 1154.33 446.601 1163.47 443.3L1181.83 436.666L1198.63 433.325L1313.5 382L1343.76 277Z" fill="white"/>
<path d="M1356.38 267.899L1356.42 266.9L1356.38 267.899ZM1343.76 277L1342.8 276.723L1342.8 276.723L1343.76 277ZM1383.68 307.193L1382.73 306.883L1383.68 307.193ZM1351.01 407.191L1350.06 406.88L1350.06 406.88L1351.01 407.191ZM1332.61 425.262L1332.91 426.218L1332.91 426.218L1332.61 425.262ZM1201.5 465.5L1201.79 466.456L1200.71 466.788L1200.52 465.674L1201.5 465.5ZM1201.5 465.492L1201.2 464.536L1202.29 464.202L1202.48 465.318L1201.5 465.492ZM1198.04 466.562L1197.25 465.94L1197.45 465.698L1197.74 465.607L1198.04 466.562ZM1186.81 478.704L1187.44 479.48L1187.44 479.48L1186.81 478.704ZM1173.93 486.805L1173.44 485.931L1173.44 485.931L1173.93 486.805ZM1168.9 488.276L1168.97 489.273L1168.97 489.273L1168.9 488.276ZM1150.08 489.572L1150.15 490.569L1150.15 490.569L1150.08 489.572ZM1145.41 486.098L1146.39 485.878L1146.39 485.878L1145.41 486.098ZM1148.9 480.73L1148.7 479.749L1148.7 479.749L1148.9 480.73ZM1162.8 477.962L1163.16 478.894L1163.08 478.926L1162.99 478.943L1162.8 477.962ZM1164.53 477.289L1164.17 476.357L1164.17 476.357L1164.53 477.289ZM1163.06 466.697L1162.78 465.738L1162.96 465.683L1163.15 465.702L1163.06 466.697ZM1152.06 469.931L1151.78 468.971L1151.78 468.971L1152.06 469.931ZM1139.09 475.83L1138.43 475.079L1138.52 475.003L1138.62 474.948L1139.09 475.83ZM1130.44 483.433L1129.78 482.682L1129.78 482.682L1130.44 483.433ZM1125.34 483.224L1124.62 483.919L1124.62 483.919L1125.34 483.224ZM1124.57 479.27L1125.49 479.645L1125.49 479.645L1124.57 479.27ZM1126.58 474.272L1125.66 473.897L1125.66 473.897L1126.58 474.272ZM1131.7 467.19L1131.04 466.434L1131.04 466.434L1131.7 467.19ZM1139.8 459.667L1139.09 458.969L1139.09 458.969L1139.8 459.667ZM1163.47 443.3L1163.81 444.24L1163.81 444.24L1163.47 443.3ZM1181.83 436.666L1181.49 435.726L1181.56 435.7L1181.64 435.685L1181.83 436.666ZM1198.63 433.325L1199.04 434.238L1198.93 434.284L1198.82 434.306L1198.63 433.325ZM1313.5 382L1314.46 382.277L1314.33 382.724L1313.91 382.913L1313.5 382ZM1356.34 268.898C1351 268.683 1346.2 272.142 1344.72 277.277L1342.8 276.723C1344.54 270.703 1350.16 266.647 1356.42 266.9L1356.34 268.898ZM1382.73 306.883C1388.71 288.601 1375.56 269.675 1356.34 268.898L1356.42 266.9C1376.96 267.73 1391.02 287.961 1384.64 307.504L1382.73 306.883ZM1350.06 406.88L1382.73 306.883L1384.64 307.504L1351.96 407.501L1350.06 406.88ZM1332.32 424.306C1340.72 421.729 1347.33 415.229 1350.06 406.88L1351.96 407.501C1349.03 416.469 1341.92 423.451 1332.91 426.218L1332.32 424.306ZM1201.21 464.544L1332.32 424.306L1332.91 426.218L1201.79 466.456L1201.21 464.544ZM1202.48 465.318L1202.48 465.326L1200.52 465.674L1200.51 465.666L1202.48 465.318ZM1201.79 466.447L1198.33 467.518L1197.74 465.607L1201.2 464.536L1201.79 466.447ZM1198.04 466.562C1198.82 467.184 1198.82 467.184 1198.82 467.184C1198.82 467.184 1198.82 467.184 1198.82 467.185C1198.82 467.185 1198.82 467.185 1198.82 467.186C1198.82 467.187 1198.82 467.189 1198.81 467.191C1198.81 467.195 1198.81 467.202 1198.8 467.21C1198.79 467.227 1198.77 467.251 1198.74 467.283C1198.69 467.348 1198.61 467.442 1198.52 467.563C1198.32 467.804 1198.04 468.153 1197.68 468.583C1196.98 469.442 1195.99 470.626 1194.86 471.925C1192.61 474.506 1189.75 477.6 1187.44 479.48L1186.18 477.929C1188.35 476.168 1191.1 473.191 1193.35 470.611C1194.46 469.33 1195.44 468.161 1196.14 467.312C1196.49 466.888 1196.77 466.544 1196.96 466.307C1197.06 466.188 1197.13 466.096 1197.18 466.034C1197.2 466.003 1197.22 465.979 1197.24 465.964C1197.24 465.956 1197.25 465.95 1197.25 465.946C1197.25 465.944 1197.25 465.943 1197.25 465.942C1197.25 465.941 1197.25 465.941 1197.25 465.941C1197.25 465.941 1197.25 465.941 1197.25 465.94C1197.25 465.94 1197.25 465.94 1198.04 466.562ZM1187.44 479.48C1184.2 482.118 1177.82 485.783 1174.41 487.679L1173.44 485.931C1176.88 484.015 1183.1 480.435 1186.18 477.929L1187.44 479.48ZM1174.41 487.679C1172.73 488.613 1170.87 489.142 1168.97 489.273L1168.83 487.278C1170.46 487.166 1172.03 486.716 1173.44 485.931L1174.41 487.679ZM1168.97 489.273L1150.15 490.569L1150.01 488.574L1168.83 487.278L1168.97 489.273ZM1150.15 490.569C1147.45 490.755 1145.03 488.95 1144.43 486.318L1146.39 485.878C1146.76 487.547 1148.3 488.692 1150.01 488.574L1150.15 490.569ZM1144.43 486.318C1143.76 483.318 1145.69 480.35 1148.7 479.749L1149.09 481.71C1147.18 482.091 1145.96 483.975 1146.39 485.878L1144.43 486.318ZM1148.7 479.749L1162.6 476.981L1162.99 478.943L1149.09 481.71L1148.7 479.749ZM1162.43 477.03L1164.17 476.357L1164.89 478.221L1163.16 478.894L1162.43 477.03ZM1164.17 476.357C1168.58 474.641 1167.68 468.143 1162.96 467.693L1163.15 465.702C1169.97 466.352 1171.27 475.741 1164.89 478.221L1164.17 476.357ZM1163.06 466.697C1163.34 467.656 1163.34 467.656 1163.34 467.656C1163.34 467.656 1163.34 467.656 1163.34 467.656C1163.34 467.656 1163.34 467.656 1163.34 467.657C1163.34 467.657 1163.34 467.657 1163.34 467.658C1163.33 467.659 1163.33 467.66 1163.32 467.662C1163.31 467.666 1163.29 467.671 1163.27 467.679C1163.22 467.693 1163.14 467.715 1163.05 467.743C1162.86 467.799 1162.58 467.881 1162.23 467.983C1161.54 468.187 1160.57 468.472 1159.47 468.797C1157.26 469.447 1154.51 470.256 1152.35 470.891L1151.78 468.971C1153.95 468.337 1156.7 467.529 1158.9 466.879C1160.01 466.554 1160.98 466.269 1161.67 466.065C1162.01 465.963 1162.29 465.881 1162.48 465.825C1162.58 465.797 1162.65 465.775 1162.7 465.76C1162.73 465.753 1162.74 465.747 1162.76 465.744C1162.76 465.742 1162.77 465.74 1162.77 465.739C1162.77 465.739 1162.77 465.739 1162.78 465.738C1162.78 465.738 1162.78 465.738 1162.78 465.738C1162.78 465.738 1162.78 465.738 1162.78 465.738C1162.78 465.738 1162.78 465.738 1163.06 466.697ZM1152.35 470.891C1150.27 471.499 1147.1 472.937 1144.39 474.256C1143.05 474.909 1141.84 475.524 1140.97 475.975C1140.53 476.201 1140.18 476.385 1139.94 476.513C1139.82 476.577 1139.72 476.627 1139.66 476.661C1139.63 476.677 1139.6 476.69 1139.59 476.699C1139.58 476.703 1139.57 476.706 1139.57 476.708C1139.57 476.709 1139.56 476.71 1139.56 476.711C1139.56 476.711 1139.56 476.711 1139.56 476.711C1139.56 476.711 1139.56 476.711 1139.56 476.711C1139.56 476.711 1139.56 476.711 1139.09 475.83C1138.62 474.948 1138.62 474.948 1138.62 474.948C1138.62 474.948 1138.62 474.948 1138.62 474.948C1138.62 474.948 1138.62 474.948 1138.62 474.947C1138.62 474.947 1138.62 474.946 1138.62 474.945C1138.63 474.942 1138.64 474.939 1138.64 474.934C1138.66 474.925 1138.69 474.912 1138.72 474.895C1138.78 474.86 1138.88 474.809 1139 474.744C1139.25 474.614 1139.61 474.427 1140.05 474.198C1140.93 473.742 1142.15 473.12 1143.51 472.458C1146.21 471.144 1149.52 469.633 1151.78 468.971L1152.35 470.891ZM1139.75 476.581L1131.1 484.184L1129.78 482.682L1138.43 475.079L1139.75 476.581ZM1131.1 484.184C1129.21 485.84 1126.36 485.723 1124.62 483.919L1126.05 482.53C1127.06 483.566 1128.69 483.633 1129.78 482.682L1131.1 484.184ZM1124.62 483.919C1123.33 482.585 1122.94 480.616 1123.64 478.896L1125.49 479.645C1125.09 480.633 1125.31 481.763 1126.05 482.53L1124.62 483.919ZM1123.64 478.896L1125.66 473.897L1127.51 474.646L1125.49 479.645L1123.64 478.896ZM1125.66 473.897C1126.83 471.002 1128.7 468.465 1131.04 466.434L1132.35 467.945C1130.23 469.783 1128.55 472.065 1127.51 474.646L1125.66 473.897ZM1131.04 466.434C1133.41 464.379 1136.57 461.55 1139.09 458.969L1140.52 460.365C1137.94 463.007 1134.74 465.879 1132.35 467.945L1131.04 466.434ZM1139.09 458.969C1145.92 451.955 1153.79 445.732 1163.13 442.359L1163.81 444.24C1154.87 447.47 1147.25 453.462 1140.52 460.365L1139.09 458.969ZM1163.13 442.359L1181.49 435.726L1182.17 437.607L1163.81 444.24L1163.13 442.359ZM1181.64 435.685L1198.43 432.345L1198.82 434.306L1182.03 437.647L1181.64 435.685ZM1313.91 382.913L1199.04 434.238L1198.22 432.412L1313.09 381.087L1313.91 382.913ZM1344.72 277.277L1314.46 382.277L1312.54 381.723L1342.8 276.723L1344.72 277.277Z" fill="#372898"/>
</g>
<path id="Path 5 Copy 9" fill-rule="evenodd" clip-rule="evenodd" d="M1449.74 269.122C1449.37 262.013 1442.92 256.795 1435.88 257.909L1405.3 262.753L1360.42 269.861V269.861C1350.02 272.047 1343.44 282.339 1345.82 292.696L1373.28 412.367L1457.15 407.972L1449.74 269.122Z" fill="#4372D6"/>
<path id="Path 59" fill-rule="evenodd" clip-rule="evenodd" d="M1453.54 400.152L1452.88 400.256L1434.88 307.138L1453.57 344.813L1453.54 400.152Z" fill="#372898"/>
<path id="Shape_2" fill-rule="evenodd" clip-rule="evenodd" d="M1405.33 261.757L1396.86 238.515C1392.54 243.414 1377.08 251.218 1370.37 251.643L1372.84 267.853C1372.84 267.853 1380.86 272.875 1390.21 270.888C1399.55 268.9 1405.33 261.757 1405.33 261.757Z" fill="white" stroke="#372898" stroke-width="2" stroke-linecap="round"/>
<path id="Path 9 Copy" fill-rule="evenodd" clip-rule="evenodd" d="M1299 675L1348.17 941.644C1348.17 941.644 1358.3 941.156 1364.51 938.607C1370.72 936.058 1379.88 927.439 1379.88 927.439L1373.35 817.227L1299 675Z" fill="white" stroke="#372898" stroke-width="2" stroke-linecap="round"/>
<path id="Path 9 Copy 2" fill-rule="evenodd" clip-rule="evenodd" d="M1444.53 795.026L1473.43 1068.85C1473.43 1068.85 1483.57 1069.07 1489.94 1066.96C1496.31 1064.85 1506.05 1056.89 1506.05 1056.89L1507.23 946.496L1444.53 795.026Z" fill="white" stroke="#372898" stroke-width="2" stroke-linecap="round"/>
<path id="Path 11 Copy 8" fill-rule="evenodd" clip-rule="evenodd" d="M1378.79 263.085L1388.32 248.509L1370.73 253.374L1378.79 263.085Z" fill="#372898"/>
<g id="Group 3_2">
<g id="Combined Shape Copy 5">
<path fill-rule="evenodd" clip-rule="evenodd" d="M1401.79 236.564C1397.04 245.036 1388.31 251.169 1377.82 252.271C1360.77 254.064 1354.89 244.085 1353.12 227.272C1351.36 210.458 1355.1 199.999 1371.81 195.059C1386.91 190.593 1400.8 199.686 1404.63 213.896C1409.09 215.008 1412.58 218.962 1413.1 223.928C1413.76 230.199 1409.45 235.875 1403.37 236.515C1402.84 236.571 1402.31 236.586 1401.79 236.564ZM1402.83 234.554C1402.94 234.547 1403.05 234.538 1403.16 234.526C1408.06 234.011 1411.67 229.402 1411.11 224.137C1410.72 220.362 1408.29 217.361 1405.15 216.156C1405.3 216.952 1405.42 217.761 1405.5 218.582C1406.1 224.251 1405.09 229.722 1402.83 234.554Z" fill="white"/>
<path d="M1401.79 236.564L1401.84 235.565L1401.22 235.539L1400.92 236.075L1401.79 236.564ZM1371.81 195.059L1371.53 194.1L1371.53 194.1L1371.81 195.059ZM1404.63 213.896L1403.67 214.157L1403.82 214.724L1404.39 214.866L1404.63 213.896ZM1402.83 234.554L1401.92 234.131L1401.2 235.664L1402.89 235.552L1402.83 234.554ZM1405.15 216.156L1405.51 215.222L1403.84 214.582L1404.17 216.34L1405.15 216.156ZM1377.93 253.266C1388.75 252.128 1397.76 245.799 1402.67 237.053L1400.92 236.075C1396.32 244.272 1387.88 250.209 1377.72 251.277L1377.93 253.266ZM1352.13 227.376C1353.02 235.833 1354.96 242.793 1358.99 247.407C1363.08 252.094 1369.18 254.185 1377.93 253.266L1377.72 251.277C1369.41 252.15 1364.04 250.148 1360.49 246.091C1356.88 241.96 1355 235.524 1354.12 227.167L1352.13 227.376ZM1371.53 194.1C1363 196.62 1357.62 200.603 1354.65 206.248C1351.71 211.845 1351.24 218.905 1352.13 227.376L1354.12 227.167C1353.24 218.825 1353.76 212.248 1356.42 207.178C1359.07 202.154 1363.91 198.438 1372.09 196.018L1371.53 194.1ZM1405.6 213.636C1401.64 198.938 1387.22 189.459 1371.53 194.1L1372.09 196.018C1386.61 191.727 1399.97 200.435 1403.67 214.157L1405.6 213.636ZM1404.39 214.866C1408.43 215.874 1411.63 219.472 1412.11 224.033L1414.1 223.824C1413.53 218.452 1409.75 214.143 1404.88 212.926L1404.39 214.866ZM1412.11 224.033C1412.72 229.801 1408.75 234.943 1403.26 235.521L1403.47 237.51C1410.15 236.807 1414.81 230.596 1414.1 223.824L1412.11 224.033ZM1403.26 235.521C1402.78 235.571 1402.31 235.585 1401.84 235.565L1401.75 237.563C1402.32 237.588 1402.89 237.571 1403.47 237.51L1403.26 235.521ZM1402.89 235.552C1403.02 235.544 1403.14 235.534 1403.26 235.521L1403.05 233.532C1402.95 233.542 1402.86 233.55 1402.76 233.557L1402.89 235.552ZM1403.26 235.521C1408.75 234.943 1412.72 229.802 1412.11 224.033L1410.12 224.242C1410.62 229.002 1407.36 233.079 1403.05 233.532L1403.26 235.521ZM1412.11 224.033C1411.67 219.887 1409.01 216.563 1405.51 215.222L1404.79 217.09C1407.58 218.159 1409.76 220.837 1410.12 224.242L1412.11 224.033ZM1406.5 218.478C1406.41 217.63 1406.29 216.794 1406.13 215.972L1404.17 216.34C1404.31 217.109 1404.43 217.892 1404.51 218.687L1406.5 218.478ZM1403.73 234.978C1406.07 229.986 1407.11 224.333 1406.5 218.478L1404.51 218.687C1405.08 224.169 1404.1 229.458 1401.92 234.131L1403.73 234.978Z" fill="#372898"/>
</g>
<g id="Combined Shape Copy 6">
<path fill-rule="evenodd" clip-rule="evenodd" d="M1386.5 211L1354.5 211C1354.5 211 1361.78 194.088 1377.5 194C1385.07 193.957 1394.28 198.171 1396.72 201.02C1399.16 203.87 1403.19 210.541 1403.19 210.541L1405.11 216.261C1405.11 216.261 1404.95 216.203 1404.68 216.114C1403.87 215.736 1402.99 215.471 1402.09 215.335C1401.57 215.205 1401.11 215.114 1400.84 215.116C1399.89 215.124 1398.37 215.464 1398.37 215.464C1398.37 215.464 1398.27 215.508 1398.12 215.584C1395.85 216.216 1393.96 217.65 1392.73 219.525L1386.5 211Z" fill="white"/>
<path d="M1354.5 211L1353.58 210.604L1352.98 212L1354.5 212L1354.5 211ZM1386.5 211L1387.31 210.41L1387.01 210L1386.5 210L1386.5 211ZM1377.5 194L1377.49 193L1377.5 194ZM1396.72 201.02L1395.96 201.671L1395.96 201.671L1396.72 201.02ZM1403.19 210.541L1404.14 210.222L1404.1 210.118L1404.04 210.024L1403.19 210.541ZM1405.11 216.261L1404.78 217.205L1406.71 217.875L1406.06 215.942L1405.11 216.261ZM1404.68 216.114L1404.26 217.021L1404.31 217.045L1404.36 217.063L1404.68 216.114ZM1402.09 215.335L1401.84 216.305L1401.89 216.317L1401.94 216.324L1402.09 215.335ZM1400.84 215.116L1400.85 216.116L1400.85 216.116L1400.84 215.116ZM1398.37 215.464L1398.15 214.488L1398.05 214.511L1397.96 214.552L1398.37 215.464ZM1398.12 215.584L1398.39 216.547L1398.48 216.521L1398.56 216.479L1398.12 215.584ZM1392.73 219.525L1391.93 220.115L1392.78 221.28L1393.57 220.073L1392.73 219.525ZM1354.5 212L1386.5 212L1386.5 210L1354.5 210L1354.5 212ZM1377.49 193C1369.25 193.046 1363.25 197.513 1359.36 201.867C1357.41 204.048 1355.97 206.222 1355.02 207.851C1354.54 208.666 1354.19 209.348 1353.95 209.828C1353.83 210.068 1353.74 210.259 1353.68 210.391C1353.65 210.457 1353.62 210.508 1353.61 210.544C1353.6 210.562 1353.59 210.576 1353.59 210.586C1353.59 210.591 1353.59 210.595 1353.58 210.598C1353.58 210.6 1353.58 210.601 1353.58 210.602C1353.58 210.603 1353.58 210.603 1353.58 210.603C1353.58 210.604 1353.58 210.604 1354.5 211C1355.42 211.395 1355.42 211.396 1355.42 211.396C1355.42 211.396 1355.42 211.396 1355.42 211.396C1355.42 211.396 1355.42 211.396 1355.42 211.395C1355.42 211.394 1355.42 211.392 1355.42 211.389C1355.42 211.383 1355.43 211.372 1355.43 211.358C1355.45 211.33 1355.47 211.287 1355.49 211.229C1355.55 211.113 1355.63 210.94 1355.74 210.718C1355.96 210.273 1356.3 209.633 1356.75 208.861C1357.65 207.316 1359.01 205.257 1360.85 203.199C1364.53 199.075 1370.04 195.042 1377.51 195L1377.49 193ZM1397.48 200.37C1396.77 199.538 1395.63 198.676 1394.27 197.858C1392.89 197.031 1391.22 196.215 1389.4 195.496C1385.77 194.062 1381.44 192.978 1377.49 193L1377.51 195C1381.12 194.98 1385.19 195.981 1388.66 197.356C1390.4 198.041 1391.96 198.81 1393.24 199.573C1394.52 200.346 1395.45 201.078 1395.96 201.671L1397.48 200.37ZM1403.19 210.541C1404.04 210.024 1404.04 210.024 1404.04 210.024C1404.04 210.024 1404.04 210.023 1404.04 210.023C1404.04 210.023 1404.04 210.023 1404.04 210.022C1404.04 210.021 1404.04 210.02 1404.04 210.018C1404.04 210.015 1404.04 210.01 1404.03 210.003C1404.02 209.99 1404.01 209.971 1404 209.946C1403.97 209.896 1403.92 209.822 1403.86 209.727C1403.75 209.537 1403.58 209.264 1403.37 208.926C1402.95 208.253 1402.37 207.324 1401.71 206.305C1400.4 204.284 1398.75 201.851 1397.48 200.37L1395.96 201.671C1397.13 203.039 1398.72 205.366 1400.03 207.393C1400.68 208.398 1401.26 209.315 1401.67 209.981C1401.88 210.314 1402.04 210.584 1402.16 210.77C1402.21 210.863 1402.26 210.935 1402.29 210.984C1402.3 211.009 1402.31 211.027 1402.32 211.04C1402.32 211.046 1402.33 211.05 1402.33 211.053C1402.33 211.055 1402.33 211.056 1402.33 211.057C1402.33 211.057 1402.33 211.057 1402.33 211.057C1402.33 211.058 1402.33 211.058 1402.33 211.058C1402.33 211.058 1402.33 211.058 1403.19 210.541ZM1406.06 215.942L1404.14 210.222L1402.24 210.859L1404.16 216.579L1406.06 215.942ZM1404.36 217.063C1404.49 217.106 1404.6 217.142 1404.67 217.167C1404.71 217.18 1404.74 217.189 1404.75 217.196C1404.76 217.199 1404.77 217.201 1404.78 217.203C1404.78 217.204 1404.78 217.204 1404.78 217.205C1404.78 217.205 1404.78 217.205 1404.78 217.205C1404.78 217.205 1404.78 217.205 1404.78 217.205C1404.78 217.205 1404.78 217.205 1404.78 217.205C1404.78 217.205 1404.78 217.205 1404.78 217.205C1404.78 217.205 1404.78 217.205 1404.78 217.205C1404.78 217.205 1404.78 217.205 1405.11 216.261C1405.44 215.316 1405.44 215.316 1405.44 215.316C1405.44 215.316 1405.44 215.316 1405.44 215.316C1405.44 215.316 1405.44 215.316 1405.44 215.316C1405.44 215.316 1405.44 215.316 1405.44 215.316C1405.44 215.316 1405.44 215.316 1405.44 215.316C1405.44 215.316 1405.44 215.315 1405.44 215.315C1405.43 215.315 1405.43 215.314 1405.43 215.313C1405.42 215.311 1405.42 215.308 1405.41 215.305C1405.39 215.298 1405.36 215.287 1405.32 215.274C1405.24 215.248 1405.13 215.211 1404.99 215.165L1404.36 217.063ZM1405.1 215.207C1404.2 214.79 1403.24 214.496 1402.24 214.346L1401.94 216.324C1402.75 216.445 1403.53 216.683 1404.26 217.021L1405.1 215.207ZM1400.85 216.116C1400.97 216.115 1401.31 216.171 1401.84 216.305L1402.33 214.366C1401.83 214.238 1401.25 214.113 1400.83 214.116L1400.85 216.116ZM1398.37 215.464C1398.59 216.44 1398.59 216.44 1398.59 216.44C1398.59 216.44 1398.59 216.44 1398.59 216.44C1398.58 216.44 1398.58 216.44 1398.58 216.44C1398.58 216.44 1398.59 216.44 1398.59 216.44C1398.59 216.44 1398.59 216.44 1398.59 216.44C1398.59 216.439 1398.59 216.438 1398.6 216.437C1398.61 216.435 1398.62 216.432 1398.64 216.427C1398.68 216.419 1398.74 216.406 1398.82 216.391C1398.97 216.361 1399.18 216.32 1399.42 216.279C1399.91 216.194 1400.46 216.12 1400.85 216.116L1400.83 214.116C1400.27 214.121 1399.58 214.22 1399.08 214.308C1398.82 214.353 1398.58 214.398 1398.42 214.431C1398.34 214.448 1398.27 214.462 1398.22 214.472C1398.2 214.477 1398.18 214.481 1398.17 214.484C1398.16 214.485 1398.16 214.486 1398.15 214.487C1398.15 214.487 1398.15 214.488 1398.15 214.488C1398.15 214.488 1398.15 214.488 1398.15 214.488C1398.15 214.488 1398.15 214.488 1398.15 214.488C1398.15 214.488 1398.15 214.488 1398.15 214.488C1398.15 214.488 1398.15 214.488 1398.37 215.464ZM1398.56 216.479C1398.63 216.445 1398.69 216.418 1398.72 216.401C1398.74 216.392 1398.76 216.385 1398.77 216.381C1398.77 216.379 1398.77 216.378 1398.78 216.377C1398.78 216.377 1398.78 216.377 1398.78 216.376C1398.78 216.376 1398.78 216.376 1398.78 216.377C1398.78 216.377 1398.78 216.377 1398.78 216.377C1398.78 216.377 1398.78 216.377 1398.78 216.377C1398.78 216.377 1398.78 216.377 1398.78 216.377C1398.78 216.377 1398.78 216.377 1398.78 216.377C1398.78 216.377 1398.78 216.377 1398.37 215.464C1397.96 214.552 1397.96 214.552 1397.96 214.552C1397.96 214.552 1397.96 214.552 1397.96 214.552C1397.96 214.552 1397.96 214.552 1397.96 214.552C1397.96 214.552 1397.96 214.552 1397.96 214.552C1397.96 214.552 1397.96 214.552 1397.96 214.552C1397.96 214.553 1397.96 214.553 1397.95 214.553C1397.95 214.554 1397.95 214.555 1397.95 214.556C1397.95 214.557 1397.94 214.56 1397.93 214.563C1397.92 214.57 1397.9 214.579 1397.87 214.59C1397.83 214.613 1397.76 214.646 1397.67 214.688L1398.56 216.479ZM1397.85 214.62C1395.34 215.32 1393.26 216.906 1391.9 218.976L1393.57 220.073C1394.67 218.394 1396.36 217.112 1398.39 216.547L1397.85 214.62ZM1385.69 211.59L1391.93 220.115L1393.54 218.935L1387.31 210.41L1385.69 211.59Z" fill="#372898"/>
</g>
<path id="Oval Copy 7" fill-rule="evenodd" clip-rule="evenodd" d="M1393.55 187.368C1399.41 181.083 1399.85 173.578 1397.78 165.848C1396.65 161.654 1395.78 156.626 1392.37 153.447C1382.67 144.408 1367.49 144.938 1358.45 154.632C1353.95 159.454 1353.28 165.386 1353.47 171.494C1353.67 177.664 1354.76 184.009 1359.63 188.552C1369.33 197.592 1384.51 197.062 1393.55 187.368Z" fill="white" stroke="#372898" stroke-width="2" stroke-linecap="round"/>
</g>
<path id="Path 2 Copy 5" fill-rule="evenodd" clip-rule="evenodd" d="M1396.2 210.192C1396.09 207.357 1398.36 205 1401.2 205H1414.74C1417.41 205 1419.6 207.091 1419.74 209.753L1421.76 250.57C1421.89 253.303 1419.8 255.637 1417.07 255.808L1403.11 256.681C1400.31 256.856 1397.91 254.689 1397.8 251.882L1396.2 210.192Z" fill="white" stroke="#372898" stroke-width="2" stroke-linecap="round"/>
<path id="Path 8 Copy" fill-rule="evenodd" clip-rule="evenodd" d="M1461.46 399L1494.92 467.033C1500.9 479.197 1504.15 492.522 1504.44 506.075L1509.39 736.335L1513.5 990L1457 981.5L1435.84 746.353L1405.22 511.966L1350 574.5L1383 865.5L1329.5 873.5L1261.06 578.486C1257.56 563.395 1261.41 547.536 1271.43 535.721L1375.5 413L1461.46 399Z" fill="white" stroke="#372898" stroke-width="2" stroke-linecap="round"/>
<rect id="Rectangle_3" width="6" height="4" rx="2" transform="matrix(-1 0 0 1 1415 209)" fill="white" stroke="#372898" stroke-width="2" stroke-linecap="round"/>
<path id="Path 7 Copy 5" fill-rule="evenodd" clip-rule="evenodd" d="M1436 260.5C1436 260.5 1464.76 259.068 1471 288.5C1476.05 312.294 1499.47 401.146 1508.26 434.315C1510.43 442.495 1509.99 451.253 1505.61 458.498C1501.95 464.566 1497.02 471.026 1492.01 472.442C1486.07 474.122 1475.8 469.886 1468.49 466.206C1462.93 463.402 1459.16 458.12 1457.65 452.075L1405.95 244.648C1405.39 242.427 1406.19 240.088 1407.99 238.67V238.67C1410.26 236.872 1413.53 237.097 1415.54 239.189L1436 260.5Z" fill="white" stroke="#372898" stroke-width="2" stroke-linecap="round"/>
<g id="Path 4 Copy 5">
<path fill-rule="evenodd" clip-rule="evenodd" d="M1436.04 260.5L1437.87 265.868C1439.94 271.915 1441 278.261 1441 284.652V288L1494.04 422.5" fill="white"/>
<path d="M1436.04 260.5L1437.87 265.868C1439.94 271.915 1441 278.261 1441 284.652V288L1494.04 422.5" stroke="#372898" stroke-width="2" stroke-linecap="round"/>
</g>
<g id="Path 80">
<path fill-rule="evenodd" clip-rule="evenodd" d="M1399 410L1390.19 431Z" fill="white"/>
<path d="M1399 410L1390.19 431" stroke="#372898" stroke-width="2" stroke-linecap="round"/>
</g>
<rect id="Rectangle_4" width="84" height="69" transform="matrix(-1 0 0 1 1139.25 335)" fill="white" stroke="#372898" stroke-width="2" stroke-linecap="round"/>
<g id="Path 83 Copy 2">
<path fill-rule="evenodd" clip-rule="evenodd" d="M1122.25 374H1071.25Z" fill="white"/>
<path d="M1122.25 374H1071.25" stroke="#372898" stroke-width="2" stroke-linecap="round"/>
</g>
<g id="Path 81">
<path fill-rule="evenodd" clip-rule="evenodd" d="M1426.5 405L1434 426.5Z" fill="white"/>
<path d="M1426.5 405L1434 426.5" stroke="#372898" stroke-width="2" stroke-linecap="round"/>
</g>
<g id="Group 5">
<path id="Path 52" fill-rule="evenodd" clip-rule="evenodd" d="M131.609 245.213C124.36 244.88 117.398 248.08 112.93 253.8L34.7228 353.92C24.96 366.419 28.0207 384.6 41.3375 393.213L217.552 507.182L214.552 457.682L81.0521 368.682L148.335 281.25C159.383 266.894 149.706 246.043 131.609 245.213V245.213Z" fill="white" stroke="#372898" stroke-width="2" stroke-linecap="round"/>
<g id="Group_2">
<g id="Shape Copy 8">
<path fill-rule="evenodd" clip-rule="evenodd" d="M208.09 942.202C216.013 1039.65 227.105 1093.17 241.367 1102.75C255.628 1112.34 233.444 1101.95 174.814 1071.6L160.552 942.202" fill="white"/>
<path d="M208.09 942.202C216.013 1039.65 227.105 1093.17 241.367 1102.75C255.628 1112.34 233.444 1101.95 174.814 1071.6L160.552 942.202" stroke="#372898" stroke-width="2"/>
</g>
<path id="Shape Copy 9" fill-rule="evenodd" clip-rule="evenodd" d="M402.552 942C441.052 1035 465.105 1093.17 479.367 1102.75C493.628 1112.34 470.444 1101.95 411.814 1071.6L348.552 942H402.552Z" fill="white" stroke="#372898" stroke-width="2"/>
<g id="Path 11">
<path id="Mask_7" fill-rule="evenodd" clip-rule="evenodd" d="M224.052 426.202C224.052 426.202 301.257 618.144 337.052 713.5C372.847 808.855 417.552 943 417.552 943L341.552 944L159.052 525.202L215.342 944.202H146.372L75.6534 500.589C73.3047 485.856 75.3442 470.757 81.5178 457.176L117.052 379L204.552 386.5L224.052 426.202Z" fill="#4372D6"/>
<mask id="mask3" mask-type="alpha" maskUnits="userSpaceOnUse" x="74" y="378" width="344" height="567">
<path id="Mask_8" fill-rule="evenodd" clip-rule="evenodd" d="M224.052 426.202C224.052 426.202 301.257 618.144 337.052 713.5C372.847 808.855 417.552 943 417.552 943L341.552 944L159.052 525.202L215.342 944.202H146.372L75.6534 500.589C73.3047 485.856 75.3442 470.757 81.5178 457.176L117.052 379L204.552 386.5L224.052 426.202Z" fill="white"/>
</mask>
<g mask="url(#mask3)">
<path id="Path 11_2" fill-rule="evenodd" clip-rule="evenodd" d="M157.44 522.773L171.949 579.304L62.6016 548.508L52.5522 513L157.44 522.773Z" fill="#372898"/>
</g>
</g>
</g>
<g id="Group 4_2">
<path id="Path 5 Copy 2" fill-rule="evenodd" clip-rule="evenodd" d="M113.699 268.593C114.678 253.085 128.513 241.603 143.935 243.497L151.546 244.431L204.247 250.902L246.025 256.032L216.147 371.393C213.764 380.593 205.235 386.846 195.744 386.351L126.746 382.754C115.629 382.175 107.125 372.63 107.827 361.52L113.699 268.593Z" fill="white" stroke="#372898" stroke-width="2" stroke-linecap="round"/>
<g id="Group 3_3">
<g id="Shape Copy 18">
<path fill-rule="evenodd" clip-rule="evenodd" d="M199.087 223.428L194.069 250.5L196.035 250.864L201.054 223.792L199.087 223.428ZM160.01 245.968L170.868 209.582L168.952 209.01L158.094 245.396L160.01 245.968Z" fill="white"/>
<path d="M194.069 250.5L193.887 251.483L192.903 251.301L193.086 250.318L194.069 250.5ZM199.087 223.428L198.104 223.246L198.286 222.262L199.27 222.445L199.087 223.428ZM196.035 250.864L197.019 251.047L196.836 252.03L195.853 251.848L196.035 250.864ZM201.054 223.792L201.236 222.809L202.219 222.991L202.037 223.975L201.054 223.792ZM170.868 209.582L171.154 208.624L172.112 208.909L171.827 209.868L170.868 209.582ZM160.01 245.968L160.969 246.254L160.683 247.212L159.724 246.926L160.01 245.968ZM168.952 209.01L167.994 208.724L168.279 207.766L169.238 208.052L168.952 209.01ZM158.094 245.396L157.808 246.354L156.85 246.068L157.136 245.11L158.094 245.396ZM193.086 250.318L198.104 223.246L200.071 223.61L195.052 250.682L193.086 250.318ZM195.853 251.848L193.887 251.483L194.251 249.517L196.218 249.881L195.853 251.848ZM202.037 223.975L197.019 251.047L195.052 250.682L200.071 223.61L202.037 223.975ZM199.27 222.445L201.236 222.809L200.872 224.776L198.905 224.411L199.27 222.445ZM171.827 209.868L160.969 246.254L159.052 245.682L169.91 209.296L171.827 209.868ZM169.238 208.052L171.154 208.624L170.582 210.54L168.666 209.968L169.238 208.052ZM157.136 245.11L167.994 208.724L169.91 209.296L159.052 245.682L157.136 245.11ZM159.724 246.926L157.808 246.354L158.38 244.438L160.296 245.01L159.724 246.926Z" fill="#372898"/>
</g>
<g id="Group 2_2">
<g id="Combined Shape Copy_2">
<path fill-rule="evenodd" clip-rule="evenodd" d="M190.03 193.855C188.235 192.673 186.107 192.004 183.835 192.043C177.478 192.154 172.531 197.726 172.646 204.351C172.728 209.016 175.287 213.05 179.009 215.008L179.94 213.238C176.881 211.629 174.715 208.27 174.646 204.316C174.547 198.67 178.739 194.132 183.87 194.043C185.719 194.011 187.455 194.554 188.931 195.525L190.03 193.855ZM170.072 209.112L168.678 193.173C168.236 176.649 182.23 166.795 198.064 169.437C215.248 172.304 218.871 181.625 222.389 198.885C225.906 216.144 222.83 225.644 205.683 225.943C200.223 226.039 191.932 223.763 191.932 223.763" fill="white"/>
<path d="M190.03 193.855L190.58 193.019L191.415 193.569L190.865 194.404L190.03 193.855ZM179.009 215.008L179.894 215.473L179.428 216.358L178.543 215.893L179.009 215.008ZM179.94 213.238L180.405 212.353L181.29 212.818L180.825 213.703L179.94 213.238ZM188.931 195.525L189.766 196.075L189.216 196.91L188.381 196.361L188.931 195.525ZM171.068 209.025C171.116 209.575 170.709 210.06 170.159 210.108C169.609 210.156 169.124 209.749 169.076 209.199L171.068 209.025ZM168.678 193.173L167.681 193.26L167.679 193.23L167.678 193.2L168.678 193.173ZM198.064 169.437L198.228 168.45L198.064 169.437ZM222.389 198.885L223.368 198.685L222.389 198.885ZM191.667 224.727C191.135 224.581 190.822 224.03 190.968 223.498C191.114 222.965 191.664 222.652 192.197 222.798L191.667 224.727ZM183.817 191.043C186.301 191 188.626 191.733 190.58 193.019L189.48 194.69C187.845 193.614 185.913 193.007 183.852 193.043L183.817 191.043ZM171.646 204.368C171.522 197.256 176.846 191.165 183.817 191.043L183.852 193.043C178.11 193.143 173.539 198.196 173.646 204.333L171.646 204.368ZM178.543 215.893C174.49 213.76 171.734 209.389 171.646 204.368L173.646 204.333C173.721 208.643 176.084 212.339 179.474 214.123L178.543 215.893ZM180.825 213.703L179.894 215.473L178.124 214.542L179.055 212.772L180.825 213.703ZM175.646 204.298C175.709 207.897 177.678 210.918 180.405 212.353L179.474 214.123C176.084 212.339 173.721 208.643 173.646 204.333L175.646 204.298ZM183.887 195.043C179.368 195.122 175.556 199.143 175.646 204.298L173.646 204.333C173.539 198.196 178.11 193.143 183.852 193.043L183.887 195.043ZM188.381 196.361C187.064 195.494 185.525 195.014 183.887 195.043L183.852 193.043C185.913 193.007 187.845 193.614 189.48 194.69L188.381 196.361ZM190.865 194.404L189.766 196.075L188.095 194.976L189.195 193.305L190.865 194.404ZM169.076 209.199L167.681 193.26L169.674 193.086L171.068 209.025L169.076 209.199ZM167.678 193.2C167.449 184.627 170.974 177.726 176.655 173.327C182.322 168.939 190.068 167.089 198.228 168.45L197.899 170.423C190.226 169.143 183.058 170.899 177.88 174.908C172.716 178.907 169.465 185.194 169.677 193.146L167.678 193.2ZM198.228 168.45C207.001 169.914 212.473 173.061 216.162 178.179C219.797 183.221 221.613 190.07 223.368 198.685L221.409 199.084C219.647 190.44 217.892 183.998 214.54 179.348C211.242 174.774 206.311 171.827 197.899 170.423L198.228 168.45ZM223.368 198.685C225.131 207.334 225.32 214.342 222.664 219.25C219.941 224.282 214.432 226.791 205.701 226.943L205.666 224.944C214.081 224.797 218.683 222.405 220.905 218.298C223.195 214.066 223.164 207.694 221.409 199.084L223.368 198.685ZM205.701 226.943C202.857 226.993 199.33 226.429 196.562 225.869C195.168 225.587 193.947 225.302 193.074 225.088C192.638 224.981 192.288 224.891 192.046 224.828C191.925 224.796 191.832 224.771 191.768 224.754C191.736 224.745 191.711 224.739 191.694 224.734C191.686 224.732 191.679 224.73 191.675 224.729C191.673 224.728 191.671 224.728 191.67 224.728C191.669 224.727 191.669 224.727 191.668 224.727C191.668 224.727 191.668 224.727 191.668 224.727C191.668 224.727 191.667 224.727 191.932 223.763C192.197 222.798 192.197 222.798 192.197 222.798C192.197 222.798 192.197 222.798 192.197 222.798C192.197 222.798 192.197 222.798 192.198 222.799C192.199 222.799 192.2 222.799 192.202 222.8C192.205 222.801 192.211 222.802 192.218 222.804C192.233 222.808 192.256 222.814 192.286 222.822C192.346 222.838 192.436 222.862 192.552 222.893C192.785 222.954 193.126 223.041 193.552 223.146C194.404 223.355 195.597 223.633 196.958 223.909C199.701 224.463 203.05 224.989 205.666 224.944L205.701 226.943Z" fill="#372898"/>
</g>
</g>
<path id="Path 16" fill-rule="evenodd" clip-rule="evenodd" d="M192.215 223.715L195.472 246.913L196.496 244.968L199.165 226.012L192.215 223.715Z" fill="#372898"/>
<g id="Path 2">
<path fill-rule="evenodd" clip-rule="evenodd" d="M281.407 373.115L285.407 392.115Z" fill="white"/>
<path d="M281.407 373.115L285.407 392.115" stroke="#372898" stroke-width="2" stroke-linecap="round"/>
</g>
<g id="Combined Shape_7">
<path fill-rule="evenodd" clip-rule="evenodd" d="M255.134 258.683C253.442 253.026 247.434 249.861 241.812 251.666C221.452 258.201 210.137 279.897 216.43 300.332L251.968 415.74C255.584 427.486 266.438 435.5 278.728 435.5L423.67 435.5C424.006 435.923 424.512 436.203 425.088 436.238C432.296 436.67 460.861 438.134 473.052 435C483.415 432.336 499.788 423.763 507.608 419.481C510.377 417.966 512.052 415.055 512.052 411.899C512.052 406.996 508.056 403.032 503.154 403.073L422.137 403.737C421.722 403.74 421.344 403.884 421.045 404.122L294.552 390.5L255.134 258.683Z" fill="white"/>
<path d="M241.812 251.666L241.506 250.714L241.506 250.714L241.812 251.666ZM255.134 258.683L254.176 258.97L254.176 258.97L255.134 258.683ZM216.43 300.332L215.474 300.627L215.474 300.627L216.43 300.332ZM251.968 415.74L252.923 415.446L252.923 415.446L251.968 415.74ZM278.728 435.5L278.728 434.5L278.728 434.5L278.728 435.5ZM423.67 435.5L423.67 434.5L424.152 434.5L424.453 434.878L423.67 435.5ZM425.088 436.238L425.148 435.239L425.148 435.239L425.088 436.238ZM473.052 435L472.803 434.031L472.803 434.031L473.052 435ZM507.608 419.481L507.128 418.604L507.128 418.604L507.608 419.481ZM512.052 411.899L513.052 411.899L513.052 411.899L512.052 411.899ZM503.154 403.073L503.162 404.073L503.162 404.073L503.154 403.073ZM422.137 403.737L422.145 404.737L422.145 404.737L422.137 403.737ZM421.045 404.122L421.666 404.905L421.345 405.16L420.938 405.116L421.045 404.122ZM294.552 390.5L294.445 391.494L293.785 391.423L293.594 390.786L294.552 390.5ZM241.506 250.714C247.662 248.738 254.24 252.203 256.092 258.396L254.176 258.97C252.644 253.849 247.206 250.984 242.117 252.618L241.506 250.714ZM215.474 300.627C209.02 279.668 220.625 257.416 241.506 250.714L242.117 252.618C222.279 258.986 211.254 280.126 217.386 300.038L215.474 300.627ZM251.012 416.034L215.474 300.627L217.386 300.038L252.923 415.446L251.012 416.034ZM278.728 436.5C265.999 436.5 254.758 428.199 251.012 416.034L252.923 415.446C256.411 426.772 266.877 434.5 278.728 434.5L278.728 436.5ZM423.67 436.5L278.728 436.5L278.728 434.5L423.67 434.5L423.67 436.5ZM425.029 437.236C424.159 437.184 423.394 436.76 422.887 436.122L424.453 434.878C424.619 435.087 424.865 435.222 425.148 435.239L425.029 437.236ZM473.301 435.968C467.065 437.571 456.753 437.984 447.198 437.956C437.605 437.928 428.641 437.453 425.029 437.236L425.148 435.239C428.743 435.455 437.665 435.928 447.204 435.956C456.782 435.984 466.849 435.562 472.803 434.031L473.301 435.968ZM508.089 420.358C500.293 424.627 483.808 433.267 473.301 435.968L472.803 434.031C483.023 431.404 499.284 422.899 507.128 418.604L508.089 420.358ZM513.052 411.899C513.052 415.409 511.187 418.662 508.089 420.358L507.128 418.604C509.567 417.269 511.052 414.7 511.052 411.899L513.052 411.899ZM503.145 402.073C508.604 402.028 513.052 406.44 513.052 411.899L511.052 411.899C511.052 407.551 507.509 404.037 503.162 404.073L503.145 402.073ZM422.129 402.737L503.145 402.073L503.162 404.073L422.145 404.737L422.129 402.737ZM420.423 403.339C420.891 402.968 421.483 402.742 422.129 402.737L422.145 404.737C421.961 404.738 421.797 404.801 421.666 404.905L420.423 403.339ZM294.659 389.505L421.152 403.128L420.938 405.116L294.445 391.494L294.659 389.505ZM256.092 258.396L295.51 390.213L293.594 390.786L254.176 258.97L256.092 258.396Z" fill="#372898"/>
</g>
</g>
<path id="Path 9 Copy_2" fill-rule="evenodd" clip-rule="evenodd" d="M178.855 194.663C178.855 194.663 181.587 192.421 183.163 192.278C185.703 192.048 189.813 193.704 189.813 193.704L215.552 179V179C209.893 170.659 199.509 167.008 189.73 169.452C187.952 169.896 186.194 170.317 184.552 170.682C175.552 172.682 175.383 176.273 175.383 176.273L172.302 180.858C169.532 184.981 168.052 189.835 168.052 194.802L168.052 198.275C168.052 200.537 168.347 202.789 168.93 204.974L170.052 209.182L174.552 209C174.552 209 172.478 207.078 173.552 203.5C174.626 199.921 178.855 194.663 178.855 194.663Z" fill="#372898"/>
</g>
<path id="Combined Shape_8" fill-rule="evenodd" clip-rule="evenodd" d="M276.578 1124.99C279.937 1119.04 277.053 1111.51 270.583 1109.33L235.741 1097.59C235.741 1097.59 244.882 1105.56 226.777 1097.59C208.672 1089.63 174.984 1070.2 174.984 1070.2C171.904 1070.2 169.355 1072.6 169.161 1075.67L166.052 1124.99H187.434L184.944 1105.56L202.262 1122.85C203.767 1124.36 205.81 1125.2 207.938 1125.19L276.578 1124.99ZM514.578 1124.99C517.937 1119.04 515.053 1111.51 508.583 1109.33L473.741 1097.59C473.741 1097.59 482.882 1105.56 464.777 1097.59C446.672 1089.63 412.984 1070.2 412.984 1070.2C409.904 1070.2 407.355 1072.6 407.161 1075.67L404.052 1124.99H425.434L422.944 1105.56L440.262 1122.85C441.767 1124.36 443.81 1125.2 445.938 1125.19L514.578 1124.99Z" fill="#372898"/>
</g>
<path id="Rectangle_5" fill-rule="evenodd" clip-rule="evenodd" d="M1169.55 391.615L1169.41 364.209L1121.44 364.419L1121.37 392.806L1028.16 394.09C1027.07 394.105 1026.19 394.991 1026.19 396.081L1025.76 494.487C1025.75 495.597 1026.65 496.498 1027.76 496.496L1167.13 496.218C1168.23 496.216 1169.12 495.326 1169.12 494.226L1169.55 391.615Z" fill="#CAD9FF"/>
<path id="Path 13" fill-rule="evenodd" clip-rule="evenodd" d="M1380 924.5L1392.55 946.5L1403.27 958.099L1384.55 966L1380.05 958L1353.94 979.039L1311.88 996.895C1311.88 996.895 1302.06 998.297 1299.69 994.769C1297.32 991.24 1292.65 985.091 1321.7 965.81C1327.85 961.727 1328.39 957.589 1333.34 950.411C1335.54 947.213 1346.5 937.5 1346.5 937.5C1346.5 937.5 1350.94 941.707 1364.35 937.247C1377.76 932.786 1380 924.5 1380 924.5Z" fill="#372898"/>
<path id="Path 13 Copy" fill-rule="evenodd" clip-rule="evenodd" d="M1504.42 1043.03L1523.05 1063L1534.64 1071.32L1519.05 1083L1511.5 1077.5L1493 1105.05L1457.48 1133.8C1457.48 1133.8 1448.43 1137.86 1445.18 1135.12C1441.93 1132.38 1435.74 1127.76 1458.35 1101.22C1463.14 1095.6 1462.52 1091.47 1465.3 1083.21C1466.54 1079.52 1473.15 1068.36 1473.15 1068.36C1473.15 1068.36 1479.82 1069.99 1491.48 1062C1503.14 1054.02 1504.42 1043.03 1504.42 1043.03Z" fill="#372898"/>
<path id="Path 9 Copy_3" fill-rule="evenodd" clip-rule="evenodd" d="M179.552 193.5C179.552 193.5 183.192 193.398 184.775 193.394C187.325 193.386 189.019 195.467 190.052 195.5C193.987 195.624 205.166 191.704 214.229 188.236C221.209 185.565 224.143 177.395 220.666 170.78V170.78C217.952 165.616 212.08 162.952 206.407 164.311L177.072 171.339C171.356 172.708 166.543 176.544 163.932 181.809L144.518 220.96C141.547 226.952 145.919 233.977 152.607 233.958L172.07 233.902C178.472 233.883 183.208 227.937 181.794 221.693L180.052 214C180.052 214 178.234 213.321 176.775 211.894C175.483 210.628 173.692 209.222 173.552 207.5C173.277 204.127 172.521 199.504 176.552 195.5C176.899 195.155 179.552 193.5 179.552 193.5Z" fill="#372898"/>
<g id="Path 83 Copy">
<path fill-rule="evenodd" clip-rule="evenodd" d="M1122.25 355H1071.25Z" fill="white"/>
<path d="M1122.25 355H1071.25" stroke="#372898" stroke-width="2" stroke-linecap="round"/>
</g>
<rect id="Top bar Copy" width="405" height="33" rx="8" transform="matrix(-1 0 0 1 1081.05 31)" fill="#89B922"/>
<path id="Combined Shape_9" fill-rule="evenodd" clip-rule="evenodd" d="M1053.51 52C1051 52 1048.96 49.7614 1048.96 47C1048.96 44.2386 1051 42 1053.51 42C1056.02 42 1058.05 44.2386 1058.05 47C1058.05 49.7614 1056.02 52 1053.51 52ZM1038.05 52C1035.54 52 1033.51 49.7614 1033.51 47C1033.51 44.2386 1035.54 42 1038.05 42C1040.56 42 1042.6 44.2386 1042.6 47C1042.6 49.7614 1040.56 52 1038.05 52ZM1017.14 47C1017.14 49.7614 1019.18 52 1021.69 52C1024.2 52 1026.23 49.7614 1026.23 47C1026.23 44.2386 1024.2 42 1021.69 42C1019.18 42 1017.14 44.2386 1017.14 47Z" fill="white"/>
<rect id="Rectangle Copy 25" width="249" height="34" transform="matrix(-1 0 0 1 1002.95 107)" fill="white" stroke="#372898" stroke-width="2" stroke-linecap="round"/>
<g id="Path 84">
<path fill-rule="evenodd" clip-rule="evenodd" d="M678.052 293.5H1080.05Z" fill="white"/>
<path d="M678.052 293.5H1080.05" stroke="#372898" stroke-width="2" stroke-linecap="round"/>
</g>
<g id="Path 84 Copy">
<path fill-rule="evenodd" clip-rule="evenodd" d="M678.052 185H1081.05Z" fill="white"/>
<path d="M678.052 185H1081.05" stroke="#372898" stroke-width="2" stroke-linecap="round"/>
</g>
<path id="Oval_2" fill-rule="evenodd" clip-rule="evenodd" d="M778.024 130C773.33 130 769.524 126.194 769.524 121.5C769.524 116.806 773.33 113 778.024 113C782.719 113 786.524 116.806 786.524 121.5C786.524 126.194 782.719 130 778.024 130Z" fill="white" stroke="#372898" stroke-width="2" stroke-linecap="round"/>
<g id="Path 85">
<path fill-rule="evenodd" clip-rule="evenodd" d="M771.486 128L765.275 133.667Z" fill="white"/>
<path d="M771.486 128L765.275 133.667" stroke="#372898" stroke-width="2" stroke-linecap="round"/>
</g>
<g id="Path 86">
<path fill-rule="evenodd" clip-rule="evenodd" d="M933.052 241H837.052Z" fill="white"/>
<path d="M933.052 241H837.052" stroke="#372898" stroke-width="2" stroke-linecap="round"/>
</g>
<g id="Path 86 Copy 2">
<path fill-rule="evenodd" clip-rule="evenodd" d="M933.052 353H837.052Z" fill="white"/>
<path d="M933.052 353H837.052" stroke="#372898" stroke-width="2" stroke-linecap="round"/>
</g>
<g id="Path 86 Copy">
<path fill-rule="evenodd" clip-rule="evenodd" d="M817.475 241H777.321Z" fill="white"/>
<path d="M817.475 241H777.321" stroke="#372898" stroke-width="2" stroke-linecap="round"/>
</g>
<g id="Path 86 Copy 3">
<path fill-rule="evenodd" clip-rule="evenodd" d="M817.475 353H777.321Z" fill="white"/>
<path d="M817.475 353H777.321" stroke="#372898" stroke-width="2" stroke-linecap="round"/>
</g>
<g id="Path 87">
<path fill-rule="evenodd" clip-rule="evenodd" d="M1001.05 464L1041.07 447.289C1044.16 445.998 1045.73 442.542 1044.67 439.366V439.366C1043.52 435.901 1039.7 434.105 1036.3 435.426L1018.05 442.5" fill="white"/>
<path d="M1001.05 464L1041.07 447.289C1044.16 445.998 1045.73 442.542 1044.67 439.366V439.366C1043.52 435.901 1039.7 434.105 1036.3 435.426L1018.05 442.5" stroke="#372898" stroke-width="2" stroke-linecap="round"/>
</g>
</g>
<defs>
<clipPath id="clip0">
<rect width="1609" height="1155" fill="white"/>
</clipPath>
</defs>
</svg>
