<svg width="1725" height="1304" viewBox="0 0 1725 1304" fill="none" xmlns="http://www.w3.org/2000/svg">
<g id="11">
<rect width="1725" height="1304" fill="#F0F4F6"/>
<g id="11_2" clip-path="url(#clip0)">
<rect id="Rectangle" width="403" height="382" rx="2" transform="matrix(-1 0 0 1 1135.05 116)" fill="white" stroke="#372898" stroke-width="2" stroke-linecap="round"/>
<g id="Path 23 + Path 23 Copy 2 + Path 23 Copy Mask">
<rect id="Mask" x="1243" y="116" width="401" height="383" fill="#372898"/>
<mask id="mask0" mask-type="alpha" maskUnits="userSpaceOnUse" x="1243" y="116" width="401" height="383">
<rect id="Mask_2" x="1243" y="116" width="401" height="383" fill="white"/>
</mask>
<g mask="url(#mask0)">
<path id="Path 23 Copy 2" d="M1447.02 316.416C1447.02 316.416 1592 171.639 1666.64 186.157C1741.29 200.674 1725.21 283.453 1650.56 268.935C1575.92 254.418 1333.72 230.531 1333.49 157.351C1333.26 84.1703 1462.51 74.4792 1462.51 74.4792L1476.66 64.695" stroke="#4372D6" stroke-width="2"/>
<path id="Path 23 Copy" d="M1449.37 314.204C1449.37 314.204 1300.57 461.776 1225.9 447.332C1151.23 432.889 1167.55 349.428 1242.23 363.872C1316.9 378.315 1559.25 401.782 1559.27 475.529C1559.3 549.276 1429.91 559.365 1429.91 559.365" stroke="#4372D6" stroke-width="2"/>
</g>
</g>
<rect id="Rectangle Copy 2" width="402" height="382" rx="2" transform="matrix(-1 0 0 1 618.037 116)" fill="white" stroke="#372898" stroke-width="2" stroke-linecap="round"/>
<path id="Rectangle_2" fill-rule="evenodd" clip-rule="evenodd" d="M1078.93 491.617L1100.88 479.532C1103.55 478.063 1106.91 479.062 1108.34 481.752V481.752C1109.62 484.17 1108.92 487.167 1106.69 488.76L1086.27 503.36L1095.32 514.968C1100.17 521.179 1097.82 530.293 1090.57 533.386L1044.59 553.014C1044.5 553.052 1044.41 553.084 1044.32 553.109L1034.22 555.754L1024.98 527.604C1024.7 526.734 1025.04 525.781 1025.81 525.291L1078.93 491.617Z" fill="white" stroke="#372898" stroke-width="2" stroke-linecap="round"/>
<g id="Group">
<g id="Combined Shape">
<path fill-rule="evenodd" clip-rule="evenodd" d="M1177.86 1114.75L1159.61 1093.37L1186.16 1063.15L1209.9 1092.62L1177.86 1114.75ZM928.308 1176L923.808 1144H968.308V1180L928.308 1176Z" fill="white"/>
<path d="M1159.61 1093.37L1158.85 1094.02L1158.28 1093.36L1158.86 1092.71L1159.61 1093.37ZM1177.86 1114.75L1178.43 1115.57L1177.69 1116.09L1177.1 1115.4L1177.86 1114.75ZM1186.16 1063.15L1185.41 1062.49L1186.2 1061.6L1186.94 1062.52L1186.16 1063.15ZM1209.9 1092.62L1210.67 1092L1211.35 1092.84L1210.46 1093.45L1209.9 1092.62ZM923.808 1144L922.818 1144.14L922.657 1143H923.808V1144ZM928.308 1176L928.208 1177L927.427 1176.92L927.318 1176.14L928.308 1176ZM968.308 1144V1143H969.308V1144H968.308ZM968.308 1180H969.308V1181.1L968.208 1181L968.308 1180ZM1160.37 1092.72L1178.62 1114.1L1177.1 1115.4L1158.85 1094.02L1160.37 1092.72ZM1186.91 1063.81L1160.36 1094.03L1158.86 1092.71L1185.41 1062.49L1186.91 1063.81ZM1209.12 1093.25L1185.38 1063.78L1186.94 1062.52L1210.67 1092L1209.12 1093.25ZM1177.29 1113.93L1209.33 1091.8L1210.46 1093.45L1178.43 1115.57L1177.29 1113.93ZM924.798 1143.86L929.298 1175.86L927.318 1176.14L922.818 1144.14L924.798 1143.86ZM968.308 1145H923.808V1143H968.308V1145ZM967.308 1180V1144H969.308V1180H967.308ZM928.407 1175L968.407 1179L968.208 1181L928.208 1177L928.407 1175Z" fill="#372898"/>
</g>
<path id="Combined Shape_2" fill-rule="evenodd" clip-rule="evenodd" d="M1194.79 1138.19L1173.88 1111.32C1173.88 1111.32 1185.72 1110.57 1194.93 1098.6C1204.13 1086.63 1202.76 1079.43 1202.76 1079.43C1202.76 1079.43 1215.1 1073.02 1219.11 1071.91C1222.01 1071.11 1224.42 1070.66 1226.58 1070.25C1231.14 1069.4 1234.53 1068.77 1238.8 1065.52C1268.13 1043.22 1272.99 1049.61 1275.76 1053.26C1275.79 1053.3 1275.83 1053.35 1275.86 1053.39C1278.61 1057.01 1273.77 1066.42 1273.77 1066.42L1240.96 1102.62L1223.67 1121.71L1202.5 1145.08L1194.79 1138.19ZM920.308 1198.7L926.406 1165.27C926.406 1165.27 934.888 1173.52 949.999 1172.31C965.111 1171.1 969.577 1165.27 969.577 1165.27C969.577 1165.27 982.626 1170.09 986.143 1172.31C988.678 1173.91 990.633 1175.4 992.378 1176.72C996.063 1179.51 998.807 1181.6 1004.09 1182.58C1040.4 1189.31 1038.87 1197.18 1037.99 1201.67C1037.98 1201.72 1037.97 1201.78 1037.96 1201.83C1037.1 1206.29 1026.82 1209 1026.82 1209H977.798H951.949H920.308V1198.7Z" fill="#372898"/>
</g>
<path id="Shape" d="M839.308 1209L773.16 861H658.407L596.308 1209" stroke="#372898" stroke-width="2"/>
<g id="Combined Shape_3">
<path fill-rule="evenodd" clip-rule="evenodd" d="M658.608 555C624.201 555 596.308 582.893 596.308 617.301V793.5C596.308 826.576 620.097 854.095 651.499 859.88C654.365 860.611 657.368 861 660.462 861H663.808H689.862H819.154C839.121 861 855.308 844.813 855.308 824.846C855.308 804.879 839.121 788.692 819.154 788.692H757.204C756.987 785.745 756.574 782.771 755.954 779.785L719.609 604.642C713.609 575.729 688.137 555 658.608 555Z" fill="white"/>
<path d="M651.499 859.88L651.746 858.911L651.713 858.903L651.68 858.897L651.499 859.88ZM757.204 788.692L756.207 788.765L756.275 789.692H757.204V788.692ZM755.954 779.785L754.975 779.988L754.975 779.988L755.954 779.785ZM719.609 604.642L720.588 604.439L720.588 604.439L719.609 604.642ZM597.308 617.301C597.308 583.445 624.753 556 658.608 556V554C623.648 554 595.308 582.341 595.308 617.301H597.308ZM597.308 793.5V617.301H595.308V793.5H597.308ZM651.68 858.897C620.744 853.197 597.308 826.084 597.308 793.5H595.308C595.308 827.067 619.45 854.992 651.318 860.864L651.68 858.897ZM660.462 860C657.452 860 654.532 859.622 651.746 858.911L651.252 860.849C654.198 861.601 657.284 862 660.462 862V860ZM663.808 860H660.462V862H663.808V860ZM689.862 860H663.808V862H689.862V860ZM819.154 860H689.862V862H819.154V860ZM854.308 824.846C854.308 844.261 838.569 860 819.154 860V862C839.673 862 856.308 845.366 856.308 824.846H854.308ZM819.154 789.692C838.569 789.692 854.308 805.431 854.308 824.846H856.308C856.308 804.326 839.673 787.692 819.154 787.692V789.692ZM757.204 789.692H819.154V787.692H757.204V789.692ZM754.975 779.988C755.586 782.932 755.993 785.862 756.207 788.765L758.201 788.618C757.981 785.628 757.562 782.611 756.933 779.582L754.975 779.988ZM718.63 604.845L754.975 779.988L756.933 779.582L720.588 604.439L718.63 604.845ZM658.608 556C687.663 556 712.726 576.397 718.63 604.845L720.588 604.439C714.492 575.062 688.611 554 658.608 554V556Z" fill="#372898"/>
</g>
<g id="Group 3">
<g id="Path 78">
<g id="Path 36">
<path id="Mask_3" fill-rule="evenodd" clip-rule="evenodd" d="M840.808 683L977.252 730.01C1001.97 738.527 1017.73 762.769 1015.47 788.817L1008.31 871.545L1200.46 1058.9L1153.13 1111.92L999.808 983.5L984.279 1160L917.808 1155L921.808 914L765.85 795.058L719.083 760.903C705.816 751.213 699.416 734.678 702.703 718.581L711.808 674L798.577 646.638L840.808 683Z" fill="#4372D6"/>
<mask id="mask1" mask-type="alpha" maskUnits="userSpaceOnUse" x="590" y="561" width="658" height="686">
<path id="Mask_4" fill-rule="evenodd" clip-rule="evenodd" d="M840.808 683L977.252 730.01C1001.97 738.527 1017.73 762.769 1015.47 788.817L1008.31 871.545L1200.46 1058.9L1153.13 1111.92L999.808 983.5L984.279 1160L917.808 1155L921.808 914L765.85 795.058L719.083 760.903C705.816 751.213 699.416 734.678 702.703 718.581L711.808 674L798.577 646.638L840.808 683Z" fill="white"/>
</mask>
<g mask="url(#mask1)">
<path id="Combined Shape_4" fill-rule="evenodd" clip-rule="evenodd" d="M757.308 676C757.308 676 749.572 711 705.308 711C681.885 711 688.95 675.701 724.553 661C733.804 657.18 757.308 676 757.308 676ZM1002.31 986L920.308 913L920.553 955.5L996.553 1016L1002.31 986ZM1029.55 737L1016.1 842.34L1010.35 872.34L835.553 709L827.053 672L1029.55 737Z" fill="#372898"/>
</g>
</g>
</g>
</g>
<g id="Group 3 Copy">
<path id="Path 6 Copy 5" fill-rule="evenodd" clip-rule="evenodd" d="M843.052 479.5L925.052 587L1018.05 517L1065.05 555L938.269 664.123C926.016 674.669 907.404 672.677 897.66 659.777L789.063 516L843.052 479.5Z" fill="white" stroke="#372898" stroke-width="2" stroke-linecap="round"/>
</g>
<g id="Path 79">
<path id="Mask_5" fill-rule="evenodd" clip-rule="evenodd" d="M707.578 489.831C707.392 479.172 716.009 470.446 726.669 470.499L770.69 470.717L832.322 473.548C843.464 474.06 851.77 484.013 850.28 495.066L826.563 671L708.563 671L710.488 656.365L707.578 489.831Z" fill="white" stroke="#372898" stroke-width="2" stroke-linecap="round"/>
<mask id="mask2" mask-type="alpha" maskUnits="userSpaceOnUse" x="700" y="465" width="158" height="212">
<path id="Mask_6" fill-rule="evenodd" clip-rule="evenodd" d="M707.578 489.831C707.392 479.172 716.009 470.446 726.669 470.499L770.69 470.717L832.322 473.548C843.464 474.06 851.77 484.013 850.28 495.066L826.563 671L708.563 671L710.488 656.365L707.578 489.831Z" fill="white" stroke="white" stroke-width="2" stroke-linecap="round"/>
</mask>
<g mask="url(#mask2)">
<path id="Path 79_2" fill-rule="evenodd" clip-rule="evenodd" d="M721.563 470.5L682.063 651.5L827.063 672L847.552 521L855.552 461.5L820.563 473.5L814.162 483.054C801.926 501.32 774.376 499.003 765.362 478.951L761.563 470.5H721.563Z" fill="#89B922"/>
</g>
</g>
<path id="Combined Shape Copy 4" fill-rule="evenodd" clip-rule="evenodd" d="M837.503 672C839.055 672 840.459 671.074 841.069 669.647V669.647C841.722 668.122 841.333 666.351 840.102 665.24L835.839 661.393C833.669 659.434 831.041 658.056 828.217 657.3C824.994 656.437 820.522 655.164 816.802 653.821V653.821C807.165 650.343 797.012 648.115 786.824 649.191L766.435 651.344L733.199 660.041L738.562 672L797.562 672L824.062 672L837.503 672Z" fill="white" stroke="#372898" stroke-width="2"/>
<path id="Path 6 Copy 5_2" fill-rule="evenodd" clip-rule="evenodd" d="M699.346 468.945C724.787 469.71 742.001 495.176 733.227 519.069L695.063 623L779.693 649.18L761.563 690.5L647.708 670.682C630.634 667.71 620.333 650.099 626.112 633.76L679.631 482.443C682.569 474.136 690.538 468.68 699.346 468.945V468.945Z" fill="white" stroke="#372898" stroke-width="2" stroke-linecap="round"/>
<g id="Group 2">
<g id="Group 4">
<g id="Combined Shape_5">
<path fill-rule="evenodd" clip-rule="evenodd" d="M771.234 468.501C770.734 479.001 783.644 485.501 791.139 485.501C798.634 485.501 809.234 480.501 809.234 470.501L808.989 455.501L772.989 439.001M807.954 450.916L807.808 471.994L809.808 472.008L809.954 450.93L807.954 450.916ZM771.73 472.06L773.641 439.668L771.645 439.55L769.734 471.942L771.73 472.06Z" fill="white"/>
<path d="M770.235 468.454C770.262 467.902 770.73 467.476 771.282 467.503C771.833 467.529 772.259 467.997 772.233 468.549L770.235 468.454ZM809.234 470.501L810.234 470.485L810.234 470.493V470.501H809.234ZM808.989 455.501L809.406 454.592L809.979 454.854L809.989 455.484L808.989 455.501ZM772.573 439.91C772.07 439.68 771.85 439.086 772.08 438.584C772.31 438.082 772.904 437.862 773.406 438.092L772.573 439.91ZM807.808 471.994L807.801 472.994L806.801 472.987L806.808 471.987L807.808 471.994ZM807.954 450.916L806.954 450.909L806.961 449.909L807.961 449.916L807.954 450.916ZM809.808 472.008L810.808 472.015L810.801 473.015L809.801 473.008L809.808 472.008ZM809.954 450.93L809.961 449.93L810.961 449.937L810.954 450.937L809.954 450.93ZM773.641 439.668L773.7 438.669L774.698 438.728L774.64 439.727L773.641 439.668ZM771.73 472.06L772.728 472.119L772.67 473.117L771.671 473.058L771.73 472.06ZM771.645 439.55L770.646 439.491L770.705 438.493L771.704 438.552L771.645 439.55ZM769.734 471.942L769.675 472.94L768.676 472.881L768.735 471.883L769.734 471.942ZM772.233 468.549C772.005 473.333 774.823 477.298 778.771 480.126C782.725 482.958 787.627 484.501 791.139 484.501V486.501C787.156 486.501 781.855 484.795 777.606 481.752C773.351 478.704 769.963 474.17 770.235 468.454L772.233 468.549ZM791.139 484.501C794.694 484.501 799.016 483.308 802.426 480.931C805.814 478.569 808.234 475.098 808.234 470.501H810.234C810.234 475.905 807.355 479.933 803.569 482.572C799.805 485.195 795.08 486.501 791.139 486.501V484.501ZM808.234 470.518L807.989 455.517L809.989 455.484L810.234 470.485L808.234 470.518ZM808.573 456.41L772.573 439.91L773.406 438.092L809.406 454.592L808.573 456.41ZM806.808 471.987L806.954 450.909L808.954 450.923L808.808 472.001L806.808 471.987ZM809.801 473.008L807.801 472.994L807.815 470.994L809.814 471.008L809.801 473.008ZM810.954 450.937L810.808 472.015L808.808 472.001L808.954 450.923L810.954 450.937ZM807.961 449.916L809.961 449.93L809.947 451.93L807.947 451.916L807.961 449.916ZM774.64 439.727L772.728 472.119L770.732 472.001L772.643 439.609L774.64 439.727ZM771.704 438.552L773.7 438.669L773.582 440.666L771.586 440.548L771.704 438.552ZM768.735 471.883L770.646 439.491L772.643 439.609L770.732 472.001L768.735 471.883ZM771.671 473.058L769.675 472.94L769.793 470.944L771.789 471.061L771.671 473.058Z" fill="#372898"/>
</g>
<path id="Path 11 Copy 6" fill-rule="evenodd" clip-rule="evenodd" d="M808.808 460.501L806.086 466.001L776.808 445.001L808.919 452.554L808.808 460.501Z" fill="#372898"/>
<g id="Combined Shape Copy">
<path fill-rule="evenodd" clip-rule="evenodd" d="M773.671 440.52C780.254 449.003 791.137 455.001 801.456 455.001C817.733 455.001 817.808 443.089 817.808 427.029C817.808 410.968 813.234 401.458 796.974 398.449C782.294 395.733 770.099 405.673 767.867 419.45C763.738 420.942 760.808 425.052 760.808 429.826C760.808 435.84 765.459 440.801 771.299 440.801C772.116 440.801 772.91 440.704 773.671 440.52ZM772.371 438.73C772.019 438.777 771.662 438.801 771.299 438.801C766.656 438.801 762.808 434.83 762.808 429.826C762.808 426.249 764.774 423.2 767.591 421.751C767.532 422.499 767.503 423.256 767.503 424.02C767.503 429.195 769.338 434.252 772.371 438.73Z" fill="white"/>
<path d="M773.671 440.52L773.436 439.548L774.064 439.397L774.461 439.907L773.671 440.52ZM796.974 398.449L796.792 399.433L796.974 398.449ZM767.867 419.45L768.855 419.609L768.761 420.19L768.207 420.39L767.867 419.45ZM772.371 438.73L773.199 438.169L774.105 439.506L772.503 439.721L772.371 438.73ZM767.591 421.751L767.134 420.862L768.729 420.042L768.588 421.83L767.591 421.751ZM801.456 456.001C790.782 456.001 779.624 449.822 772.881 441.133L774.461 439.907C780.884 448.184 791.491 454.001 801.456 454.001V456.001ZM818.808 427.029C818.808 431.035 818.804 434.831 818.539 438.252C818.274 441.67 817.745 444.785 816.66 447.418C815.567 450.073 813.904 452.25 811.39 453.748C808.891 455.236 805.641 456.001 801.456 456.001V454.001C805.41 454.001 808.273 453.277 810.366 452.029C812.444 450.792 813.851 448.988 814.811 446.657C815.78 444.305 816.287 441.43 816.545 438.098C816.802 434.768 816.808 431.053 816.808 427.029H818.808ZM797.156 397.466C805.461 399.003 810.95 402.237 814.32 407.289C817.662 412.298 818.808 418.933 818.808 427.029H816.808C816.808 419.063 815.667 412.913 812.657 408.399C809.675 403.93 804.748 400.905 796.792 399.433L797.156 397.466ZM766.88 419.29C769.192 405.015 781.87 394.638 797.156 397.466L796.792 399.433C782.718 396.829 771.005 406.331 768.855 419.609L766.88 419.29ZM768.207 420.39C764.487 421.735 761.808 425.46 761.808 429.826H759.808C759.808 424.645 762.989 420.149 767.528 418.509L768.207 420.39ZM761.808 429.826C761.808 435.336 766.058 439.801 771.299 439.801V441.801C764.859 441.801 759.808 436.343 759.808 429.826H761.808ZM771.299 439.801C772.037 439.801 772.752 439.713 773.436 439.548L773.905 441.492C773.068 441.694 772.196 441.801 771.299 441.801V439.801ZM772.503 439.721C772.108 439.774 771.706 439.801 771.299 439.801V437.801C771.617 437.801 771.93 437.78 772.238 437.738L772.503 439.721ZM771.299 439.801C766.059 439.801 761.808 435.336 761.808 429.826H763.808C763.808 434.323 767.253 437.801 771.299 437.801V439.801ZM761.808 429.826C761.808 425.878 763.98 422.483 767.134 420.862L768.048 422.641C765.568 423.916 763.808 426.619 763.808 429.826H761.808ZM766.503 424.02C766.503 423.229 766.534 422.447 766.594 421.673L768.588 421.83C768.531 422.551 768.503 423.282 768.503 424.02H766.503ZM771.543 439.29C768.422 434.683 766.503 429.434 766.503 424.02H768.503C768.503 428.957 770.254 433.822 773.199 438.169L771.543 439.29Z" fill="#372898"/>
</g>
<path id="Combined Shape Copy 2" fill-rule="evenodd" clip-rule="evenodd" d="M776.801 422.001L780.575 411.367L814.808 410.436C814.808 410.436 812.166 406.838 810.529 405.315C801.512 396.927 795.134 397.826 792.022 398.265C791.852 398.289 791.692 398.312 791.542 398.331C784.41 399.263 779.655 401.59 779.655 401.59C779.655 401.59 774.559 404.204 772.639 407.147C770.718 410.09 767.808 416.764 767.808 416.764L767.811 421.351C767.811 421.351 769.721 420.795 770.622 420.679C771.522 420.562 772.999 420.679 772.999 420.679C772.999 420.679 773.096 420.706 773.25 420.756C774.539 420.924 775.743 421.358 776.801 422.001Z" fill="#372898"/>
</g>
<path id="Path 33" fill-rule="evenodd" clip-rule="evenodd" d="M774.803 410.001C775.567 412.165 809.303 416.001 815.803 414.001V414.001C824.051 411.463 813.787 400.656 805.345 398.865C800.683 397.875 796.051 397.028 793.752 397.001C791.379 396.972 788.594 398.045 786.171 399.29C782.029 401.42 778.372 404.484 775.639 408.255C775.061 409.054 774.7 409.709 774.803 410.001Z" fill="#372898"/>
</g>
<path id="Path 34" d="M769.552 672H1124.05L1252.05 1209" stroke="#372898" stroke-width="2" stroke-linecap="round"/>
<g id="Combined Shape_6">
<path fill-rule="evenodd" clip-rule="evenodd" d="M1398.76 274C1400.37 268.423 1405.58 264.665 1411.38 264.899C1431.26 265.702 1444.86 285.281 1438.68 304.193L1406.01 404.191C1403.18 412.849 1396.32 419.59 1387.61 422.262L1256.5 462.5L1256.5 462.492L1253.04 463.562C1253.04 463.562 1246.29 472.064 1241.81 475.704C1238.65 478.277 1232.35 481.899 1228.93 483.805C1227.38 484.665 1225.66 485.154 1223.9 485.276L1205.08 486.572C1202.88 486.723 1200.9 485.248 1200.41 483.098C1199.86 480.647 1201.43 478.22 1203.9 477.73L1217.8 474.962L1219.53 474.289C1224.93 472.191 1223.83 464.248 1218.06 463.697C1218.06 463.697 1211.4 465.662 1207.06 466.931C1202.73 468.201 1194.09 472.83 1194.09 472.83L1185.44 480.433C1183.95 481.736 1181.71 481.644 1180.34 480.224C1179.32 479.174 1179.02 477.625 1179.57 476.27L1181.58 471.272C1182.69 468.533 1184.47 466.124 1186.7 464.19C1189.07 462.129 1192.25 459.279 1194.8 456.667C1201.59 449.708 1209.33 443.601 1218.47 440.3L1236.83 433.666L1253.63 430.325L1368.5 379L1398.76 274Z" fill="white"/>
<path d="M1411.38 264.899L1411.42 263.9L1411.38 264.899ZM1398.76 274L1397.8 273.723L1397.8 273.723L1398.76 274ZM1438.68 304.193L1439.64 304.504L1438.68 304.193ZM1406.01 404.191L1406.96 404.501L1406.96 404.501L1406.01 404.191ZM1387.61 422.262L1387.91 423.218L1387.91 423.218L1387.61 422.262ZM1256.5 462.5L1256.79 463.456L1255.71 463.788L1255.52 462.674L1256.5 462.5ZM1256.5 462.492L1256.2 461.536L1257.29 461.202L1257.48 462.318L1256.5 462.492ZM1253.04 463.562L1252.25 462.94L1252.45 462.698L1252.74 462.607L1253.04 463.562ZM1241.81 475.704L1242.44 476.48L1242.44 476.48L1241.81 475.704ZM1228.93 483.805L1228.44 482.931L1228.44 482.931L1228.93 483.805ZM1223.9 485.276L1223.97 486.273L1223.97 486.273L1223.9 485.276ZM1205.08 486.572L1205.15 487.569L1205.15 487.569L1205.08 486.572ZM1200.41 483.098L1201.39 482.878L1201.39 482.878L1200.41 483.098ZM1203.9 477.73L1203.7 476.749L1203.7 476.749L1203.9 477.73ZM1217.8 474.962L1218.16 475.894L1218.08 475.926L1217.99 475.943L1217.8 474.962ZM1219.53 474.289L1219.17 473.357L1219.17 473.357L1219.53 474.289ZM1218.06 463.697L1217.78 462.738L1217.96 462.683L1218.15 462.702L1218.06 463.697ZM1207.06 466.931L1206.78 465.971L1206.78 465.971L1207.06 466.931ZM1194.09 472.83L1193.43 472.079L1193.52 472.003L1193.62 471.948L1194.09 472.83ZM1185.44 480.433L1184.78 479.682L1184.78 479.682L1185.44 480.433ZM1180.34 480.224L1179.62 480.919L1179.62 480.919L1180.34 480.224ZM1179.57 476.27L1180.49 476.645L1180.49 476.645L1179.57 476.27ZM1181.58 471.272L1180.66 470.897L1180.66 470.897L1181.58 471.272ZM1186.7 464.19L1186.04 463.434L1186.04 463.434L1186.7 464.19ZM1194.8 456.667L1194.09 455.969L1194.09 455.969L1194.8 456.667ZM1218.47 440.3L1218.81 441.24L1218.81 441.24L1218.47 440.3ZM1236.83 433.666L1236.49 432.726L1236.56 432.7L1236.64 432.685L1236.83 433.666ZM1253.63 430.325L1254.04 431.238L1253.93 431.284L1253.82 431.306L1253.63 430.325ZM1368.5 379L1369.46 379.277L1369.33 379.724L1368.91 379.913L1368.5 379ZM1411.34 265.898C1406 265.683 1401.2 269.142 1399.72 274.277L1397.8 273.723C1399.54 267.703 1405.16 263.647 1411.42 263.9L1411.34 265.898ZM1437.73 303.883C1443.71 285.601 1430.56 266.675 1411.34 265.898L1411.42 263.9C1431.96 264.73 1446.02 284.961 1439.64 304.504L1437.73 303.883ZM1405.06 403.88L1437.73 303.883L1439.64 304.504L1406.96 404.501L1405.06 403.88ZM1387.32 421.306C1395.72 418.729 1402.33 412.229 1405.06 403.88L1406.96 404.501C1404.03 413.469 1396.92 420.451 1387.91 423.218L1387.32 421.306ZM1256.21 461.544L1387.32 421.306L1387.91 423.218L1256.79 463.456L1256.21 461.544ZM1257.48 462.318L1257.48 462.326L1255.52 462.674L1255.51 462.666L1257.48 462.318ZM1256.79 463.447L1253.33 464.518L1252.74 462.607L1256.2 461.536L1256.79 463.447ZM1253.04 463.562C1253.82 464.184 1253.82 464.184 1253.82 464.184C1253.82 464.184 1253.82 464.184 1253.82 464.185C1253.82 464.185 1253.82 464.185 1253.82 464.186C1253.82 464.187 1253.82 464.189 1253.81 464.191C1253.81 464.195 1253.81 464.202 1253.8 464.21C1253.79 464.227 1253.77 464.251 1253.74 464.283C1253.69 464.348 1253.61 464.442 1253.52 464.563C1253.32 464.804 1253.04 465.153 1252.68 465.583C1251.98 466.442 1250.99 467.626 1249.86 468.925C1247.61 471.506 1244.75 474.6 1242.44 476.48L1241.18 474.929C1243.35 473.168 1246.1 470.191 1248.35 467.611C1249.46 466.33 1250.44 465.161 1251.14 464.312C1251.49 463.888 1251.77 463.544 1251.96 463.307C1252.06 463.188 1252.13 463.096 1252.18 463.034C1252.2 463.003 1252.22 462.979 1252.24 462.964C1252.24 462.956 1252.25 462.95 1252.25 462.946C1252.25 462.944 1252.25 462.943 1252.25 462.942C1252.25 462.941 1252.25 462.941 1252.25 462.941C1252.25 462.941 1252.25 462.941 1252.25 462.94C1252.25 462.94 1252.25 462.94 1253.04 463.562ZM1242.44 476.48C1239.2 479.118 1232.82 482.783 1229.41 484.679L1228.44 482.931C1231.88 481.015 1238.1 477.435 1241.18 474.929L1242.44 476.48ZM1229.41 484.679C1227.73 485.613 1225.87 486.142 1223.97 486.273L1223.83 484.278C1225.46 484.166 1227.03 483.716 1228.44 482.931L1229.41 484.679ZM1223.97 486.273L1205.15 487.569L1205.01 485.574L1223.83 484.278L1223.97 486.273ZM1205.15 487.569C1202.45 487.755 1200.03 485.95 1199.43 483.318L1201.39 482.878C1201.76 484.547 1203.3 485.692 1205.01 485.574L1205.15 487.569ZM1199.43 483.318C1198.76 480.318 1200.69 477.35 1203.7 476.749L1204.09 478.71C1202.18 479.091 1200.96 480.975 1201.39 482.878L1199.43 483.318ZM1203.7 476.749L1217.6 473.981L1217.99 475.943L1204.09 478.71L1203.7 476.749ZM1217.43 474.03L1219.17 473.357L1219.89 475.221L1218.16 475.894L1217.43 474.03ZM1219.17 473.357C1223.58 471.641 1222.68 465.143 1217.96 464.693L1218.15 462.702C1224.97 463.352 1226.27 472.741 1219.89 475.221L1219.17 473.357ZM1218.06 463.697C1218.34 464.656 1218.34 464.656 1218.34 464.656C1218.34 464.656 1218.34 464.656 1218.34 464.656C1218.34 464.656 1218.34 464.656 1218.34 464.657C1218.34 464.657 1218.34 464.657 1218.34 464.658C1218.33 464.659 1218.33 464.66 1218.32 464.662C1218.31 464.666 1218.29 464.671 1218.27 464.679C1218.22 464.693 1218.14 464.715 1218.05 464.743C1217.86 464.799 1217.58 464.881 1217.23 464.983C1216.54 465.187 1215.57 465.472 1214.47 465.797C1212.26 466.447 1209.51 467.256 1207.35 467.891L1206.78 465.971C1208.95 465.337 1211.7 464.529 1213.9 463.879C1215.01 463.554 1215.98 463.269 1216.67 463.065C1217.01 462.963 1217.29 462.881 1217.48 462.825C1217.58 462.797 1217.65 462.775 1217.7 462.76C1217.73 462.753 1217.74 462.747 1217.76 462.744C1217.76 462.742 1217.77 462.74 1217.77 462.739C1217.77 462.739 1217.77 462.739 1217.78 462.738C1217.78 462.738 1217.78 462.738 1217.78 462.738C1217.78 462.738 1217.78 462.738 1217.78 462.738C1217.78 462.738 1217.78 462.738 1218.06 463.697ZM1207.35 467.891C1205.27 468.499 1202.1 469.937 1199.39 471.256C1198.05 471.909 1196.84 472.524 1195.97 472.975C1195.53 473.201 1195.18 473.385 1194.94 473.513C1194.82 473.577 1194.72 473.627 1194.66 473.661C1194.63 473.677 1194.6 473.69 1194.59 473.699C1194.58 473.703 1194.57 473.706 1194.57 473.708C1194.57 473.709 1194.56 473.71 1194.56 473.711C1194.56 473.711 1194.56 473.711 1194.56 473.711C1194.56 473.711 1194.56 473.711 1194.56 473.711C1194.56 473.711 1194.56 473.711 1194.09 472.83C1193.62 471.948 1193.62 471.948 1193.62 471.948C1193.62 471.948 1193.62 471.948 1193.62 471.948C1193.62 471.948 1193.62 471.948 1193.62 471.947C1193.62 471.947 1193.62 471.946 1193.62 471.945C1193.63 471.942 1193.64 471.939 1193.64 471.934C1193.66 471.925 1193.69 471.912 1193.72 471.895C1193.78 471.86 1193.88 471.809 1194 471.744C1194.25 471.614 1194.61 471.427 1195.05 471.198C1195.93 470.742 1197.15 470.12 1198.51 469.458C1201.21 468.144 1204.52 466.633 1206.78 465.971L1207.35 467.891ZM1194.75 473.581L1186.1 481.184L1184.78 479.682L1193.43 472.079L1194.75 473.581ZM1186.1 481.184C1184.21 482.84 1181.36 482.723 1179.62 480.919L1181.05 479.53C1182.06 480.566 1183.69 480.633 1184.78 479.682L1186.1 481.184ZM1179.62 480.919C1178.33 479.585 1177.94 477.616 1178.64 475.896L1180.49 476.645C1180.09 477.633 1180.31 478.763 1181.05 479.53L1179.62 480.919ZM1178.64 475.896L1180.66 470.897L1182.51 471.646L1180.49 476.645L1178.64 475.896ZM1180.66 470.897C1181.83 468.002 1183.7 465.465 1186.04 463.434L1187.35 464.945C1185.23 466.783 1183.55 469.065 1182.51 471.646L1180.66 470.897ZM1186.04 463.434C1188.41 461.379 1191.57 458.55 1194.09 455.969L1195.52 457.365C1192.94 460.007 1189.74 462.879 1187.35 464.945L1186.04 463.434ZM1194.09 455.969C1200.92 448.955 1208.79 442.732 1218.13 439.359L1218.81 441.24C1209.87 444.47 1202.25 450.462 1195.52 457.365L1194.09 455.969ZM1218.13 439.359L1236.49 432.726L1237.17 434.607L1218.81 441.24L1218.13 439.359ZM1236.64 432.685L1253.43 429.345L1253.82 431.306L1237.03 434.647L1236.64 432.685ZM1368.91 379.913L1254.04 431.238L1253.22 429.412L1368.09 378.087L1368.91 379.913ZM1399.72 274.277L1369.46 379.277L1367.54 378.723L1397.8 273.723L1399.72 274.277Z" fill="#372898"/>
</g>
<path id="Path 5 Copy 9" fill-rule="evenodd" clip-rule="evenodd" d="M1504.74 266.122C1504.37 259.013 1497.92 253.795 1490.88 254.909L1460.3 259.753L1415.42 266.861V266.861C1405.02 269.047 1398.44 279.339 1400.82 289.696L1428.28 409.367L1512.15 404.972L1504.74 266.122Z" fill="#4372D6"/>
<path id="Path 59" fill-rule="evenodd" clip-rule="evenodd" d="M1508.54 397.152L1507.88 397.256L1489.88 304.138L1508.57 341.813L1508.54 397.152Z" fill="#372898"/>
<path id="Shape_2" fill-rule="evenodd" clip-rule="evenodd" d="M1460.33 258.756L1451.86 235.515C1447.54 240.414 1432.08 248.218 1425.37 248.643L1427.84 264.853C1427.84 264.853 1435.86 269.875 1445.21 267.888C1454.55 265.9 1460.33 258.756 1460.33 258.756Z" fill="white" stroke="#372898" stroke-width="2" stroke-linecap="round"/>
<path id="Path 9 Copy" fill-rule="evenodd" clip-rule="evenodd" d="M1354 672L1403.17 938.644C1403.17 938.644 1413.3 938.156 1419.51 935.607C1425.72 933.058 1434.88 924.439 1434.88 924.439L1428.35 814.227L1354 672Z" fill="white" stroke="#372898" stroke-width="2" stroke-linecap="round"/>
<path id="Path 9 Copy 2" fill-rule="evenodd" clip-rule="evenodd" d="M1499.53 792.026L1528.43 1065.85C1528.43 1065.85 1538.57 1066.07 1544.94 1063.96C1551.31 1061.85 1561.05 1053.89 1561.05 1053.89L1562.23 943.496L1499.53 792.026Z" fill="white" stroke="#372898" stroke-width="2" stroke-linecap="round"/>
<path id="Path 11 Copy 8" fill-rule="evenodd" clip-rule="evenodd" d="M1433.79 260.085L1443.32 245.509L1425.73 250.374L1433.79 260.085Z" fill="#372898"/>
<g id="Group 3_2">
<g id="Combined Shape Copy 5">
<path fill-rule="evenodd" clip-rule="evenodd" d="M1456.79 233.564C1452.04 242.036 1443.31 248.169 1432.82 249.271C1415.77 251.064 1409.89 241.085 1408.12 224.272C1406.36 207.458 1410.1 196.999 1426.81 192.059C1441.91 187.593 1455.8 196.686 1459.63 210.896C1464.09 212.008 1467.58 215.962 1468.1 220.928C1468.76 227.199 1464.45 232.875 1458.37 233.515C1457.84 233.571 1457.31 233.586 1456.79 233.564ZM1457.83 231.554C1457.94 231.547 1458.05 231.538 1458.16 231.526C1463.06 231.011 1466.67 226.402 1466.11 221.137C1465.72 217.362 1463.29 214.361 1460.15 213.156C1460.3 213.952 1460.42 214.761 1460.5 215.582C1461.1 221.251 1460.09 226.722 1457.83 231.554Z" fill="white"/>
<path d="M1456.79 233.564L1456.84 232.565L1456.22 232.539L1455.92 233.075L1456.79 233.564ZM1426.81 192.059L1426.53 191.1L1426.53 191.1L1426.81 192.059ZM1459.63 210.896L1458.67 211.157L1458.82 211.724L1459.39 211.866L1459.63 210.896ZM1457.83 231.554L1456.92 231.131L1456.2 232.664L1457.89 232.552L1457.83 231.554ZM1460.15 213.156L1460.51 212.222L1458.84 211.582L1459.17 213.34L1460.15 213.156ZM1432.93 250.266C1443.75 249.128 1452.76 242.799 1457.67 234.053L1455.92 233.075C1451.32 241.272 1442.88 247.209 1432.72 248.277L1432.93 250.266ZM1407.13 224.376C1408.02 232.833 1409.96 239.793 1413.99 244.407C1418.08 249.094 1424.18 251.185 1432.93 250.266L1432.72 248.277C1424.41 249.15 1419.04 247.148 1415.49 243.091C1411.88 238.96 1410 232.524 1409.12 224.167L1407.13 224.376ZM1426.53 191.1C1418 193.62 1412.62 197.603 1409.65 203.248C1406.71 208.845 1406.24 215.905 1407.13 224.376L1409.12 224.167C1408.24 215.825 1408.76 209.248 1411.42 204.178C1414.07 199.154 1418.91 195.438 1427.09 193.018L1426.53 191.1ZM1460.6 210.636C1456.64 195.938 1442.22 186.459 1426.53 191.1L1427.09 193.018C1441.61 188.727 1454.97 197.435 1458.67 211.157L1460.6 210.636ZM1459.39 211.866C1463.43 212.874 1466.63 216.472 1467.11 221.033L1469.1 220.824C1468.53 215.452 1464.75 211.143 1459.88 209.926L1459.39 211.866ZM1467.11 221.033C1467.72 226.801 1463.75 231.943 1458.26 232.521L1458.47 234.51C1465.15 233.807 1469.81 227.596 1469.1 220.824L1467.11 221.033ZM1458.26 232.521C1457.78 232.571 1457.31 232.585 1456.84 232.565L1456.75 234.563C1457.32 234.588 1457.89 234.571 1458.47 234.51L1458.26 232.521ZM1457.89 232.552C1458.02 232.544 1458.14 232.534 1458.26 232.521L1458.05 230.532C1457.95 230.542 1457.86 230.55 1457.76 230.557L1457.89 232.552ZM1458.26 232.521C1463.75 231.943 1467.72 226.802 1467.11 221.033L1465.12 221.242C1465.62 226.002 1462.36 230.079 1458.05 230.532L1458.26 232.521ZM1467.11 221.033C1466.67 216.887 1464.01 213.563 1460.51 212.222L1459.79 214.09C1462.58 215.159 1464.76 217.837 1465.12 221.242L1467.11 221.033ZM1461.5 215.478C1461.41 214.63 1461.29 213.794 1461.13 212.972L1459.17 213.34C1459.31 214.109 1459.43 214.892 1459.51 215.687L1461.5 215.478ZM1458.73 231.978C1461.07 226.986 1462.11 221.333 1461.5 215.478L1459.51 215.687C1460.08 221.169 1459.1 226.458 1456.92 231.131L1458.73 231.978Z" fill="#372898"/>
</g>
<g id="Combined Shape Copy 6">
<path fill-rule="evenodd" clip-rule="evenodd" d="M1441.5 208L1409.5 208C1409.5 208 1416.78 191.088 1432.5 191C1440.07 190.957 1449.28 195.171 1451.72 198.02C1454.16 200.87 1458.19 207.541 1458.19 207.541L1460.11 213.261C1460.11 213.261 1459.95 213.203 1459.68 213.114C1458.87 212.736 1457.99 212.471 1457.09 212.335C1456.57 212.205 1456.11 212.114 1455.84 212.116C1454.89 212.124 1453.37 212.464 1453.37 212.464C1453.37 212.464 1453.27 212.508 1453.12 212.584C1450.85 213.216 1448.96 214.65 1447.73 216.525L1441.5 208Z" fill="white"/>
<path d="M1409.5 208L1408.58 207.604L1407.98 209L1409.5 209L1409.5 208ZM1441.5 208L1442.31 207.41L1442.01 207L1441.5 207L1441.5 208ZM1432.5 191L1432.49 190L1432.5 191ZM1451.72 198.02L1450.96 198.671L1450.96 198.671L1451.72 198.02ZM1458.19 207.541L1459.14 207.222L1459.1 207.118L1459.04 207.024L1458.19 207.541ZM1460.11 213.261L1459.78 214.205L1461.71 214.875L1461.06 212.942L1460.11 213.261ZM1459.68 213.114L1459.26 214.021L1459.31 214.045L1459.36 214.063L1459.68 213.114ZM1457.09 212.335L1456.84 213.305L1456.89 213.317L1456.94 213.324L1457.09 212.335ZM1455.84 212.116L1455.85 213.116L1455.85 213.116L1455.84 212.116ZM1453.37 212.464L1453.15 211.488L1453.05 211.511L1452.96 211.552L1453.37 212.464ZM1453.12 212.584L1453.39 213.547L1453.48 213.521L1453.56 213.479L1453.12 212.584ZM1447.73 216.525L1446.93 217.115L1447.78 218.28L1448.57 217.073L1447.73 216.525ZM1409.5 209L1441.5 209L1441.5 207L1409.5 207L1409.5 209ZM1432.49 190C1424.25 190.046 1418.25 194.513 1414.36 198.867C1412.41 201.048 1410.97 203.222 1410.02 204.851C1409.54 205.666 1409.19 206.348 1408.95 206.828C1408.83 207.068 1408.74 207.259 1408.68 207.391C1408.65 207.457 1408.62 207.508 1408.61 207.544C1408.6 207.562 1408.59 207.576 1408.59 207.586C1408.59 207.591 1408.59 207.595 1408.58 207.598C1408.58 207.6 1408.58 207.601 1408.58 207.602C1408.58 207.603 1408.58 207.603 1408.58 207.603C1408.58 207.604 1408.58 207.604 1409.5 208C1410.42 208.395 1410.42 208.396 1410.42 208.396C1410.42 208.396 1410.42 208.396 1410.42 208.396C1410.42 208.396 1410.42 208.396 1410.42 208.395C1410.42 208.394 1410.42 208.392 1410.42 208.389C1410.42 208.383 1410.43 208.372 1410.43 208.358C1410.45 208.33 1410.47 208.287 1410.49 208.229C1410.55 208.113 1410.63 207.94 1410.74 207.718C1410.96 207.273 1411.3 206.633 1411.75 205.861C1412.65 204.316 1414.01 202.257 1415.85 200.199C1419.53 196.075 1425.04 192.042 1432.51 192L1432.49 190ZM1452.48 197.37C1451.77 196.538 1450.63 195.675 1449.27 194.858C1447.89 194.031 1446.22 193.215 1444.4 192.496C1440.77 191.062 1436.44 189.978 1432.49 190L1432.51 192C1436.12 191.98 1440.19 192.981 1443.66 194.356C1445.4 195.041 1446.96 195.81 1448.24 196.573C1449.52 197.346 1450.45 198.078 1450.96 198.671L1452.48 197.37ZM1458.19 207.541C1459.04 207.024 1459.04 207.024 1459.04 207.024C1459.04 207.024 1459.04 207.023 1459.04 207.023C1459.04 207.023 1459.04 207.023 1459.04 207.022C1459.04 207.021 1459.04 207.02 1459.04 207.018C1459.04 207.015 1459.04 207.01 1459.03 207.003C1459.02 206.99 1459.01 206.971 1459 206.946C1458.97 206.896 1458.92 206.822 1458.86 206.727C1458.75 206.537 1458.58 206.264 1458.37 205.926C1457.95 205.253 1457.37 204.324 1456.71 203.305C1455.4 201.284 1453.75 198.851 1452.48 197.37L1450.96 198.671C1452.13 200.039 1453.72 202.366 1455.03 204.393C1455.68 205.398 1456.26 206.315 1456.67 206.981C1456.88 207.314 1457.04 207.584 1457.16 207.77C1457.21 207.863 1457.26 207.935 1457.29 207.984C1457.3 208.009 1457.31 208.027 1457.32 208.04C1457.32 208.046 1457.33 208.05 1457.33 208.053C1457.33 208.055 1457.33 208.056 1457.33 208.057C1457.33 208.057 1457.33 208.057 1457.33 208.057C1457.33 208.058 1457.33 208.058 1457.33 208.058C1457.33 208.058 1457.33 208.058 1458.19 207.541ZM1461.06 212.942L1459.14 207.222L1457.24 207.859L1459.16 213.579L1461.06 212.942ZM1459.36 214.063C1459.49 214.106 1459.6 214.142 1459.67 214.167C1459.71 214.18 1459.74 214.189 1459.75 214.196C1459.76 214.199 1459.77 214.201 1459.78 214.203C1459.78 214.204 1459.78 214.204 1459.78 214.205C1459.78 214.205 1459.78 214.205 1459.78 214.205C1459.78 214.205 1459.78 214.205 1459.78 214.205C1459.78 214.205 1459.78 214.205 1459.78 214.205C1459.78 214.205 1459.78 214.205 1459.78 214.205C1459.78 214.205 1459.78 214.205 1459.78 214.205C1459.78 214.205 1459.78 214.205 1460.11 213.261C1460.44 212.316 1460.44 212.316 1460.44 212.316C1460.44 212.316 1460.44 212.316 1460.44 212.316C1460.44 212.316 1460.44 212.316 1460.44 212.316C1460.44 212.316 1460.44 212.316 1460.44 212.316C1460.44 212.316 1460.44 212.316 1460.44 212.316C1460.44 212.316 1460.44 212.315 1460.44 212.315C1460.43 212.315 1460.43 212.314 1460.43 212.313C1460.42 212.311 1460.42 212.308 1460.41 212.305C1460.39 212.298 1460.36 212.287 1460.32 212.274C1460.24 212.248 1460.13 212.211 1459.99 212.165L1459.36 214.063ZM1460.1 212.207C1459.2 211.79 1458.24 211.496 1457.24 211.346L1456.94 213.324C1457.75 213.445 1458.53 213.683 1459.26 214.021L1460.1 212.207ZM1455.85 213.116C1455.97 213.115 1456.31 213.171 1456.84 213.305L1457.33 211.366C1456.83 211.238 1456.25 211.113 1455.83 211.116L1455.85 213.116ZM1453.37 212.464C1453.59 213.44 1453.59 213.44 1453.59 213.44C1453.59 213.44 1453.59 213.44 1453.58 213.44C1453.58 213.44 1453.58 213.44 1453.58 213.44C1453.58 213.44 1453.59 213.44 1453.59 213.44C1453.59 213.44 1453.59 213.44 1453.59 213.44C1453.59 213.439 1453.59 213.438 1453.6 213.437C1453.61 213.435 1453.62 213.432 1453.64 213.427C1453.68 213.419 1453.74 213.406 1453.82 213.391C1453.97 213.361 1454.18 213.32 1454.42 213.279C1454.91 213.194 1455.46 213.12 1455.85 213.116L1455.83 211.116C1455.27 211.121 1454.58 211.22 1454.08 211.308C1453.82 211.353 1453.58 211.398 1453.42 211.431C1453.34 211.448 1453.27 211.462 1453.22 211.472C1453.2 211.477 1453.18 211.481 1453.17 211.484C1453.16 211.485 1453.16 211.486 1453.15 211.487C1453.15 211.487 1453.15 211.488 1453.15 211.488C1453.15 211.488 1453.15 211.488 1453.15 211.488C1453.15 211.488 1453.15 211.488 1453.15 211.488C1453.15 211.488 1453.15 211.488 1453.15 211.488C1453.15 211.488 1453.15 211.488 1453.37 212.464ZM1453.56 213.479C1453.63 213.445 1453.69 213.418 1453.72 213.401C1453.74 213.392 1453.76 213.385 1453.77 213.381C1453.77 213.379 1453.77 213.378 1453.78 213.377C1453.78 213.377 1453.78 213.377 1453.78 213.376C1453.78 213.376 1453.78 213.376 1453.78 213.377C1453.78 213.377 1453.78 213.377 1453.78 213.377C1453.78 213.377 1453.78 213.377 1453.78 213.377C1453.78 213.377 1453.78 213.377 1453.78 213.377C1453.78 213.377 1453.78 213.377 1453.78 213.377C1453.78 213.377 1453.78 213.377 1453.37 212.464C1452.96 211.552 1452.96 211.552 1452.96 211.552C1452.96 211.552 1452.96 211.552 1452.96 211.552C1452.96 211.552 1452.96 211.552 1452.96 211.552C1452.96 211.552 1452.96 211.552 1452.96 211.552C1452.96 211.552 1452.96 211.552 1452.96 211.552C1452.96 211.553 1452.96 211.553 1452.95 211.553C1452.95 211.554 1452.95 211.555 1452.95 211.556C1452.95 211.557 1452.94 211.56 1452.93 211.563C1452.92 211.57 1452.9 211.579 1452.87 211.59C1452.83 211.613 1452.76 211.646 1452.67 211.688L1453.56 213.479ZM1452.85 211.62C1450.34 212.32 1448.26 213.906 1446.9 215.976L1448.57 217.073C1449.67 215.394 1451.36 214.112 1453.39 213.547L1452.85 211.62ZM1440.69 208.59L1446.93 217.115L1448.54 215.935L1442.31 207.41L1440.69 208.59Z" fill="#372898"/>
</g>
<path id="Oval Copy 7" fill-rule="evenodd" clip-rule="evenodd" d="M1448.55 184.368C1454.41 178.083 1454.85 170.578 1452.78 162.848C1451.65 158.654 1450.78 153.626 1447.37 150.447C1437.67 141.408 1422.49 141.938 1413.45 151.632C1408.95 156.454 1408.28 162.386 1408.47 168.494C1408.67 174.664 1409.76 181.009 1414.63 185.552C1424.33 194.592 1439.51 194.062 1448.55 184.368Z" fill="white" stroke="#372898" stroke-width="2" stroke-linecap="round"/>
</g>
<path id="Path 2 Copy 5" fill-rule="evenodd" clip-rule="evenodd" d="M1451.2 207.192C1451.09 204.357 1453.36 202 1456.2 202H1469.74C1472.41 202 1474.6 204.091 1474.74 206.753L1476.76 247.57C1476.89 250.303 1474.8 252.637 1472.07 252.808L1458.11 253.681C1455.31 253.856 1452.91 251.689 1452.8 248.882L1451.2 207.192Z" fill="white" stroke="#372898" stroke-width="2" stroke-linecap="round"/>
<path id="Path 8 Copy" fill-rule="evenodd" clip-rule="evenodd" d="M1516.46 396L1549.92 464.033C1555.9 476.197 1559.15 489.522 1559.44 503.075L1564.39 733.335L1568.5 987L1512 978.5L1490.84 743.353L1460.22 508.966L1405 571.5L1438 862.5L1384.5 870.5L1316.06 575.486C1312.56 560.395 1316.41 544.536 1326.43 532.721L1430.5 410L1516.46 396Z" fill="white" stroke="#372898" stroke-width="2" stroke-linecap="round"/>
<rect id="Rectangle_3" width="6" height="4" rx="2" transform="matrix(-1 0 0 1 1470 206)" fill="white" stroke="#372898" stroke-width="2" stroke-linecap="round"/>
<g id="Group 6">
<path id="Path 163" fill-rule="evenodd" clip-rule="evenodd" d="M553.052 425L507.526 337.545L436.208 323.182L354.57 162L321.052 425H553.052Z" fill="#4372D6"/>
<path id="Path 165" fill-rule="evenodd" clip-rule="evenodd" d="M283.052 425L296.59 355.894L315.431 358.281L368.552 307.5L400.052 340L410.052 372.989L400.979 425H283.052Z" fill="#CAD9FF"/>
<path id="Path 164" fill-rule="evenodd" clip-rule="evenodd" d="M516.052 425L487.412 374.463L483.102 310.032L455.052 263L420.739 301.763L400.052 425H516.052Z" fill="white" stroke="#372898" stroke-width="2" stroke-linecap="round"/>
<g id="Path 3">
<path fill-rule="evenodd" clip-rule="evenodd" d="M569.052 425.5H304.552Z" fill="white"/>
<path d="M569.052 425.5H304.552" stroke="#372898" stroke-width="2" stroke-linecap="round"/>
</g>
<g id="Path 3 Copy 2">
<path fill-rule="evenodd" clip-rule="evenodd" d="M569.052 308H553.082Z" fill="white"/>
<path d="M569.052 308H553.082" stroke="#372898" stroke-width="2" stroke-linecap="round"/>
</g>
<g id="Path 3 Copy 5">
<path fill-rule="evenodd" clip-rule="evenodd" d="M569.052 366H553.082Z" fill="white"/>
<path d="M569.052 366H553.082" stroke="#372898" stroke-width="2" stroke-linecap="round"/>
</g>
<g id="Path 3 Copy 3">
<path fill-rule="evenodd" clip-rule="evenodd" d="M569.052 191H553.082Z" fill="white"/>
<path d="M569.052 191H553.082" stroke="#372898" stroke-width="2" stroke-linecap="round"/>
</g>
<g id="Path 3 Copy 4">
<path fill-rule="evenodd" clip-rule="evenodd" d="M569.052 250H553.082Z" fill="white"/>
<path d="M569.052 250H553.082" stroke="#372898" stroke-width="2" stroke-linecap="round"/>
</g>
</g>
<path id="Path 7 Copy 5" fill-rule="evenodd" clip-rule="evenodd" d="M1491 257.5C1491 257.5 1519.76 256.068 1526 285.5C1531.05 309.294 1554.47 398.146 1563.26 431.315C1565.43 439.495 1564.99 448.253 1560.61 455.498C1556.95 461.566 1552.02 468.026 1547.01 469.442C1541.07 471.122 1530.8 466.886 1523.49 463.206C1517.93 460.402 1514.16 455.12 1512.65 449.075L1460.95 241.648C1460.39 239.427 1461.19 237.088 1462.99 235.67V235.67C1465.26 233.872 1468.53 234.097 1470.54 236.189L1491 257.5Z" fill="white" stroke="#372898" stroke-width="2" stroke-linecap="round"/>
<g id="Path 4 Copy 5">
<path fill-rule="evenodd" clip-rule="evenodd" d="M1491.04 257.5L1492.87 262.868C1494.94 268.915 1496 275.261 1496 281.652V285L1549.04 419.5" fill="white"/>
<path d="M1491.04 257.5L1492.87 262.868C1494.94 268.915 1496 275.261 1496 281.652V285L1549.04 419.5" stroke="#372898" stroke-width="2" stroke-linecap="round"/>
</g>
<g id="Path 80">
<path fill-rule="evenodd" clip-rule="evenodd" d="M1454 407L1445.19 428Z" fill="white"/>
<path d="M1454 407L1445.19 428" stroke="#372898" stroke-width="2" stroke-linecap="round"/>
</g>
<rect id="Rectangle_4" width="84" height="69" transform="matrix(-1 0 0 1 1188.25 390)" fill="white" stroke="#372898" stroke-width="2" stroke-linecap="round"/>
<g id="Path 83 Copy 2">
<path fill-rule="evenodd" clip-rule="evenodd" d="M1171.25 434H1120.25Z" fill="white"/>
<path d="M1171.25 434H1120.25" stroke="#372898" stroke-width="2" stroke-linecap="round"/>
</g>
<g id="Path 81">
<path fill-rule="evenodd" clip-rule="evenodd" d="M1481.5 402L1489 423.5Z" fill="white"/>
<path d="M1481.5 402L1489 423.5" stroke="#372898" stroke-width="2" stroke-linecap="round"/>
</g>
<g id="Group 5">
<path id="Path 52" fill-rule="evenodd" clip-rule="evenodd" d="M186.61 329.213C179.36 328.88 172.398 332.081 167.93 337.8L89.7229 437.921C79.9601 450.419 83.0208 468.6 96.3376 477.213L272.552 591.183L269.552 541.683L136.052 452.683L203.335 365.251C214.383 350.894 204.706 330.043 186.61 329.213V329.213Z" fill="white" stroke="#372898" stroke-width="2" stroke-linecap="round"/>
<g id="Group_2">
<g id="Shape Copy 8">
<path fill-rule="evenodd" clip-rule="evenodd" d="M263.09 1026.2C271.013 1123.65 282.105 1177.17 296.367 1186.75C310.628 1196.34 288.444 1185.95 229.814 1155.6L215.552 1026.2" fill="white"/>
<path d="M263.09 1026.2C271.013 1123.65 282.105 1177.17 296.367 1186.75C310.628 1196.34 288.444 1185.95 229.814 1155.6L215.552 1026.2" stroke="#372898" stroke-width="2"/>
</g>
<path id="Shape Copy 9" fill-rule="evenodd" clip-rule="evenodd" d="M457.552 1026C496.052 1119 520.106 1177.17 534.367 1186.75C548.628 1196.34 525.444 1185.95 466.814 1155.6L403.552 1026H457.552Z" fill="white" stroke="#372898" stroke-width="2"/>
<g id="Path 11">
<path id="Mask_7" fill-rule="evenodd" clip-rule="evenodd" d="M279.052 510.202C279.052 510.202 356.257 702.144 392.052 797.5C427.847 892.856 472.552 1027 472.552 1027L396.552 1028L214.052 609.202L270.342 1028.2H201.372L130.653 584.589C128.305 569.856 130.344 554.758 136.518 541.176L172.052 463L259.552 470.5L279.052 510.202Z" fill="#4372D6"/>
<mask id="mask3" mask-type="alpha" maskUnits="userSpaceOnUse" x="129" y="463" width="344" height="566">
<path id="Mask_8" fill-rule="evenodd" clip-rule="evenodd" d="M279.052 510.202C279.052 510.202 356.257 702.144 392.052 797.5C427.847 892.856 472.552 1027 472.552 1027L396.552 1028L214.052 609.202L270.342 1028.2H201.372L130.653 584.589C128.305 569.856 130.344 554.758 136.518 541.176L172.052 463L259.552 470.5L279.052 510.202Z" fill="white"/>
</mask>
<g mask="url(#mask3)">
<path id="Path 11_2" fill-rule="evenodd" clip-rule="evenodd" d="M212.44 606.774L226.949 663.305L117.602 632.508L107.552 597L212.44 606.774Z" fill="#372898"/>
</g>
</g>
</g>
<g id="Group 4_2">
<path id="Path 5 Copy 2" fill-rule="evenodd" clip-rule="evenodd" d="M168.698 352.593C169.678 337.086 183.513 325.603 198.935 327.497L206.546 328.431L259.247 334.902L301.024 340.032L271.146 455.393C268.764 464.594 260.235 470.847 250.744 470.352L181.746 466.755C170.629 466.175 162.125 456.63 162.827 445.521L168.698 352.593Z" fill="white" stroke="#372898" stroke-width="2" stroke-linecap="round"/>
<g id="Group 3_3">
<g id="Shape Copy 18">
<path fill-rule="evenodd" clip-rule="evenodd" d="M254.087 307.428L249.069 334.5L251.035 334.865L256.054 307.793L254.087 307.428ZM215.01 329.968L225.868 293.582L223.952 293.01L213.094 329.396L215.01 329.968Z" fill="white"/>
<path d="M249.069 334.5L248.886 335.483L247.903 335.301L248.085 334.318L249.069 334.5ZM254.087 307.428L253.104 307.246L253.286 306.263L254.269 306.445L254.087 307.428ZM251.035 334.865L252.018 335.047L251.836 336.03L250.853 335.848L251.035 334.865ZM256.054 307.793L256.236 306.809L257.219 306.992L257.037 307.975L256.054 307.793ZM225.868 293.582L226.154 292.624L227.112 292.91L226.826 293.868L225.868 293.582ZM215.01 329.968L215.968 330.254L215.682 331.212L214.724 330.927L215.01 329.968ZM223.952 293.01L222.993 292.724L223.279 291.766L224.237 292.052L223.952 293.01ZM213.094 329.396L212.808 330.355L211.85 330.069L212.135 329.11L213.094 329.396ZM248.085 334.318L253.104 307.246L255.07 307.61L250.052 334.682L248.085 334.318ZM250.853 335.848L248.886 335.483L249.251 333.517L251.217 333.881L250.853 335.848ZM257.037 307.975L252.018 335.047L250.052 334.682L255.07 307.61L257.037 307.975ZM254.269 306.445L256.236 306.809L255.871 308.776L253.905 308.411L254.269 306.445ZM226.826 293.868L215.968 330.254L214.052 329.682L224.91 293.296L226.826 293.868ZM224.237 292.052L226.154 292.624L225.582 294.54L223.666 293.968L224.237 292.052ZM212.135 329.11L222.993 292.724L224.91 293.296L214.052 329.682L212.135 329.11ZM214.724 330.927L212.808 330.355L213.38 328.438L215.296 329.01L214.724 330.927Z" fill="#372898"/>
</g>
<g id="Group 2_2">
<g id="Combined Shape Copy_2">
<path fill-rule="evenodd" clip-rule="evenodd" d="M245.03 277.855C243.235 276.674 241.107 276.004 238.835 276.043C232.478 276.154 227.53 281.727 227.646 288.351C227.727 293.016 230.287 297.05 234.008 299.008L234.94 297.238C231.881 295.629 229.715 292.27 229.646 288.316C229.547 282.67 233.739 278.133 238.87 278.043C240.719 278.011 242.454 278.554 243.93 279.526L245.03 277.855ZM225.072 293.112L223.677 277.173C223.236 260.649 237.23 250.795 253.064 253.437C270.247 256.304 273.871 265.626 277.388 282.885C280.906 300.144 277.829 309.644 260.683 309.944C255.223 310.039 246.932 307.763 246.932 307.763" fill="white"/>
<path d="M245.03 277.855L245.58 277.02L246.415 277.569L245.865 278.405L245.03 277.855ZM234.008 299.008L234.893 299.473L234.428 300.358L233.543 299.893L234.008 299.008ZM234.94 297.238L235.405 296.353L236.29 296.818L235.825 297.703L234.94 297.238ZM243.93 279.526L244.766 280.075L244.216 280.911L243.381 280.361L243.93 279.526ZM226.068 293.025C226.116 293.575 225.709 294.06 225.159 294.109C224.609 294.157 224.124 293.75 224.076 293.199L226.068 293.025ZM223.677 277.173L222.681 277.26L222.679 277.23L222.678 277.2L223.677 277.173ZM253.064 253.437L253.228 252.451L253.064 253.437ZM277.388 282.885L278.368 282.685L277.388 282.885ZM246.667 308.727C246.135 308.581 245.821 308.031 245.968 307.498C246.114 306.966 246.664 306.652 247.197 306.799L246.667 308.727ZM238.817 275.044C241.301 275 243.625 275.733 245.58 277.02L244.48 278.69C242.845 277.614 240.913 277.007 238.852 277.043L238.817 275.044ZM226.646 288.368C226.522 281.257 231.845 275.165 238.817 275.044L238.852 277.043C233.11 277.144 228.539 282.197 228.646 288.334L226.646 288.368ZM233.543 299.893C229.49 297.761 226.734 293.389 226.646 288.368L228.646 288.334C228.721 292.643 231.084 296.339 234.474 298.123L233.543 299.893ZM235.825 297.703L234.893 299.473L233.123 298.542L234.055 296.772L235.825 297.703ZM230.646 288.299C230.708 291.897 232.678 294.918 235.405 296.353L234.474 298.123C231.084 296.339 228.721 292.643 228.646 288.334L230.646 288.299ZM238.887 279.043C234.368 279.122 230.556 283.144 230.646 288.299L228.646 288.334C228.539 282.196 233.11 277.143 238.852 277.043L238.887 279.043ZM243.381 280.361C242.064 279.495 240.525 279.014 238.887 279.043L238.852 277.043C240.913 277.007 242.845 277.614 244.48 278.69L243.381 280.361ZM245.865 278.405L244.766 280.075L243.095 278.976L244.194 277.305L245.865 278.405ZM224.076 293.199L222.681 277.26L224.674 277.086L226.068 293.025L224.076 293.199ZM222.678 277.2C222.449 268.628 225.974 261.726 231.655 257.327C237.322 252.939 245.068 251.089 253.228 252.451L252.899 254.423C245.226 253.143 238.058 254.899 232.879 258.909C227.716 262.907 224.464 269.194 224.677 277.146L222.678 277.2ZM253.228 252.451C262 253.914 267.473 257.061 271.162 262.179C274.797 267.222 276.612 274.07 278.368 282.685L276.409 283.084C274.647 274.44 272.892 267.999 269.54 263.349C266.242 258.774 261.311 255.827 252.899 254.423L253.228 252.451ZM278.368 282.685C280.131 291.334 280.32 298.342 277.664 303.25C274.941 308.283 269.432 310.791 260.701 310.944L260.666 308.944C269.081 308.797 273.683 306.406 275.905 302.298C278.195 298.067 278.163 291.694 276.409 283.084L278.368 282.685ZM260.701 310.944C257.856 310.993 254.33 310.429 251.562 309.869C250.168 309.587 248.947 309.303 248.074 309.088C247.638 308.981 247.288 308.891 247.046 308.828C246.925 308.796 246.831 308.771 246.767 308.754C246.735 308.746 246.711 308.739 246.694 308.734C246.686 308.732 246.679 308.73 246.675 308.729C246.672 308.729 246.671 308.728 246.669 308.728C246.669 308.728 246.668 308.727 246.668 308.727C246.668 308.727 246.668 308.727 246.668 308.727C246.667 308.727 246.667 308.727 246.932 307.763C247.197 306.799 247.197 306.799 247.197 306.799C247.197 306.799 247.197 306.799 247.197 306.799C247.197 306.799 247.197 306.799 247.198 306.799C247.198 306.799 247.2 306.799 247.201 306.8C247.205 306.801 247.21 306.802 247.218 306.804C247.233 306.808 247.255 306.814 247.286 306.823C247.346 306.839 247.435 306.863 247.552 306.893C247.785 306.954 248.125 307.041 248.551 307.146C249.404 307.355 250.597 307.634 251.958 307.909C254.701 308.463 258.05 308.989 260.666 308.944L260.701 310.944Z" fill="#372898"/>
</g>
</g>
<path id="Path 16" fill-rule="evenodd" clip-rule="evenodd" d="M247.214 307.716L250.472 330.914L251.495 328.968L254.164 310.012L247.214 307.716Z" fill="#372898"/>
<g id="Path 2">
<path fill-rule="evenodd" clip-rule="evenodd" d="M336.407 457.116L340.407 476.116Z" fill="white"/>
<path d="M336.407 457.116L340.407 476.116" stroke="#372898" stroke-width="2" stroke-linecap="round"/>
</g>
<g id="Combined Shape_7">
<path fill-rule="evenodd" clip-rule="evenodd" d="M310.133 342.683C308.442 337.026 302.434 333.861 296.811 335.666C276.452 342.201 265.137 363.897 271.43 384.332L306.967 499.74C310.584 511.486 321.438 519.5 333.727 519.5L478.669 519.5C479.006 519.924 479.512 520.203 480.088 520.238C487.296 520.67 515.861 522.134 528.052 519C538.415 516.336 554.788 507.763 562.608 503.482C565.376 501.966 567.052 499.055 567.052 495.899C567.052 490.996 563.056 487.033 558.153 487.073L477.137 487.737C476.722 487.741 476.344 487.885 476.044 488.122L349.552 474.5L310.133 342.683Z" fill="white"/>
<path d="M296.811 335.666L296.506 334.714L296.506 334.714L296.811 335.666ZM310.133 342.683L309.175 342.97L309.175 342.97L310.133 342.683ZM271.43 384.332L270.474 384.627L270.474 384.627L271.43 384.332ZM306.967 499.74L307.923 499.446L307.923 499.446L306.967 499.74ZM333.727 519.5L333.727 518.5H333.727L333.727 519.5ZM478.669 519.5L478.669 518.5L479.152 518.5L479.452 518.878L478.669 519.5ZM480.088 520.238L480.148 519.24L480.148 519.24L480.088 520.238ZM528.052 519L527.803 518.031L527.803 518.031L528.052 519ZM562.608 503.482L562.128 502.604L562.128 502.604L562.608 503.482ZM567.052 495.899L568.052 495.899L568.052 495.899L567.052 495.899ZM558.153 487.073L558.162 488.073L558.162 488.073L558.153 487.073ZM477.137 487.737L477.145 488.737L477.145 488.737L477.137 487.737ZM476.044 488.122L476.666 488.906L476.345 489.16L475.937 489.116L476.044 488.122ZM349.552 474.5L349.445 475.494L348.784 475.423L348.594 474.786L349.552 474.5ZM296.506 334.714C302.661 332.738 309.239 336.203 311.092 342.397L309.175 342.97C307.644 337.849 302.206 334.985 297.117 336.618L296.506 334.714ZM270.474 384.627C264.02 363.668 275.625 341.417 296.506 334.714L297.117 336.618C277.279 342.986 266.254 364.126 272.385 384.038L270.474 384.627ZM306.012 500.035L270.474 384.627L272.385 384.038L307.923 499.446L306.012 500.035ZM333.727 520.5C320.999 520.5 309.758 512.2 306.012 500.035L307.923 499.446C311.411 510.772 321.876 518.5 333.727 518.5L333.727 520.5ZM478.669 520.5L333.727 520.5L333.727 518.5L478.669 518.5L478.669 520.5ZM480.028 521.236C479.159 521.184 478.394 520.76 477.887 520.122L479.452 518.878C479.619 519.087 479.865 519.223 480.148 519.24L480.028 521.236ZM528.301 519.968C522.064 521.572 511.753 521.984 502.198 521.956C492.605 521.928 483.641 521.453 480.028 521.236L480.148 519.24C483.743 519.455 492.665 519.928 502.204 519.956C511.782 519.985 521.848 519.562 527.803 518.031L528.301 519.968ZM563.088 504.359C555.293 508.627 538.808 517.268 528.301 519.968L527.803 518.031C538.023 515.404 554.283 506.9 562.128 502.604L563.088 504.359ZM568.052 495.899C568.052 499.409 566.187 502.662 563.088 504.359L562.128 502.604C564.566 501.269 566.052 498.701 566.052 495.899L568.052 495.899ZM558.145 486.073C563.603 486.028 568.052 490.441 568.052 495.899L566.052 495.899C566.052 491.551 562.509 488.037 558.162 488.073L558.145 486.073ZM477.129 486.737L558.145 486.073L558.162 488.073L477.145 488.737L477.129 486.737ZM475.423 487.339C475.89 486.968 476.483 486.743 477.129 486.737L477.145 488.737C476.961 488.739 476.797 488.801 476.666 488.906L475.423 487.339ZM349.659 473.506L476.151 487.128L475.937 489.116L349.445 475.494L349.659 473.506ZM311.092 342.397L350.51 474.213L348.594 474.786L309.175 342.97L311.092 342.397Z" fill="#372898"/>
</g>
</g>
<path id="Path 9 Copy_2" fill-rule="evenodd" clip-rule="evenodd" d="M233.855 278.663C233.855 278.663 236.587 276.421 238.164 276.278C240.703 276.049 244.813 277.704 244.813 277.704L270.552 263V263C264.893 254.659 254.509 251.009 244.73 253.452C242.953 253.897 241.194 254.318 239.552 254.682C230.552 256.682 230.383 260.273 230.383 260.273L227.302 264.858C224.532 268.981 223.052 273.835 223.052 278.802L223.052 282.275C223.052 284.537 223.347 286.789 223.93 288.975L225.052 293.182L229.552 293C229.552 293 227.478 291.079 228.552 287.5C229.626 283.921 233.855 278.663 233.855 278.663Z" fill="#372898"/>
</g>
<path id="Combined Shape_8" fill-rule="evenodd" clip-rule="evenodd" d="M331.578 1208.99C334.937 1203.04 332.053 1195.51 325.583 1193.33L290.741 1181.59C290.741 1181.59 299.882 1189.56 281.777 1181.59C263.672 1173.63 229.984 1154.2 229.984 1154.2C226.904 1154.2 224.355 1156.6 224.161 1159.67L221.052 1208.99H242.434L239.944 1189.56L257.262 1206.85C258.768 1208.36 260.81 1209.2 262.938 1209.19L331.578 1208.99ZM569.578 1208.99C572.937 1203.04 570.053 1195.51 563.583 1193.33L528.741 1181.59C528.741 1181.59 537.882 1189.56 519.777 1181.59C501.672 1173.63 467.984 1154.2 467.984 1154.2C464.904 1154.2 462.355 1156.6 462.161 1159.67L459.052 1208.99H480.434L477.944 1189.56L495.262 1206.85C496.768 1208.36 498.81 1209.2 500.938 1209.19L569.578 1208.99Z" fill="#372898"/>
</g>
<path id="Rectangle_5" fill-rule="evenodd" clip-rule="evenodd" d="M1201.92 446.905L1201.75 419.5L1159.25 419.614L1159.25 448L1076.91 449.096C1075.82 449.11 1074.94 449.999 1074.94 451.092L1074.75 549.496C1074.75 550.602 1075.65 551.5 1076.75 551.5L1199.75 551.5C1200.86 551.5 1201.75 550.607 1201.75 549.503L1201.92 446.905Z" fill="#CAD9FF"/>
<path id="Path 13" fill-rule="evenodd" clip-rule="evenodd" d="M1435 921.5L1447.55 943.5L1458.27 955.099L1439.55 963L1435.05 955L1408.94 976.039L1366.88 993.895C1366.88 993.895 1357.06 995.297 1354.69 991.769C1352.32 988.24 1347.65 982.091 1376.7 962.81C1382.85 958.727 1383.39 954.589 1388.34 947.411C1390.54 944.213 1401.5 934.5 1401.5 934.5C1401.5 934.5 1405.94 938.707 1419.35 934.247C1432.76 929.786 1435 921.5 1435 921.5Z" fill="#372898"/>
<path id="Path 13 Copy" fill-rule="evenodd" clip-rule="evenodd" d="M1559.42 1040.03L1578.05 1060L1589.64 1068.32L1574.05 1080L1566.5 1074.5L1548 1102.05L1512.48 1130.8C1512.48 1130.8 1503.43 1134.86 1500.18 1132.12C1496.93 1129.38 1490.74 1124.76 1513.35 1098.22C1518.14 1092.6 1517.52 1088.47 1520.3 1080.21C1521.54 1076.52 1528.15 1065.36 1528.15 1065.36C1528.15 1065.36 1534.82 1066.99 1546.48 1059C1558.14 1051.02 1559.42 1040.03 1559.42 1040.03Z" fill="#372898"/>
<path id="Path 9 Copy_3" fill-rule="evenodd" clip-rule="evenodd" d="M234.552 277.5C234.552 277.5 238.192 277.398 239.775 277.394C242.325 277.386 244.019 279.467 245.052 279.5C248.987 279.624 260.166 275.704 269.229 272.236C276.209 269.565 279.143 261.395 275.666 254.78V254.78C272.952 249.616 267.08 246.952 261.407 248.311L232.072 255.339C226.356 256.708 221.543 260.544 218.932 265.809L199.518 304.96C196.547 310.952 200.919 317.977 207.607 317.958L227.07 317.902C233.472 317.883 238.208 311.937 236.794 305.693L235.052 298C235.052 298 233.233 297.321 231.775 295.894C230.483 294.628 228.692 293.222 228.552 291.5C228.277 288.127 227.521 283.504 231.552 279.5C231.899 279.155 234.552 277.5 234.552 277.5Z" fill="#372898"/>
<g id="Path 83">
<path fill-rule="evenodd" clip-rule="evenodd" d="M1171.25 390H1120.25Z" fill="white"/>
<path d="M1171.25 390H1120.25" stroke="#372898" stroke-width="2" stroke-linecap="round"/>
</g>
<g id="Path 83 Copy">
<path fill-rule="evenodd" clip-rule="evenodd" d="M1171.25 415H1120.25Z" fill="white"/>
<path d="M1171.25 415H1120.25" stroke="#372898" stroke-width="2" stroke-linecap="round"/>
</g>
<rect id="Top bar Copy" width="405" height="33" rx="8" transform="matrix(-1 0 0 1 1136.05 115)" fill="#89B922"/>
<path id="Combined Shape_9" fill-rule="evenodd" clip-rule="evenodd" d="M1108.51 136C1106 136 1103.96 133.761 1103.96 131C1103.96 128.239 1106 126 1108.51 126C1111.02 126 1113.05 128.239 1113.05 131C1113.05 133.761 1111.02 136 1108.51 136ZM1093.05 136C1090.54 136 1088.51 133.761 1088.51 131C1088.51 128.239 1090.54 126 1093.05 126C1095.56 126 1097.6 128.239 1097.6 131C1097.6 133.761 1095.56 136 1093.05 136ZM1072.14 131C1072.14 133.761 1074.18 136 1076.69 136C1079.2 136 1081.23 133.761 1081.23 131C1081.23 128.239 1079.2 126 1076.69 126C1074.18 126 1072.14 128.239 1072.14 131Z" fill="white"/>
<rect id="Rectangle Copy 25" width="249" height="34" transform="matrix(-1 0 0 1 1057.95 191)" fill="white" stroke="#372898" stroke-width="2" stroke-linecap="round"/>
<g id="Path 84">
<path fill-rule="evenodd" clip-rule="evenodd" d="M733.052 377.5H1135.05Z" fill="white"/>
<path d="M733.052 377.5H1135.05" stroke="#372898" stroke-width="2" stroke-linecap="round"/>
</g>
<g id="Path 84 Copy">
<path fill-rule="evenodd" clip-rule="evenodd" d="M733.052 269H1136.05Z" fill="white"/>
<path d="M733.052 269H1136.05" stroke="#372898" stroke-width="2" stroke-linecap="round"/>
</g>
<path id="Oval" fill-rule="evenodd" clip-rule="evenodd" d="M833.024 214C828.33 214 824.524 210.194 824.524 205.5C824.524 200.806 828.33 197 833.024 197C837.719 197 841.524 200.806 841.524 205.5C841.524 210.194 837.719 214 833.024 214Z" fill="white" stroke="#372898" stroke-width="2" stroke-linecap="round"/>
<g id="Path 85">
<path fill-rule="evenodd" clip-rule="evenodd" d="M826.486 212L820.275 217.667Z" fill="white"/>
<path d="M826.486 212L820.275 217.667" stroke="#372898" stroke-width="2" stroke-linecap="round"/>
</g>
<g id="Path 86">
<path fill-rule="evenodd" clip-rule="evenodd" d="M988.052 325H892.052Z" fill="white"/>
<path d="M988.052 325H892.052" stroke="#372898" stroke-width="2" stroke-linecap="round"/>
</g>
<g id="Path 86 Copy 2">
<path fill-rule="evenodd" clip-rule="evenodd" d="M988.052 437H892.052Z" fill="white"/>
<path d="M988.052 437H892.052" stroke="#372898" stroke-width="2" stroke-linecap="round"/>
</g>
<g id="Path 86 Copy">
<path fill-rule="evenodd" clip-rule="evenodd" d="M872.475 325H832.321Z" fill="white"/>
<path d="M872.475 325H832.321" stroke="#372898" stroke-width="2" stroke-linecap="round"/>
</g>
<g id="Path 86 Copy 3">
<path fill-rule="evenodd" clip-rule="evenodd" d="M872.475 437H832.321Z" fill="white"/>
<path d="M872.475 437H832.321" stroke="#372898" stroke-width="2" stroke-linecap="round"/>
</g>
<g id="Path 87">
<path fill-rule="evenodd" clip-rule="evenodd" d="M1056.05 548L1096.07 531.289C1099.16 529.998 1100.73 526.542 1099.67 523.366V523.366C1098.52 519.901 1094.7 518.105 1091.3 519.426L1073.05 526.5" fill="white"/>
<path d="M1056.05 548L1096.07 531.289C1099.16 529.998 1100.73 526.542 1099.67 523.366V523.366C1098.52 519.901 1094.7 518.105 1091.3 519.426L1073.05 526.5" stroke="#372898" stroke-width="2" stroke-linecap="round"/>
</g>
</g>
</g>
<defs>
<clipPath id="clip0">
<rect width="1593" height="1165" fill="white" transform="matrix(-1 0 0 1 1664 115)"/>
</clipPath>
</defs>
</svg>
