<svg width="340" height="38" viewBox="0 0 340 38" fill="none" xmlns="http://www.w3.org/2000/svg">
<path d="M15.87 9.145V13.045H6.9V18.145H13.77V21.895H6.9V27.1H15.87V31H1.8V9.145H15.87ZM18.4629 20.005H26.5629V23.755H18.4629V20.005ZM41.0864 19.135C40.9464 19.305 40.8114 19.44 40.6814 19.54C40.5514 19.64 40.3664 19.69 40.1264 19.69C39.8964 19.69 39.6864 19.635 39.4964 19.525C39.3164 19.415 39.1114 19.295 38.8814 19.165C38.6514 19.025 38.3814 18.9 38.0714 18.79C37.7614 18.68 37.3764 18.625 36.9164 18.625C36.3464 18.625 35.8514 18.73 35.4314 18.94C35.0214 19.15 34.6814 19.45 34.4114 19.84C34.1414 20.23 33.9414 20.71 33.8114 21.28C33.6814 21.84 33.6164 22.475 33.6164 23.185C33.6164 24.675 33.9014 25.82 34.4714 26.62C35.0514 27.42 35.8464 27.82 36.8564 27.82C37.3964 27.82 37.8214 27.755 38.1314 27.625C38.4514 27.485 38.7214 27.335 38.9414 27.175C39.1614 27.005 39.3614 26.85 39.5414 26.71C39.7314 26.57 39.9664 26.5 40.2464 26.5C40.6164 26.5 40.8964 26.635 41.0864 26.905L42.4364 28.57C41.9564 29.12 41.4514 29.57 40.9214 29.92C40.3914 30.26 39.8464 30.53 39.2864 30.73C38.7364 30.92 38.1814 31.05 37.6214 31.12C37.0614 31.2 36.5164 31.24 35.9864 31.24C35.0364 31.24 34.1264 31.06 33.2564 30.7C32.3964 30.34 31.6364 29.82 30.9764 29.14C30.3264 28.45 29.8064 27.605 29.4164 26.605C29.0364 25.605 28.8464 24.465 28.8464 23.185C28.8464 22.065 29.0114 21.02 29.3414 20.05C29.6814 19.07 30.1764 18.225 30.8264 17.515C31.4864 16.795 32.2964 16.23 33.2564 15.82C34.2264 15.41 35.3464 15.205 36.6164 15.205C37.8364 15.205 38.9064 15.4 39.8264 15.79C40.7464 16.18 41.5764 16.75 42.3164 17.5L41.0864 19.135ZM51.3863 15.205C52.5663 15.205 53.6413 15.39 54.6113 15.76C55.5813 16.13 56.4113 16.66 57.1013 17.35C57.8013 18.04 58.3413 18.88 58.7213 19.87C59.1113 20.85 59.3063 21.955 59.3063 23.185C59.3063 24.425 59.1113 25.545 58.7213 26.545C58.3413 27.535 57.8013 28.38 57.1013 29.08C56.4113 29.77 55.5813 30.305 54.6113 30.685C53.6413 31.055 52.5663 31.24 51.3863 31.24C50.1963 31.24 49.1113 31.055 48.1313 30.685C47.1613 30.305 46.3213 29.77 45.6113 29.08C44.9113 28.38 44.3663 27.535 43.9763 26.545C43.5963 25.545 43.4063 24.425 43.4063 23.185C43.4063 21.955 43.5963 20.85 43.9763 19.87C44.3663 18.88 44.9113 18.04 45.6113 17.35C46.3213 16.66 47.1613 16.13 48.1313 15.76C49.1113 15.39 50.1963 15.205 51.3863 15.205ZM51.3863 27.79C52.4563 27.79 53.2413 27.415 53.7413 26.665C54.2513 25.905 54.5063 24.755 54.5063 23.215C54.5063 21.675 54.2513 20.53 53.7413 19.78C53.2413 19.03 52.4563 18.655 51.3863 18.655C50.2863 18.655 49.4813 19.03 48.9713 19.78C48.4613 20.53 48.2063 21.675 48.2063 23.215C48.2063 24.755 48.4613 25.905 48.9713 26.665C49.4813 27.415 50.2863 27.79 51.3863 27.79ZM61.8586 31V15.445H64.7386C65.0286 15.445 65.2686 15.51 65.4586 15.64C65.6586 15.77 65.7986 15.965 65.8786 16.225L66.1336 17.065C66.3936 16.795 66.6636 16.55 66.9436 16.33C67.2236 16.1 67.5236 15.905 67.8436 15.745C68.1736 15.575 68.5236 15.445 68.8936 15.355C69.2736 15.255 69.6886 15.205 70.1386 15.205C71.0786 15.205 71.8536 15.45 72.4636 15.94C73.0836 16.42 73.5536 17.065 73.8736 17.875C74.1336 17.395 74.4486 16.985 74.8186 16.645C75.1986 16.305 75.6036 16.03 76.0336 15.82C76.4736 15.61 76.9336 15.455 77.4136 15.355C77.9036 15.255 78.3886 15.205 78.8686 15.205C79.7586 15.205 80.5486 15.34 81.2386 15.61C81.9286 15.87 82.5036 16.255 82.9636 16.765C83.4336 17.265 83.7886 17.885 84.0286 18.625C84.2686 19.355 84.3886 20.185 84.3886 21.115V31H79.7386V21.115C79.7386 19.505 79.0486 18.7 77.6686 18.7C77.0386 18.7 76.5136 18.91 76.0936 19.33C75.6836 19.74 75.4786 20.335 75.4786 21.115V31H70.8286V21.115C70.8286 20.225 70.6536 19.6 70.3036 19.24C69.9536 18.88 69.4386 18.7 68.7586 18.7C68.3386 18.7 67.9386 18.795 67.5586 18.985C67.1886 19.175 66.8386 19.43 66.5086 19.75V31H61.8586ZM87.6984 31V15.445H90.5784C90.8684 15.445 91.1084 15.51 91.2984 15.64C91.4984 15.77 91.6384 15.965 91.7184 16.225L91.9734 17.065C92.2334 16.795 92.5034 16.55 92.7834 16.33C93.0634 16.1 93.3634 15.905 93.6834 15.745C94.0134 15.575 94.3634 15.445 94.7334 15.355C95.1134 15.255 95.5284 15.205 95.9784 15.205C96.9184 15.205 97.6934 15.45 98.3034 15.94C98.9234 16.42 99.3934 17.065 99.7134 17.875C99.9734 17.395 100.288 16.985 100.658 16.645C101.038 16.305 101.443 16.03 101.873 15.82C102.313 15.61 102.773 15.455 103.253 15.355C103.743 15.255 104.228 15.205 104.708 15.205C105.598 15.205 106.388 15.34 107.078 15.61C107.768 15.87 108.343 16.255 108.803 16.765C109.273 17.265 109.628 17.885 109.868 18.625C110.108 19.355 110.228 20.185 110.228 21.115V31H105.578V21.115C105.578 19.505 104.888 18.7 103.508 18.7C102.878 18.7 102.353 18.91 101.933 19.33C101.523 19.74 101.318 20.335 101.318 21.115V31H96.6684V21.115C96.6684 20.225 96.4934 19.6 96.1434 19.24C95.7934 18.88 95.2784 18.7 94.5984 18.7C94.1784 18.7 93.7784 18.795 93.3984 18.985C93.0284 19.175 92.6784 19.43 92.3484 19.75V31H87.6984ZM120.198 15.205C121.228 15.205 122.168 15.365 123.018 15.685C123.878 16.005 124.613 16.47 125.223 17.08C125.843 17.69 126.323 18.44 126.663 19.33C127.013 20.21 127.188 21.21 127.188 22.33C127.188 22.68 127.173 22.965 127.143 23.185C127.113 23.405 127.058 23.58 126.978 23.71C126.898 23.84 126.788 23.93 126.648 23.98C126.518 24.03 126.348 24.055 126.138 24.055H117.168C117.318 25.355 117.713 26.3 118.353 26.89C118.993 27.47 119.818 27.76 120.828 27.76C121.368 27.76 121.833 27.695 122.223 27.565C122.613 27.435 122.958 27.29 123.258 27.13C123.568 26.97 123.848 26.825 124.098 26.695C124.358 26.565 124.628 26.5 124.908 26.5C125.278 26.5 125.558 26.635 125.748 26.905L127.098 28.57C126.618 29.12 126.098 29.57 125.538 29.92C124.988 30.26 124.418 30.53 123.828 30.73C123.248 30.92 122.663 31.05 122.073 31.12C121.493 31.2 120.938 31.24 120.408 31.24C119.318 31.24 118.293 31.065 117.333 30.715C116.383 30.355 115.548 29.825 114.828 29.125C114.118 28.425 113.553 27.555 113.133 26.515C112.723 25.475 112.518 24.265 112.518 22.885C112.518 21.845 112.693 20.86 113.043 19.93C113.403 19 113.913 18.185 114.573 17.485C115.243 16.785 116.048 16.23 116.988 15.82C117.938 15.41 119.008 15.205 120.198 15.205ZM120.288 18.415C119.398 18.415 118.703 18.67 118.203 19.18C117.703 19.68 117.373 20.405 117.213 21.355H123.018C123.018 20.985 122.968 20.625 122.868 20.275C122.778 19.925 122.623 19.615 122.403 19.345C122.193 19.065 121.913 18.84 121.563 18.67C121.213 18.5 120.788 18.415 120.288 18.415ZM129.857 31V15.445H132.617C132.847 15.445 133.037 15.465 133.187 15.505C133.347 15.545 133.477 15.61 133.577 15.7C133.687 15.78 133.767 15.89 133.817 16.03C133.877 16.17 133.927 16.34 133.967 16.54L134.222 17.995C134.792 17.115 135.432 16.42 136.142 15.91C136.852 15.4 137.627 15.145 138.467 15.145C139.177 15.145 139.747 15.315 140.177 15.655L139.577 19.075C139.537 19.285 139.457 19.435 139.337 19.525C139.217 19.605 139.057 19.645 138.857 19.645C138.687 19.645 138.487 19.625 138.257 19.585C138.027 19.535 137.737 19.51 137.387 19.51C136.167 19.51 135.207 20.16 134.507 21.46V31H129.857ZM153.469 19.135C153.329 19.305 153.194 19.44 153.064 19.54C152.934 19.64 152.749 19.69 152.509 19.69C152.279 19.69 152.069 19.635 151.879 19.525C151.699 19.415 151.494 19.295 151.264 19.165C151.034 19.025 150.764 18.9 150.454 18.79C150.144 18.68 149.759 18.625 149.299 18.625C148.729 18.625 148.234 18.73 147.814 18.94C147.404 19.15 147.064 19.45 146.794 19.84C146.524 20.23 146.324 20.71 146.194 21.28C146.064 21.84 145.999 22.475 145.999 23.185C145.999 24.675 146.284 25.82 146.854 26.62C147.434 27.42 148.229 27.82 149.239 27.82C149.779 27.82 150.204 27.755 150.514 27.625C150.834 27.485 151.104 27.335 151.324 27.175C151.544 27.005 151.744 26.85 151.924 26.71C152.114 26.57 152.349 26.5 152.629 26.5C152.999 26.5 153.279 26.635 153.469 26.905L154.819 28.57C154.339 29.12 153.834 29.57 153.304 29.92C152.774 30.26 152.229 30.53 151.669 30.73C151.119 30.92 150.564 31.05 150.004 31.12C149.444 31.2 148.899 31.24 148.369 31.24C147.419 31.24 146.509 31.06 145.639 30.7C144.779 30.34 144.019 29.82 143.359 29.14C142.709 28.45 142.189 27.605 141.799 26.605C141.419 25.605 141.229 24.465 141.229 23.185C141.229 22.065 141.394 21.02 141.724 20.05C142.064 19.07 142.559 18.225 143.209 17.515C143.869 16.795 144.679 16.23 145.639 15.82C146.609 15.41 147.729 15.205 148.999 15.205C150.219 15.205 151.289 15.4 152.209 15.79C153.129 16.18 153.959 16.75 154.699 17.5L153.469 19.135ZM163.499 15.205C164.529 15.205 165.469 15.365 166.319 15.685C167.179 16.005 167.914 16.47 168.524 17.08C169.144 17.69 169.624 18.44 169.964 19.33C170.314 20.21 170.489 21.21 170.489 22.33C170.489 22.68 170.474 22.965 170.444 23.185C170.414 23.405 170.359 23.58 170.279 23.71C170.199 23.84 170.089 23.93 169.949 23.98C169.819 24.03 169.649 24.055 169.439 24.055H160.469C160.619 25.355 161.014 26.3 161.654 26.89C162.294 27.47 163.119 27.76 164.129 27.76C164.669 27.76 165.134 27.695 165.524 27.565C165.914 27.435 166.259 27.29 166.559 27.13C166.869 26.97 167.149 26.825 167.399 26.695C167.659 26.565 167.929 26.5 168.209 26.5C168.579 26.5 168.859 26.635 169.049 26.905L170.399 28.57C169.919 29.12 169.399 29.57 168.839 29.92C168.289 30.26 167.719 30.53 167.129 30.73C166.549 30.92 165.964 31.05 165.374 31.12C164.794 31.2 164.239 31.24 163.709 31.24C162.619 31.24 161.594 31.065 160.634 30.715C159.684 30.355 158.849 29.825 158.129 29.125C157.419 28.425 156.854 27.555 156.434 26.515C156.024 25.475 155.819 24.265 155.819 22.885C155.819 21.845 155.994 20.86 156.344 19.93C156.704 19 157.214 18.185 157.874 17.485C158.544 16.785 159.349 16.23 160.289 15.82C161.239 15.41 162.309 15.205 163.499 15.205ZM163.589 18.415C162.699 18.415 162.004 18.67 161.504 19.18C161.004 19.68 160.674 20.405 160.514 21.355H166.319C166.319 20.985 166.269 20.625 166.169 20.275C166.079 19.925 165.924 19.615 165.704 19.345C165.494 19.065 165.214 18.84 164.864 18.67C164.514 18.5 164.089 18.415 163.589 18.415ZM184.028 23.695V31H178.958V9.145H186.668C188.208 9.145 189.528 9.33 190.628 9.7C191.738 10.06 192.648 10.56 193.358 11.2C194.078 11.84 194.608 12.595 194.948 13.465C195.288 14.335 195.458 15.275 195.458 16.285C195.458 17.375 195.283 18.375 194.933 19.285C194.583 20.195 194.048 20.975 193.328 21.625C192.608 22.275 191.693 22.785 190.583 23.155C189.483 23.515 188.178 23.695 186.668 23.695H184.028ZM184.028 19.87H186.668C187.988 19.87 188.938 19.555 189.518 18.925C190.098 18.295 190.388 17.415 190.388 16.285C190.388 15.785 190.313 15.33 190.163 14.92C190.013 14.51 189.783 14.16 189.473 13.87C189.173 13.57 188.788 13.34 188.318 13.18C187.858 13.02 187.308 12.94 186.668 12.94H184.028V19.87ZM208.067 31C207.627 31 207.292 30.94 207.062 30.82C206.842 30.7 206.657 30.45 206.507 30.07L206.177 29.215C205.787 29.545 205.412 29.835 205.052 30.085C204.692 30.335 204.317 30.55 203.927 30.73C203.547 30.9 203.137 31.025 202.697 31.105C202.267 31.195 201.787 31.24 201.257 31.24C200.547 31.24 199.902 31.15 199.322 30.97C198.742 30.78 198.247 30.505 197.837 30.145C197.437 29.785 197.127 29.34 196.907 28.81C196.687 28.27 196.577 27.65 196.577 26.95C196.577 26.4 196.717 25.835 196.997 25.255C197.277 24.675 197.762 24.15 198.452 23.68C199.142 23.2 200.072 22.8 201.242 22.48C202.412 22.16 203.887 21.98 205.667 21.94V21.28C205.667 20.37 205.477 19.715 205.097 19.315C204.727 18.905 204.197 18.7 203.507 18.7C202.957 18.7 202.507 18.76 202.157 18.88C201.807 19 201.492 19.135 201.212 19.285C200.942 19.435 200.677 19.57 200.417 19.69C200.157 19.81 199.847 19.87 199.487 19.87C199.167 19.87 198.892 19.795 198.662 19.645C198.442 19.485 198.267 19.29 198.137 19.06L197.297 17.605C198.237 16.775 199.277 16.16 200.417 15.76C201.567 15.35 202.797 15.145 204.107 15.145C205.047 15.145 205.892 15.3 206.642 15.61C207.402 15.91 208.042 16.335 208.562 16.885C209.092 17.425 209.497 18.07 209.777 18.82C210.057 19.57 210.197 20.39 210.197 21.28V31H208.067ZM202.727 28.165C203.327 28.165 203.852 28.06 204.302 27.85C204.752 27.64 205.207 27.3 205.667 26.83V24.67C204.737 24.71 203.972 24.79 203.372 24.91C202.772 25.03 202.297 25.18 201.947 25.36C201.597 25.54 201.352 25.745 201.212 25.975C201.082 26.205 201.017 26.455 201.017 26.725C201.017 27.255 201.162 27.63 201.452 27.85C201.742 28.06 202.167 28.165 202.727 28.165ZM213.499 31V15.445H216.259C216.489 15.445 216.679 15.465 216.829 15.505C216.989 15.545 217.119 15.61 217.219 15.7C217.329 15.78 217.409 15.89 217.459 16.03C217.519 16.17 217.569 16.34 217.609 16.54L217.864 17.995C218.434 17.115 219.074 16.42 219.784 15.91C220.494 15.4 221.269 15.145 222.109 15.145C222.819 15.145 223.389 15.315 223.819 15.655L223.219 19.075C223.179 19.285 223.099 19.435 222.979 19.525C222.859 19.605 222.699 19.645 222.499 19.645C222.329 19.645 222.129 19.625 221.899 19.585C221.669 19.535 221.379 19.51 221.029 19.51C219.809 19.51 218.849 20.16 218.149 21.46V31H213.499ZM231.352 31.24C230.612 31.24 229.957 31.135 229.387 30.925C228.827 30.705 228.352 30.4 227.962 30.01C227.582 29.61 227.292 29.13 227.092 28.57C226.892 28.01 226.792 27.385 226.792 26.695V18.655H225.472C225.232 18.655 225.027 18.58 224.857 18.43C224.687 18.27 224.602 18.04 224.602 17.74V15.925L227.077 15.445L227.992 11.65C228.112 11.17 228.452 10.93 229.012 10.93H231.442V15.475H235.222V18.655H231.442V26.38C231.442 26.74 231.527 27.04 231.697 27.28C231.877 27.51 232.132 27.625 232.462 27.625C232.632 27.625 232.772 27.61 232.882 27.58C233.002 27.54 233.102 27.5 233.182 27.46C233.272 27.41 233.352 27.37 233.422 27.34C233.502 27.3 233.592 27.28 233.692 27.28C233.832 27.28 233.942 27.315 234.022 27.385C234.112 27.445 234.202 27.545 234.292 27.685L235.702 29.89C235.102 30.34 234.427 30.68 233.677 30.91C232.927 31.13 232.152 31.24 231.352 31.24ZM237.904 31V15.445H240.784C241.074 15.445 241.314 15.51 241.504 15.64C241.704 15.77 241.844 15.965 241.924 16.225L242.194 17.125C242.494 16.845 242.804 16.585 243.124 16.345C243.444 16.105 243.784 15.905 244.144 15.745C244.514 15.575 244.909 15.445 245.329 15.355C245.759 15.255 246.224 15.205 246.724 15.205C247.574 15.205 248.324 15.355 248.974 15.655C249.634 15.945 250.189 16.355 250.639 16.885C251.089 17.405 251.429 18.03 251.659 18.76C251.889 19.48 252.004 20.265 252.004 21.115V31H247.354V21.115C247.354 20.355 247.179 19.765 246.829 19.345C246.479 18.915 245.964 18.7 245.284 18.7C244.774 18.7 244.294 18.81 243.844 19.03C243.394 19.25 242.964 19.545 242.554 19.915V31H237.904ZM261.966 15.205C262.996 15.205 263.936 15.365 264.786 15.685C265.646 16.005 266.381 16.47 266.991 17.08C267.611 17.69 268.091 18.44 268.431 19.33C268.781 20.21 268.956 21.21 268.956 22.33C268.956 22.68 268.941 22.965 268.911 23.185C268.881 23.405 268.826 23.58 268.746 23.71C268.666 23.84 268.556 23.93 268.416 23.98C268.286 24.03 268.116 24.055 267.906 24.055H258.936C259.086 25.355 259.481 26.3 260.121 26.89C260.761 27.47 261.586 27.76 262.596 27.76C263.136 27.76 263.601 27.695 263.991 27.565C264.381 27.435 264.726 27.29 265.026 27.13C265.336 26.97 265.616 26.825 265.866 26.695C266.126 26.565 266.396 26.5 266.676 26.5C267.046 26.5 267.326 26.635 267.516 26.905L268.866 28.57C268.386 29.12 267.866 29.57 267.306 29.92C266.756 30.26 266.186 30.53 265.596 30.73C265.016 30.92 264.431 31.05 263.841 31.12C263.261 31.2 262.706 31.24 262.176 31.24C261.086 31.24 260.061 31.065 259.101 30.715C258.151 30.355 257.316 29.825 256.596 29.125C255.886 28.425 255.321 27.555 254.901 26.515C254.491 25.475 254.286 24.265 254.286 22.885C254.286 21.845 254.461 20.86 254.811 19.93C255.171 19 255.681 18.185 256.341 17.485C257.011 16.785 257.816 16.23 258.756 15.82C259.706 15.41 260.776 15.205 261.966 15.205ZM262.056 18.415C261.166 18.415 260.471 18.67 259.971 19.18C259.471 19.68 259.141 20.405 258.981 21.355H264.786C264.786 20.985 264.736 20.625 264.636 20.275C264.546 19.925 264.391 19.615 264.171 19.345C263.961 19.065 263.681 18.84 263.331 18.67C262.981 18.5 262.556 18.415 262.056 18.415ZM271.624 31V15.445H274.384C274.614 15.445 274.804 15.465 274.954 15.505C275.114 15.545 275.244 15.61 275.344 15.7C275.454 15.78 275.534 15.89 275.584 16.03C275.644 16.17 275.694 16.34 275.734 16.54L275.989 17.995C276.559 17.115 277.199 16.42 277.909 15.91C278.619 15.4 279.394 15.145 280.234 15.145C280.944 15.145 281.514 15.315 281.944 15.655L281.344 19.075C281.304 19.285 281.224 19.435 281.104 19.525C280.984 19.605 280.824 19.645 280.624 19.645C280.454 19.645 280.254 19.625 280.024 19.585C279.794 19.535 279.504 19.51 279.154 19.51C277.934 19.51 276.974 20.16 276.274 21.46V31H271.624ZM293.527 18.85C293.407 19.04 293.277 19.175 293.137 19.255C293.007 19.335 292.837 19.375 292.627 19.375C292.407 19.375 292.187 19.33 291.967 19.24C291.747 19.14 291.507 19.035 291.247 18.925C290.997 18.815 290.712 18.715 290.392 18.625C290.072 18.525 289.707 18.475 289.297 18.475C288.707 18.475 288.252 18.59 287.932 18.82C287.622 19.04 287.467 19.35 287.467 19.75C287.467 20.04 287.567 20.28 287.767 20.47C287.977 20.66 288.252 20.83 288.592 20.98C288.932 21.12 289.317 21.255 289.747 21.385C290.177 21.515 290.617 21.66 291.067 21.82C291.517 21.98 291.957 22.17 292.387 22.39C292.817 22.6 293.202 22.865 293.542 23.185C293.882 23.495 294.152 23.875 294.352 24.325C294.562 24.775 294.667 25.315 294.667 25.945C294.667 26.715 294.527 27.425 294.247 28.075C293.967 28.725 293.547 29.285 292.987 29.755C292.437 30.225 291.752 30.59 290.932 30.85C290.122 31.11 289.187 31.24 288.127 31.24C287.597 31.24 287.067 31.19 286.537 31.09C286.007 30.99 285.492 30.855 284.992 30.685C284.502 30.515 284.047 30.315 283.627 30.085C283.207 29.845 282.847 29.59 282.547 29.32L283.627 27.61C283.757 27.41 283.912 27.255 284.092 27.145C284.272 27.025 284.507 26.965 284.797 26.965C285.067 26.965 285.307 27.025 285.517 27.145C285.737 27.265 285.972 27.395 286.222 27.535C286.472 27.675 286.762 27.805 287.092 27.925C287.432 28.045 287.857 28.105 288.367 28.105C288.727 28.105 289.032 28.07 289.282 28C289.532 27.92 289.732 27.815 289.882 27.685C290.032 27.555 290.142 27.41 290.212 27.25C290.282 27.09 290.317 26.925 290.317 26.755C290.317 26.445 290.212 26.19 290.002 25.99C289.792 25.79 289.517 25.62 289.177 25.48C288.837 25.33 288.447 25.195 288.007 25.075C287.577 24.945 287.137 24.8 286.687 24.64C286.237 24.48 285.792 24.29 285.352 24.07C284.922 23.84 284.537 23.555 284.197 23.215C283.857 22.865 283.582 22.44 283.372 21.94C283.162 21.44 283.057 20.835 283.057 20.125C283.057 19.465 283.182 18.84 283.432 18.25C283.692 17.65 284.077 17.125 284.587 16.675C285.097 16.225 285.737 15.87 286.507 15.61C287.277 15.34 288.177 15.205 289.207 15.205C289.767 15.205 290.307 15.255 290.827 15.355C291.357 15.455 291.852 15.595 292.312 15.775C292.772 15.955 293.192 16.17 293.572 16.42C293.952 16.66 294.287 16.925 294.577 17.215L293.527 18.85ZM297.23 31V8.545H301.88V16.81C302.44 16.33 303.045 15.945 303.695 15.655C304.355 15.355 305.14 15.205 306.05 15.205C306.9 15.205 307.65 15.355 308.3 15.655C308.96 15.945 309.515 16.355 309.965 16.885C310.415 17.405 310.755 18.03 310.985 18.76C311.215 19.48 311.33 20.265 311.33 21.115V31H306.68V21.115C306.68 20.355 306.505 19.765 306.155 19.345C305.805 18.915 305.29 18.7 304.61 18.7C304.1 18.7 303.62 18.81 303.17 19.03C302.72 19.25 302.29 19.545 301.88 19.915V31H297.23ZM319.432 15.445V31H314.782V15.445H319.432ZM319.972 11.185C319.972 11.555 319.897 11.905 319.747 12.235C319.597 12.555 319.392 12.84 319.132 13.09C318.872 13.33 318.567 13.525 318.217 13.675C317.877 13.815 317.512 13.885 317.122 13.885C316.742 13.885 316.387 13.815 316.057 13.675C315.727 13.525 315.432 13.33 315.172 13.09C314.922 12.84 314.722 12.555 314.572 12.235C314.432 11.905 314.362 11.555 314.362 11.185C314.362 10.805 314.432 10.45 314.572 10.12C314.722 9.79 314.922 9.5 315.172 9.25C315.432 9 315.727 8.805 316.057 8.665C316.387 8.525 316.742 8.455 317.122 8.455C317.512 8.455 317.877 8.525 318.217 8.665C318.567 8.805 318.872 9 319.132 9.25C319.392 9.5 319.597 9.79 319.747 10.12C319.897 10.45 319.972 10.805 319.972 11.185ZM323.187 35.935V15.445H326.067C326.357 15.445 326.597 15.51 326.787 15.64C326.987 15.77 327.127 15.965 327.207 16.225L327.552 17.365C327.852 17.035 328.172 16.735 328.512 16.465C328.862 16.195 329.232 15.965 329.622 15.775C330.022 15.575 330.447 15.42 330.897 15.31C331.357 15.2 331.857 15.145 332.397 15.145C333.207 15.145 333.957 15.325 334.647 15.685C335.337 16.045 335.932 16.565 336.432 17.245C336.932 17.925 337.322 18.76 337.602 19.75C337.892 20.73 338.037 21.845 338.037 23.095C338.037 24.265 337.872 25.345 337.542 26.335C337.222 27.325 336.767 28.185 336.177 28.915C335.597 29.645 334.897 30.215 334.077 30.625C333.267 31.035 332.367 31.24 331.377 31.24C330.567 31.24 329.887 31.125 329.337 30.895C328.787 30.665 328.287 30.355 327.837 29.965V35.935H323.187ZM330.777 18.7C330.437 18.7 330.127 18.735 329.847 18.805C329.577 18.865 329.322 18.955 329.082 19.075C328.852 19.195 328.637 19.35 328.437 19.54C328.237 19.72 328.037 19.93 327.837 20.17V26.77C328.187 27.16 328.567 27.435 328.977 27.595C329.387 27.745 329.817 27.82 330.267 27.82C330.697 27.82 331.092 27.735 331.452 27.565C331.812 27.395 332.122 27.125 332.382 26.755C332.652 26.375 332.862 25.885 333.012 25.285C333.162 24.685 333.237 23.955 333.237 23.095C333.237 22.275 333.177 21.585 333.057 21.025C332.937 20.465 332.767 20.015 332.547 19.675C332.337 19.325 332.082 19.075 331.782 18.925C331.482 18.775 331.147 18.7 330.777 18.7Z" fill="black"/>
</svg>
