
<svg width="208" height="56" viewBox="0 0 208 56" fill="none" xmlns="http://www.w3.org/2000/svg">
<path d="M15.399 0.4165V4.4465H6.13V9.7165H13.229V13.5915H6.13V18.97H15.399V23H0.86V0.4165H15.399ZM18.0783 11.6385H26.4483V15.5135H18.0783V11.6385ZM45.0365 17.1565C45.1605 17.1565 45.2845 17.1823 45.4085 17.234C45.5325 17.2753 45.6513 17.3528 45.765 17.4665L47.842 19.652C46.9326 20.8403 45.7908 21.7393 44.4165 22.349C43.0525 22.9483 41.4353 23.248 39.565 23.248C37.8496 23.248 36.31 22.9587 34.946 22.38C33.5923 21.791 32.4401 20.985 31.4895 19.962C30.5491 18.9287 29.8258 17.7093 29.3195 16.304C28.8131 14.8883 28.56 13.3538 28.56 11.7005C28.56 10.0162 28.8493 8.47133 29.428 7.066C30.0066 5.65033 30.8126 4.431 31.846 3.408C32.8896 2.385 34.1348 1.58933 35.5815 1.021C37.0281 0.452666 38.6246 0.168499 40.371 0.168499C41.2183 0.168499 42.014 0.245999 42.758 0.400999C43.5123 0.545665 44.215 0.752332 44.866 1.021C45.517 1.27933 46.1163 1.5945 46.664 1.9665C47.2116 2.32817 47.6973 2.73117 48.121 3.1755L46.354 5.547C46.2403 5.69167 46.106 5.826 45.951 5.95C45.796 6.06367 45.579 6.1205 45.3 6.1205C45.114 6.1205 44.9383 6.07917 44.773 5.9965C44.6076 5.91383 44.432 5.81567 44.246 5.702C44.06 5.578 43.8533 5.44883 43.626 5.3145C43.409 5.16983 43.1455 5.04067 42.8355 4.927C42.5358 4.803 42.1793 4.69967 41.766 4.617C41.363 4.53433 40.8876 4.493 40.34 4.493C39.3893 4.493 38.5213 4.6635 37.736 5.0045C36.9506 5.33517 36.2738 5.81567 35.7055 6.446C35.1475 7.066 34.7083 7.82033 34.388 8.709C34.078 9.59767 33.923 10.5948 33.923 11.7005C33.923 12.8578 34.078 13.886 34.388 14.785C34.7083 15.684 35.1371 16.4435 35.6745 17.0635C36.2221 17.6732 36.8576 18.1382 37.581 18.4585C38.3043 18.7788 39.0793 18.939 39.906 18.939C40.3813 18.939 40.8153 18.9183 41.208 18.877C41.6006 18.8253 41.9623 18.7427 42.293 18.629C42.634 18.5153 42.9543 18.3707 43.254 18.195C43.564 18.009 43.874 17.7817 44.184 17.513C44.308 17.4097 44.4423 17.327 44.587 17.265C44.7316 17.1927 44.8815 17.1565 45.0365 17.1565ZM72.525 11.7005C72.525 13.3332 72.2408 14.8522 71.6725 16.2575C71.1145 17.6628 70.324 18.8873 69.301 19.931C68.278 20.9643 67.0431 21.7755 65.5965 22.3645C64.1601 22.9535 62.5636 23.248 60.807 23.248C59.0503 23.248 57.4486 22.9535 56.002 22.3645C54.5553 21.7755 53.3153 20.9643 52.282 19.931C51.259 18.8873 50.4633 17.6628 49.895 16.2575C49.337 14.8522 49.058 13.3332 49.058 11.7005C49.058 10.0678 49.337 8.54883 49.895 7.1435C50.4633 5.73817 51.259 4.51883 52.282 3.4855C53.3153 2.45217 54.5553 1.641 56.002 1.052C57.4486 0.462999 59.0503 0.168499 60.807 0.168499C62.5636 0.168499 64.1601 0.468166 65.5965 1.0675C67.0431 1.6565 68.278 2.46767 69.301 3.501C70.324 4.53433 71.1145 5.75367 71.6725 7.159C72.2408 8.56433 72.525 10.0782 72.525 11.7005ZM67.162 11.7005C67.162 10.5845 67.0173 9.58217 66.728 8.6935C66.4386 7.7945 66.0201 7.035 65.4725 6.415C64.9351 5.795 64.2738 5.31967 63.4885 4.989C62.7031 4.65833 61.8093 4.493 60.807 4.493C59.7943 4.493 58.8901 4.65833 58.0945 4.989C57.3091 5.31967 56.6426 5.795 56.095 6.415C55.5576 7.035 55.1443 7.7945 54.855 8.6935C54.5656 9.58217 54.421 10.5845 54.421 11.7005C54.421 12.8268 54.5656 13.8395 54.855 14.7385C55.1443 15.6272 55.5576 16.3815 56.095 17.0015C56.6426 17.6215 57.3091 18.0968 58.0945 18.4275C58.8901 18.7478 59.7943 18.908 60.807 18.908C61.8093 18.908 62.7031 18.7478 63.4885 18.4275C64.2738 18.0968 64.9351 17.6215 65.4725 17.0015C66.0201 16.3815 66.4386 15.6272 66.728 14.7385C67.0173 13.8395 67.162 12.8268 67.162 11.7005ZM86.5774 12.677C86.7841 13.0697 86.9804 13.4778 87.1664 13.9015C87.3628 14.3252 87.5488 14.7592 87.7244 15.2035C87.9001 14.7488 88.0861 14.3097 88.2824 13.886C88.4788 13.452 88.6803 13.0335 88.8869 12.6305L94.6839 1.2225C94.7873 1.02617 94.8906 0.876333 94.9939 0.773C95.1076 0.659333 95.2316 0.576666 95.3659 0.524999C95.5003 0.473333 95.6501 0.442332 95.8154 0.431999C95.9911 0.421666 96.1926 0.4165 96.4199 0.4165H100.419V23H95.7999V10.011C95.7999 9.38067 95.8309 8.69867 95.8929 7.965L89.9099 19.5745C89.7239 19.9362 89.4708 20.21 89.1504 20.396C88.8404 20.582 88.4839 20.675 88.0809 20.675H87.3679C86.9649 20.675 86.6033 20.582 86.2829 20.396C85.9729 20.21 85.7249 19.9362 85.5389 19.5745L79.5249 7.9495C79.5663 8.31117 79.5973 8.67283 79.6179 9.0345C79.6386 9.38583 79.6489 9.71133 79.6489 10.011V23H75.0299V0.4165H79.0289C79.2563 0.4165 79.4526 0.421666 79.6179 0.431999C79.7936 0.442332 79.9486 0.473333 80.0829 0.524999C80.2173 0.576666 80.3361 0.659333 80.4394 0.773C80.5531 0.876333 80.6616 1.02617 80.7649 1.2225L86.5774 12.677ZM115.7 12.677C115.907 13.0697 116.103 13.4778 116.289 13.9015C116.486 14.3252 116.672 14.7592 116.847 15.2035C117.023 14.7488 117.209 14.3097 117.405 13.886C117.602 13.452 117.803 13.0335 118.01 12.6305L123.807 1.2225C123.91 1.02617 124.014 0.876333 124.117 0.773C124.231 0.659333 124.355 0.576666 124.489 0.524999C124.623 0.473333 124.773 0.442332 124.938 0.431999C125.114 0.421666 125.316 0.4165 125.543 0.4165H129.542V23H124.923V10.011C124.923 9.38067 124.954 8.69867 125.016 7.965L119.033 19.5745C118.847 19.9362 118.594 20.21 118.273 20.396C117.963 20.582 117.607 20.675 117.204 20.675H116.491C116.088 20.675 115.726 20.582 115.406 20.396C115.096 20.21 114.848 19.9362 114.662 19.5745L108.648 7.9495C108.689 8.31117 108.72 8.67283 108.741 9.0345C108.762 9.38583 108.772 9.71133 108.772 10.011V23H104.153V0.4165H108.152C108.379 0.4165 108.576 0.421666 108.741 0.431999C108.917 0.442332 109.072 0.473333 109.206 0.524999C109.34 0.576666 109.459 0.659333 109.562 0.773C109.676 0.876333 109.785 1.02617 109.888 1.2225L115.7 12.677ZM147.815 0.4165V4.4465H138.546V9.7165H145.645V13.5915H138.546V18.97H147.815V23H133.276V0.4165H147.815ZM156.043 14.6455V23H150.804V0.4165H158.151C159.784 0.4165 161.174 0.587 162.321 0.928C163.478 1.25867 164.419 1.72367 165.142 2.323C165.876 2.92233 166.408 3.63017 166.738 4.4465C167.069 5.26283 167.234 6.1515 167.234 7.1125C167.234 7.84617 167.136 8.5385 166.94 9.1895C166.744 9.8405 166.449 10.445 166.056 11.003C165.674 11.5507 165.199 12.0415 164.63 12.4755C164.072 12.9095 163.427 13.266 162.693 13.545C163.044 13.7207 163.37 13.9377 163.669 14.196C163.979 14.4543 164.248 14.7695 164.475 15.1415L169.28 23H164.537C163.659 23 163.029 22.6693 162.646 22.008L158.895 15.4515C158.73 15.1622 158.534 14.9555 158.306 14.8315C158.089 14.7075 157.779 14.6455 157.376 14.6455H156.043ZM156.043 11.034H158.151C158.864 11.034 159.469 10.9462 159.965 10.7705C160.471 10.5845 160.885 10.3313 161.205 10.011C161.525 9.69067 161.758 9.31867 161.902 8.895C162.047 8.461 162.119 7.996 162.119 7.5C162.119 6.508 161.794 5.733 161.143 5.175C160.502 4.617 159.505 4.338 158.151 4.338H156.043V11.034ZM185.808 17.1565C185.932 17.1565 186.056 17.1823 186.18 17.234C186.304 17.2753 186.423 17.3528 186.536 17.4665L188.613 19.652C187.704 20.8403 186.562 21.7393 185.188 22.349C183.824 22.9483 182.207 23.248 180.336 23.248C178.621 23.248 177.081 22.9587 175.717 22.38C174.364 21.791 173.212 20.985 172.261 19.962C171.321 18.9287 170.597 17.7093 170.091 16.304C169.585 14.8883 169.331 13.3538 169.331 11.7005C169.331 10.0162 169.621 8.47133 170.199 7.066C170.778 5.65033 171.584 4.431 172.617 3.408C173.661 2.385 174.906 1.58933 176.353 1.021C177.8 0.452666 179.396 0.168499 181.142 0.168499C181.99 0.168499 182.785 0.245999 183.529 0.400999C184.284 0.545665 184.986 0.752332 185.637 1.021C186.288 1.27933 186.888 1.5945 187.435 1.9665C187.983 2.32817 188.469 2.73117 188.892 3.1755L187.125 5.547C187.012 5.69167 186.877 5.826 186.722 5.95C186.567 6.06367 186.35 6.1205 186.071 6.1205C185.885 6.1205 185.71 6.07917 185.544 5.9965C185.379 5.91383 185.203 5.81567 185.017 5.702C184.831 5.578 184.625 5.44883 184.397 5.3145C184.18 5.16983 183.917 5.04067 183.607 4.927C183.307 4.803 182.951 4.69967 182.537 4.617C182.134 4.53433 181.659 4.493 181.111 4.493C180.161 4.493 179.293 4.6635 178.507 5.0045C177.722 5.33517 177.045 5.81567 176.477 6.446C175.919 7.066 175.48 7.82033 175.159 8.709C174.849 9.59767 174.694 10.5948 174.694 11.7005C174.694 12.8578 174.849 13.886 175.159 14.785C175.48 15.684 175.909 16.4435 176.446 17.0635C176.994 17.6732 177.629 18.1382 178.352 18.4585C179.076 18.7788 179.851 18.939 180.677 18.939C181.153 18.939 181.587 18.9183 181.979 18.877C182.372 18.8253 182.734 18.7427 183.064 18.629C183.405 18.5153 183.726 18.3707 184.025 18.195C184.335 18.009 184.645 17.7817 184.955 17.513C185.079 17.4097 185.214 17.327 185.358 17.265C185.503 17.1927 185.653 17.1565 185.808 17.1565ZM205.546 0.4165V4.4465H196.277V9.7165H203.376V13.5915H196.277V18.97H205.546V23H191.007V0.4165H205.546ZM6.099 47.4515V55H0.86V32.4165H8.827C10.4183 32.4165 11.7823 32.6077 12.919 32.99C14.066 33.362 15.0063 33.8787 15.74 34.54C16.484 35.2013 17.0317 35.9815 17.383 36.8805C17.7343 37.7795 17.91 38.7508 17.91 39.7945C17.91 40.9208 17.7292 41.9542 17.3675 42.8945C17.0058 43.8348 16.453 44.6408 15.709 45.3125C14.965 45.9842 14.0195 46.5112 12.8725 46.8935C11.7358 47.2655 10.3873 47.4515 8.827 47.4515H6.099ZM6.099 43.499H8.827C10.191 43.499 11.1727 43.1735 11.772 42.5225C12.3713 41.8715 12.671 40.9622 12.671 39.7945C12.671 39.2778 12.5935 38.8077 12.4385 38.384C12.2835 37.9603 12.0458 37.5987 11.7255 37.299C11.4155 36.989 11.0177 36.7513 10.532 36.586C10.0567 36.4207 9.48833 36.338 8.827 36.338H6.099V43.499ZM39.0128 55H34.9518C34.4971 55 34.1199 54.8967 33.8203 54.69C33.5309 54.473 33.3294 54.1992 33.2158 53.8685L31.8828 49.9315H23.2958L21.9628 53.8685C21.8594 54.1578 21.6579 54.4213 21.3583 54.659C21.0586 54.8863 20.6918 55 20.2578 55H16.1658L24.9078 32.4165H30.2708L39.0128 55ZM24.5048 46.3665H30.6738L28.5968 40.182C28.4624 39.7893 28.3023 39.3295 28.1163 38.8025C27.9406 38.2652 27.7649 37.6865 27.5893 37.0665C27.4239 37.6968 27.2534 38.2807 27.0778 38.818C26.9021 39.3553 26.7368 39.8203 26.5818 40.213L24.5048 46.3665ZM46.0902 46.6455V55H40.8512V32.4165H48.1982C49.8309 32.4165 51.2207 32.587 52.3677 32.928C53.525 33.2587 54.4654 33.7237 55.1887 34.323C55.9224 34.9223 56.4545 35.6302 56.7852 36.4465C57.1159 37.2628 57.2812 38.1515 57.2812 39.1125C57.2812 39.8462 57.183 40.5385 56.9867 41.1895C56.7904 41.8405 56.4959 42.445 56.1032 43.003C55.7209 43.5507 55.2455 44.0415 54.6772 44.4755C54.1192 44.9095 53.4734 45.266 52.7397 45.545C53.091 45.7207 53.4165 45.9377 53.7162 46.196C54.0262 46.4543 54.2949 46.7695 54.5222 47.1415L59.3272 55H54.5842C53.7059 55 53.0755 54.6693 52.6932 54.008L48.9422 47.4515C48.7769 47.1622 48.5805 46.9555 48.3532 46.8315C48.1362 46.7075 47.8262 46.6455 47.4232 46.6455H46.0902ZM46.0902 43.034H48.1982C48.9112 43.034 49.5157 42.9462 50.0117 42.7705C50.518 42.5845 50.9314 42.3313 51.2517 42.011C51.572 41.6907 51.8045 41.3187 51.9492 40.895C52.0939 40.461 52.1662 39.996 52.1662 39.5C52.1662 38.508 51.8407 37.733 51.1897 37.175C50.549 36.617 49.5519 36.338 48.1982 36.338H46.0902V43.034ZM76.9279 32.4165V36.5705H70.5729V55H65.3339V36.5705H58.9789V32.4165H76.9279ZM81.8456 32.4165C82.0729 32.4165 82.2641 32.4268 82.4191 32.4475C82.5741 32.4682 82.7136 32.5095 82.8376 32.5715C82.9616 32.6232 83.0804 32.7007 83.1941 32.804C83.3077 32.9073 83.4369 33.0468 83.5816 33.2225L94.3076 46.785C94.2662 46.351 94.2352 45.9325 94.2146 45.5295C94.1939 45.1162 94.1836 44.7287 94.1836 44.367V32.4165H98.8026V55H96.0746C95.6716 55 95.3306 54.938 95.0516 54.814C94.7726 54.69 94.5039 54.4627 94.2456 54.132L83.5971 40.678C83.6281 41.0707 83.6539 41.4582 83.6746 41.8405C83.6952 42.2125 83.7056 42.5638 83.7056 42.8945V55H79.0866V32.4165H81.8456ZM117.057 32.4165V36.4465H107.788V41.7165H114.887V45.5915H107.788V50.97H117.057V55H102.518V32.4165H117.057ZM125.286 46.6455V55H120.047V32.4165H127.394C129.026 32.4165 130.416 32.587 131.563 32.928C132.72 33.2587 133.661 33.7237 134.384 34.323C135.118 34.9223 135.65 35.6302 135.981 36.4465C136.311 37.2628 136.477 38.1515 136.477 39.1125C136.477 39.8462 136.378 40.5385 136.182 41.1895C135.986 41.8405 135.691 42.445 135.299 43.003C134.916 43.5507 134.441 44.0415 133.873 44.4755C133.315 44.9095 132.669 45.266 131.935 45.545C132.286 45.7207 132.612 45.9377 132.912 46.196C133.222 46.4543 133.49 46.7695 133.718 47.1415L138.523 55H133.78C132.901 55 132.271 54.6693 131.889 54.008L128.138 47.4515C127.972 47.1622 127.776 46.9555 127.549 46.8315C127.332 46.7075 127.022 46.6455 126.619 46.6455H125.286ZM125.286 43.034H127.394C128.107 43.034 128.711 42.9462 129.207 42.7705C129.713 42.5845 130.127 42.3313 130.447 42.011C130.767 41.6907 131 41.3187 131.145 40.895C131.289 40.461 131.362 39.996 131.362 39.5C131.362 38.508 131.036 37.733 130.385 37.175C129.744 36.617 128.747 36.338 127.394 36.338H125.286V43.034ZM153.249 37.0045C153.094 37.2525 152.928 37.4385 152.753 37.5625C152.587 37.6865 152.37 37.7485 152.102 37.7485C151.864 37.7485 151.606 37.6762 151.327 37.5315C151.058 37.3765 150.748 37.206 150.397 37.02C150.056 36.834 149.663 36.6687 149.219 36.524C148.774 36.369 148.268 36.2915 147.7 36.2915C146.718 36.2915 145.984 36.5033 145.499 36.927C145.023 37.3403 144.786 37.9035 144.786 38.6165C144.786 39.0712 144.93 39.4483 145.22 39.748C145.509 40.0477 145.886 40.306 146.351 40.523C146.827 40.74 147.364 40.9415 147.963 41.1275C148.573 41.3032 149.193 41.5047 149.823 41.732C150.454 41.949 151.068 42.2073 151.668 42.507C152.277 42.8067 152.815 43.189 153.28 43.654C153.755 44.119 154.137 44.6873 154.427 45.359C154.716 46.0203 154.861 46.8212 154.861 47.7615C154.861 48.8052 154.68 49.7817 154.318 50.691C153.957 51.6003 153.43 52.396 152.737 53.078C152.055 53.7497 151.208 54.2818 150.195 54.6745C149.193 55.0568 148.051 55.248 146.77 55.248C146.067 55.248 145.349 55.1757 144.615 55.031C143.892 54.8863 143.189 54.6848 142.507 54.4265C141.825 54.1578 141.185 53.8427 140.585 53.481C139.986 53.1193 139.464 52.7163 139.02 52.272L140.57 49.823C140.683 49.637 140.844 49.4872 141.05 49.3735C141.257 49.2598 141.479 49.203 141.717 49.203C142.027 49.203 142.337 49.3012 142.647 49.4975C142.967 49.6938 143.324 49.9108 143.716 50.1485C144.119 50.3862 144.579 50.6032 145.096 50.7995C145.612 50.9958 146.222 51.094 146.925 51.094C147.875 51.094 148.614 50.8873 149.141 50.474C149.668 50.0503 149.932 49.3838 149.932 48.4745C149.932 47.9475 149.787 47.5187 149.498 47.188C149.208 46.8573 148.826 46.5835 148.351 46.3665C147.886 46.1495 147.354 45.9583 146.754 45.793C146.155 45.6277 145.54 45.4468 144.91 45.2505C144.279 45.0438 143.665 44.7958 143.065 44.5065C142.466 44.2068 141.929 43.8193 141.453 43.344C140.988 42.8583 140.611 42.259 140.322 41.546C140.032 40.8227 139.888 39.934 139.888 38.88C139.888 38.0327 140.058 37.206 140.399 36.4C140.74 35.594 141.241 34.8758 141.903 34.2455C142.564 33.6152 143.375 33.114 144.336 32.742C145.297 32.3597 146.398 32.1685 147.638 32.1685C148.33 32.1685 149.002 32.2253 149.653 32.339C150.314 32.4423 150.939 32.6025 151.528 32.8195C152.117 33.0262 152.665 33.2793 153.171 33.579C153.688 33.8683 154.148 34.199 154.551 34.571L153.249 37.0045ZM177.18 55H171.91V45.452H162.734V55H157.464V32.4165H162.734V41.856H171.91V32.4165H177.18V55ZM186.631 55H181.361V32.4165H186.631V55ZM196.065 47.4515V55H190.826V32.4165H198.793C200.384 32.4165 201.748 32.6077 202.885 32.99C204.032 33.362 204.972 33.8787 205.706 34.54C206.45 35.2013 206.997 35.9815 207.349 36.8805C207.7 37.7795 207.876 38.7508 207.876 39.7945C207.876 40.9208 207.695 41.9542 207.333 42.8945C206.972 43.8348 206.419 44.6408 205.675 45.3125C204.931 45.9842 203.985 46.5112 202.838 46.8935C201.702 47.2655 200.353 47.4515 198.793 47.4515H196.065ZM196.065 43.499H198.793C200.157 43.499 201.138 43.1735 201.738 42.5225C202.337 41.8715 202.637 40.9622 202.637 39.7945C202.637 39.2778 202.559 38.8077 202.404 38.384C202.249 37.9603 202.012 37.5987 201.691 37.299C201.381 36.989 200.983 36.7513 200.498 36.586C200.022 36.4207 199.454 36.338 198.793 36.338H196.065V43.499Z" fill="black"/>
</svg>
