<svg width="133" height="12" viewBox="0 0 133 12" fill="none" xmlns="http://www.w3.org/2000/svg">
<path d="M6.348 0.323999V1.608H2.502V4.014H5.532V5.256H2.502V7.71H6.348V9H0.876V0.323999H6.348ZM7.46719 4.758H10.5752V5.994H7.46719V4.758ZM16.2977 4.146C16.2537 4.202 16.2097 4.246 16.1657 4.278C16.1257 4.31 16.0657 4.326 15.9857 4.326C15.9097 4.326 15.8357 4.304 15.7637 4.26C15.6917 4.212 15.6057 4.16 15.5057 4.104C15.4057 4.044 15.2857 3.992 15.1457 3.948C15.0097 3.9 14.8397 3.876 14.6357 3.876C14.3757 3.876 14.1477 3.924 13.9517 4.02C13.7557 4.112 13.5917 4.246 13.4597 4.422C13.3317 4.598 13.2357 4.812 13.1717 5.064C13.1077 5.312 13.0757 5.594 13.0757 5.91C13.0757 6.238 13.1097 6.53 13.1777 6.786C13.2497 7.042 13.3517 7.258 13.4837 7.434C13.6157 7.606 13.7757 7.738 13.9637 7.83C14.1517 7.918 14.3637 7.962 14.5997 7.962C14.8357 7.962 15.0257 7.934 15.1697 7.878C15.3177 7.818 15.4417 7.754 15.5417 7.686C15.6417 7.614 15.7277 7.55 15.7997 7.494C15.8757 7.434 15.9597 7.404 16.0517 7.404C16.1717 7.404 16.2617 7.45 16.3217 7.542L16.7477 8.082C16.5837 8.274 16.4057 8.436 16.2137 8.568C16.0217 8.696 15.8217 8.8 15.6137 8.88C15.4097 8.956 15.1977 9.01 14.9777 9.042C14.7577 9.074 14.5397 9.09 14.3237 9.09C13.9437 9.09 13.5857 9.02 13.2497 8.88C12.9137 8.736 12.6197 8.528 12.3677 8.256C12.1197 7.984 11.9217 7.652 11.7737 7.26C11.6297 6.864 11.5577 6.414 11.5577 5.91C11.5577 5.458 11.6217 5.04 11.7497 4.656C11.8817 4.268 12.0737 3.934 12.3257 3.654C12.5777 3.37 12.8897 3.148 13.2617 2.988C13.6337 2.828 14.0617 2.748 14.5457 2.748C15.0057 2.748 15.4077 2.822 15.7517 2.97C16.0997 3.118 16.4117 3.33 16.6877 3.606L16.2977 4.146ZM20.3184 2.748C20.7784 2.748 21.1944 2.822 21.5664 2.97C21.9424 3.118 22.2624 3.328 22.5264 3.6C22.7904 3.872 22.9944 4.204 23.1384 4.596C23.2824 4.988 23.3544 5.426 23.3544 5.91C23.3544 6.398 23.2824 6.838 23.1384 7.23C22.9944 7.622 22.7904 7.956 22.5264 8.232C22.2624 8.508 21.9424 8.72 21.5664 8.868C21.1944 9.016 20.7784 9.09 20.3184 9.09C19.8584 9.09 19.4404 9.016 19.0644 8.868C18.6884 8.72 18.3664 8.508 18.0984 8.232C17.8344 7.956 17.6284 7.622 17.4804 7.23C17.3364 6.838 17.2644 6.398 17.2644 5.91C17.2644 5.426 17.3364 4.988 17.4804 4.596C17.6284 4.204 17.8344 3.872 18.0984 3.6C18.3664 3.328 18.6884 3.118 19.0644 2.97C19.4404 2.822 19.8584 2.748 20.3184 2.748ZM20.3184 7.95C20.8304 7.95 21.2084 7.778 21.4524 7.434C21.7004 7.09 21.8244 6.586 21.8244 5.922C21.8244 5.258 21.7004 4.752 21.4524 4.404C21.2084 4.056 20.8304 3.882 20.3184 3.882C19.7984 3.882 19.4144 4.058 19.1664 4.41C18.9184 4.758 18.7944 5.262 18.7944 5.922C18.7944 6.582 18.9184 7.086 19.1664 7.434C19.4144 7.778 19.7984 7.95 20.3184 7.95ZM24.5107 9V2.844H25.4168C25.6088 2.844 25.7348 2.934 25.7948 3.114L25.8908 3.57C25.9988 3.45 26.1108 3.34 26.2268 3.24C26.3468 3.14 26.4728 3.054 26.6048 2.982C26.7408 2.91 26.8848 2.854 27.0368 2.814C27.1928 2.77 27.3628 2.748 27.5468 2.748C27.9348 2.748 28.2528 2.854 28.5008 3.066C28.7528 3.274 28.9408 3.552 29.0648 3.9C29.1608 3.696 29.2808 3.522 29.4248 3.378C29.5688 3.23 29.7268 3.11 29.8988 3.018C30.0708 2.926 30.2528 2.858 30.4448 2.814C30.6408 2.77 30.8368 2.748 31.0328 2.748C31.3728 2.748 31.6748 2.8 31.9388 2.904C32.2028 3.008 32.4248 3.16 32.6048 3.36C32.7848 3.56 32.9208 3.804 33.0128 4.092C33.1088 4.38 33.1568 4.71 33.1568 5.082V9H31.6748V5.082C31.6748 4.69 31.5888 4.396 31.4168 4.2C31.2448 4 30.9928 3.9 30.6608 3.9C30.5088 3.9 30.3668 3.926 30.2348 3.978C30.1068 4.03 29.9928 4.106 29.8928 4.206C29.7968 4.302 29.7208 4.424 29.6648 4.572C29.6088 4.72 29.5808 4.89 29.5808 5.082V9H28.0928V5.082C28.0928 4.67 28.0088 4.37 27.8408 4.182C27.6768 3.994 27.4328 3.9 27.1087 3.9C26.8968 3.9 26.6968 3.954 26.5088 4.062C26.3248 4.166 26.1528 4.31 25.9928 4.494V9H24.5107ZM34.6123 9V2.844H35.5183C35.7103 2.844 35.8363 2.934 35.8963 3.114L35.9923 3.57C36.1003 3.45 36.2123 3.34 36.3283 3.24C36.4483 3.14 36.5743 3.054 36.7063 2.982C36.8423 2.91 36.9863 2.854 37.1383 2.814C37.2943 2.77 37.4643 2.748 37.6483 2.748C38.0363 2.748 38.3543 2.854 38.6023 3.066C38.8543 3.274 39.0423 3.552 39.1663 3.9C39.2623 3.696 39.3823 3.522 39.5263 3.378C39.6703 3.23 39.8283 3.11 40.0003 3.018C40.1723 2.926 40.3543 2.858 40.5463 2.814C40.7423 2.77 40.9383 2.748 41.1343 2.748C41.4743 2.748 41.7763 2.8 42.0403 2.904C42.3043 3.008 42.5263 3.16 42.7063 3.36C42.8863 3.56 43.0223 3.804 43.1143 4.092C43.2103 4.38 43.2583 4.71 43.2583 5.082V9H41.7763V5.082C41.7763 4.69 41.6903 4.396 41.5183 4.2C41.3463 4 41.0943 3.9 40.7623 3.9C40.6103 3.9 40.4683 3.926 40.3363 3.978C40.2083 4.03 40.0943 4.106 39.9943 4.206C39.8983 4.302 39.8223 4.424 39.7663 4.572C39.7103 4.72 39.6823 4.89 39.6823 5.082V9H38.1943V5.082C38.1943 4.67 38.1103 4.37 37.9423 4.182C37.7783 3.994 37.5343 3.9 37.2103 3.9C36.9983 3.9 36.7983 3.954 36.6103 4.062C36.4263 4.166 36.2543 4.31 36.0943 4.494V9H34.6123ZM47.2579 2.748C47.6459 2.748 48.0019 2.81 48.3259 2.934C48.6539 3.058 48.9359 3.24 49.1719 3.48C49.4079 3.716 49.5919 4.008 49.7239 4.356C49.8559 4.7 49.9219 5.094 49.9219 5.538C49.9219 5.65 49.9159 5.744 49.9039 5.82C49.8959 5.892 49.8779 5.95 49.8499 5.994C49.8259 6.034 49.7919 6.064 49.7479 6.084C49.7039 6.1 49.6479 6.108 49.5799 6.108H45.7759C45.8199 6.74 45.9899 7.204 46.2859 7.5C46.5819 7.796 46.9739 7.944 47.4619 7.944C47.7019 7.944 47.9079 7.916 48.0799 7.86C48.2559 7.804 48.4079 7.742 48.5359 7.674C48.6679 7.606 48.7819 7.544 48.8779 7.488C48.9779 7.432 49.0739 7.404 49.1659 7.404C49.2259 7.404 49.2779 7.416 49.3219 7.44C49.3659 7.464 49.4039 7.498 49.4359 7.542L49.8679 8.082C49.7039 8.274 49.5199 8.436 49.3159 8.568C49.1119 8.696 48.8979 8.8 48.6739 8.88C48.4539 8.956 48.2279 9.01 47.9959 9.042C47.7679 9.074 47.5459 9.09 47.3299 9.09C46.9019 9.09 46.5039 9.02 46.1359 8.88C45.7679 8.736 45.4479 8.526 45.1759 8.25C44.9039 7.97 44.6899 7.626 44.5339 7.218C44.3779 6.806 44.2999 6.33 44.2999 5.79C44.2999 5.37 44.3679 4.976 44.5039 4.608C44.6399 4.236 44.8339 3.914 45.0859 3.642C45.3419 3.366 45.6519 3.148 46.0159 2.988C46.3839 2.828 46.7979 2.748 47.2579 2.748ZM47.2879 3.81C46.8559 3.81 46.5179 3.932 46.2739 4.176C46.0299 4.42 45.8739 4.766 45.8059 5.214H48.5899C48.5899 5.022 48.5639 4.842 48.5119 4.674C48.4599 4.502 48.3799 4.352 48.2719 4.224C48.1639 4.096 48.0279 3.996 47.8639 3.924C47.6999 3.848 47.5079 3.81 47.2879 3.81ZM51.124 9V2.844H51.994C52.146 2.844 52.252 2.872 52.312 2.928C52.372 2.984 52.412 3.08 52.432 3.216L52.522 3.96C52.742 3.58 53 3.28 53.296 3.06C53.592 2.84 53.924 2.73 54.292 2.73C54.596 2.73 54.848 2.8 55.048 2.94L54.856 4.05C54.844 4.122 54.818 4.174 54.778 4.206C54.738 4.234 54.684 4.248 54.616 4.248C54.556 4.248 54.474 4.234 54.37 4.206C54.266 4.178 54.128 4.164 53.956 4.164C53.648 4.164 53.384 4.25 53.164 4.422C52.944 4.59 52.758 4.838 52.606 5.166V9H51.124ZM60.3485 4.146C60.3045 4.202 60.2605 4.246 60.2165 4.278C60.1765 4.31 60.1165 4.326 60.0365 4.326C59.9605 4.326 59.8865 4.304 59.8145 4.26C59.7425 4.212 59.6565 4.16 59.5565 4.104C59.4565 4.044 59.3365 3.992 59.1965 3.948C59.0605 3.9 58.8905 3.876 58.6865 3.876C58.4265 3.876 58.1985 3.924 58.0025 4.02C57.8065 4.112 57.6425 4.246 57.5105 4.422C57.3825 4.598 57.2865 4.812 57.2225 5.064C57.1585 5.312 57.1265 5.594 57.1265 5.91C57.1265 6.238 57.1605 6.53 57.2285 6.786C57.3005 7.042 57.4025 7.258 57.5345 7.434C57.6665 7.606 57.8265 7.738 58.0145 7.83C58.2025 7.918 58.4145 7.962 58.6505 7.962C58.8865 7.962 59.0765 7.934 59.2205 7.878C59.3685 7.818 59.4925 7.754 59.5925 7.686C59.6925 7.614 59.7785 7.55 59.8505 7.494C59.9265 7.434 60.0105 7.404 60.1025 7.404C60.2225 7.404 60.3125 7.45 60.3725 7.542L60.7985 8.082C60.6345 8.274 60.4565 8.436 60.2645 8.568C60.0725 8.696 59.8725 8.8 59.6645 8.88C59.4605 8.956 59.2485 9.01 59.0285 9.042C58.8085 9.074 58.5905 9.09 58.3745 9.09C57.9945 9.09 57.6365 9.02 57.3005 8.88C56.9645 8.736 56.6705 8.528 56.4185 8.256C56.1705 7.984 55.9725 7.652 55.8245 7.26C55.6805 6.864 55.6085 6.414 55.6085 5.91C55.6085 5.458 55.6725 5.04 55.8005 4.656C55.9325 4.268 56.1245 3.934 56.3765 3.654C56.6285 3.37 56.9405 3.148 57.3125 2.988C57.6845 2.828 58.1125 2.748 58.5965 2.748C59.0565 2.748 59.4585 2.822 59.8025 2.97C60.1505 3.118 60.4625 3.33 60.7385 3.606L60.3485 4.146ZM64.2852 2.748C64.6732 2.748 65.0292 2.81 65.3532 2.934C65.6812 3.058 65.9632 3.24 66.1992 3.48C66.4352 3.716 66.6192 4.008 66.7512 4.356C66.8832 4.7 66.9492 5.094 66.9492 5.538C66.9492 5.65 66.9432 5.744 66.9312 5.82C66.9232 5.892 66.9052 5.95 66.8772 5.994C66.8532 6.034 66.8192 6.064 66.7752 6.084C66.7312 6.1 66.6752 6.108 66.6072 6.108H62.8032C62.8472 6.74 63.0172 7.204 63.3132 7.5C63.6092 7.796 64.0012 7.944 64.4892 7.944C64.7292 7.944 64.9352 7.916 65.1072 7.86C65.2832 7.804 65.4352 7.742 65.5632 7.674C65.6952 7.606 65.8092 7.544 65.9052 7.488C66.0052 7.432 66.1012 7.404 66.1932 7.404C66.2532 7.404 66.3052 7.416 66.3492 7.44C66.3932 7.464 66.4312 7.498 66.4632 7.542L66.8952 8.082C66.7312 8.274 66.5472 8.436 66.3432 8.568C66.1392 8.696 65.9252 8.8 65.7012 8.88C65.4812 8.956 65.2552 9.01 65.0232 9.042C64.7952 9.074 64.5732 9.09 64.3572 9.09C63.9292 9.09 63.5312 9.02 63.1632 8.88C62.7952 8.736 62.4752 8.526 62.2032 8.25C61.9312 7.97 61.7172 7.626 61.5612 7.218C61.4052 6.806 61.3272 6.33 61.3272 5.79C61.3272 5.37 61.3952 4.976 61.5312 4.608C61.6672 4.236 61.8612 3.914 62.1132 3.642C62.3692 3.366 62.6792 3.148 63.0432 2.988C63.4112 2.828 63.8252 2.748 64.2852 2.748ZM64.3152 3.81C63.8832 3.81 63.5452 3.932 63.3012 4.176C63.0572 4.42 62.9012 4.766 62.8332 5.214H65.6172C65.6172 5.022 65.5912 4.842 65.5392 4.674C65.4872 4.502 65.4072 4.352 65.2992 4.224C65.1912 4.096 65.0552 3.996 64.8912 3.924C64.7272 3.848 64.5352 3.81 64.3152 3.81ZM72.2237 5.946V9H70.6097V0.323999H73.4357C74.0157 0.323999 74.5177 0.391999 74.9417 0.528C75.3657 0.664 75.7157 0.854 75.9917 1.098C76.2677 1.342 76.4717 1.634 76.6037 1.974C76.7357 2.314 76.8017 2.686 76.8017 3.09C76.8017 3.51 76.7317 3.896 76.5917 4.248C76.4517 4.596 76.2417 4.896 75.9617 5.148C75.6817 5.4 75.3317 5.596 74.9117 5.736C74.4917 5.876 73.9997 5.946 73.4357 5.946H72.2237ZM72.2237 4.686H73.4357C73.7317 4.686 73.9897 4.65 74.2097 4.578C74.4297 4.502 74.6117 4.396 74.7557 4.26C74.8997 4.12 75.0077 3.952 75.0797 3.756C75.1517 3.556 75.1877 3.334 75.1877 3.09C75.1877 2.858 75.1517 2.648 75.0797 2.46C75.0077 2.272 74.8997 2.112 74.7557 1.98C74.6117 1.848 74.4297 1.748 74.2097 1.68C73.9897 1.608 73.7317 1.572 73.4357 1.572H72.2237V4.686ZM82.491 9H81.825C81.685 9 81.575 8.98 81.495 8.94C81.415 8.896 81.355 8.81 81.315 8.682L81.183 8.244C81.027 8.384 80.873 8.508 80.721 8.616C80.573 8.72 80.419 8.808 80.259 8.88C80.099 8.952 79.929 9.006 79.749 9.042C79.569 9.078 79.369 9.096 79.149 9.096C78.889 9.096 78.649 9.062 78.429 8.994C78.209 8.922 78.019 8.816 77.859 8.676C77.703 8.536 77.581 8.362 77.493 8.154C77.405 7.946 77.361 7.704 77.361 7.428C77.361 7.196 77.421 6.968 77.541 6.744C77.665 6.516 77.869 6.312 78.153 6.132C78.437 5.948 78.815 5.796 79.287 5.676C79.759 5.556 80.345 5.488 81.045 5.472V5.112C81.045 4.7 80.957 4.396 80.781 4.2C80.609 4 80.357 3.9 80.025 3.9C79.785 3.9 79.585 3.928 79.425 3.984C79.265 4.04 79.125 4.104 79.005 4.176C78.889 4.244 78.781 4.306 78.681 4.362C78.581 4.418 78.471 4.446 78.351 4.446C78.251 4.446 78.165 4.42 78.093 4.368C78.021 4.316 77.963 4.252 77.919 4.176L77.649 3.702C78.357 3.054 79.211 2.73 80.211 2.73C80.571 2.73 80.891 2.79 81.171 2.91C81.455 3.026 81.695 3.19 81.891 3.402C82.087 3.61 82.235 3.86 82.335 4.152C82.439 4.444 82.491 4.764 82.491 5.112V9ZM79.611 8.076C79.763 8.076 79.903 8.062 80.031 8.034C80.159 8.006 80.279 7.964 80.391 7.908C80.507 7.852 80.617 7.784 80.721 7.704C80.829 7.62 80.937 7.522 81.045 7.41V6.372C80.613 6.392 80.251 6.43 79.959 6.486C79.671 6.538 79.439 6.606 79.263 6.69C79.087 6.774 78.961 6.872 78.885 6.984C78.813 7.096 78.777 7.218 78.777 7.35C78.777 7.61 78.853 7.796 79.005 7.908C79.161 8.02 79.363 8.076 79.611 8.076ZM83.9482 9V2.844H84.8183C84.9703 2.844 85.0763 2.872 85.1363 2.928C85.1963 2.984 85.2363 3.08 85.2563 3.216L85.3463 3.96C85.5663 3.58 85.8243 3.28 86.1203 3.06C86.4163 2.84 86.7483 2.73 87.1163 2.73C87.4203 2.73 87.6723 2.8 87.8723 2.94L87.6803 4.05C87.6683 4.122 87.6423 4.174 87.6023 4.206C87.5623 4.234 87.5083 4.248 87.4403 4.248C87.3803 4.248 87.2983 4.234 87.1943 4.206C87.0903 4.178 86.9523 4.164 86.7803 4.164C86.4723 4.164 86.2083 4.25 85.9883 4.422C85.7683 4.59 85.5823 4.838 85.4303 5.166V9H83.9482ZM90.8687 9.096C90.3367 9.096 89.9267 8.946 89.6387 8.646C89.3507 8.342 89.2067 7.924 89.2067 7.392V3.954H88.5827C88.5027 3.954 88.4327 3.928 88.3727 3.876C88.3167 3.824 88.2887 3.746 88.2887 3.642V3.054L89.2787 2.892L89.5907 1.212C89.6067 1.132 89.6427 1.07 89.6987 1.026C89.7587 0.982 89.8327 0.96 89.9207 0.96H90.6887V2.898H92.3087V3.954H90.6887V7.29C90.6887 7.482 90.7367 7.632 90.8327 7.74C90.9287 7.848 91.0567 7.902 91.2167 7.902C91.3087 7.902 91.3847 7.892 91.4447 7.872C91.5087 7.848 91.5627 7.824 91.6067 7.8C91.6547 7.776 91.6967 7.754 91.7327 7.734C91.7687 7.71 91.8047 7.698 91.8407 7.698C91.8847 7.698 91.9207 7.71 91.9487 7.734C91.9767 7.754 92.0067 7.786 92.0387 7.83L92.4827 8.55C92.2667 8.73 92.0187 8.866 91.7387 8.958C91.4587 9.05 91.1687 9.096 90.8687 9.096ZM93.4873 9V2.844H94.3933C94.5853 2.844 94.7113 2.934 94.7713 3.114L94.8733 3.6C94.9973 3.472 95.1273 3.356 95.2633 3.252C95.4033 3.148 95.5493 3.058 95.7013 2.982C95.8573 2.906 96.0233 2.848 96.1993 2.808C96.3753 2.768 96.5673 2.748 96.7753 2.748C97.1113 2.748 97.4093 2.806 97.6693 2.922C97.9293 3.034 98.1453 3.194 98.3173 3.402C98.4933 3.606 98.6253 3.852 98.7133 4.14C98.8053 4.424 98.8513 4.738 98.8513 5.082V9H97.3693V5.082C97.3693 4.706 97.2813 4.416 97.1053 4.212C96.9333 4.004 96.6733 3.9 96.3253 3.9C96.0693 3.9 95.8293 3.958 95.6053 4.074C95.3813 4.19 95.1693 4.348 94.9693 4.548V9H93.4873ZM102.852 2.748C103.24 2.748 103.596 2.81 103.92 2.934C104.248 3.058 104.53 3.24 104.766 3.48C105.002 3.716 105.186 4.008 105.318 4.356C105.45 4.7 105.516 5.094 105.516 5.538C105.516 5.65 105.51 5.744 105.498 5.82C105.49 5.892 105.472 5.95 105.444 5.994C105.42 6.034 105.386 6.064 105.342 6.084C105.298 6.1 105.242 6.108 105.174 6.108H101.37C101.414 6.74 101.584 7.204 101.88 7.5C102.176 7.796 102.568 7.944 103.056 7.944C103.296 7.944 103.502 7.916 103.674 7.86C103.85 7.804 104.002 7.742 104.13 7.674C104.262 7.606 104.376 7.544 104.472 7.488C104.572 7.432 104.668 7.404 104.76 7.404C104.82 7.404 104.872 7.416 104.916 7.44C104.96 7.464 104.998 7.498 105.03 7.542L105.462 8.082C105.298 8.274 105.114 8.436 104.91 8.568C104.706 8.696 104.492 8.8 104.268 8.88C104.048 8.956 103.822 9.01 103.59 9.042C103.362 9.074 103.14 9.09 102.924 9.09C102.496 9.09 102.098 9.02 101.73 8.88C101.362 8.736 101.042 8.526 100.77 8.25C100.498 7.97 100.284 7.626 100.128 7.218C99.9716 6.806 99.8936 6.33 99.8936 5.79C99.8936 5.37 99.9616 4.976 100.098 4.608C100.234 4.236 100.428 3.914 100.68 3.642C100.936 3.366 101.246 3.148 101.61 2.988C101.978 2.828 102.392 2.748 102.852 2.748ZM102.882 3.81C102.45 3.81 102.112 3.932 101.868 4.176C101.624 4.42 101.468 4.766 101.4 5.214H104.184C104.184 5.022 104.158 4.842 104.106 4.674C104.054 4.502 103.974 4.352 103.866 4.224C103.758 4.096 103.622 3.996 103.458 3.924C103.294 3.848 103.102 3.81 102.882 3.81ZM106.718 9V2.844H107.588C107.74 2.844 107.846 2.872 107.906 2.928C107.966 2.984 108.006 3.08 108.026 3.216L108.116 3.96C108.336 3.58 108.594 3.28 108.89 3.06C109.186 2.84 109.518 2.73 109.886 2.73C110.19 2.73 110.442 2.8 110.642 2.94L110.45 4.05C110.438 4.122 110.412 4.174 110.372 4.206C110.332 4.234 110.278 4.248 110.21 4.248C110.15 4.248 110.068 4.234 109.964 4.206C109.86 4.178 109.722 4.164 109.55 4.164C109.242 4.164 108.978 4.25 108.758 4.422C108.538 4.59 108.352 4.838 108.2 5.166V9H106.718ZM115.27 4.044C115.23 4.108 115.188 4.154 115.144 4.182C115.1 4.206 115.044 4.218 114.976 4.218C114.904 4.218 114.826 4.198 114.742 4.158C114.662 4.118 114.568 4.074 114.46 4.026C114.352 3.974 114.228 3.928 114.088 3.888C113.952 3.848 113.79 3.828 113.602 3.828C113.31 3.828 113.08 3.89 112.912 4.014C112.744 4.138 112.66 4.3 112.66 4.5C112.66 4.632 112.702 4.744 112.786 4.836C112.874 4.924 112.988 5.002 113.128 5.07C113.272 5.138 113.434 5.2 113.614 5.256C113.794 5.308 113.978 5.366 114.166 5.43C114.354 5.494 114.538 5.568 114.718 5.652C114.898 5.732 115.058 5.836 115.198 5.964C115.342 6.088 115.456 6.238 115.54 6.414C115.628 6.59 115.672 6.802 115.672 7.05C115.672 7.346 115.618 7.62 115.51 7.872C115.402 8.12 115.244 8.336 115.036 8.52C114.828 8.7 114.57 8.842 114.262 8.946C113.958 9.046 113.608 9.096 113.212 9.096C113 9.096 112.792 9.076 112.588 9.036C112.388 9 112.194 8.948 112.006 8.88C111.822 8.812 111.65 8.732 111.49 8.64C111.334 8.548 111.196 8.448 111.076 8.34L111.418 7.776C111.462 7.708 111.514 7.656 111.574 7.62C111.634 7.584 111.71 7.566 111.802 7.566C111.894 7.566 111.98 7.592 112.06 7.644C112.144 7.696 112.24 7.752 112.348 7.812C112.456 7.872 112.582 7.928 112.726 7.98C112.874 8.032 113.06 8.058 113.284 8.058C113.46 8.058 113.61 8.038 113.734 7.998C113.862 7.954 113.966 7.898 114.046 7.83C114.13 7.762 114.19 7.684 114.226 7.596C114.266 7.504 114.286 7.41 114.286 7.314C114.286 7.17 114.242 7.052 114.154 6.96C114.07 6.868 113.956 6.788 113.812 6.72C113.672 6.652 113.51 6.592 113.326 6.54C113.146 6.484 112.96 6.424 112.768 6.36C112.58 6.296 112.394 6.222 112.21 6.138C112.03 6.05 111.868 5.94 111.724 5.808C111.584 5.676 111.47 5.514 111.382 5.322C111.298 5.13 111.256 4.898 111.256 4.626C111.256 4.374 111.306 4.134 111.406 3.906C111.506 3.678 111.652 3.48 111.844 3.312C112.04 3.14 112.282 3.004 112.57 2.904C112.862 2.8 113.198 2.748 113.578 2.748C114.002 2.748 114.388 2.818 114.736 2.958C115.084 3.098 115.374 3.282 115.606 3.51L115.27 4.044ZM116.854 9V0.0839996H118.337V3.51C118.577 3.282 118.841 3.098 119.129 2.958C119.417 2.818 119.755 2.748 120.143 2.748C120.479 2.748 120.777 2.806 121.037 2.922C121.297 3.034 121.513 3.194 121.685 3.402C121.861 3.606 121.993 3.852 122.081 4.14C122.173 4.424 122.219 4.738 122.219 5.082V9H120.737V5.082C120.737 4.706 120.649 4.416 120.473 4.212C120.301 4.004 120.041 3.9 119.693 3.9C119.437 3.9 119.197 3.958 118.973 4.074C118.749 4.19 118.537 4.348 118.337 4.548V9H116.854ZM125.253 2.844V9H123.771V2.844H125.253ZM125.475 1.05C125.475 1.178 125.449 1.298 125.397 1.41C125.345 1.522 125.275 1.62 125.187 1.704C125.103 1.788 125.003 1.856 124.887 1.908C124.771 1.956 124.647 1.98 124.515 1.98C124.387 1.98 124.265 1.956 124.149 1.908C124.037 1.856 123.939 1.788 123.855 1.704C123.771 1.62 123.703 1.522 123.651 1.41C123.603 1.298 123.579 1.178 123.579 1.05C123.579 0.918 123.603 0.794 123.651 0.677999C123.703 0.562 123.771 0.462 123.855 0.378C123.939 0.294 124.037 0.228 124.149 0.18C124.265 0.128 124.387 0.102 124.515 0.102C124.647 0.102 124.771 0.128 124.887 0.18C125.003 0.228 125.103 0.294 125.187 0.378C125.275 0.462 125.345 0.562 125.397 0.677999C125.449 0.794 125.475 0.918 125.475 1.05ZM126.933 11.01V2.844H127.839C127.935 2.844 128.017 2.866 128.085 2.91C128.153 2.954 128.197 3.022 128.217 3.114L128.337 3.684C128.585 3.4 128.869 3.17 129.189 2.994C129.513 2.818 129.891 2.73 130.323 2.73C130.659 2.73 130.965 2.8 131.241 2.94C131.521 3.08 131.761 3.284 131.961 3.552C132.165 3.816 132.321 4.144 132.429 4.536C132.541 4.924 132.597 5.37 132.597 5.874C132.597 6.334 132.535 6.76 132.411 7.152C132.287 7.544 132.109 7.884 131.877 8.172C131.649 8.46 131.371 8.686 131.043 8.85C130.719 9.01 130.355 9.09 129.951 9.09C129.603 9.09 129.307 9.038 129.063 8.934C128.823 8.826 128.607 8.678 128.415 8.49V11.01H126.933ZM129.813 3.9C129.505 3.9 129.241 3.966 129.021 4.098C128.805 4.226 128.603 4.408 128.415 4.644V7.404C128.583 7.612 128.765 7.758 128.961 7.842C129.161 7.922 129.375 7.962 129.603 7.962C129.827 7.962 130.029 7.92 130.209 7.836C130.393 7.752 130.547 7.624 130.671 7.452C130.799 7.28 130.897 7.064 130.965 6.804C131.033 6.54 131.067 6.23 131.067 5.874C131.067 5.514 131.037 5.21 130.977 4.962C130.921 4.71 130.839 4.506 130.731 4.35C130.623 4.194 130.491 4.08 130.335 4.008C130.183 3.936 130.009 3.9 129.813 3.9Z" fill="black"/>
</svg>
