<svg width="356" height="48" viewBox="0 0 356 48" fill="none" xmlns="http://www.w3.org/2000/svg">
<path d="M20.87 14.145V18.045H11.9V23.145H18.77V26.895H11.9V32.1H20.87V36H6.8V14.145H20.87ZM23.4629 25.005H31.5629V28.755H23.4629V25.005ZM46.0864 24.135C45.9464 24.305 45.8114 24.44 45.6814 24.54C45.5514 24.64 45.3664 24.69 45.1264 24.69C44.8964 24.69 44.6864 24.635 44.4964 24.525C44.3164 24.415 44.1114 24.295 43.8814 24.165C43.6514 24.025 43.3814 23.9 43.0714 23.79C42.7614 23.68 42.3764 23.625 41.9164 23.625C41.3464 23.625 40.8514 23.73 40.4314 23.94C40.0214 24.15 39.6814 24.45 39.4114 24.84C39.1414 25.23 38.9414 25.71 38.8114 26.28C38.6814 26.84 38.6164 27.475 38.6164 28.185C38.6164 29.675 38.9014 30.82 39.4714 31.62C40.0514 32.42 40.8464 32.82 41.8564 32.82C42.3964 32.82 42.8214 32.755 43.1314 32.625C43.4514 32.485 43.7214 32.335 43.9414 32.175C44.1614 32.005 44.3614 31.85 44.5414 31.71C44.7314 31.57 44.9664 31.5 45.2464 31.5C45.6164 31.5 45.8964 31.635 46.0864 31.905L47.4364 33.57C46.9564 34.12 46.4514 34.57 45.9214 34.92C45.3914 35.26 44.8464 35.53 44.2864 35.73C43.7364 35.92 43.1814 36.05 42.6214 36.12C42.0614 36.2 41.5164 36.24 40.9864 36.24C40.0364 36.24 39.1264 36.06 38.2564 35.7C37.3964 35.34 36.6364 34.82 35.9764 34.14C35.3264 33.45 34.8064 32.605 34.4164 31.605C34.0364 30.605 33.8464 29.465 33.8464 28.185C33.8464 27.065 34.0114 26.02 34.3414 25.05C34.6814 24.07 35.1764 23.225 35.8264 22.515C36.4864 21.795 37.2964 21.23 38.2564 20.82C39.2264 20.41 40.3464 20.205 41.6164 20.205C42.8364 20.205 43.9064 20.4 44.8264 20.79C45.7464 21.18 46.5764 21.75 47.3164 22.5L46.0864 24.135ZM56.3863 20.205C57.5663 20.205 58.6413 20.39 59.6113 20.76C60.5813 21.13 61.4113 21.66 62.1013 22.35C62.8013 23.04 63.3413 23.88 63.7213 24.87C64.1113 25.85 64.3063 26.955 64.3063 28.185C64.3063 29.425 64.1113 30.545 63.7213 31.545C63.3413 32.535 62.8013 33.38 62.1013 34.08C61.4113 34.77 60.5813 35.305 59.6113 35.685C58.6413 36.055 57.5663 36.24 56.3863 36.24C55.1963 36.24 54.1113 36.055 53.1313 35.685C52.1613 35.305 51.3213 34.77 50.6113 34.08C49.9113 33.38 49.3663 32.535 48.9763 31.545C48.5963 30.545 48.4063 29.425 48.4063 28.185C48.4063 26.955 48.5963 25.85 48.9763 24.87C49.3663 23.88 49.9113 23.04 50.6113 22.35C51.3213 21.66 52.1613 21.13 53.1313 20.76C54.1113 20.39 55.1963 20.205 56.3863 20.205ZM56.3863 32.79C57.4563 32.79 58.2413 32.415 58.7413 31.665C59.2513 30.905 59.5063 29.755 59.5063 28.215C59.5063 26.675 59.2513 25.53 58.7413 24.78C58.2413 24.03 57.4563 23.655 56.3863 23.655C55.2863 23.655 54.4813 24.03 53.9713 24.78C53.4613 25.53 53.2063 26.675 53.2063 28.215C53.2063 29.755 53.4613 30.905 53.9713 31.665C54.4813 32.415 55.2863 32.79 56.3863 32.79ZM66.8586 36V20.445H69.7386C70.0286 20.445 70.2686 20.51 70.4586 20.64C70.6586 20.77 70.7986 20.965 70.8786 21.225L71.1336 22.065C71.3936 21.795 71.6636 21.55 71.9436 21.33C72.2236 21.1 72.5236 20.905 72.8436 20.745C73.1736 20.575 73.5236 20.445 73.8936 20.355C74.2736 20.255 74.6886 20.205 75.1386 20.205C76.0786 20.205 76.8536 20.45 77.4636 20.94C78.0836 21.42 78.5536 22.065 78.8736 22.875C79.1336 22.395 79.4486 21.985 79.8186 21.645C80.1986 21.305 80.6036 21.03 81.0336 20.82C81.4736 20.61 81.9336 20.455 82.4136 20.355C82.9036 20.255 83.3886 20.205 83.8686 20.205C84.7586 20.205 85.5486 20.34 86.2386 20.61C86.9286 20.87 87.5036 21.255 87.9636 21.765C88.4336 22.265 88.7886 22.885 89.0286 23.625C89.2686 24.355 89.3886 25.185 89.3886 26.115V36H84.7386V26.115C84.7386 24.505 84.0486 23.7 82.6686 23.7C82.0386 23.7 81.5136 23.91 81.0936 24.33C80.6836 24.74 80.4786 25.335 80.4786 26.115V36H75.8286V26.115C75.8286 25.225 75.6536 24.6 75.3036 24.24C74.9536 23.88 74.4386 23.7 73.7586 23.7C73.3386 23.7 72.9386 23.795 72.5586 23.985C72.1886 24.175 71.8386 24.43 71.5086 24.75V36H66.8586ZM92.6984 36V20.445H95.5784C95.8684 20.445 96.1084 20.51 96.2984 20.64C96.4984 20.77 96.6384 20.965 96.7184 21.225L96.9734 22.065C97.2334 21.795 97.5034 21.55 97.7834 21.33C98.0634 21.1 98.3634 20.905 98.6834 20.745C99.0134 20.575 99.3634 20.445 99.7334 20.355C100.113 20.255 100.528 20.205 100.978 20.205C101.918 20.205 102.693 20.45 103.303 20.94C103.923 21.42 104.393 22.065 104.713 22.875C104.973 22.395 105.288 21.985 105.658 21.645C106.038 21.305 106.443 21.03 106.873 20.82C107.313 20.61 107.773 20.455 108.253 20.355C108.743 20.255 109.228 20.205 109.708 20.205C110.598 20.205 111.388 20.34 112.078 20.61C112.768 20.87 113.343 21.255 113.803 21.765C114.273 22.265 114.628 22.885 114.868 23.625C115.108 24.355 115.228 25.185 115.228 26.115V36H110.578V26.115C110.578 24.505 109.888 23.7 108.508 23.7C107.878 23.7 107.353 23.91 106.933 24.33C106.523 24.74 106.318 25.335 106.318 26.115V36H101.668V26.115C101.668 25.225 101.493 24.6 101.143 24.24C100.793 23.88 100.278 23.7 99.5984 23.7C99.1784 23.7 98.7784 23.795 98.3984 23.985C98.0284 24.175 97.6784 24.43 97.3484 24.75V36H92.6984ZM125.198 20.205C126.228 20.205 127.168 20.365 128.018 20.685C128.878 21.005 129.613 21.47 130.223 22.08C130.843 22.69 131.323 23.44 131.663 24.33C132.013 25.21 132.188 26.21 132.188 27.33C132.188 27.68 132.173 27.965 132.143 28.185C132.113 28.405 132.058 28.58 131.978 28.71C131.898 28.84 131.788 28.93 131.648 28.98C131.518 29.03 131.348 29.055 131.138 29.055H122.168C122.318 30.355 122.713 31.3 123.353 31.89C123.993 32.47 124.818 32.76 125.828 32.76C126.368 32.76 126.833 32.695 127.223 32.565C127.613 32.435 127.958 32.29 128.258 32.13C128.568 31.97 128.848 31.825 129.098 31.695C129.358 31.565 129.628 31.5 129.908 31.5C130.278 31.5 130.558 31.635 130.748 31.905L132.098 33.57C131.618 34.12 131.098 34.57 130.538 34.92C129.988 35.26 129.418 35.53 128.828 35.73C128.248 35.92 127.663 36.05 127.073 36.12C126.493 36.2 125.938 36.24 125.408 36.24C124.318 36.24 123.293 36.065 122.333 35.715C121.383 35.355 120.548 34.825 119.828 34.125C119.118 33.425 118.553 32.555 118.133 31.515C117.723 30.475 117.518 29.265 117.518 27.885C117.518 26.845 117.693 25.86 118.043 24.93C118.403 24 118.913 23.185 119.573 22.485C120.243 21.785 121.048 21.23 121.988 20.82C122.938 20.41 124.008 20.205 125.198 20.205ZM125.288 23.415C124.398 23.415 123.703 23.67 123.203 24.18C122.703 24.68 122.373 25.405 122.213 26.355H128.018C128.018 25.985 127.968 25.625 127.868 25.275C127.778 24.925 127.623 24.615 127.403 24.345C127.193 24.065 126.913 23.84 126.563 23.67C126.213 23.5 125.788 23.415 125.288 23.415ZM134.857 36V20.445H137.617C137.847 20.445 138.037 20.465 138.187 20.505C138.347 20.545 138.477 20.61 138.577 20.7C138.687 20.78 138.767 20.89 138.817 21.03C138.877 21.17 138.927 21.34 138.967 21.54L139.222 22.995C139.792 22.115 140.432 21.42 141.142 20.91C141.852 20.4 142.627 20.145 143.467 20.145C144.177 20.145 144.747 20.315 145.177 20.655L144.577 24.075C144.537 24.285 144.457 24.435 144.337 24.525C144.217 24.605 144.057 24.645 143.857 24.645C143.687 24.645 143.487 24.625 143.257 24.585C143.027 24.535 142.737 24.51 142.387 24.51C141.167 24.51 140.207 25.16 139.507 26.46V36H134.857ZM158.469 24.135C158.329 24.305 158.194 24.44 158.064 24.54C157.934 24.64 157.749 24.69 157.509 24.69C157.279 24.69 157.069 24.635 156.879 24.525C156.699 24.415 156.494 24.295 156.264 24.165C156.034 24.025 155.764 23.9 155.454 23.79C155.144 23.68 154.759 23.625 154.299 23.625C153.729 23.625 153.234 23.73 152.814 23.94C152.404 24.15 152.064 24.45 151.794 24.84C151.524 25.23 151.324 25.71 151.194 26.28C151.064 26.84 150.999 27.475 150.999 28.185C150.999 29.675 151.284 30.82 151.854 31.62C152.434 32.42 153.229 32.82 154.239 32.82C154.779 32.82 155.204 32.755 155.514 32.625C155.834 32.485 156.104 32.335 156.324 32.175C156.544 32.005 156.744 31.85 156.924 31.71C157.114 31.57 157.349 31.5 157.629 31.5C157.999 31.5 158.279 31.635 158.469 31.905L159.819 33.57C159.339 34.12 158.834 34.57 158.304 34.92C157.774 35.26 157.229 35.53 156.669 35.73C156.119 35.92 155.564 36.05 155.004 36.12C154.444 36.2 153.899 36.24 153.369 36.24C152.419 36.24 151.509 36.06 150.639 35.7C149.779 35.34 149.019 34.82 148.359 34.14C147.709 33.45 147.189 32.605 146.799 31.605C146.419 30.605 146.229 29.465 146.229 28.185C146.229 27.065 146.394 26.02 146.724 25.05C147.064 24.07 147.559 23.225 148.209 22.515C148.869 21.795 149.679 21.23 150.639 20.82C151.609 20.41 152.729 20.205 153.999 20.205C155.219 20.205 156.289 20.4 157.209 20.79C158.129 21.18 158.959 21.75 159.699 22.5L158.469 24.135ZM168.499 20.205C169.529 20.205 170.469 20.365 171.319 20.685C172.179 21.005 172.914 21.47 173.524 22.08C174.144 22.69 174.624 23.44 174.964 24.33C175.314 25.21 175.489 26.21 175.489 27.33C175.489 27.68 175.474 27.965 175.444 28.185C175.414 28.405 175.359 28.58 175.279 28.71C175.199 28.84 175.089 28.93 174.949 28.98C174.819 29.03 174.649 29.055 174.439 29.055H165.469C165.619 30.355 166.014 31.3 166.654 31.89C167.294 32.47 168.119 32.76 169.129 32.76C169.669 32.76 170.134 32.695 170.524 32.565C170.914 32.435 171.259 32.29 171.559 32.13C171.869 31.97 172.149 31.825 172.399 31.695C172.659 31.565 172.929 31.5 173.209 31.5C173.579 31.5 173.859 31.635 174.049 31.905L175.399 33.57C174.919 34.12 174.399 34.57 173.839 34.92C173.289 35.26 172.719 35.53 172.129 35.73C171.549 35.92 170.964 36.05 170.374 36.12C169.794 36.2 169.239 36.24 168.709 36.24C167.619 36.24 166.594 36.065 165.634 35.715C164.684 35.355 163.849 34.825 163.129 34.125C162.419 33.425 161.854 32.555 161.434 31.515C161.024 30.475 160.819 29.265 160.819 27.885C160.819 26.845 160.994 25.86 161.344 24.93C161.704 24 162.214 23.185 162.874 22.485C163.544 21.785 164.349 21.23 165.289 20.82C166.239 20.41 167.309 20.205 168.499 20.205ZM168.589 23.415C167.699 23.415 167.004 23.67 166.504 24.18C166.004 24.68 165.674 25.405 165.514 26.355H171.319C171.319 25.985 171.269 25.625 171.169 25.275C171.079 24.925 170.924 24.615 170.704 24.345C170.494 24.065 170.214 23.84 169.864 23.67C169.514 23.5 169.089 23.415 168.589 23.415ZM189.028 28.695V36H183.958V14.145H191.668C193.208 14.145 194.528 14.33 195.628 14.7C196.738 15.06 197.648 15.56 198.358 16.2C199.078 16.84 199.608 17.595 199.948 18.465C200.288 19.335 200.458 20.275 200.458 21.285C200.458 22.375 200.283 23.375 199.933 24.285C199.583 25.195 199.048 25.975 198.328 26.625C197.608 27.275 196.693 27.785 195.583 28.155C194.483 28.515 193.178 28.695 191.668 28.695H189.028ZM189.028 24.87H191.668C192.988 24.87 193.938 24.555 194.518 23.925C195.098 23.295 195.388 22.415 195.388 21.285C195.388 20.785 195.313 20.33 195.163 19.92C195.013 19.51 194.783 19.16 194.473 18.87C194.173 18.57 193.788 18.34 193.318 18.18C192.858 18.02 192.308 17.94 191.668 17.94H189.028V24.87ZM213.067 36C212.627 36 212.292 35.94 212.062 35.82C211.842 35.7 211.657 35.45 211.507 35.07L211.177 34.215C210.787 34.545 210.412 34.835 210.052 35.085C209.692 35.335 209.317 35.55 208.927 35.73C208.547 35.9 208.137 36.025 207.697 36.105C207.267 36.195 206.787 36.24 206.257 36.24C205.547 36.24 204.902 36.15 204.322 35.97C203.742 35.78 203.247 35.505 202.837 35.145C202.437 34.785 202.127 34.34 201.907 33.81C201.687 33.27 201.577 32.65 201.577 31.95C201.577 31.4 201.717 30.835 201.997 30.255C202.277 29.675 202.762 29.15 203.452 28.68C204.142 28.2 205.072 27.8 206.242 27.48C207.412 27.16 208.887 26.98 210.667 26.94V26.28C210.667 25.37 210.477 24.715 210.097 24.315C209.727 23.905 209.197 23.7 208.507 23.7C207.957 23.7 207.507 23.76 207.157 23.88C206.807 24 206.492 24.135 206.212 24.285C205.942 24.435 205.677 24.57 205.417 24.69C205.157 24.81 204.847 24.87 204.487 24.87C204.167 24.87 203.892 24.795 203.662 24.645C203.442 24.485 203.267 24.29 203.137 24.06L202.297 22.605C203.237 21.775 204.277 21.16 205.417 20.76C206.567 20.35 207.797 20.145 209.107 20.145C210.047 20.145 210.892 20.3 211.642 20.61C212.402 20.91 213.042 21.335 213.562 21.885C214.092 22.425 214.497 23.07 214.777 23.82C215.057 24.57 215.197 25.39 215.197 26.28V36H213.067ZM207.727 33.165C208.327 33.165 208.852 33.06 209.302 32.85C209.752 32.64 210.207 32.3 210.667 31.83V29.67C209.737 29.71 208.972 29.79 208.372 29.91C207.772 30.03 207.297 30.18 206.947 30.36C206.597 30.54 206.352 30.745 206.212 30.975C206.082 31.205 206.017 31.455 206.017 31.725C206.017 32.255 206.162 32.63 206.452 32.85C206.742 33.06 207.167 33.165 207.727 33.165ZM218.499 36V20.445H221.259C221.489 20.445 221.679 20.465 221.829 20.505C221.989 20.545 222.119 20.61 222.219 20.7C222.329 20.78 222.409 20.89 222.459 21.03C222.519 21.17 222.569 21.34 222.609 21.54L222.864 22.995C223.434 22.115 224.074 21.42 224.784 20.91C225.494 20.4 226.269 20.145 227.109 20.145C227.819 20.145 228.389 20.315 228.819 20.655L228.219 24.075C228.179 24.285 228.099 24.435 227.979 24.525C227.859 24.605 227.699 24.645 227.499 24.645C227.329 24.645 227.129 24.625 226.899 24.585C226.669 24.535 226.379 24.51 226.029 24.51C224.809 24.51 223.849 25.16 223.149 26.46V36H218.499ZM236.352 36.24C235.612 36.24 234.957 36.135 234.387 35.925C233.827 35.705 233.352 35.4 232.962 35.01C232.582 34.61 232.292 34.13 232.092 33.57C231.892 33.01 231.792 32.385 231.792 31.695V23.655H230.472C230.232 23.655 230.027 23.58 229.857 23.43C229.687 23.27 229.602 23.04 229.602 22.74V20.925L232.077 20.445L232.992 16.65C233.112 16.17 233.452 15.93 234.012 15.93H236.442V20.475H240.222V23.655H236.442V31.38C236.442 31.74 236.527 32.04 236.697 32.28C236.877 32.51 237.132 32.625 237.462 32.625C237.632 32.625 237.772 32.61 237.882 32.58C238.002 32.54 238.102 32.5 238.182 32.46C238.272 32.41 238.352 32.37 238.422 32.34C238.502 32.3 238.592 32.28 238.692 32.28C238.832 32.28 238.942 32.315 239.022 32.385C239.112 32.445 239.202 32.545 239.292 32.685L240.702 34.89C240.102 35.34 239.427 35.68 238.677 35.91C237.927 36.13 237.152 36.24 236.352 36.24ZM242.904 36V20.445H245.784C246.074 20.445 246.314 20.51 246.504 20.64C246.704 20.77 246.844 20.965 246.924 21.225L247.194 22.125C247.494 21.845 247.804 21.585 248.124 21.345C248.444 21.105 248.784 20.905 249.144 20.745C249.514 20.575 249.909 20.445 250.329 20.355C250.759 20.255 251.224 20.205 251.724 20.205C252.574 20.205 253.324 20.355 253.974 20.655C254.634 20.945 255.189 21.355 255.639 21.885C256.089 22.405 256.429 23.03 256.659 23.76C256.889 24.48 257.004 25.265 257.004 26.115V36H252.354V26.115C252.354 25.355 252.179 24.765 251.829 24.345C251.479 23.915 250.964 23.7 250.284 23.7C249.774 23.7 249.294 23.81 248.844 24.03C248.394 24.25 247.964 24.545 247.554 24.915V36H242.904ZM266.966 20.205C267.996 20.205 268.936 20.365 269.786 20.685C270.646 21.005 271.381 21.47 271.991 22.08C272.611 22.69 273.091 23.44 273.431 24.33C273.781 25.21 273.956 26.21 273.956 27.33C273.956 27.68 273.941 27.965 273.911 28.185C273.881 28.405 273.826 28.58 273.746 28.71C273.666 28.84 273.556 28.93 273.416 28.98C273.286 29.03 273.116 29.055 272.906 29.055H263.936C264.086 30.355 264.481 31.3 265.121 31.89C265.761 32.47 266.586 32.76 267.596 32.76C268.136 32.76 268.601 32.695 268.991 32.565C269.381 32.435 269.726 32.29 270.026 32.13C270.336 31.97 270.616 31.825 270.866 31.695C271.126 31.565 271.396 31.5 271.676 31.5C272.046 31.5 272.326 31.635 272.516 31.905L273.866 33.57C273.386 34.12 272.866 34.57 272.306 34.92C271.756 35.26 271.186 35.53 270.596 35.73C270.016 35.92 269.431 36.05 268.841 36.12C268.261 36.2 267.706 36.24 267.176 36.24C266.086 36.24 265.061 36.065 264.101 35.715C263.151 35.355 262.316 34.825 261.596 34.125C260.886 33.425 260.321 32.555 259.901 31.515C259.491 30.475 259.286 29.265 259.286 27.885C259.286 26.845 259.461 25.86 259.811 24.93C260.171 24 260.681 23.185 261.341 22.485C262.011 21.785 262.816 21.23 263.756 20.82C264.706 20.41 265.776 20.205 266.966 20.205ZM267.056 23.415C266.166 23.415 265.471 23.67 264.971 24.18C264.471 24.68 264.141 25.405 263.981 26.355H269.786C269.786 25.985 269.736 25.625 269.636 25.275C269.546 24.925 269.391 24.615 269.171 24.345C268.961 24.065 268.681 23.84 268.331 23.67C267.981 23.5 267.556 23.415 267.056 23.415ZM276.624 36V20.445H279.384C279.614 20.445 279.804 20.465 279.954 20.505C280.114 20.545 280.244 20.61 280.344 20.7C280.454 20.78 280.534 20.89 280.584 21.03C280.644 21.17 280.694 21.34 280.734 21.54L280.989 22.995C281.559 22.115 282.199 21.42 282.909 20.91C283.619 20.4 284.394 20.145 285.234 20.145C285.944 20.145 286.514 20.315 286.944 20.655L286.344 24.075C286.304 24.285 286.224 24.435 286.104 24.525C285.984 24.605 285.824 24.645 285.624 24.645C285.454 24.645 285.254 24.625 285.024 24.585C284.794 24.535 284.504 24.51 284.154 24.51C282.934 24.51 281.974 25.16 281.274 26.46V36H276.624ZM298.527 23.85C298.407 24.04 298.277 24.175 298.137 24.255C298.007 24.335 297.837 24.375 297.627 24.375C297.407 24.375 297.187 24.33 296.967 24.24C296.747 24.14 296.507 24.035 296.247 23.925C295.997 23.815 295.712 23.715 295.392 23.625C295.072 23.525 294.707 23.475 294.297 23.475C293.707 23.475 293.252 23.59 292.932 23.82C292.622 24.04 292.467 24.35 292.467 24.75C292.467 25.04 292.567 25.28 292.767 25.47C292.977 25.66 293.252 25.83 293.592 25.98C293.932 26.12 294.317 26.255 294.747 26.385C295.177 26.515 295.617 26.66 296.067 26.82C296.517 26.98 296.957 27.17 297.387 27.39C297.817 27.6 298.202 27.865 298.542 28.185C298.882 28.495 299.152 28.875 299.352 29.325C299.562 29.775 299.667 30.315 299.667 30.945C299.667 31.715 299.527 32.425 299.247 33.075C298.967 33.725 298.547 34.285 297.987 34.755C297.437 35.225 296.752 35.59 295.932 35.85C295.122 36.11 294.187 36.24 293.127 36.24C292.597 36.24 292.067 36.19 291.537 36.09C291.007 35.99 290.492 35.855 289.992 35.685C289.502 35.515 289.047 35.315 288.627 35.085C288.207 34.845 287.847 34.59 287.547 34.32L288.627 32.61C288.757 32.41 288.912 32.255 289.092 32.145C289.272 32.025 289.507 31.965 289.797 31.965C290.067 31.965 290.307 32.025 290.517 32.145C290.737 32.265 290.972 32.395 291.222 32.535C291.472 32.675 291.762 32.805 292.092 32.925C292.432 33.045 292.857 33.105 293.367 33.105C293.727 33.105 294.032 33.07 294.282 33C294.532 32.92 294.732 32.815 294.882 32.685C295.032 32.555 295.142 32.41 295.212 32.25C295.282 32.09 295.317 31.925 295.317 31.755C295.317 31.445 295.212 31.19 295.002 30.99C294.792 30.79 294.517 30.62 294.177 30.48C293.837 30.33 293.447 30.195 293.007 30.075C292.577 29.945 292.137 29.8 291.687 29.64C291.237 29.48 290.792 29.29 290.352 29.07C289.922 28.84 289.537 28.555 289.197 28.215C288.857 27.865 288.582 27.44 288.372 26.94C288.162 26.44 288.057 25.835 288.057 25.125C288.057 24.465 288.182 23.84 288.432 23.25C288.692 22.65 289.077 22.125 289.587 21.675C290.097 21.225 290.737 20.87 291.507 20.61C292.277 20.34 293.177 20.205 294.207 20.205C294.767 20.205 295.307 20.255 295.827 20.355C296.357 20.455 296.852 20.595 297.312 20.775C297.772 20.955 298.192 21.17 298.572 21.42C298.952 21.66 299.287 21.925 299.577 22.215L298.527 23.85ZM302.23 36V13.545H306.88V21.81C307.44 21.33 308.045 20.945 308.695 20.655C309.355 20.355 310.14 20.205 311.05 20.205C311.9 20.205 312.65 20.355 313.3 20.655C313.96 20.945 314.515 21.355 314.965 21.885C315.415 22.405 315.755 23.03 315.985 23.76C316.215 24.48 316.33 25.265 316.33 26.115V36H311.68V26.115C311.68 25.355 311.505 24.765 311.155 24.345C310.805 23.915 310.29 23.7 309.61 23.7C309.1 23.7 308.62 23.81 308.17 24.03C307.72 24.25 307.29 24.545 306.88 24.915V36H302.23ZM324.432 20.445V36H319.782V20.445H324.432ZM324.972 16.185C324.972 16.555 324.897 16.905 324.747 17.235C324.597 17.555 324.392 17.84 324.132 18.09C323.872 18.33 323.567 18.525 323.217 18.675C322.877 18.815 322.512 18.885 322.122 18.885C321.742 18.885 321.387 18.815 321.057 18.675C320.727 18.525 320.432 18.33 320.172 18.09C319.922 17.84 319.722 17.555 319.572 17.235C319.432 16.905 319.362 16.555 319.362 16.185C319.362 15.805 319.432 15.45 319.572 15.12C319.722 14.79 319.922 14.5 320.172 14.25C320.432 14 320.727 13.805 321.057 13.665C321.387 13.525 321.742 13.455 322.122 13.455C322.512 13.455 322.877 13.525 323.217 13.665C323.567 13.805 323.872 14 324.132 14.25C324.392 14.5 324.597 14.79 324.747 15.12C324.897 15.45 324.972 15.805 324.972 16.185ZM328.187 40.935V20.445H331.067C331.357 20.445 331.597 20.51 331.787 20.64C331.987 20.77 332.127 20.965 332.207 21.225L332.552 22.365C332.852 22.035 333.172 21.735 333.512 21.465C333.862 21.195 334.232 20.965 334.622 20.775C335.022 20.575 335.447 20.42 335.897 20.31C336.357 20.2 336.857 20.145 337.397 20.145C338.207 20.145 338.957 20.325 339.647 20.685C340.337 21.045 340.932 21.565 341.432 22.245C341.932 22.925 342.322 23.76 342.602 24.75C342.892 25.73 343.037 26.845 343.037 28.095C343.037 29.265 342.872 30.345 342.542 31.335C342.222 32.325 341.767 33.185 341.177 33.915C340.597 34.645 339.897 35.215 339.077 35.625C338.267 36.035 337.367 36.24 336.377 36.24C335.567 36.24 334.887 36.125 334.337 35.895C333.787 35.665 333.287 35.355 332.837 34.965V40.935H328.187ZM335.777 23.7C335.437 23.7 335.127 23.735 334.847 23.805C334.577 23.865 334.322 23.955 334.082 24.075C333.852 24.195 333.637 24.35 333.437 24.54C333.237 24.72 333.037 24.93 332.837 25.17V31.77C333.187 32.16 333.567 32.435 333.977 32.595C334.387 32.745 334.817 32.82 335.267 32.82C335.697 32.82 336.092 32.735 336.452 32.565C336.812 32.395 337.122 32.125 337.382 31.755C337.652 31.375 337.862 30.885 338.012 30.285C338.162 29.685 338.237 28.955 338.237 28.095C338.237 27.275 338.177 26.585 338.057 26.025C337.937 25.465 337.767 25.015 337.547 24.675C337.337 24.325 337.082 24.075 336.782 23.925C336.482 23.775 336.147 23.7 335.777 23.7Z" fill="black"/>
</svg>
