<svg width="133" height="14" viewBox="0 0 133 14" fill="none" xmlns="http://www.w3.org/2000/svg">
<path d="M8.196 12H6.57V8.208H2.502V12H0.876V3.324H2.502V7.056H6.57V3.324H8.196V12ZM12.4903 5.748C12.9503 5.748 13.3663 5.822 13.7383 5.97C14.1143 6.118 14.4343 6.328 14.6983 6.6C14.9623 6.872 15.1663 7.204 15.3103 7.596C15.4543 7.988 15.5263 8.426 15.5263 8.91C15.5263 9.398 15.4543 9.838 15.3103 10.23C15.1663 10.622 14.9623 10.956 14.6983 11.232C14.4343 11.508 14.1143 11.72 13.7383 11.868C13.3663 12.016 12.9503 12.09 12.4903 12.09C12.0303 12.09 11.6123 12.016 11.2363 11.868C10.8603 11.72 10.5383 11.508 10.2703 11.232C10.0063 10.956 9.80031 10.622 9.65231 10.23C9.50831 9.838 9.43631 9.398 9.43631 8.91C9.43631 8.426 9.50831 7.988 9.65231 7.596C9.80031 7.204 10.0063 6.872 10.2703 6.6C10.5383 6.328 10.8603 6.118 11.2363 5.97C11.6123 5.822 12.0303 5.748 12.4903 5.748ZM12.4903 10.95C13.0023 10.95 13.3803 10.778 13.6243 10.434C13.8723 10.09 13.9963 9.586 13.9963 8.922C13.9963 8.258 13.8723 7.752 13.6243 7.404C13.3803 7.056 13.0023 6.882 12.4903 6.882C11.9703 6.882 11.5863 7.058 11.3383 7.41C11.0903 7.758 10.9663 8.262 10.9663 8.922C10.9663 9.582 11.0903 10.086 11.3383 10.434C11.5863 10.778 11.9703 10.95 12.4903 10.95ZM16.6826 12V5.844H17.5886C17.7806 5.844 17.9066 5.934 17.9666 6.114L18.0626 6.57C18.1706 6.45 18.2826 6.34 18.3986 6.24C18.5186 6.14 18.6446 6.054 18.7766 5.982C18.9126 5.91 19.0566 5.854 19.2086 5.814C19.3646 5.77 19.5346 5.748 19.7186 5.748C20.1066 5.748 20.4246 5.854 20.6726 6.066C20.9246 6.274 21.1126 6.552 21.2366 6.9C21.3326 6.696 21.4526 6.522 21.5966 6.378C21.7406 6.23 21.8986 6.11 22.0706 6.018C22.2426 5.926 22.4246 5.858 22.6166 5.814C22.8126 5.77 23.0086 5.748 23.2046 5.748C23.5446 5.748 23.8466 5.8 24.1106 5.904C24.3746 6.008 24.5966 6.16 24.7766 6.36C24.9566 6.56 25.0926 6.804 25.1846 7.092C25.2806 7.38 25.3286 7.71 25.3286 8.082V12H23.8466V8.082C23.8466 7.69 23.7606 7.396 23.5886 7.2C23.4166 7 23.1646 6.9 22.8326 6.9C22.6806 6.9 22.5386 6.926 22.4066 6.978C22.2786 7.03 22.1646 7.106 22.0646 7.206C21.9686 7.302 21.8926 7.424 21.8366 7.572C21.7806 7.72 21.7526 7.89 21.7526 8.082V12H20.2646V8.082C20.2646 7.67 20.1806 7.37 20.0126 7.182C19.8486 6.994 19.6046 6.9 19.2806 6.9C19.0686 6.9 18.8686 6.954 18.6806 7.062C18.4966 7.166 18.3246 7.31 18.1646 7.494V12H16.6826ZM29.3282 5.748C29.7162 5.748 30.0722 5.81 30.3962 5.934C30.7242 6.058 31.0062 6.24 31.2422 6.48C31.4782 6.716 31.6622 7.008 31.7942 7.356C31.9262 7.7 31.9922 8.094 31.9922 8.538C31.9922 8.65 31.9862 8.744 31.9742 8.82C31.9662 8.892 31.9482 8.95 31.9202 8.994C31.8962 9.034 31.8622 9.064 31.8182 9.084C31.7742 9.1 31.7182 9.108 31.6502 9.108H27.8462C27.8902 9.74 28.0602 10.204 28.3562 10.5C28.6522 10.796 29.0442 10.944 29.5322 10.944C29.7722 10.944 29.9782 10.916 30.1502 10.86C30.3262 10.804 30.4782 10.742 30.6062 10.674C30.7382 10.606 30.8522 10.544 30.9482 10.488C31.0482 10.432 31.1442 10.404 31.2362 10.404C31.2962 10.404 31.3482 10.416 31.3922 10.44C31.4362 10.464 31.4742 10.498 31.5062 10.542L31.9382 11.082C31.7742 11.274 31.5902 11.436 31.3862 11.568C31.1822 11.696 30.9682 11.8 30.7442 11.88C30.5242 11.956 30.2982 12.01 30.0662 12.042C29.8382 12.074 29.6162 12.09 29.4002 12.09C28.9722 12.09 28.5742 12.02 28.2062 11.88C27.8382 11.736 27.5182 11.526 27.2462 11.25C26.9742 10.97 26.7602 10.626 26.6042 10.218C26.4482 9.806 26.3702 9.33 26.3702 8.79C26.3702 8.37 26.4382 7.976 26.5742 7.608C26.7102 7.236 26.9042 6.914 27.1562 6.642C27.4122 6.366 27.7222 6.148 28.0862 5.988C28.4542 5.828 28.8682 5.748 29.3282 5.748ZM29.3582 6.81C28.9262 6.81 28.5882 6.932 28.3442 7.176C28.1002 7.42 27.9442 7.766 27.8762 8.214H30.6602C30.6602 8.022 30.6342 7.842 30.5822 7.674C30.5302 7.502 30.4502 7.352 30.3422 7.224C30.2342 7.096 30.0982 6.996 29.9342 6.924C29.7702 6.848 29.5782 6.81 29.3582 6.81Z" fill="black"/>
</svg>
