
<svg width="1920" height="720" viewBox="0 0 1920 720" fill="none" xmlns="http://www.w3.org/2000/svg">
<g clip-path="url(#clip0)">
<rect width="1920" height="720" fill="#4372D6"/>
<path fill-rule="evenodd" clip-rule="evenodd" d="M1624.5 294.012L1624.5 302.512L1637 289.512L1636.5 288.512L1626 291.512L1624.5 294.012Z" fill="white"/>
<path fill-rule="evenodd" clip-rule="evenodd" d="M1379.88 331.551L1360.64 315.499C1358.3 313.548 1354.81 313.888 1352.9 316.256V316.256C1351.17 318.384 1351.29 321.461 1353.17 323.449L1370.44 341.679L1359.33 351.346C1353.39 356.518 1353.96 365.913 1360.48 370.331L1401.87 398.371C1401.95 398.426 1402.04 398.475 1402.13 398.518L1411.54 403.041L1425.97 377.17C1426.42 376.371 1426.26 375.371 1425.6 374.742L1379.88 331.551Z" fill="#4372D6" stroke="white" stroke-width="2" stroke-linecap="round"/>
<path d="M1530 992.512L1596.15 644.512H1710.9L1773 992.512" stroke="white" stroke-width="2"/>
<path fill-rule="evenodd" clip-rule="evenodd" d="M1710.7 338.512C1745.11 338.512 1773 366.405 1773 400.812V577.012C1773 610.087 1749.21 637.606 1717.81 643.392C1714.94 644.123 1711.94 644.512 1708.85 644.512H1705.5H1679.45H1550.15C1530.19 644.512 1514 628.325 1514 608.358C1514 588.39 1530.19 572.204 1550.15 572.204H1612.1C1612.32 569.257 1612.73 566.283 1613.35 563.297L1649.7 388.154C1655.7 359.241 1681.17 338.512 1710.7 338.512Z" fill="#4372D6"/>
<path d="M1717.81 643.392L1717.56 642.423L1717.59 642.415L1717.63 642.409L1717.81 643.392ZM1612.1 572.204L1613.1 572.277L1613.03 573.204H1612.1V572.204ZM1613.35 563.297L1614.33 563.5L1614.33 563.5L1613.35 563.297ZM1649.7 388.154L1648.72 387.95L1648.72 387.95L1649.7 388.154ZM1772 400.812C1772 366.957 1744.55 339.512 1710.7 339.512V337.512C1745.66 337.512 1774 365.852 1774 400.812H1772ZM1772 577.012V400.812H1774V577.012H1772ZM1717.63 642.409C1748.56 636.709 1772 609.596 1772 577.012H1774C1774 610.578 1749.86 638.504 1717.99 644.376L1717.63 642.409ZM1708.85 643.512C1711.86 643.512 1714.78 643.134 1717.56 642.423L1718.06 644.361C1715.11 645.113 1712.02 645.512 1708.85 645.512V643.512ZM1705.5 643.512H1708.85V645.512H1705.5V643.512ZM1679.45 643.512H1705.5V645.512H1679.45V643.512ZM1550.15 643.512H1679.45V645.512H1550.15V643.512ZM1515 608.358C1515 627.773 1530.74 643.512 1550.15 643.512V645.512C1529.63 645.512 1513 628.877 1513 608.358H1515ZM1550.15 573.204C1530.74 573.204 1515 588.943 1515 608.358H1513C1513 587.838 1529.63 571.204 1550.15 571.204V573.204ZM1612.1 573.204H1550.15V571.204H1612.1V573.204ZM1614.33 563.5C1613.72 566.444 1613.31 569.374 1613.1 572.277L1611.11 572.13C1611.33 569.139 1611.75 566.123 1612.37 563.093L1614.33 563.5ZM1650.68 388.357L1614.33 563.5L1612.37 563.093L1648.72 387.95L1650.68 388.357ZM1710.7 339.512C1681.64 339.512 1656.58 359.908 1650.68 388.357L1648.72 387.95C1654.82 358.574 1680.7 337.512 1710.7 337.512V339.512Z" fill="white"/>
<path fill-rule="evenodd" clip-rule="evenodd" d="M1592.5 516.512L1481.08 505.496C1446.5 502.077 1416.93 530.131 1418.53 564.844L1425 705.056L1232.85 892.41L1280.18 945.433L1433.5 817.012L1440 929.012L1515.5 929.012L1511.5 747.512L1667.46 628.57L1714.23 594.415C1727.49 584.725 1733.89 568.19 1730.6 552.093L1721.5 507.512L1634.73 480.15L1592.5 516.512Z" fill="#2A56B5"/>
<mask id="mask0" mask-type="alpha" maskUnits="userSpaceOnUse" x="1158" y="371" width="655" height="684">
<path fill-rule="evenodd" clip-rule="evenodd" d="M1592.5 516.512L1481.08 505.496C1446.5 502.077 1416.93 530.131 1418.53 564.844L1425 705.056L1232.85 892.41L1280.18 945.433L1433.5 817.012L1440 929.012L1515.5 929.012L1511.5 747.512L1667.46 628.57L1714.23 594.415C1727.49 584.725 1733.89 568.19 1730.6 552.093L1721.5 507.512L1634.73 480.15L1592.5 516.512Z" fill="white"/>
</mask>
<g mask="url(#mask0)">
<path fill-rule="evenodd" clip-rule="evenodd" d="M1676 509.512C1676 509.512 1683.74 544.512 1728 544.512C1751.42 544.512 1744.36 509.213 1708.76 494.512C1699.5 490.692 1676 509.512 1676 509.512ZM1431 819.512L1513 746.512L1512.76 789.012L1436.76 849.512L1431 819.512ZM1415.5 494.012L1417.21 675.851L1422.96 705.851L1597.76 542.512L1606.26 505.512L1415.5 494.012Z" fill="white"/>
</g>
<path fill-rule="evenodd" clip-rule="evenodd" d="M1590.26 313.012L1508.26 420.512L1415.26 350.512L1368.26 388.512L1495.04 497.635C1507.29 508.181 1525.9 506.189 1535.65 493.289L1644.25 349.512L1590.26 313.012Z" fill="#4372D6" stroke="white" stroke-width="2" stroke-linecap="round"/>
<path fill-rule="evenodd" clip-rule="evenodd" d="M1620.17 306.179L1600.99 307.059C1590.5 307.541 1582.4 316.429 1582.88 326.911C1582.9 327.469 1582.95 328.025 1583.03 328.578L1606.75 504.512L1724.75 504.512L1722.82 489.876L1725.73 323.342C1725.91 312.851 1717.56 304.197 1707.06 304.013C1706.92 304.011 1706.78 304.01 1706.64 304.011V304.011L1669.63 304.194" fill="#4372D6"/>
<path d="M1620.17 306.179L1600.99 307.059C1590.5 307.541 1582.4 316.429 1582.88 326.911C1582.9 327.469 1582.95 328.025 1583.03 328.578L1606.75 504.512L1724.75 504.512L1722.82 489.876L1725.73 323.342C1725.91 312.851 1717.56 304.197 1707.06 304.013C1706.92 304.011 1706.78 304.01 1706.64 304.011V304.011L1669.63 304.194" stroke="white" stroke-width="2"/>
<path fill-rule="evenodd" clip-rule="evenodd" d="M1488.84 430.766L1529.87 545.654L1619.47 549.444L1579.34 430.766L1488.84 430.766Z" fill="#4372D6" stroke="white" stroke-width="2" stroke-linecap="round"/>
<path fill-rule="evenodd" clip-rule="evenodd" d="M1637.19 492.142L1660.5 489.012L1674 519.012L1642.87 529.954C1642.87 529.954 1623.35 540.27 1617.5 543.012C1614.51 544.415 1608.16 544.382 1602.67 544.015C1596.55 543.605 1591.24 539.882 1588.22 534.535L1581.5 522.591C1577.53 515.55 1582.2 506.77 1590.25 506.12L1597.22 505.558C1600.7 505.278 1603.03 501.848 1602 498.512V498.512L1601 494.012L1637.19 492.142Z" fill="#4372D6" stroke="white" stroke-width="2"/>
<path fill-rule="evenodd" clip-rule="evenodd" d="M1733.96 302.456C1708.52 303.221 1691.31 328.688 1700.08 352.581L1738.25 456.512L1653.61 482.692L1671.75 524.012L1785.6 504.194C1802.67 501.222 1812.97 483.611 1807.2 467.272L1753.68 315.955C1750.74 307.648 1742.77 302.191 1733.96 302.456V302.456Z" fill="#4372D6" stroke="white" stroke-width="2" stroke-linecap="round"/>
<path fill-rule="evenodd" clip-rule="evenodd" d="M1624.5 293.012L1624.5 306.012C1624.5 306.012 1623.08 310.006 1626 313.512C1628.92 317.017 1642 327.012 1642 327.012C1642 327.012 1655.66 317.88 1660 313.012C1664.34 308.144 1662.5 304.012 1662.5 304.012L1660.86 272.982L1662.69 255.593C1663.49 237.547 1648.39 226.514 1631.05 229.099C1612.24 231.904 1607.21 245.364 1603.04 264.155C1598.87 282.946 1602.28 291.212 1620.99 291.865C1622.03 291.902 1623.15 291.854 1624.35 291.723C1627.78 291.349 1636.71 288.574 1636.71 288.574" fill="#4372D6"/>
<path d="M1624.5 293.012L1624.5 306.012C1624.5 306.012 1623.08 310.006 1626 313.512C1628.92 317.017 1642 327.012 1642 327.012C1642 327.012 1655.66 317.88 1660 313.012C1664.34 308.144 1662.5 304.012 1662.5 304.012L1660.86 272.982L1662.69 255.593C1663.49 237.547 1648.39 226.514 1631.05 229.099C1612.24 231.904 1607.21 245.364 1603.04 264.155C1598.87 282.946 1602.28 291.212 1620.99 291.865C1622.03 291.902 1623.15 291.854 1624.35 291.723C1627.78 291.349 1636.71 288.574 1636.71 288.574" stroke="white" stroke-width="2" stroke-linecap="round"/>
<path fill-rule="evenodd" clip-rule="evenodd" d="M1650.5 278.278C1654.24 276.394 1656.89 272.4 1657.05 267.693C1657.29 260.991 1652.39 255.381 1646.12 255.162C1643.87 255.084 1641.75 255.71 1639.95 256.854" fill="#4372D6"/>
<path d="M1650.5 278.278C1654.24 276.394 1656.89 272.4 1657.05 267.693C1657.29 260.991 1652.39 255.381 1646.12 255.162C1643.87 255.084 1641.75 255.71 1639.95 256.854" stroke="white" stroke-width="2" stroke-linecap="round"/>
<path fill-rule="evenodd" clip-rule="evenodd" d="M1638.62 260.074L1639 251.512C1639 251.512 1625.45 248.465 1621 246.512C1616.55 244.558 1612.57 239.9 1612.57 239.9C1612.57 239.9 1600.58 238.596 1602 236.512C1609.5 225.512 1637.18 226.951 1640.5 227.512C1648.65 228.89 1651.12 233.169 1651.12 233.169C1651.12 233.169 1651.68 234.37 1658.94 239.967C1666.21 245.565 1662.39 271.535 1662.39 271.535L1656.42 270.856L1655.59 270.966C1655.92 270.018 1656.11 269.007 1656.15 267.953C1656.35 262.223 1651.87 257.415 1646.14 257.216C1643.24 257.114 1640.57 258.216 1638.62 260.074Z" fill="white"/>
<path fill-rule="evenodd" clip-rule="evenodd" d="M1624 301.512C1624 301.512 1611.5 303.012 1613 309.512C1614.5 316.012 1615.65 330.012 1615.65 330.012L1639.15 314.512C1639.15 314.512 1630.17 315.301 1627.5 313.012C1624.83 310.722 1624 301.512 1624 301.512Z" fill="#4372D6" stroke="white" stroke-width="2" stroke-linecap="round"/>
<path fill-rule="evenodd" clip-rule="evenodd" d="M1639 314.512L1642 327.512L1630 321.012L1639 314.512Z" fill="#4372D6" stroke="white" stroke-width="2" stroke-linecap="round"/>
<path fill-rule="evenodd" clip-rule="evenodd" d="M1662.5 298.512C1662.5 298.512 1674.84 298.72 1674.03 305.341C1673.22 311.962 1669.76 326.905 1669.76 326.905L1644.77 313.947C1644.77 313.947 1656.97 311.726 1660 309.012C1663.03 306.297 1662.5 298.512 1662.5 298.512Z" fill="#4372D6" stroke="white" stroke-width="2" stroke-linecap="round"/>
<path fill-rule="evenodd" clip-rule="evenodd" d="M1644.92 313.931L1643.29 327.173L1654.55 319.455L1644.92 313.931Z" fill="#4372D6" stroke="white" stroke-width="2" stroke-linecap="round"/>
<path fill-rule="evenodd" clip-rule="evenodd" d="M519.407 914.045C519.407 914.045 547.036 948.099 553.647 947.103C560.257 946.108 549.113 909.571 549.113 909.571L494.376 561.357C490.918 539.358 469.772 524.716 447.963 529.218L240.694 572.012L428.194 641.914L519.407 914.045Z" fill="#4372D6" stroke="white" stroke-width="2"/>
<path fill-rule="evenodd" clip-rule="evenodd" d="M396.579 474.876C398.834 474.156 401.279 475.154 402.386 477.245V477.245C402.998 478.401 402.874 479.807 402.071 480.838L398.338 485.628C396.422 488.087 393.919 490.018 391.096 491.338C388.095 492.741 384.055 494.712 380.723 496.623V496.623C371.882 501.695 362.16 505.33 351.967 505.383L317.401 505.563L297.311 505.015L306.256 489.02L329.393 483.696C338.073 481.699 347.036 481.243 355.874 482.349L359.276 482.775C359.276 482.775 366.144 484.011 371.328 482.671C375.203 481.67 389.572 477.113 396.579 474.876Z" fill="#4372D6" stroke="white" stroke-width="2"/>
<path fill-rule="evenodd" clip-rule="evenodd" d="M394.128 606.05C396.109 606.328 397.941 604.948 398.22 602.966C398.498 600.985 397.118 599.153 395.136 598.874C393.155 598.596 391.323 599.976 391.044 601.958C390.766 603.939 392.146 605.771 394.128 606.05Z" fill="#4372D6"/>
<path fill-rule="evenodd" clip-rule="evenodd" d="M406.087 607.73C408.068 608.009 409.9 606.628 410.178 604.647C410.457 602.665 409.076 600.833 407.095 600.555C405.114 600.277 403.282 601.657 403.003 603.638C402.725 605.62 404.105 607.452 406.087 607.73Z" fill="#4372D6"/>
<path fill-rule="evenodd" clip-rule="evenodd" d="M418.045 609.411C420.027 609.689 421.859 608.309 422.137 606.327C422.416 604.346 421.035 602.514 419.054 602.236C417.072 601.957 415.24 603.338 414.962 605.319C414.684 607.3 416.064 609.132 418.045 609.411Z" fill="#4372D6"/>
<path fill-rule="evenodd" clip-rule="evenodd" d="M382.194 918.914C382.194 918.914 391.352 961.8 397.694 963.914C404.036 966.028 410.694 928.414 410.694 928.414L516.027 605.509C524.25 580.302 505.464 554.414 478.95 554.414L297.251 554.414C297.251 554.414 256.513 534.353 223.751 530.914C190.989 527.475 198.251 539.414 198.251 539.414L200.601 612.601C201.242 632.563 217.61 648.414 237.582 648.414L422.694 648.414L382.194 918.914Z" fill="#4372D6" stroke="white" stroke-width="2"/>
<path fill-rule="evenodd" clip-rule="evenodd" d="M243.5 336.512L237 363.512H206.5L222 322.012L243.5 336.512Z" fill="#4372D6"/>
<path fill-rule="evenodd" clip-rule="evenodd" d="M233.768 478.791L312.624 475.724C319.804 475.445 326.385 479.71 329.061 486.379L341.36 517.02L259.553 519.6C238.555 520.262 224.334 498.422 233.434 479.486L233.768 478.791Z" fill="#4372D6" stroke="white" stroke-width="2" stroke-linecap="round"/>
<path fill-rule="evenodd" clip-rule="evenodd" d="M461.335 416.161L367.04 401.226L331.736 512.068L424.177 526.709L461.335 416.161Z" fill="#4372D6" stroke="white" stroke-width="2" stroke-linecap="round"/>
<path fill-rule="evenodd" clip-rule="evenodd" d="M456.759 419.486L369.139 405.608L340.322 496.216L426.218 509.82L456.759 419.486Z" fill="#4372D6" stroke="white" stroke-width="2" stroke-linecap="round"/>
<path fill-rule="evenodd" clip-rule="evenodd" d="M377.952 514.325C380.134 514.671 382.183 513.182 382.529 511C382.874 508.818 381.386 506.769 379.204 506.424C377.022 506.078 374.973 507.567 374.627 509.749C374.282 511.931 375.77 513.98 377.952 514.325Z" fill="#4372D6" stroke="white" stroke-width="2" stroke-linecap="round"/>
<path fill-rule="evenodd" clip-rule="evenodd" d="M354.63 502.412L378.205 493.911C381.071 492.877 384.229 494.389 385.222 497.269V497.269C386.114 499.859 384.95 502.709 382.5 503.934L360.041 515.159L367.169 528.041C370.983 534.932 367.235 543.567 359.596 545.488L311.115 557.682C311.02 557.706 310.923 557.723 310.825 557.733L300.435 558.765L295.72 529.517C295.574 528.613 296.061 527.726 296.901 527.363L354.63 502.412Z" fill="#4372D6" stroke="white" stroke-width="2" stroke-linecap="round"/>
<path fill-rule="evenodd" clip-rule="evenodd" d="M407.539 555.159L296.751 554.683C296.751 554.683 256.013 534.621 223.251 531.183C190.489 527.744 175.251 539.914 175.251 539.914L184.693 616.537C186.978 635.081 202.73 649.012 221.415 649.012L390.694 649.012L407.539 555.159Z" fill="#2A56B5"/>
<path fill-rule="evenodd" clip-rule="evenodd" d="M174.046 387.102C174.714 372.317 187.159 360.825 201.95 361.336L233.194 362.414L271.69 367.005L227.36 500.796L237.071 526.414L175.194 540.012L170.377 490.527C169.922 485.856 169.8 481.159 170.012 476.471L174.046 387.102Z" fill="#4372D6" stroke="white" stroke-width="2" stroke-linecap="round"/>
<path fill-rule="evenodd" clip-rule="evenodd" d="M276.674 364.641C284.607 364.129 291.237 370.601 290.917 378.545L285.424 514.807L307.613 512.13C313.822 511.381 319.941 514.102 323.544 519.214L344.194 548.512L259.813 572.998C241.37 578.349 223.136 563.969 224.041 544.787L230.319 411.801C231.51 386.572 251.469 366.266 276.674 364.641V364.641Z" fill="#4372D6" stroke="white" stroke-width="2" stroke-linecap="round"/>
<path fill-rule="evenodd" clip-rule="evenodd" d="M243.195 337.124L236.228 363.155L238.16 363.672L245.127 337.641L243.195 337.124ZM202.193 360.749L217.094 318.8L215.21 318.13L200.309 360.079L202.193 360.749Z" fill="#4372D6"/>
<path d="M236.228 363.155L235.97 364.121L235.004 363.863L235.262 362.897L236.228 363.155ZM243.195 337.124L242.229 336.866L242.487 335.9L243.453 336.158L243.195 337.124ZM238.16 363.672L239.126 363.931L238.868 364.897L237.902 364.638L238.16 363.672ZM245.127 337.641L245.386 336.675L246.352 336.934L246.093 337.9L245.127 337.641ZM217.094 318.8L217.429 317.857L218.372 318.192L218.037 319.134L217.094 318.8ZM202.193 360.749L203.136 361.083L202.801 362.026L201.858 361.691L202.193 360.749ZM215.21 318.13L214.268 317.796L214.602 316.853L215.545 317.188L215.21 318.13ZM200.309 360.079L199.974 361.021L199.032 360.687L199.366 359.744L200.309 360.079ZM235.262 362.897L242.229 336.866L244.161 337.383L237.194 363.414L235.262 362.897ZM237.902 364.638L235.97 364.121L236.487 362.189L238.419 362.706L237.902 364.638ZM246.093 337.9L239.126 363.931L237.194 363.414L244.161 337.383L246.093 337.9ZM243.453 336.158L245.386 336.675L244.868 338.607L242.936 338.09L243.453 336.158ZM218.037 319.134L203.136 361.083L201.251 360.414L216.152 318.465L218.037 319.134ZM215.545 317.188L217.429 317.857L216.76 319.742L214.875 319.073L215.545 317.188ZM199.366 359.744L214.268 317.796L216.152 318.465L201.251 360.414L199.366 359.744ZM201.858 361.691L199.974 361.021L200.643 359.137L202.528 359.806L201.858 361.691Z" fill="white"/>
<path fill-rule="evenodd" clip-rule="evenodd" d="M145.194 648.414H441.194L293.194 999.012L145.194 648.414Z" fill="#4372D6" stroke="white" stroke-width="2" stroke-linecap="round"/>
<path fill-rule="evenodd" clip-rule="evenodd" d="M214.694 322.512L212.447 307.736C210.854 291.282 224.127 280.476 240.106 282.007C257.448 283.669 261.713 292.715 266.426 309.686C271.139 326.658 268.732 336.35 251.649 337.845C246.209 338.321 237.779 336.629 237.779 336.629" fill="#4372D6"/>
<path d="M214.694 322.512L212.447 307.736C210.854 291.282 224.127 280.476 240.106 282.007C257.448 283.669 261.713 292.715 266.426 309.686C271.139 326.658 268.732 336.35 251.649 337.845C246.209 338.321 237.779 336.629 237.779 336.629" stroke="white" stroke-width="2" stroke-linecap="round"/>
<path fill-rule="evenodd" clip-rule="evenodd" d="M224.679 327.881C221.172 326.338 218.558 322.816 218.182 318.522C217.647 312.409 221.853 307.048 227.576 306.547C229.629 306.368 231.599 306.838 233.305 307.798" fill="#4372D6"/>
<path d="M224.679 327.881C221.172 326.338 218.558 322.816 218.182 318.522C217.647 312.409 221.853 307.048 227.576 306.547C229.629 306.368 231.599 306.838 233.305 307.798" stroke="white" stroke-width="2" stroke-linecap="round"/>
<path fill-rule="evenodd" clip-rule="evenodd" d="M222.704 308.512C222.704 308.512 225.273 306.085 226.835 305.832C229.352 305.426 233.694 308.012 233.694 308.012C233.694 308.012 247.694 298.512 253.194 294.512C258.694 290.512 259.194 290.512 259.194 290.512V290.512C251.551 280.155 237.278 277.391 226.218 283.975C223.885 285.364 221.774 286.607 220.194 287.512C214.654 290.685 213.2 299.892 212.823 303.996C212.7 305.339 212.79 306.682 212.981 308.017L215.194 323.512C215.194 323.512 217.757 318.163 220.194 313.012C220.903 311.514 222.704 308.512 222.704 308.512Z" fill="white"/>
<path fill-rule="evenodd" clip-rule="evenodd" d="M239.251 336.414L238.161 358.383L239.35 356.534L243.661 337.883L239.251 336.414Z" fill="white"/>
<path fill-rule="evenodd" clip-rule="evenodd" d="M285.194 514.914V529.914Z" fill="#4372D6"/>
<path d="M285.194 514.914V529.914" stroke="white" stroke-width="2" stroke-linecap="round"/>
<path fill-rule="evenodd" clip-rule="evenodd" d="M404.679 648.414H461.853Z" fill="#4372D6"/>
<path d="M404.679 648.414H461.853" stroke="white" stroke-width="2" stroke-linecap="round"/>
<path fill-rule="evenodd" clip-rule="evenodd" d="M407.694 554.012L418.694 535.012L321.694 554.012H407.694Z" fill="white"/>
<path fill-rule="evenodd" clip-rule="evenodd" d="M221.194 286.012C221.194 286.012 214.518 291.367 212.694 294.012C185.799 333.012 175.194 353.639 175.194 355.512C175.194 356.92 178.829 361.081 182.687 365.102C187.318 369.929 195.136 369.12 198.986 363.649L201.194 360.512C201.194 360.512 221.733 363.712 223.694 350.512C224.105 347.746 223.694 328.512 223.694 328.512C223.694 328.512 220.764 326.964 219.194 323.512C217.625 320.059 221.194 286.012 221.194 286.012Z" fill="white"/>
</g>
<defs>
<clipPath id="clip0">
<rect width="1920" height="720" fill="white"/>
</clipPath>
</defs>
</svg>
