
<svg width="1920" height="720" viewBox="0 0 1920 720" fill="none" xmlns="http://www.w3.org/2000/svg">
<g clip-path="url(#clip0)">
<rect width="1920" height="720" fill="#4372D6"/>
<path fill-rule="evenodd" clip-rule="evenodd" d="M1713.6 337.012L1713.6 345.512L1726.1 332.512L1725.6 331.512L1715.1 334.512L1713.6 337.012Z" fill="white"/>
<path fill-rule="evenodd" clip-rule="evenodd" d="M1468.98 374.551L1449.74 358.499C1447.4 356.548 1443.91 356.888 1442 359.256V359.256C1440.27 361.384 1440.39 364.461 1442.27 366.449L1459.54 384.679L1448.44 394.346C1442.49 399.518 1443.06 408.913 1449.58 413.331L1490.97 441.371C1491.05 441.426 1491.14 441.475 1491.23 441.518L1500.64 446.041L1515.07 420.17C1515.52 419.371 1515.36 418.371 1514.7 417.742L1468.98 374.551Z" fill="#4372D6" stroke="white" stroke-width="2" stroke-linecap="round"/>
<path d="M1619.1 1035.51L1685.25 687.512H1800L1862.1 1035.51" stroke="white" stroke-width="2"/>
<path fill-rule="evenodd" clip-rule="evenodd" d="M1799.8 381.512C1834.21 381.512 1862.1 409.405 1862.1 443.812V620.012C1862.1 653.087 1838.31 680.606 1806.91 686.392C1804.04 687.123 1801.04 687.512 1797.95 687.512H1794.6H1768.55H1639.26C1619.29 687.512 1603.1 671.325 1603.1 651.358C1603.1 631.39 1619.29 615.204 1639.26 615.204H1701.2C1701.42 612.257 1701.83 609.283 1702.45 606.297L1738.8 431.154C1744.8 402.241 1770.27 381.512 1799.8 381.512Z" fill="#4372D6"/>
<path d="M1806.91 686.392L1806.66 685.423L1806.7 685.415L1806.73 685.409L1806.91 686.392ZM1701.2 615.204L1702.2 615.277L1702.13 616.204H1701.2V615.204ZM1702.45 606.297L1703.43 606.5L1703.43 606.5L1702.45 606.297ZM1738.8 431.154L1737.82 430.95L1737.82 430.95L1738.8 431.154ZM1861.1 443.812C1861.1 409.957 1833.66 382.512 1799.8 382.512V380.512C1834.76 380.512 1863.1 408.852 1863.1 443.812H1861.1ZM1861.1 620.012V443.812H1863.1V620.012H1861.1ZM1806.73 685.409C1837.66 679.709 1861.1 652.596 1861.1 620.012H1863.1C1863.1 653.578 1838.96 681.504 1807.09 687.376L1806.73 685.409ZM1797.95 686.512C1800.96 686.512 1803.88 686.134 1806.66 685.423L1807.16 687.361C1804.21 688.113 1801.12 688.512 1797.95 688.512V686.512ZM1794.6 686.512H1797.95V688.512H1794.6V686.512ZM1768.55 686.512H1794.6V688.512H1768.55V686.512ZM1639.26 686.512H1768.55V688.512H1639.26V686.512ZM1604.1 651.358C1604.1 670.773 1619.84 686.512 1639.26 686.512V688.512C1618.74 688.512 1602.1 671.877 1602.1 651.358H1604.1ZM1639.26 616.204C1619.84 616.204 1604.1 631.943 1604.1 651.358H1602.1C1602.1 630.838 1618.74 614.204 1639.26 614.204V616.204ZM1701.2 616.204H1639.26V614.204H1701.2V616.204ZM1703.43 606.5C1702.82 609.444 1702.42 612.374 1702.2 615.277L1700.21 615.13C1700.43 612.139 1700.85 609.123 1701.48 606.093L1703.43 606.5ZM1739.78 431.357L1703.43 606.5L1701.48 606.093L1737.82 430.95L1739.78 431.357ZM1799.8 382.512C1770.75 382.512 1745.68 402.908 1739.78 431.357L1737.82 430.95C1743.92 401.574 1769.8 380.512 1799.8 380.512V382.512Z" fill="white"/>
<path fill-rule="evenodd" clip-rule="evenodd" d="M1681.6 559.512L1570.18 548.496C1535.6 545.077 1506.04 573.131 1507.64 607.844L1514.1 748.056L1321.95 935.41L1369.28 988.433L1522.6 860.012L1529.1 972.012L1604.6 972.012L1600.6 790.512L1756.56 671.57L1803.33 637.415C1816.59 627.725 1822.99 611.19 1819.71 595.093L1810.6 550.512L1723.83 523.15L1681.6 559.512Z" fill="#2A56B5"/>
<mask id="mask0" mask-type="alpha" maskUnits="userSpaceOnUse" x="1247" y="414" width="655" height="684">
<path fill-rule="evenodd" clip-rule="evenodd" d="M1681.6 559.512L1570.18 548.496C1535.6 545.077 1506.04 573.131 1507.64 607.844L1514.1 748.056L1321.95 935.41L1369.28 988.433L1522.6 860.012L1529.1 972.012L1604.6 972.012L1600.6 790.512L1756.56 671.57L1803.33 637.415C1816.59 627.725 1822.99 611.19 1819.71 595.093L1810.6 550.512L1723.83 523.15L1681.6 559.512Z" fill="white"/>
</mask>
<g mask="url(#mask0)">
<path fill-rule="evenodd" clip-rule="evenodd" d="M1765.1 552.512C1765.1 552.512 1772.84 587.512 1817.1 587.512C1840.52 587.512 1833.46 552.213 1797.86 537.512C1788.61 533.692 1765.1 552.512 1765.1 552.512ZM1520.1 862.512L1602.1 789.512L1601.86 832.012L1525.86 892.512L1520.1 862.512ZM1504.6 537.012L1506.31 718.851L1512.06 748.851L1686.86 585.512L1695.36 548.512L1504.6 537.012Z" fill="white"/>
</g>
<path fill-rule="evenodd" clip-rule="evenodd" d="M1679.36 356.012L1597.36 463.512L1504.36 393.512L1457.36 431.512L1584.14 540.635C1596.39 551.181 1615 549.189 1624.75 536.289L1733.35 392.512L1679.36 356.012Z" fill="#4372D6" stroke="white" stroke-width="2" stroke-linecap="round"/>
<path fill-rule="evenodd" clip-rule="evenodd" d="M1709.27 349.179L1690.09 350.059C1679.6 350.541 1671.5 359.429 1671.98 369.911C1672 370.469 1672.05 371.025 1672.13 371.578L1695.85 547.512L1813.85 547.512L1811.92 532.876L1814.83 366.342C1815.01 355.851 1806.66 347.197 1796.17 347.013C1796.02 347.011 1795.88 347.01 1795.74 347.011V347.011L1758.73 347.194" fill="#4372D6"/>
<path d="M1709.27 349.179L1690.09 350.059C1679.6 350.541 1671.5 359.429 1671.98 369.911C1672 370.469 1672.05 371.025 1672.13 371.578L1695.85 547.512L1813.85 547.512L1811.92 532.876L1814.83 366.342C1815.01 355.851 1806.66 347.197 1796.17 347.013C1796.02 347.011 1795.88 347.01 1795.74 347.011V347.011L1758.73 347.194" stroke="white" stroke-width="2"/>
<path fill-rule="evenodd" clip-rule="evenodd" d="M1577.94 473.766L1618.97 588.654L1708.57 592.444L1668.44 473.766L1577.94 473.766Z" fill="#4372D6" stroke="white" stroke-width="2" stroke-linecap="round"/>
<path fill-rule="evenodd" clip-rule="evenodd" d="M1726.29 535.142L1749.6 532.012L1763.1 562.012L1731.97 572.954C1731.97 572.954 1712.45 583.27 1706.6 586.012C1703.61 587.415 1697.26 587.382 1691.77 587.015C1685.65 586.605 1680.34 582.882 1677.33 577.535L1670.6 565.591C1666.63 558.55 1671.3 549.77 1679.35 549.12L1686.32 548.558C1689.8 548.278 1692.13 544.848 1691.1 541.512V541.512L1690.1 537.012L1726.29 535.142Z" fill="#4372D6" stroke="white" stroke-width="2"/>
<path fill-rule="evenodd" clip-rule="evenodd" d="M1823.06 345.456C1797.62 346.221 1780.41 371.688 1789.18 395.581L1827.35 499.512L1742.72 525.692L1760.85 567.012L1874.7 547.194C1891.77 544.222 1902.08 526.611 1896.3 510.272L1842.78 358.955C1839.84 350.648 1831.87 345.191 1823.06 345.456V345.456Z" fill="#4372D6" stroke="white" stroke-width="2" stroke-linecap="round"/>
<path fill-rule="evenodd" clip-rule="evenodd" d="M1713.6 336.012L1713.6 349.012C1713.6 349.012 1712.18 353.006 1715.1 356.512C1718.02 360.017 1731.1 370.012 1731.1 370.012C1731.1 370.012 1744.76 360.88 1749.1 356.012C1753.44 351.144 1751.6 347.012 1751.6 347.012L1749.96 315.982L1751.79 298.593C1752.59 280.547 1737.5 269.514 1720.16 272.099C1701.34 274.904 1696.31 288.364 1692.14 307.155C1687.97 325.946 1691.38 334.212 1710.09 334.865C1711.13 334.902 1712.25 334.854 1713.46 334.723C1716.88 334.349 1725.81 331.574 1725.81 331.574" fill="#4372D6"/>
<path d="M1713.6 336.012L1713.6 349.012C1713.6 349.012 1712.18 353.006 1715.1 356.512C1718.02 360.017 1731.1 370.012 1731.1 370.012C1731.1 370.012 1744.76 360.88 1749.1 356.012C1753.44 351.144 1751.6 347.012 1751.6 347.012L1749.96 315.982L1751.79 298.593C1752.59 280.547 1737.5 269.514 1720.16 272.099C1701.34 274.904 1696.31 288.364 1692.14 307.155C1687.97 325.946 1691.38 334.212 1710.09 334.865C1711.13 334.902 1712.25 334.854 1713.46 334.723C1716.88 334.349 1725.81 331.574 1725.81 331.574" stroke="white" stroke-width="2" stroke-linecap="round"/>
<path fill-rule="evenodd" clip-rule="evenodd" d="M1739.6 321.278C1743.34 319.394 1745.99 315.4 1746.15 310.693C1746.39 303.991 1741.49 298.381 1735.22 298.162C1732.97 298.084 1730.85 298.71 1729.05 299.854" fill="#4372D6"/>
<path d="M1739.6 321.278C1743.34 319.394 1745.99 315.4 1746.15 310.693C1746.39 303.991 1741.49 298.381 1735.22 298.162C1732.97 298.084 1730.85 298.71 1729.05 299.854" stroke="white" stroke-width="2" stroke-linecap="round"/>
<path fill-rule="evenodd" clip-rule="evenodd" d="M1727.72 303.074L1728.1 294.512C1728.1 294.512 1714.55 291.465 1710.1 289.512C1705.65 287.558 1701.67 282.9 1701.67 282.9C1701.67 282.9 1689.68 281.596 1691.1 279.512C1698.6 268.512 1726.28 269.951 1729.6 270.512C1737.75 271.89 1740.22 276.169 1740.22 276.169C1740.22 276.169 1740.78 277.37 1748.04 282.967C1755.31 288.565 1751.49 314.535 1751.49 314.535L1745.52 313.856L1744.69 313.966C1745.02 313.018 1745.21 312.007 1745.25 310.953C1745.45 305.223 1740.97 300.415 1735.24 300.216C1732.34 300.114 1729.67 301.216 1727.72 303.074Z" fill="white"/>
<path fill-rule="evenodd" clip-rule="evenodd" d="M1713.1 344.512C1713.1 344.512 1700.6 346.012 1702.1 352.512C1703.6 359.012 1704.75 373.012 1704.75 373.012L1728.25 357.512C1728.25 357.512 1719.27 358.301 1716.6 356.012C1713.93 353.722 1713.1 344.512 1713.1 344.512Z" fill="#4372D6" stroke="white" stroke-width="2" stroke-linecap="round"/>
<path fill-rule="evenodd" clip-rule="evenodd" d="M1728.1 357.512L1731.1 370.512L1719.1 364.012L1728.1 357.512Z" fill="#4372D6" stroke="white" stroke-width="2" stroke-linecap="round"/>
<path fill-rule="evenodd" clip-rule="evenodd" d="M1751.6 341.512C1751.6 341.512 1763.94 341.72 1763.13 348.341C1762.32 354.962 1758.86 369.905 1758.86 369.905L1733.87 356.947C1733.87 356.947 1746.07 354.726 1749.1 352.012C1752.13 349.297 1751.6 341.512 1751.6 341.512Z" fill="#4372D6" stroke="white" stroke-width="2" stroke-linecap="round"/>
<path fill-rule="evenodd" clip-rule="evenodd" d="M1734.02 356.931L1732.39 370.173L1743.65 362.455L1734.02 356.931Z" fill="#4372D6" stroke="white" stroke-width="2" stroke-linecap="round"/>
<path fill-rule="evenodd" clip-rule="evenodd" d="M422.407 915.049C422.407 915.049 450.036 949.103 456.647 948.107C463.257 947.112 452.113 910.575 452.113 910.575L397.376 562.361C393.918 540.362 372.772 525.72 350.963 530.222L143.694 573.016L331.194 642.918L422.407 915.049Z" fill="#4372D6" stroke="white" stroke-width="2"/>
<path fill-rule="evenodd" clip-rule="evenodd" d="M299.579 475.88C301.834 475.16 304.279 476.158 305.386 478.25V478.25C305.998 479.405 305.874 480.812 305.071 481.843L301.338 486.632C299.422 489.091 296.919 491.022 294.096 492.342C291.095 493.745 287.055 495.716 283.723 497.627V497.627C274.882 502.7 265.16 506.334 254.967 506.387L220.401 506.567L200.311 506.019L209.256 490.024L232.393 484.7C241.073 482.703 250.036 482.247 258.874 483.353L262.276 483.779C262.276 483.779 269.144 485.015 274.328 483.675C278.203 482.674 292.572 478.117 299.579 475.88Z" fill="#4372D6" stroke="white" stroke-width="2"/>
<path fill-rule="evenodd" clip-rule="evenodd" d="M297.128 607.054C299.109 607.332 300.941 605.952 301.22 603.97C301.498 601.989 300.118 600.157 298.136 599.878C296.155 599.6 294.323 600.981 294.044 602.962C293.766 604.943 295.146 606.775 297.128 607.054Z" fill="#4372D6"/>
<path fill-rule="evenodd" clip-rule="evenodd" d="M309.087 608.734C311.068 609.013 312.9 607.632 313.178 605.651C313.457 603.67 312.076 601.838 310.095 601.559C308.114 601.281 306.282 602.661 306.003 604.643C305.725 606.624 307.105 608.456 309.087 608.734Z" fill="#4372D6"/>
<path fill-rule="evenodd" clip-rule="evenodd" d="M321.045 610.415C323.027 610.694 324.859 609.313 325.137 607.332C325.416 605.35 324.035 603.518 322.054 603.24C320.072 602.961 318.24 604.342 317.962 606.323C317.684 608.305 319.064 610.137 321.045 610.415Z" fill="#4372D6"/>
<path fill-rule="evenodd" clip-rule="evenodd" d="M285.194 919.918C285.194 919.918 294.352 962.804 300.694 964.918C307.036 967.032 313.694 929.418 313.694 929.418L419.027 606.513C427.25 581.306 408.464 555.418 381.95 555.418L200.251 555.418C200.251 555.418 159.513 535.357 126.751 531.918C93.9886 528.48 101.251 540.418 101.251 540.418L103.601 613.606C104.242 633.568 120.61 649.418 140.582 649.418L325.694 649.418L285.194 919.918Z" fill="#4372D6" stroke="white" stroke-width="2"/>
<path fill-rule="evenodd" clip-rule="evenodd" d="M146.5 337.516L140 364.516H109.5L125 323.016L146.5 337.516Z" fill="#4372D6"/>
<path fill-rule="evenodd" clip-rule="evenodd" d="M136.768 479.795L215.624 476.728C222.804 476.449 229.385 480.715 232.061 487.383L244.36 518.024L162.553 520.604C141.555 521.267 127.334 499.426 136.434 480.49L136.768 479.795Z" fill="#4372D6" stroke="white" stroke-width="2" stroke-linecap="round"/>
<path fill-rule="evenodd" clip-rule="evenodd" d="M364.335 417.165L270.04 402.23L234.736 513.072L327.177 527.713L364.335 417.165Z" fill="#4372D6" stroke="white" stroke-width="2" stroke-linecap="round"/>
<path fill-rule="evenodd" clip-rule="evenodd" d="M359.759 420.49L272.139 406.612L243.322 497.22L329.218 510.825L359.759 420.49Z" fill="#4372D6" stroke="white" stroke-width="2" stroke-linecap="round"/>
<path fill-rule="evenodd" clip-rule="evenodd" d="M280.952 515.329C283.134 515.675 285.183 514.186 285.529 512.004C285.874 509.823 284.386 507.774 282.204 507.428C280.022 507.082 277.973 508.571 277.627 510.753C277.282 512.935 278.77 514.984 280.952 515.329Z" fill="#4372D6" stroke="white" stroke-width="2" stroke-linecap="round"/>
<path fill-rule="evenodd" clip-rule="evenodd" d="M257.63 503.416L281.205 494.915C284.071 493.881 287.229 495.393 288.222 498.274V498.274C289.114 500.863 287.95 503.713 285.5 504.938L263.041 516.163L270.169 529.045C273.983 535.937 270.235 544.571 262.596 546.492L214.115 558.686C214.02 558.71 213.923 558.727 213.825 558.737L203.435 559.769L198.72 530.521C198.574 529.617 199.061 528.73 199.901 528.367L257.63 503.416Z" fill="#4372D6" stroke="white" stroke-width="2" stroke-linecap="round"/>
<path fill-rule="evenodd" clip-rule="evenodd" d="M310.539 556.163L199.751 555.687C199.751 555.687 159.013 535.626 126.251 532.187C93.4885 528.748 78.2509 540.918 78.2509 540.918L87.6926 617.541C89.9777 636.085 105.73 650.016 124.415 650.016L293.694 650.016L310.539 556.163Z" fill="#2A56B5"/>
<path fill-rule="evenodd" clip-rule="evenodd" d="M77.0462 388.106C77.7136 373.321 90.1589 361.829 104.95 362.34L136.194 363.418L174.69 368.009L130.36 501.801L140.071 527.418L78.1942 541.016L73.3771 491.531C72.9224 486.86 72.8004 482.163 73.012 477.475L77.0462 388.106Z" fill="#4372D6" stroke="white" stroke-width="2" stroke-linecap="round"/>
<path fill-rule="evenodd" clip-rule="evenodd" d="M179.674 365.645C187.607 365.133 194.237 371.605 193.917 379.549L188.424 515.811L210.613 513.134C216.822 512.385 222.941 515.106 226.544 520.218L247.194 549.516L162.813 574.002C144.37 579.354 126.136 564.973 127.041 545.791L133.319 412.805C134.51 387.576 154.469 367.27 179.674 365.645V365.645Z" fill="#4372D6" stroke="white" stroke-width="2" stroke-linecap="round"/>
<path fill-rule="evenodd" clip-rule="evenodd" d="M146.195 338.129L139.228 364.16L141.16 364.677L148.127 338.646L146.195 338.129ZM105.193 361.753L120.094 319.804L118.21 319.135L103.309 361.083L105.193 361.753Z" fill="#4372D6"/>
<path d="M139.228 364.16L138.97 365.126L138.004 364.867L138.262 363.901L139.228 364.16ZM146.195 338.129L145.229 337.87L145.487 336.904L146.453 337.163L146.195 338.129ZM141.16 364.677L142.126 364.935L141.868 365.901L140.902 365.643L141.16 364.677ZM148.127 338.646L148.385 337.68L149.351 337.938L149.093 338.904L148.127 338.646ZM120.094 319.804L120.429 318.862L121.372 319.197L121.037 320.139L120.094 319.804ZM105.193 361.753L106.135 362.088L105.801 363.03L104.858 362.695L105.193 361.753ZM118.21 319.135L117.268 318.8L117.602 317.858L118.545 318.192L118.21 319.135ZM103.309 361.083L102.974 362.026L102.031 361.691L102.366 360.749L103.309 361.083ZM138.262 363.901L145.229 337.87L147.161 338.387L140.194 364.418L138.262 363.901ZM140.902 365.643L138.97 365.126L139.487 363.194L141.419 363.711L140.902 365.643ZM149.093 338.904L142.126 364.935L140.194 364.418L147.161 338.387L149.093 338.904ZM146.453 337.163L148.385 337.68L147.868 339.612L145.936 339.095L146.453 337.163ZM121.037 320.139L106.135 362.088L104.251 361.418L119.152 319.469L121.037 320.139ZM118.545 318.192L120.429 318.862L119.76 320.746L117.875 320.077L118.545 318.192ZM102.366 360.749L117.268 318.8L119.152 319.469L104.251 361.418L102.366 360.749ZM104.858 362.695L102.974 362.026L103.643 360.141L105.528 360.811L104.858 362.695Z" fill="white"/>
<path fill-rule="evenodd" clip-rule="evenodd" d="M48.1942 649.418H344.194L196.194 1000.02L48.1942 649.418Z" fill="#4372D6" stroke="white" stroke-width="2" stroke-linecap="round"/>
<path fill-rule="evenodd" clip-rule="evenodd" d="M117.694 323.516L115.447 308.74C113.854 292.286 127.127 281.481 143.106 283.012C160.448 284.673 164.713 293.719 169.426 310.691C174.139 327.662 171.732 337.354 154.649 338.849C149.209 339.325 140.779 337.633 140.779 337.633" fill="#4372D6"/>
<path d="M117.694 323.516L115.447 308.74C113.854 292.286 127.127 281.481 143.106 283.012C160.448 284.673 164.713 293.719 169.426 310.691C174.139 327.662 171.732 337.354 154.649 338.849C149.209 339.325 140.779 337.633 140.779 337.633" stroke="white" stroke-width="2" stroke-linecap="round"/>
<path fill-rule="evenodd" clip-rule="evenodd" d="M127.679 328.885C124.172 327.342 121.558 323.82 121.182 319.526C120.647 313.413 124.853 308.052 130.576 307.551C132.629 307.372 134.599 307.842 136.305 308.802" fill="#4372D6"/>
<path d="M127.679 328.885C124.172 327.342 121.558 323.82 121.182 319.526C120.647 313.413 124.853 308.052 130.576 307.551C132.629 307.372 134.599 307.842 136.305 308.802" stroke="white" stroke-width="2" stroke-linecap="round"/>
<path fill-rule="evenodd" clip-rule="evenodd" d="M125.704 309.516C125.704 309.516 128.273 307.089 129.835 306.836C132.352 306.43 136.694 309.016 136.694 309.016C136.694 309.016 150.694 299.516 156.194 295.516C161.694 291.516 162.194 291.516 162.194 291.516V291.516C154.551 281.159 140.278 278.395 129.218 284.979C126.885 286.368 124.774 287.611 123.194 288.516C117.654 291.689 116.2 300.896 115.823 305C115.7 306.343 115.79 307.687 115.981 309.022L118.194 324.516C118.194 324.516 120.757 319.167 123.194 314.016C123.903 312.518 125.704 309.516 125.704 309.516Z" fill="white"/>
<path fill-rule="evenodd" clip-rule="evenodd" d="M142.251 337.418L141.161 359.387L142.35 357.538L146.661 338.887L142.251 337.418Z" fill="white"/>
<path fill-rule="evenodd" clip-rule="evenodd" d="M188.194 515.918V530.918Z" fill="#4372D6"/>
<path d="M188.194 515.918V530.918" stroke="white" stroke-width="2" stroke-linecap="round"/>
<path fill-rule="evenodd" clip-rule="evenodd" d="M307.679 649.418H364.853Z" fill="#4372D6"/>
<path d="M307.679 649.418H364.853" stroke="white" stroke-width="2" stroke-linecap="round"/>
<path fill-rule="evenodd" clip-rule="evenodd" d="M310.694 555.016L321.694 536.016L224.694 555.016H310.694Z" fill="white"/>
<path fill-rule="evenodd" clip-rule="evenodd" d="M124.194 287.016C124.194 287.016 117.518 292.371 115.694 295.016C88.7986 334.017 78.1942 354.643 78.1942 356.516C78.1942 357.924 81.829 362.086 85.6866 366.106C90.3184 370.933 98.1363 370.124 101.986 364.653L104.194 361.516C104.194 361.516 124.733 364.716 126.694 351.516C127.105 348.75 126.694 329.516 126.694 329.516C126.694 329.516 123.764 327.968 122.194 324.516C120.625 321.063 124.194 287.016 124.194 287.016Z" fill="white"/>
</g>
<defs>
<clipPath id="clip0">
<rect width="1920" height="720" fill="white"/>
</clipPath>
</defs>
</svg>
